<svg id="svg" xmlns="http://www.w3.org/2000/svg" xmlns:xlink="http://www.w3.org/1999/xlink" width="400" height="213.17157712305027" viewBox="0, 0, 400,213.17157712305027" version="1.1"><g id="svgg"><path id="path0" d="M71.217 19.151 C 71.127 19.389,71.093 59.203,71.142 107.626 L 71.231 195.667 203.899 195.754 L 336.568 195.841 336.568 107.279 L 336.568 18.718 203.975 18.718 C 98.220 18.718,71.349 18.805,71.217 19.151 M93.039 25.167 C 93.623 25.391,93.797 26.866,93.277 27.187 C 93.104 27.294,93.088 27.917,93.241 28.596 C 93.395 29.280,93.378 29.898,93.202 30.006 C 92.837 30.232,92.452 29.399,92.609 28.719 C 92.668 28.461,92.561 28.172,92.372 28.076 C 92.183 27.981,91.978 28.332,91.918 28.856 C 91.858 29.380,91.661 29.809,91.482 29.809 C 91.291 29.809,91.241 28.978,91.360 27.816 C 91.671 24.803,91.753 24.673,93.039 25.167 M95.841 25.303 C 95.958 25.494,95.830 25.650,95.555 25.650 C 95.280 25.650,94.973 25.962,94.874 26.343 C 94.756 26.794,94.863 27.036,95.180 27.036 C 95.448 27.036,95.667 27.192,95.667 27.383 C 95.667 27.574,95.433 27.730,95.147 27.730 C 94.395 27.730,94.472 29.371,95.234 29.570 C 95.606 29.668,95.471 29.744,94.884 29.769 L 93.928 29.809 94.133 27.816 C 94.425 24.981,95.062 24.044,95.841 25.303 M97.003 27.350 C 96.837 29.750,97.219 29.578,97.721 27.028 C 97.947 25.879,98.265 25.022,98.428 25.122 C 98.799 25.352,97.990 28.925,97.408 29.627 C 96.662 30.526,96.360 29.854,96.360 27.293 C 96.360 25.489,96.464 24.922,96.743 25.200 C 96.958 25.415,97.072 26.356,97.003 27.350 M100.607 27.643 C 100.513 28.834,100.299 29.809,100.132 29.809 C 99.770 29.809,99.744 28.775,100.050 26.545 C 100.370 24.207,100.809 25.072,100.607 27.643 M102.381 25.737 C 102.496 26.166,102.592 26.899,102.595 27.366 C 102.602 28.698,103.227 27.752,103.385 26.170 C 103.479 25.223,103.541 25.518,103.581 27.103 C 103.659 30.208,102.771 30.912,102.239 28.167 L 101.986 26.863 101.946 28.336 C 101.900 30.042,101.211 30.370,101.217 28.683 C 101.227 25.788,101.923 24.027,102.381 25.737 M106.412 25.303 C 106.412 25.494,106.179 25.650,105.893 25.650 C 105.488 25.650,105.373 26.112,105.373 27.730 C 105.373 29.054,105.229 29.809,104.978 29.809 C 104.705 29.809,104.642 29.165,104.772 27.730 C 104.924 26.049,104.863 25.650,104.453 25.650 C 104.174 25.650,104.042 25.494,104.159 25.303 C 104.277 25.113,104.832 24.957,105.393 24.957 C 105.954 24.957,106.412 25.113,106.412 25.303 M108.146 25.266 C 108.146 25.436,107.912 25.666,107.626 25.775 C 106.995 26.017,106.940 26.901,107.539 27.181 C 107.886 27.343,107.886 27.423,107.539 27.585 C 106.879 27.893,107.009 29.387,107.712 29.570 C 108.067 29.663,107.903 29.746,107.318 29.769 L 106.316 29.809 106.503 27.753 C 106.605 26.622,106.792 25.530,106.918 25.327 C 107.195 24.879,108.146 24.832,108.146 25.266 M109.717 26.256 C 110.086 28.480,110.379 28.672,110.496 26.767 C 110.558 25.762,110.717 25.005,110.850 25.087 C 110.983 25.169,111.040 26.264,110.976 27.522 C 110.838 30.237,110.111 30.664,109.590 28.336 L 109.260 26.863 109.223 28.336 C 109.185 29.846,108.492 30.467,108.492 28.991 C 108.492 25.734,109.322 23.881,109.717 26.256 M113.345 25.303 C 113.345 25.494,113.093 25.650,112.785 25.650 C 112.347 25.650,112.276 25.858,112.463 26.603 C 113.187 29.498,112.715 31.051,111.485 29.821 C 111.238 29.574,111.314 29.463,111.727 29.463 C 112.589 29.463,112.803 28.583,112.163 27.669 C 111.506 26.731,111.459 25.941,112.028 25.373 C 112.532 24.868,113.345 24.825,113.345 25.303 M114.385 27.383 C 114.385 28.769,114.236 29.809,114.038 29.809 C 113.650 29.809,113.577 27.695,113.908 26.040 C 114.245 24.353,114.385 24.746,114.385 27.383 M118.077 26.324 L 118.308 27.556 118.686 26.455 C 119.086 25.289,119.584 24.595,119.584 25.203 C 119.584 25.403,119.213 26.552,118.760 27.758 L 117.935 29.951 117.684 27.782 C 117.337 24.797,116.344 24.822,116.187 27.820 C 116.128 28.960,115.922 29.809,115.706 29.809 C 115.455 29.809,115.391 29.114,115.517 27.730 C 115.621 26.581,115.565 25.650,115.392 25.650 C 115.219 25.650,115.078 25.488,115.078 25.289 C 115.078 24.155,117.849 25.111,118.077 26.324 M92.201 26.170 C 92.201 26.456,92.189 26.803,92.175 26.941 C 92.161 27.079,92.317 27.248,92.522 27.317 C 92.727 27.385,92.894 27.038,92.894 26.545 C 92.894 26.053,92.738 25.650,92.548 25.650 C 92.357 25.650,92.201 25.884,92.201 26.170 M195.512 30.558 C 194.662 31.246,194.107 31.378,194.107 30.891 C 194.107 30.443,195.615 29.509,195.983 29.730 C 196.157 29.834,195.945 30.207,195.512 30.558 M206.857 29.756 C 207.103 29.911,207.203 30.298,207.080 30.617 C 206.622 31.813,200.347 31.268,200.347 30.033 C 200.347 29.511,206.086 29.266,206.857 29.756 M197.461 31.424 C 197.336 31.549,197.384 31.834,197.569 32.057 C 197.806 32.342,197.346 32.946,196.027 34.084 C 190.434 38.913,190.196 47.397,195.503 52.738 C 196.573 53.815,197.243 54.617,196.991 54.521 C 196.244 54.234,196.472 55.030,197.304 55.613 C 198.757 56.631,197.347 56.153,195.723 55.078 C 190.099 51.352,188.095 43.485,191.207 37.344 C 192.502 34.788,196.062 31.128,195.754 32.669 C 195.706 32.907,195.977 33.102,196.356 33.102 C 196.736 33.102,197.097 32.831,197.161 32.496 C 197.238 32.098,197.060 31.887,196.646 31.884 C 196.111 31.879,196.094 31.827,196.534 31.542 C 197.121 31.163,197.810 31.075,197.461 31.424 M109.359 32.582 C 109.359 32.837,109.125 33.108,108.839 33.186 C 108.377 33.313,108.377 33.287,108.839 32.955 C 109.301 32.624,109.301 32.541,108.839 32.209 C 108.377 31.878,108.377 31.852,108.839 31.978 C 109.125 32.056,109.359 32.328,109.359 32.582 M215.501 38.388 C 216.772 40.959,217.177 41.363,217.416 40.295 C 217.490 39.961,217.758 40.574,218.011 41.657 C 219.129 46.448,215.858 53.379,211.415 55.633 L 210.225 56.237 211.109 55.241 C 212.959 53.159,213.113 52.809,211.785 53.708 C 210.783 54.387,210.889 54.208,212.399 52.673 C 217.333 47.659,217.621 40.445,213.101 35.108 L 211.990 33.795 213.124 34.835 C 213.748 35.407,214.817 37.006,215.501 38.388 M171.722 38.698 C 171.842 39.011,171.869 39.339,171.782 39.426 C 171.506 39.701,170.884 39.148,170.884 38.628 C 170.884 37.948,171.452 37.995,171.722 38.698 M199.827 38.715 C 199.255 39.022,198.106 39.829,197.273 40.509 L 195.760 41.744 195.915 44.413 C 196.091 47.459,196.554 48.382,198.678 49.920 C 200.410 51.175,199.988 51.307,198.178 50.077 C 196.126 48.683,194.512 42.957,195.736 41.419 C 196.466 40.503,199.911 38.152,200.520 38.154 C 200.711 38.155,200.399 38.407,199.827 38.715 M208.675 38.727 C 212.582 41.458,213.213 42.735,212.456 46.383 C 212.010 48.535,209.748 51.308,208.451 51.292 C 208.009 51.287,208.169 51.102,208.950 50.717 C 211.440 49.490,212.962 45.718,212.164 42.753 C 211.790 41.364,211.424 41.010,208.013 38.737 C 207.514 38.404,207.266 38.131,207.462 38.130 C 207.658 38.129,208.204 38.398,208.675 38.727 M319.727 39.260 C 323.388 41.351,323.301 46.396,319.567 48.495 C 316.065 50.463,311.608 47.781,311.614 43.710 C 311.620 39.634,316.089 37.183,319.727 39.260 M95.212 40.677 C 95.289 40.754,95.244 42.240,95.113 43.979 L 94.875 47.140 91.631 47.140 L 88.388 47.140 88.388 45.805 C 88.388 45.070,88.292 43.549,88.174 42.425 L 87.960 40.381 91.516 40.459 C 93.472 40.502,95.135 40.600,95.212 40.677 M168.979 40.904 C 169.098 41.096,168.944 41.349,168.638 41.466 C 167.974 41.721,167.604 41.440,167.923 40.924 C 168.211 40.459,168.698 40.449,168.979 40.904 M235.109 42.635 C 235.009 43.016,234.790 43.328,234.622 43.328 C 234.270 43.328,234.205 42.167,234.537 41.835 C 234.939 41.433,235.294 41.929,235.109 42.635 M238.821 43.501 C 238.821 43.787,238.588 44.021,238.302 44.021 C 238.016 44.021,237.782 43.787,237.782 43.501 C 237.782 43.215,238.016 42.981,238.302 42.981 C 238.588 42.981,238.821 43.215,238.821 43.501 M319.237 47.343 C 319.237 47.955,319.984 47.848,320.198 47.205 C 320.273 46.979,320.088 46.794,319.786 46.794 C 319.484 46.794,319.237 47.041,319.237 47.343 M119.313 51.363 C 118.783 51.893,118.392 51.502,118.686 50.737 C 118.859 50.285,119.010 50.240,119.318 50.549 C 119.626 50.857,119.625 51.051,119.313 51.363 M289.695 50.888 C 289.772 51.118,289.514 51.300,289.110 51.300 C 288.390 51.300,288.174 50.936,288.627 50.484 C 288.948 50.163,289.526 50.382,289.695 50.888 M116.019 51.861 C 115.687 52.193,114.698 51.287,114.950 50.881 C 115.075 50.678,115.381 50.761,115.705 51.085 C 116.005 51.385,116.146 51.734,116.019 51.861 M311.552 52.184 C 311.381 53.640,310.572 53.697,310.572 52.253 C 310.572 51.602,310.679 50.962,310.809 50.832 C 311.235 50.406,311.668 51.194,311.552 52.184 M313.345 51.127 C 313.345 50.985,313.579 51.062,313.865 51.300 C 314.448 51.784,314.573 53.033,314.038 53.033 C 313.847 53.033,313.710 52.916,313.733 52.773 C 313.861 51.958,313.644 51.288,313.317 51.490 C 313.103 51.622,313.038 52.105,313.165 52.611 C 313.350 53.348,313.305 53.431,312.902 53.096 C 312.634 52.874,312.304 52.803,312.168 52.939 C 312.033 53.074,312.036 52.878,312.175 52.502 C 312.314 52.127,312.595 51.705,312.800 51.565 C 313.022 51.413,312.919 51.308,312.545 51.305 C 312.196 51.302,312.017 51.138,312.142 50.936 C 312.296 50.688,312.521 50.701,312.856 50.979 C 313.125 51.202,313.345 51.269,313.345 51.127 M89.359 51.369 C 89.638 51.648,89.775 51.660,89.775 51.406 C 89.775 51.197,90.165 51.049,90.641 51.077 C 91.630 51.134,91.614 51.110,91.186 51.911 C 91.010 52.242,90.774 52.804,90.662 53.159 C 90.432 53.891,89.428 53.348,89.428 52.491 C 89.428 52.240,89.248 51.923,89.028 51.787 C 88.808 51.651,88.710 51.680,88.811 51.853 C 88.912 52.025,88.869 52.478,88.716 52.860 C 88.499 53.400,88.432 53.266,88.413 52.253 C 88.387 50.903,88.649 50.659,89.359 51.369 M92.577 51.610 C 92.799 51.260,92.885 51.385,92.889 52.059 C 92.895 53.092,92.215 53.792,92.177 52.793 C 92.155 52.234,92.120 52.241,91.854 52.860 C 91.481 53.728,91.414 52.882,91.758 51.646 C 91.962 50.916,92.021 50.883,92.135 51.437 C 92.244 51.963,92.332 51.997,92.577 51.610 M93.806 52.335 C 93.831 53.095,93.714 53.631,93.546 53.527 C 93.176 53.298,93.134 50.953,93.501 50.953 C 93.644 50.953,93.781 51.575,93.806 52.335 M95.494 52.215 C 95.494 52.918,95.315 53.259,94.929 53.288 C 94.447 53.324,94.254 52.031,94.589 51.011 C 94.773 50.453,95.494 51.412,95.494 52.215 M206.508 51.552 C 205.798 51.626,204.551 51.627,203.735 51.554 C 202.920 51.481,203.501 51.420,205.026 51.419 C 206.551 51.417,207.218 51.477,206.508 51.552 M77.616 52.600 C 77.598 52.985,77.523 53.043,77.409 52.758 C 77.271 52.415,77.116 52.404,76.743 52.714 C 76.434 52.970,76.256 52.986,76.256 52.758 C 76.256 52.423,76.774 52.085,77.383 52.020 C 77.526 52.005,77.631 52.266,77.616 52.600 M134.193 56.469 C 134.013 56.581,133.811 57.062,133.744 57.539 C 133.662 58.120,133.403 58.406,132.958 58.406 C 132.034 58.406,131.871 57.646,132.737 57.372 C 133.210 57.221,133.449 56.849,133.449 56.260 C 133.449 55.500,133.525 55.438,133.985 55.820 C 134.284 56.068,134.376 56.355,134.193 56.469 M120.074 56.104 C 120.282 56.440,119.534 58.225,119.183 58.230 C 119.058 58.231,119.037 57.920,119.137 57.539 C 119.237 57.158,119.456 56.846,119.624 56.846 C 119.793 56.846,119.931 56.681,119.931 56.479 C 119.931 56.277,119.775 56.208,119.584 56.326 C 119.393 56.444,119.237 56.375,119.237 56.173 C 119.237 55.732,119.815 55.685,120.074 56.104 M123.950 56.206 C 124.103 56.454,124.045 56.512,123.797 56.359 C 123.534 56.197,123.397 56.416,123.397 56.999 C 123.397 57.981,124.074 58.245,124.117 57.279 C 124.135 56.898,124.211 56.838,124.324 57.117 C 124.541 57.659,123.786 58.646,123.358 58.381 C 123.000 58.160,122.942 56.377,123.281 56.037 C 123.594 55.724,123.663 55.742,123.950 56.206 M158.958 56.677 C 159.186 57.586,158.563 58.717,158.020 58.381 C 157.662 58.160,157.604 56.377,157.943 56.037 C 158.389 55.591,158.741 55.814,158.958 56.677 M160.663 56.145 C 160.548 56.332,160.613 56.784,160.809 57.149 C 161.074 57.645,161.034 57.920,160.651 58.238 C 160.294 58.535,160.139 58.546,160.139 58.275 C 160.139 58.061,160.326 57.886,160.555 57.886 C 160.878 57.886,160.878 57.793,160.555 57.470 C 160.040 56.956,160.007 55.806,160.506 55.806 C 160.708 55.806,160.778 55.959,160.663 56.145 M161.770 57.622 C 161.687 58.053,161.616 57.782,161.613 57.019 C 161.609 56.256,161.677 55.904,161.763 56.235 C 161.850 56.567,161.853 57.190,161.770 57.622 M167.272 57.177 C 167.287 57.930,167.170 58.467,167.012 58.369 C 166.529 58.071,166.710 55.800,167.215 55.806 C 167.231 55.806,167.257 56.423,167.272 57.177 M205.319 56.266 C 204.439 56.460,203.361 56.458,202.546 56.260 C 201.378 55.977,201.556 55.938,203.986 55.943 C 206.490 55.948,206.619 55.979,205.319 56.266 M241.531 56.965 C 241.592 57.478,241.786 57.808,241.962 57.699 C 242.138 57.591,242.556 57.660,242.892 57.853 C 243.375 58.132,243.270 58.177,242.379 58.071 C 241.762 57.997,241.166 58.084,241.055 58.264 C 240.703 58.833,240.208 58.228,240.208 57.230 C 240.208 55.526,241.335 55.301,241.531 56.965 M128.225 57.725 C 128.239 57.923,127.899 58.109,127.470 58.138 C 126.802 58.184,126.767 58.132,127.222 57.779 C 127.515 57.552,127.712 57.054,127.659 56.672 L 127.562 55.979 127.882 56.672 C 128.057 57.054,128.212 57.527,128.225 57.725 M158.059 56.999 C 158.059 57.486,158.215 57.886,158.406 57.886 C 158.596 57.886,158.752 57.583,158.752 57.213 C 158.752 56.843,158.596 56.444,158.406 56.326 C 158.209 56.204,158.059 56.496,158.059 56.999 M240.555 56.999 C 240.555 57.486,240.711 57.886,240.901 57.886 C 241.092 57.886,241.248 57.583,241.248 57.213 C 241.248 56.843,241.092 56.444,240.901 56.326 C 240.705 56.204,240.555 56.496,240.555 56.999 M244.021 57.539 C 244.185 57.539,244.408 57.227,244.517 56.846 C 244.684 56.258,244.701 56.271,244.627 56.932 C 244.508 58.009,243.516 57.937,243.444 56.846 C 243.394 56.082,243.407 56.072,243.555 56.759 C 243.647 57.188,243.857 57.539,244.021 57.539 M248.284 57.550 C 248.548 58.561,248.274 58.379,247.616 57.106 C 247.123 56.153,247.116 56.048,247.569 56.424 C 247.864 56.668,248.186 57.175,248.284 57.550 M281.773 57.712 L 281.754 58.406 281.456 57.712 C 281.011 56.676,281.011 55.810,281.456 56.499 C 281.641 56.785,281.783 57.331,281.773 57.712 M121.490 57.298 C 121.490 57.811,121.273 58.114,120.884 58.143 C 120.131 58.200,120.106 57.759,120.822 57.044 C 121.510 56.356,121.490 56.349,121.490 57.298 M77.962 57.452 C 77.943 57.875,77.878 57.916,77.747 57.586 C 77.633 57.301,77.473 57.251,77.341 57.461 C 77.205 57.678,76.955 57.628,76.676 57.327 C 76.303 56.925,76.375 56.846,77.109 56.846 C 77.727 56.846,77.981 57.027,77.962 57.452 M125.303 57.679 C 125.303 58.138,125.186 58.440,125.043 58.352 C 124.900 58.264,124.783 57.889,124.783 57.519 C 124.783 57.149,124.900 56.846,125.043 56.846 C 125.186 56.846,125.303 57.221,125.303 57.679 M281.104 57.972 C 281.107 58.115,280.953 58.232,280.763 58.232 C 280.572 58.232,280.418 57.881,280.421 57.452 C 280.426 56.708,281.088 57.212,281.104 57.972 M283.912 57.503 C 284.157 57.116,284.219 57.140,284.223 57.626 C 284.226 57.959,283.995 58.232,283.709 58.232 C 283.389 58.232,283.204 57.932,283.229 57.452 C 283.263 56.791,283.295 56.773,283.438 57.329 C 283.573 57.857,283.666 57.891,283.912 57.503 M286.974 57.626 C 286.956 58.147,286.881 58.233,286.749 57.886 C 286.640 57.600,286.380 57.251,286.170 57.111 C 285.935 56.954,286.021 56.854,286.395 56.851 C 286.803 56.847,286.993 57.102,286.974 57.626 M201.783 60.274 C 201.397 60.518,201.422 60.737,201.923 61.502 C 202.472 62.340,202.480 62.487,202.001 62.966 C 201.637 63.330,201.394 63.378,201.234 63.118 C 201.102 62.905,201.236 62.738,201.539 62.738 C 202.229 62.738,202.223 62.431,201.518 61.652 C 200.911 60.981,201.087 59.962,201.809 59.971 C 202.151 59.975,202.145 60.045,201.783 60.274 M203.022 62.300 C 202.942 62.827,202.875 62.478,202.872 61.525 C 202.869 60.572,202.935 60.141,203.017 60.567 C 203.099 60.993,203.101 61.773,203.022 62.300 M204.853 60.289 C 204.853 60.468,204.691 61.040,204.493 61.560 C 204.223 62.269,204.243 62.575,204.569 62.777 C 205.160 63.142,204.746 63.502,204.045 63.233 C 203.538 63.038,203.535 62.899,204.003 61.777 C 204.418 60.784,204.434 60.480,204.081 60.256 C 203.759 60.052,203.804 59.975,204.246 59.971 C 204.580 59.968,204.853 60.111,204.853 60.289 M206.326 60.195 C 206.088 60.291,205.893 60.591,205.893 60.861 C 205.893 61.131,206.088 61.364,206.326 61.379 C 206.672 61.401,206.672 61.442,206.326 61.581 C 206.088 61.678,205.893 61.964,205.893 62.218 C 205.893 62.473,206.088 62.750,206.326 62.835 C 206.564 62.920,206.646 63.112,206.508 63.260 C 205.953 63.855,205.353 62.748,205.485 61.372 C 205.583 60.337,205.769 59.973,206.189 59.993 C 206.549 60.010,206.599 60.085,206.326 60.195 M115.355 66.408 C 115.412 66.806,115.219 67.330,114.926 67.573 C 113.869 68.450,112.486 67.067,113.362 66.010 C 113.977 65.269,115.228 65.519,115.355 66.408 M117.528 66.060 C 118.098 66.746,117.554 67.764,116.617 67.764 C 116.051 67.764,115.835 66.924,116.083 65.685 C 116.160 65.301,117.101 65.545,117.528 66.060 M119.064 67.418 C 119.251 67.418,119.510 66.950,119.641 66.378 C 119.871 65.366,119.876 65.370,119.817 66.551 C 119.770 67.513,119.614 67.764,119.064 67.764 C 118.514 67.764,118.358 67.513,118.311 66.551 C 118.253 65.370,118.257 65.366,118.488 66.378 C 118.618 66.950,118.877 67.418,119.064 67.418 M121.036 66.724 C 121.114 67.392,121.053 67.938,120.901 67.938 C 120.749 67.938,120.624 67.392,120.624 66.724 C 120.624 66.057,120.685 65.511,120.759 65.511 C 120.834 65.511,120.958 66.057,121.036 66.724 M123.561 66.534 C 124.228 67.823,124.232 68.140,123.574 67.594 C 123.290 67.359,123.143 67.028,123.248 66.858 C 123.598 66.292,122.959 66.543,122.487 67.158 C 122.086 67.679,122.073 67.606,122.396 66.638 C 122.855 65.261,122.901 65.256,123.561 66.534 M125.134 66.027 C 124.898 66.310,124.796 66.778,124.907 67.067 C 125.018 67.355,124.975 67.591,124.812 67.591 C 124.649 67.591,124.447 67.123,124.363 66.551 C 124.238 65.699,124.332 65.511,124.886 65.511 C 125.445 65.511,125.487 65.600,125.134 66.027 M126.068 67.327 C 125.985 67.758,125.914 67.487,125.911 66.724 C 125.907 65.962,125.975 65.609,126.061 65.940 C 126.148 66.272,126.151 66.896,126.068 67.327 M128.896 66.109 C 129.339 66.900,128.775 67.938,127.903 67.938 C 126.993 67.938,126.326 66.678,126.881 66.009 C 127.445 65.330,128.490 65.382,128.896 66.109 M131.467 66.151 C 131.586 65.522,131.632 65.593,131.669 66.464 C 131.720 67.696,131.362 67.897,130.648 67.037 C 130.231 66.535,130.165 66.543,129.937 67.124 C 129.753 67.591,129.678 67.442,129.660 66.577 L 129.636 65.390 130.474 66.178 L 131.312 66.965 131.467 66.151 M276.673 65.807 C 276.312 66.036,276.325 66.177,276.739 66.520 C 277.325 67.006,277.111 67.938,276.413 67.938 C 276.159 67.938,275.838 67.755,275.700 67.532 C 275.535 67.264,275.634 67.197,275.992 67.335 C 276.844 67.662,277.020 67.186,276.248 66.645 C 275.477 66.105,275.629 65.508,276.537 65.517 C 276.977 65.521,277.011 65.593,276.673 65.807 M279.704 66.009 C 280.016 66.385,280.021 66.688,279.723 67.243 C 279.276 68.079,277.974 68.080,277.700 67.244 C 277.555 66.799,277.612 66.792,278.107 67.200 C 278.800 67.772,279.801 67.159,279.492 66.352 C 279.278 65.795,277.990 65.668,277.990 66.205 C 277.990 66.395,277.815 66.551,277.601 66.551 C 277.332 66.551,277.345 66.390,277.643 66.031 C 278.189 65.373,279.168 65.363,279.704 66.009 M281.181 65.746 C 280.890 65.863,280.847 66.064,281.060 66.325 C 281.272 66.584,281.216 66.881,280.901 67.171 C 280.494 67.547,280.416 67.450,280.416 66.565 C 280.416 65.782,280.572 65.518,281.023 65.539 C 281.408 65.556,281.466 65.631,281.181 65.746 M282.912 65.927 C 282.588 66.251,282.403 66.251,282.080 65.927 C 281.756 65.604,281.849 65.511,282.496 65.511 C 283.143 65.511,283.235 65.604,282.912 65.927 M284.518 65.745 C 283.598 65.988,283.498 66.832,284.320 67.408 C 284.933 67.837,284.966 67.938,284.491 67.938 C 283.650 67.938,283.023 66.649,283.554 66.009 C 283.781 65.735,284.221 65.529,284.531 65.551 C 285.038 65.588,285.037 65.607,284.518 65.745 M286.426 67.703 C 286.698 67.897,286.660 67.945,286.308 67.851 C 285.988 67.765,285.770 67.255,285.740 66.524 C 285.695 65.438,285.705 65.425,285.858 66.377 C 285.949 66.948,286.205 67.545,286.426 67.703 M287.241 67.158 C 287.153 67.491,287.082 67.218,287.082 66.551 C 287.082 65.884,287.153 65.611,287.241 65.945 C 287.328 66.278,287.328 66.824,287.241 67.158 M289.271 65.884 C 289.398 66.090,289.173 66.564,288.772 66.938 L 288.042 67.618 288.042 66.565 C 288.042 65.507,288.784 65.096,289.271 65.884 M110.919 66.176 C 110.919 66.736,110.506 67.591,110.236 67.591 C 110.092 67.591,110.049 67.201,110.140 66.724 C 110.295 65.914,110.919 65.475,110.919 66.176 M112.516 67.735 C 112.430 67.942,112.347 67.838,112.332 67.504 C 112.301 66.806,111.744 66.688,111.515 67.331 C 111.430 67.569,111.250 67.662,111.114 67.537 C 110.979 67.412,111.149 66.983,111.492 66.582 L 112.115 65.855 112.393 66.606 C 112.546 67.020,112.601 67.528,112.516 67.735 M113.471 66.375 C 113.351 66.688,113.419 67.111,113.622 67.314 C 114.150 67.842,115.151 67.359,115.013 66.643 C 114.859 65.845,113.749 65.652,113.471 66.375 M116.464 66.799 C 116.464 67.666,116.509 67.695,117.025 67.179 C 117.334 66.870,117.481 66.447,117.352 66.238 C 116.926 65.549,116.464 65.841,116.464 66.799 M127.094 66.352 C 126.805 67.107,127.775 67.782,128.402 67.261 C 129.033 66.738,128.720 65.858,127.903 65.858 C 127.562 65.858,127.198 66.080,127.094 66.352 M77.296 70.017 C 76.868 70.294,76.863 70.354,77.267 70.359 C 77.538 70.362,77.677 70.446,77.577 70.545 C 77.477 70.645,77.126 70.624,76.797 70.497 C 76.182 70.261,76.660 69.681,77.470 69.681 C 77.660 69.681,77.582 69.833,77.296 70.017 M315.738 70.715 C 310.198 71.652,307.714 77.379,311.102 81.405 C 311.867 82.313,311.897 82.462,311.405 82.870 C 310.947 83.250,310.876 83.242,310.971 82.824 C 311.034 82.548,310.735 81.758,310.308 81.068 C 307.512 76.551,310.839 70.256,315.945 70.405 L 317.331 70.445 315.738 70.715 M204.880 72.790 C 204.800 73.076,204.571 74.129,204.372 75.130 C 203.924 77.385,203.618 77.435,203.298 75.303 C 203.162 74.398,202.916 73.404,202.751 73.096 C 202.342 72.332,202.721 72.045,203.974 72.167 C 204.715 72.240,204.983 72.424,204.880 72.790 M318.457 73.339 C 318.127 73.669,317.465 73.134,317.711 72.736 C 317.857 72.499,318.051 72.505,318.300 72.754 C 318.504 72.958,318.575 73.222,318.457 73.339 M201.271 73.237 C 201.271 73.925,203.159 76.987,203.716 77.200 C 204.398 77.462,207.354 74.526,207.093 73.846 C 206.983 73.558,207.283 73.692,207.770 74.149 C 210.166 76.401,209.485 80.603,206.462 82.214 C 205.805 82.564,205.771 82.546,206.172 82.060 C 206.556 81.594,206.434 81.247,205.359 79.750 C 204.257 78.216,203.120 77.455,203.120 78.251 C 203.120 78.395,202.499 79.172,201.741 79.977 L 200.361 81.441 201.307 81.955 C 201.827 82.237,202.097 82.474,201.906 82.480 C 199.230 82.578,197.336 77.614,199.005 74.876 C 200.049 73.163,201.271 72.279,201.271 73.237 M114.038 76.430 C 114.038 76.716,113.882 76.950,113.692 76.950 C 113.501 76.950,113.345 76.716,113.345 76.430 C 113.345 76.144,113.501 75.910,113.692 75.910 C 113.882 75.910,114.038 76.144,114.038 76.430 M184.990 76.623 C 184.833 77.224,184.885 77.268,185.322 76.905 C 185.740 76.558,185.903 76.571,186.156 76.972 C 186.938 78.207,186.210 79.462,185.197 78.626 C 184.693 78.210,184.678 78.243,185.051 78.943 C 185.431 79.657,185.391 79.723,184.575 79.723 C 183.764 79.723,183.720 79.653,184.086 78.943 C 184.417 78.299,184.407 78.239,184.029 78.596 C 183.776 78.834,183.367 79.029,183.120 79.029 C 182.432 79.029,182.750 78.193,183.536 77.937 C 184.182 77.727,184.176 77.710,183.449 77.678 C 182.634 77.641,182.409 77.151,183.031 76.767 C 183.230 76.644,183.645 76.752,183.954 77.007 C 184.458 77.422,184.473 77.390,184.100 76.690 C 183.729 75.994,183.765 75.910,184.430 75.910 C 185.012 75.910,185.135 76.066,184.990 76.623 M195.307 78.012 C 195.040 78.444,188.908 78.358,188.908 77.923 C 188.908 77.769,190.399 77.643,192.221 77.643 C 194.477 77.643,195.462 77.761,195.307 78.012 M207.799 77.990 C 207.661 78.213,207.703 78.553,207.894 78.743 C 208.125 78.974,208.324 78.954,208.492 78.683 C 208.631 78.459,208.588 78.120,208.397 77.929 C 208.166 77.698,207.967 77.718,207.799 77.990 M204.159 79.659 C 204.159 80.173,204.305 81.100,204.482 81.718 C 204.802 82.835,204.797 82.842,203.573 82.842 C 202.632 82.842,202.424 82.740,202.692 82.409 C 202.884 82.171,203.152 81.157,203.287 80.156 C 203.535 78.307,204.159 77.951,204.159 79.659 M288.995 80.618 C 288.664 80.949,288.002 80.413,288.248 80.015 C 288.395 79.778,288.589 79.784,288.838 80.033 C 289.042 80.237,289.112 80.501,288.995 80.618 M242.568 80.442 C 242.500 80.647,242.295 80.815,242.114 80.815 C 241.933 80.815,241.729 80.647,241.661 80.442 C 241.593 80.237,241.797 80.069,242.114 80.069 C 242.432 80.069,242.636 80.237,242.568 80.442 M240.901 82.317 C 240.901 82.369,240.676 82.598,240.401 82.826 C 239.992 83.165,239.910 83.116,239.952 82.560 C 239.991 82.039,240.901 81.806,240.901 82.317 M286.378 82.912 C 286.054 83.235,285.962 83.143,285.962 82.496 C 285.962 81.849,286.054 81.756,286.378 82.080 C 286.701 82.403,286.701 82.588,286.378 82.912 M89.343 85.789 C 89.252 86.265,89.312 86.655,89.476 86.655 C 90.080 86.655,89.753 87.202,89.120 87.250 C 88.480 87.298,88.445 86.947,88.928 85.355 C 89.171 84.557,89.511 84.912,89.343 85.789 M91.799 86.222 C 91.744 87.502,91.741 87.504,91.604 86.395 C 91.513 85.663,91.274 85.269,90.921 85.269 C 90.493 85.269,90.419 85.528,90.574 86.482 C 90.804 87.898,90.591 88.063,90.122 86.831 C 89.677 85.660,90.026 84.922,91.025 84.922 C 91.762 84.922,91.848 85.066,91.799 86.222 M93.241 85.269 C 93.241 85.459,93.082 85.615,92.888 85.615 C 92.684 85.615,92.627 85.982,92.752 86.482 C 92.886 87.016,92.822 87.348,92.585 87.348 C 92.174 87.348,92.047 85.538,92.432 85.153 C 92.777 84.808,93.241 84.874,93.241 85.269 M94.829 86.320 C 94.859 87.790,94.449 87.783,94.184 86.308 C 94.032 85.459,94.028 85.461,93.981 86.395 C 93.928 87.462,93.241 87.727,93.241 86.680 C 93.241 86.036,94.081 84.922,94.565 84.922 C 94.695 84.923,94.813 85.551,94.829 86.320 M116.399 86.222 C 116.340 86.937,116.135 87.522,115.945 87.522 C 115.754 87.522,115.550 86.937,115.490 86.222 C 115.407 85.210,115.507 84.922,115.945 84.922 C 116.382 84.922,116.482 85.210,116.399 86.222 M119.042 85.233 C 119.147 85.403,119.002 85.988,118.718 86.532 L 118.202 87.522 118.200 86.222 C 118.198 85.005,118.605 84.526,119.042 85.233 M144.541 85.289 C 144.541 85.491,144.385 85.560,144.194 85.442 C 144.003 85.324,143.847 85.393,143.847 85.595 C 143.847 85.797,144.003 85.962,144.194 85.962 C 144.385 85.962,144.502 86.157,144.454 86.395 C 144.406 86.635,144.702 86.828,145.116 86.828 C 145.528 86.828,145.947 86.910,146.048 87.010 C 146.150 87.110,145.637 87.202,144.910 87.214 C 143.624 87.236,143.075 86.288,143.734 85.182 C 143.965 84.793,144.541 84.869,144.541 85.289 M146.967 86.135 C 146.967 86.802,146.906 87.348,146.832 87.348 C 146.757 87.348,146.633 86.802,146.555 86.135 C 146.477 85.468,146.538 84.922,146.690 84.922 C 146.842 84.922,146.967 85.468,146.967 86.135 M181.484 86.135 C 181.496 86.802,181.377 87.348,181.220 87.348 C 181.064 87.348,180.936 86.802,180.936 86.135 C 180.936 85.468,181.055 84.922,181.200 84.922 C 181.345 84.922,181.473 85.468,181.484 86.135 M183.189 86.183 C 183.189 86.863,183.007 87.228,182.655 87.254 C 182.245 87.285,182.154 87.016,182.262 86.093 C 182.432 84.636,183.189 84.710,183.189 86.183 M184.256 86.293 C 184.271 87.046,184.154 87.583,183.996 87.485 C 183.638 87.264,183.613 84.922,183.969 84.922 C 184.112 84.923,184.241 85.539,184.256 86.293 M185.317 85.442 C 185.207 85.728,185.287 85.962,185.495 85.962 C 185.765 85.962,185.762 86.096,185.487 86.427 C 185.275 86.683,185.204 86.995,185.329 87.120 C 185.455 87.246,185.376 87.348,185.153 87.348 C 184.727 87.348,184.585 85.548,184.980 85.153 C 185.371 84.762,185.526 84.896,185.317 85.442 M186.966 85.702 C 186.825 86.131,186.728 86.772,186.750 87.128 C 186.773 87.483,186.683 87.664,186.550 87.531 C 186.105 87.085,186.283 84.922,186.765 84.922 C 187.083 84.922,187.144 85.158,186.966 85.702 M188.069 86.302 C 188.090 87.311,187.989 87.592,187.695 87.348 C 187.294 87.016,187.403 84.922,187.821 84.922 C 187.942 84.923,188.054 85.544,188.069 86.302 M201.733 85.289 C 201.733 85.491,201.577 85.560,201.386 85.442 C 201.189 85.320,201.040 85.618,201.040 86.135 C 201.040 86.721,201.179 86.957,201.431 86.801 C 201.656 86.662,201.763 86.738,201.683 86.979 C 201.381 87.884,200.861 87.457,200.759 86.222 C 200.677 85.229,200.779 84.922,201.192 84.922 C 201.490 84.922,201.733 85.087,201.733 85.289 M202.953 85.608 C 202.874 86.679,202.426 86.881,202.426 85.846 C 202.426 85.338,202.556 84.922,202.715 84.922 C 202.874 84.922,202.981 85.231,202.953 85.608 M203.986 86.102 C 203.986 86.751,203.869 87.210,203.726 87.121 C 203.275 86.843,203.477 84.922,203.957 84.922 C 203.973 84.922,203.986 85.453,203.986 86.102 M240.682 86.020 C 240.500 87.586,240.208 87.693,240.208 86.193 C 240.208 85.494,240.343 84.922,240.509 84.922 C 240.675 84.922,240.753 85.416,240.682 86.020 M241.795 86.293 C 241.810 87.046,241.693 87.583,241.535 87.485 C 241.053 87.187,241.233 84.916,241.739 84.922 C 241.755 84.923,241.780 85.539,241.795 86.293 M243.125 85.702 C 243.078 86.131,243.026 86.686,243.010 86.936 C 242.994 87.185,242.851 87.309,242.692 87.211 C 242.352 87.001,242.598 84.922,242.962 84.922 C 243.099 84.922,243.173 85.273,243.125 85.702 M244.919 85.793 C 245.148 86.702,244.525 87.833,243.982 87.497 C 243.624 87.276,243.566 85.493,243.905 85.153 C 244.351 84.708,244.703 84.930,244.919 85.793 M246.294 85.302 C 246.424 85.511,246.277 85.934,245.968 86.243 C 245.651 86.560,245.407 86.634,245.407 86.412 C 245.407 86.196,245.602 85.941,245.841 85.844 C 246.167 85.712,246.145 85.577,245.754 85.300 C 245.434 85.074,245.393 84.931,245.647 84.927 C 245.874 84.924,246.165 85.093,246.294 85.302 M248.716 86.286 C 248.725 87.036,248.608 87.572,248.456 87.478 C 247.983 87.185,248.174 84.904,248.671 84.923 C 248.687 84.924,248.707 85.537,248.716 86.286 M269.983 86.857 C 270.002 87.064,269.783 87.233,269.497 87.233 C 268.924 87.233,268.870 86.912,269.223 85.615 L 269.458 84.749 269.703 85.615 C 269.838 86.092,269.964 86.651,269.983 86.857 M272.121 86.222 L 271.938 87.522 271.820 86.374 C 271.750 85.684,271.540 85.280,271.294 85.361 C 270.772 85.533,270.538 87.002,271.033 87.002 C 271.237 87.002,271.404 87.177,271.404 87.391 C 271.404 87.660,271.243 87.646,270.884 87.348 C 269.839 86.481,270.277 84.922,271.565 84.922 C 272.221 84.922,272.284 85.069,272.121 86.222 M274.177 86.742 C 274.177 87.745,273.489 87.081,273.438 86.028 C 273.398 85.211,273.361 85.246,273.137 86.308 L 272.882 87.522 272.836 86.453 C 272.811 85.865,272.903 85.271,273.041 85.134 C 273.377 84.798,274.177 85.931,274.177 86.742 M275.390 86.292 C 275.390 87.197,275.256 87.555,274.959 87.441 C 274.694 87.340,274.608 86.957,274.737 86.446 C 274.863 85.944,274.793 85.615,274.561 85.615 C 273.925 85.615,274.129 85.073,274.783 85.024 C 275.262 84.988,275.390 85.254,275.390 86.292 M289.515 85.152 C 288.990 85.363,288.931 87.002,289.449 87.002 C 289.650 87.002,289.718 87.160,289.598 87.354 C 289.232 87.945,288.735 87.364,288.735 86.346 C 288.735 85.310,288.977 84.906,289.573 84.949 C 289.782 84.965,289.757 85.054,289.515 85.152 M311.958 85.289 C 311.958 85.491,311.802 85.560,311.612 85.442 C 311.421 85.324,311.265 85.393,311.265 85.595 C 311.265 85.797,311.410 85.962,311.586 85.962 C 311.763 85.962,311.977 86.235,312.061 86.568 C 312.163 86.970,312.308 86.771,312.490 85.978 C 312.720 84.981,312.808 84.894,313.013 85.458 C 313.148 85.831,313.124 86.306,312.958 86.514 C 312.793 86.722,312.732 86.966,312.823 87.057 C 312.913 87.148,312.542 87.222,311.996 87.222 C 311.045 87.222,310.590 86.125,311.151 85.182 C 311.383 84.793,311.958 84.869,311.958 85.289 M317.286 86.251 C 317.356 86.854,317.278 87.348,317.112 87.348 C 316.947 87.348,316.811 86.776,316.811 86.077 C 316.811 84.578,317.103 84.684,317.286 86.251 M121.347 85.770 C 121.521 85.663,121.664 85.740,121.664 85.941 C 121.664 86.143,121.519 86.308,121.343 86.308 C 121.166 86.308,120.950 86.581,120.863 86.915 C 120.776 87.249,120.699 86.976,120.691 86.308 C 120.684 85.641,120.758 85.291,120.854 85.531 C 120.951 85.770,121.172 85.878,121.347 85.770 M205.868 86.857 C 205.882 87.064,205.659 87.233,205.373 87.233 C 204.787 87.233,204.772 87.165,205.089 85.980 C 205.317 85.129,205.791 85.662,205.868 86.857 M206.979 86.395 C 206.866 87.099,206.748 87.286,206.663 86.895 C 206.534 86.299,206.770 85.269,207.035 85.269 C 207.103 85.269,207.078 85.776,206.979 86.395 M244.021 86.115 C 244.021 86.603,244.177 87.002,244.367 87.002 C 244.558 87.002,244.714 86.699,244.714 86.329 C 244.714 85.959,244.558 85.560,244.367 85.442 C 244.171 85.320,244.021 85.612,244.021 86.115 M250.015 85.851 C 249.916 86.107,250.048 86.588,250.308 86.919 C 250.729 87.457,250.718 87.473,250.207 87.074 C 249.739 86.708,249.606 86.708,249.478 87.074 C 249.393 87.320,249.339 87.041,249.358 86.454 C 249.377 85.866,249.574 85.385,249.794 85.385 C 250.014 85.384,250.113 85.594,250.015 85.851 M291.137 86.857 C 291.150 87.064,290.927 87.233,290.641 87.233 C 290.355 87.233,290.121 87.103,290.121 86.944 C 290.121 86.785,290.263 86.655,290.435 86.655 C 290.608 86.655,290.683 86.304,290.602 85.875 C 290.464 85.148,290.476 85.143,290.783 85.789 C 290.964 86.170,291.123 86.651,291.137 86.857 M293.576 86.981 C 293.584 87.333,293.437 87.282,293.079 86.808 C 292.799 86.438,292.565 85.910,292.559 85.636 C 292.551 85.284,292.698 85.335,293.057 85.809 C 293.336 86.179,293.570 86.707,293.576 86.981 M314.379 85.644 C 314.382 85.374,314.458 85.226,314.547 85.315 C 314.636 85.404,314.571 85.937,314.403 86.499 C 314.235 87.062,314.084 87.261,314.068 86.943 C 314.052 86.625,313.945 86.079,313.832 85.730 C 313.661 85.202,313.689 85.183,314.000 85.615 C 314.310 86.045,314.375 86.050,314.379 85.644 M319.792 86.834 C 319.843 87.314,319.739 87.617,319.561 87.507 C 319.383 87.397,319.237 86.901,319.237 86.404 C 319.237 85.297,319.663 85.627,319.792 86.834 M247.620 86.937 C 247.700 87.068,247.219 87.194,246.550 87.218 C 245.882 87.242,245.501 87.158,245.704 87.033 C 246.221 86.713,247.444 86.652,247.620 86.937 M255.286 93.411 C 257.955 93.695,261.427 93.928,263.002 93.930 L 265.866 93.934 265.689 95.321 C 265.591 96.083,265.434 97.318,265.339 98.065 C 265.243 98.811,264.893 99.920,264.559 100.528 L 263.951 101.635 259.445 101.443 C 250.576 101.066,238.994 99.062,239.346 97.965 C 239.477 97.559,239.664 96.252,239.763 95.061 L 239.942 92.894 245.188 92.895 C 248.073 92.895,252.617 93.128,255.286 93.411 M242.288 93.997 L 241.421 94.730 242.452 94.479 C 243.427 94.242,243.452 94.263,242.929 94.861 C 242.124 95.783,241.520 97.054,241.887 97.054 C 242.061 97.054,242.397 96.586,242.634 96.014 C 242.871 95.442,243.202 94.974,243.370 94.974 C 243.537 94.974,243.674 94.584,243.674 94.107 C 243.674 93.059,243.420 93.039,242.288 93.997 M248.854 96.744 C 248.439 97.519,248.949 98.498,249.474 97.936 C 249.620 97.780,249.554 97.585,249.326 97.504 C 249.099 97.422,248.998 97.133,249.103 96.860 C 249.207 96.587,249.432 96.451,249.603 96.556 C 249.774 96.662,249.913 96.583,249.913 96.381 C 249.913 95.755,249.264 95.977,248.854 96.744 M245.664 97.430 C 245.329 97.625,244.876 97.674,244.658 97.539 C 244.412 97.387,244.355 97.446,244.508 97.693 C 244.851 98.249,245.586 98.193,246.101 97.574 C 246.602 96.970,246.508 96.939,245.664 97.430 M85.615 97.920 C 85.615 98.206,85.303 98.752,84.922 99.133 L 84.229 99.827 84.229 98.614 C 84.229 97.631,84.361 97.400,84.922 97.400 C 85.307 97.400,85.615 97.631,85.615 97.920 M87.524 97.750 C 87.643 97.943,87.430 98.494,87.052 98.975 C 86.266 99.974,85.943 99.736,86.207 98.352 C 86.388 97.408,87.109 97.079,87.524 97.750 M89.168 97.630 C 88.930 97.726,88.735 97.957,88.735 98.143 C 88.735 98.329,88.891 98.385,89.081 98.267 C 89.272 98.149,89.428 98.205,89.428 98.391 C 89.428 98.577,89.233 98.808,88.995 98.905 C 88.668 99.037,88.689 99.177,89.081 99.472 C 89.520 99.802,89.493 99.847,88.908 99.756 C 87.806 99.584,87.704 97.390,88.800 97.428 C 89.241 97.443,89.406 97.534,89.168 97.630 M91.902 97.643 C 91.503 97.802,91.503 97.878,91.902 98.136 C 92.232 98.349,92.260 98.518,91.993 98.700 C 91.783 98.843,91.523 99.194,91.414 99.480 C 91.305 99.766,91.204 99.415,91.189 98.700 C 91.167 97.673,91.288 97.406,91.768 97.428 C 92.191 97.447,92.231 97.512,91.902 97.643 M93.139 99.216 C 93.057 99.647,92.986 99.376,92.982 98.614 C 92.978 97.851,93.046 97.498,93.132 97.830 C 93.219 98.161,93.222 98.785,93.139 99.216 M94.745 99.560 C 95.006 99.726,94.935 99.818,94.541 99.821 C 94.061 99.826,93.945 99.555,93.986 98.527 C 94.033 97.348,94.052 97.324,94.191 98.266 C 94.275 98.837,94.524 99.420,94.745 99.560 M96.080 98.611 C 95.915 100.028,95.467 99.939,95.247 98.444 C 95.131 97.649,95.228 97.400,95.658 97.400 C 96.097 97.400,96.190 97.666,96.080 98.611 M97.656 97.640 C 97.320 97.728,97.136 97.946,97.247 98.125 C 97.358 98.305,97.593 98.362,97.771 98.252 C 97.948 98.142,98.094 98.218,98.094 98.420 C 98.094 98.622,97.821 98.792,97.487 98.798 C 96.938 98.808,96.944 98.857,97.553 99.318 C 98.211 99.815,98.209 99.827,97.467 99.827 C 96.864 99.827,96.707 99.624,96.707 98.845 C 96.707 97.715,96.945 97.384,97.718 97.441 C 98.154 97.472,98.141 97.514,97.656 97.640 M100.036 98.712 C 100.081 99.600,99.997 99.765,99.647 99.475 C 99.324 99.207,99.151 99.229,99.021 99.552 C 98.922 99.799,98.829 99.404,98.814 98.675 C 98.778 96.907,99.947 96.943,100.036 98.712 M211.609 97.743 C 211.731 97.939,211.592 97.998,211.283 97.879 C 210.987 97.766,210.745 97.845,210.745 98.057 C 210.745 98.268,210.940 98.443,211.179 98.446 C 211.478 98.449,211.494 98.529,211.230 98.705 C 211.021 98.846,210.760 99.194,210.651 99.480 C 210.542 99.766,210.441 99.415,210.426 98.700 C 210.399 97.433,211.078 96.884,211.609 97.743 M214.385 98.614 C 214.385 99.537,214.269 99.653,213.350 99.653 C 212.279 99.653,211.858 98.959,212.274 97.877 C 212.674 96.834,214.385 97.431,214.385 98.614 M216.010 97.637 C 215.654 97.779,215.681 97.957,216.131 98.454 C 216.744 99.132,216.562 99.827,215.771 99.827 C 215.508 99.827,215.185 99.654,215.055 99.443 C 214.895 99.185,215.059 99.136,215.555 99.293 C 216.382 99.556,216.582 98.973,215.771 98.661 C 215.048 98.384,215.118 97.394,215.858 97.428 C 216.254 97.446,216.307 97.518,216.010 97.637 M218.065 98.180 C 217.907 98.609,217.846 99.155,217.930 99.393 C 218.013 99.632,217.930 99.827,217.744 99.827 C 217.559 99.827,217.343 99.281,217.265 98.614 C 217.150 97.630,217.240 97.400,217.739 97.400 C 218.231 97.400,218.296 97.556,218.065 98.180 M220.692 97.643 C 220.196 97.771,220.151 97.906,220.475 98.296 C 220.736 98.611,220.752 98.787,220.518 98.787 C 220.318 98.787,220.083 99.060,219.996 99.393 C 219.909 99.727,219.820 99.415,219.798 98.700 C 219.762 97.560,219.853 97.405,220.537 97.441 C 221.152 97.472,221.185 97.515,220.692 97.643 M221.736 99.216 C 221.653 99.647,221.582 99.376,221.578 98.614 C 221.574 97.851,221.642 97.498,221.729 97.830 C 221.815 98.161,221.819 98.785,221.736 99.216 M223.342 99.560 C 223.602 99.726,223.531 99.818,223.137 99.821 C 222.657 99.826,222.541 99.555,222.582 98.527 C 222.629 97.348,222.648 97.324,222.787 98.266 C 222.871 98.837,223.120 99.420,223.342 99.560 M224.638 98.700 C 224.464 99.950,224.453 99.960,224.329 98.961 C 224.259 98.390,224.020 97.807,223.799 97.667 C 223.551 97.509,223.669 97.409,224.107 97.406 C 224.729 97.401,224.795 97.561,224.638 98.700 M226.343 97.779 C 225.917 98.080,225.908 98.180,226.296 98.335 C 226.695 98.495,226.695 98.572,226.296 98.829 C 225.903 99.082,225.911 99.191,226.343 99.475 C 226.793 99.770,226.786 99.817,226.285 99.821 C 225.604 99.828,225.370 99.289,225.579 98.193 C 225.664 97.749,225.980 97.403,226.297 97.406 C 226.792 97.410,226.798 97.457,226.343 97.779 M228.632 98.712 C 228.677 99.600,228.593 99.765,228.243 99.475 C 227.921 99.207,227.747 99.229,227.617 99.552 C 227.519 99.799,227.425 99.404,227.410 98.675 C 227.374 96.907,228.543 96.943,228.632 98.712 M260.324 98.071 C 260.109 98.473,260.048 98.987,260.188 99.213 C 260.349 99.473,260.543 99.252,260.713 98.617 C 261.045 97.372,260.847 97.094,260.324 98.071 M212.605 98.265 C 212.485 98.577,212.552 99.000,212.756 99.203 C 213.284 99.731,214.284 99.248,214.146 98.532 C 213.993 97.734,212.882 97.541,212.605 98.265 M262.738 98.473 C 262.738 98.645,262.889 98.787,263.074 98.787 C 263.259 98.787,263.320 99.021,263.210 99.307 C 262.924 100.052,263.342 99.949,263.758 99.172 C 264.040 98.644,263.975 98.482,263.423 98.338 C 263.047 98.239,262.738 98.300,262.738 98.473 M77.962 103.227 C 77.944 103.610,77.873 103.658,77.755 103.365 C 77.620 103.028,77.459 103.014,77.105 103.308 C 76.581 103.743,75.783 103.432,76.101 102.917 C 76.213 102.736,76.439 102.671,76.603 102.773 C 76.767 102.875,77.001 102.797,77.123 102.600 C 77.432 102.100,77.995 102.520,77.962 103.227 M77.616 104.538 C 77.444 104.746,77.340 104.982,77.386 105.062 C 77.432 105.142,77.296 105.011,77.085 104.770 C 76.629 104.252,76.122 104.181,76.430 104.679 C 76.548 104.870,76.479 105.026,76.277 105.026 C 75.885 105.026,75.783 104.575,76.103 104.255 C 76.486 103.873,77.942 104.145,77.616 104.538 M154.636 106.019 C 157.095 107.578,158.031 110.360,156.858 112.628 C 156.229 113.844,154.390 115.426,153.613 115.419 C 153.184 115.415,153.148 115.341,153.475 115.134 C 153.845 114.899,152.482 110.919,152.032 110.919 C 151.745 110.919,152.329 115.300,152.644 115.506 C 153.348 115.967,150.783 115.782,149.596 115.286 C 148.569 114.857,148.368 114.865,147.874 115.360 C 147.566 115.668,147.314 115.747,147.314 115.536 C 147.314 115.325,147.571 115.053,147.886 114.933 C 148.396 114.737,148.380 114.631,147.734 113.942 C 145.072 111.107,146.643 106.286,150.529 105.363 C 152.452 104.906,153.025 104.997,154.636 106.019 M283.014 106.016 C 285.288 107.344,286.166 110.385,284.959 112.752 C 284.599 113.459,284.438 114.038,284.602 114.038 C 284.766 114.038,284.810 114.272,284.701 114.558 C 284.460 115.186,283.829 115.255,283.908 114.645 C 284.044 113.599,283.845 112.998,283.362 112.998 C 282.635 112.998,282.709 113.958,283.449 114.119 C 284.511 114.349,281.800 115.768,280.295 115.770 C 275.612 115.774,272.917 110.076,276.168 107.041 C 278.414 104.943,280.612 104.614,283.014 106.016 M151.473 105.893 C 151.473 106.179,151.317 106.412,151.127 106.412 C 150.936 106.412,150.780 106.231,150.780 106.008 C 150.780 105.786,150.709 105.674,150.623 105.761 C 150.443 105.941,151.447 109.532,151.677 109.532 C 151.760 109.532,151.728 108.908,151.606 108.146 C 151.458 107.217,151.514 106.759,151.775 106.759 C 151.990 106.759,152.166 106.447,152.166 106.066 C 152.166 105.685,152.010 105.373,151.820 105.373 C 151.629 105.373,151.473 105.607,151.473 105.893 M76.944 106.066 C 77.248 105.604,77.287 105.604,77.296 106.066 C 77.306 106.528,77.344 106.528,77.643 106.066 C 77.928 105.625,77.980 105.642,77.984 106.176 C 77.991 106.964,76.212 106.866,75.997 106.066 C 75.873 105.604,75.899 105.604,76.230 106.066 C 76.562 106.528,76.641 106.528,76.944 106.066 M177.730 106.961 C 177.399 107.292,176.737 106.757,176.983 106.358 C 177.130 106.122,177.323 106.128,177.572 106.376 C 177.776 106.581,177.847 106.844,177.730 106.961 M109.012 108.488 C 109.574 108.727,109.498 108.771,108.613 108.724 C 108.012 108.692,107.592 108.549,107.680 108.406 C 107.874 108.091,108.109 108.105,109.012 108.488 M114.552 109.012 C 114.588 109.510,114.389 109.705,113.845 109.705 C 113.427 109.705,113.154 109.531,113.236 109.317 C 113.318 109.103,113.119 108.826,112.795 108.702 C 112.105 108.437,111.627 108.765,112.190 109.118 C 112.461 109.287,112.432 109.491,112.093 109.806 C 111.690 110.180,111.612 110.086,111.612 109.230 C 111.612 107.917,114.456 107.706,114.552 109.012 M117.159 108.484 C 116.715 108.765,116.739 108.886,117.333 109.338 C 117.921 109.787,117.948 109.915,117.514 110.200 C 117.234 110.384,116.926 110.456,116.831 110.361 C 116.736 110.266,116.861 110.062,117.110 109.908 C 117.467 109.688,117.446 109.584,117.013 109.418 C 116.270 109.132,116.314 108.144,117.071 108.151 C 117.587 108.155,117.600 108.205,117.159 108.484 M119.671 108.375 C 119.067 108.619,119.128 109.185,119.757 109.185 C 120.043 109.185,120.277 109.419,120.277 109.705 C 120.277 109.991,120.121 110.225,119.931 110.225 C 119.740 110.225,119.468 110.228,119.327 110.232 C 119.185 110.236,119.031 109.768,118.984 109.192 C 118.919 108.388,119.039 108.152,119.502 108.173 C 119.864 108.189,119.931 108.270,119.671 108.375 M124.231 108.440 C 124.308 108.564,123.696 108.669,122.873 108.672 C 122.049 108.676,121.430 108.591,121.497 108.482 C 121.669 108.203,124.062 108.166,124.231 108.440 M128.825 108.379 C 128.564 108.640,126.173 108.768,126.331 108.512 C 126.408 108.387,127.039 108.268,127.731 108.249 C 128.424 108.229,128.916 108.288,128.825 108.379 M244.681 108.464 C 245.029 108.684,244.905 108.757,244.247 108.719 C 243.742 108.689,243.328 108.549,243.328 108.406 C 243.327 108.053,244.084 108.086,244.681 108.464 M248.568 108.666 C 248.571 108.856,248.276 109.209,247.914 109.449 C 247.296 109.860,247.141 109.437,247.458 108.207 C 247.530 107.929,248.564 108.357,248.568 108.666 M251.150 108.397 C 250.513 108.559,250.519 108.596,251.264 109.158 C 251.966 109.688,251.991 109.796,251.500 110.203 C 251.134 110.507,250.953 110.528,250.953 110.268 C 250.953 110.054,251.144 109.879,251.377 109.879 C 251.610 109.879,251.451 109.634,251.025 109.335 C 250.182 108.745,250.295 108.121,251.234 108.186 C 251.701 108.218,251.684 108.261,251.150 108.397 M252.875 108.459 C 252.202 108.723,252.202 108.728,252.875 109.118 C 253.432 109.441,253.451 109.513,252.983 109.522 C 252.395 109.532,251.882 108.718,252.248 108.353 C 252.362 108.239,252.702 108.157,253.004 108.170 C 253.408 108.188,253.374 108.264,252.875 108.459 M124.203 109.414 C 124.637 109.848,123.688 110.611,123.208 110.213 C 122.915 109.969,122.693 109.963,122.550 110.193 C 122.292 110.611,121.317 110.299,121.317 109.799 C 121.317 109.596,121.537 109.630,121.837 109.879 C 122.206 110.185,122.357 110.195,122.357 109.915 C 122.357 109.664,122.706 109.595,123.310 109.727 C 124.044 109.887,124.144 109.850,123.744 109.565 C 123.458 109.362,123.393 109.194,123.599 109.191 C 123.806 109.188,124.077 109.288,124.203 109.414 M250.255 109.792 C 250.250 110.311,250.200 110.324,249.908 109.879 C 249.605 109.417,249.529 109.417,249.225 109.879 C 249.038 110.165,248.882 110.230,248.879 110.023 C 248.872 109.518,249.236 109.185,249.798 109.185 C 250.052 109.185,250.258 109.458,250.255 109.792 M110.346 109.964 C 110.238 110.139,109.777 110.188,109.321 110.073 C 108.853 109.956,108.492 110.019,108.492 110.219 C 108.492 110.718,107.906 110.658,107.707 110.139 C 107.591 109.836,107.992 109.697,109.041 109.676 C 109.869 109.660,110.454 109.789,110.346 109.964 M128.336 109.834 C 128.479 109.859,128.596 110.054,128.596 110.268 C 128.596 110.528,128.416 110.507,128.050 110.203 C 127.620 109.847,127.447 109.841,127.239 110.177 C 127.033 110.511,126.891 110.503,126.589 110.139 C 126.231 109.708,126.912 109.589,128.336 109.834 M304.679 113.287 C 304.679 113.738,304.267 114.039,303.932 113.831 C 303.574 113.610,303.883 112.998,304.353 112.998 C 304.533 112.998,304.679 113.128,304.679 113.287 M301.932 114.827 C 301.890 115.241,301.414 115.161,301.265 114.714 C 301.189 114.485,301.314 114.360,301.542 114.437 C 301.771 114.513,301.947 114.688,301.932 114.827 M77.075 116.638 C 76.965 116.924,76.720 117.158,76.529 117.158 C 76.338 117.158,76.270 117.387,76.378 117.667 C 76.485 117.946,76.424 118.268,76.241 118.380 C 75.800 118.653,75.818 117.630,76.269 116.788 C 76.689 116.003,77.367 115.876,77.075 116.638 M90.658 118.199 C 90.678 119.822,90.575 119.911,90.105 118.675 C 89.823 117.934,90.122 116.800,90.597 116.812 C 90.621 116.813,90.649 117.437,90.658 118.199 M91.753 118.627 C 91.670 119.058,91.599 118.787,91.595 118.024 C 91.591 117.262,91.659 116.909,91.746 117.240 C 91.833 117.572,91.836 118.196,91.753 118.627 M94.828 118.182 C 94.843 118.935,94.744 119.483,94.608 119.399 C 94.184 119.137,94.037 117.183,94.429 117.020 C 94.633 116.935,94.801 116.854,94.801 116.839 C 94.801 116.824,94.813 117.428,94.828 118.182 M117.158 118.024 C 117.158 118.692,117.041 119.237,116.898 119.237 C 116.755 119.237,116.638 118.692,116.638 118.024 C 116.638 117.357,116.755 116.811,116.898 116.811 C 117.041 116.811,117.158 117.357,117.158 118.024 M174.350 117.178 C 174.350 117.380,174.194 117.449,174.003 117.331 C 173.552 117.052,173.564 117.377,174.038 118.262 C 174.271 118.697,174.282 118.890,174.068 118.757 C 173.874 118.638,173.646 118.736,173.560 118.975 C 173.474 119.215,173.443 118.865,173.492 118.198 C 173.594 116.807,174.350 115.908,174.350 117.178 M176.608 117.151 C 176.492 117.337,176.561 117.796,176.761 118.169 C 177.028 118.668,177.010 118.915,176.691 119.099 C 176.452 119.236,176.368 119.225,176.504 119.074 C 176.641 118.923,176.594 118.505,176.402 118.145 C 176.082 117.548,176.216 116.811,176.644 116.811 C 176.739 116.811,176.723 116.964,176.608 117.151 M217.990 118.730 C 218.009 118.928,217.739 119.111,217.391 119.138 C 216.825 119.180,216.797 119.058,217.131 117.987 C 217.498 116.808,217.833 117.098,217.990 118.730 M220.003 118.627 C 219.920 119.058,219.849 118.787,219.845 118.024 C 219.841 117.262,219.909 116.909,219.996 117.240 C 220.082 117.572,220.085 118.196,220.003 118.627 M221.042 118.627 C 220.959 119.058,220.888 118.787,220.885 118.024 C 220.881 117.262,220.949 116.909,221.035 117.240 C 221.122 117.572,221.125 118.196,221.042 118.627 M245.407 118.024 C 245.407 118.692,245.346 119.237,245.272 119.237 C 245.197 119.237,245.073 118.692,244.995 118.024 C 244.917 117.357,244.978 116.811,245.130 116.811 C 245.283 116.811,245.407 117.357,245.407 118.024 M248.331 117.122 C 248.437 117.292,248.291 117.877,248.007 118.421 C 247.551 119.297,247.491 119.324,247.489 118.660 C 247.488 118.247,247.682 117.830,247.920 117.733 C 248.246 117.601,248.225 117.466,247.834 117.189 C 247.514 116.963,247.472 116.820,247.727 116.816 C 247.954 116.813,248.226 116.951,248.331 117.122 M249.364 117.591 C 249.317 118.020,249.246 118.449,249.208 118.544 C 249.169 118.640,249.156 118.834,249.179 118.977 C 249.202 119.120,249.046 119.237,248.833 119.237 C 248.601 119.237,248.530 118.925,248.655 118.458 C 248.770 118.029,248.866 117.483,248.869 117.244 C 248.871 117.006,249.003 116.811,249.162 116.811 C 249.321 116.811,249.412 117.162,249.364 117.591 M301.769 118.120 C 301.815 119.042,301.752 119.133,301.345 118.726 C 300.749 118.129,300.706 116.700,301.291 116.895 C 301.524 116.972,301.739 117.524,301.769 118.120 M302.773 118.024 C 302.773 118.692,302.656 119.237,302.513 119.237 C 302.191 119.237,302.167 117.360,302.484 117.042 C 302.611 116.915,302.728 116.811,302.744 116.811 C 302.760 116.811,302.773 117.357,302.773 118.024 M304.076 117.040 C 303.757 117.168,303.739 117.409,304.008 117.966 C 304.355 118.684,304.347 118.688,303.843 118.060 C 303.285 117.365,303.403 116.793,304.093 116.838 C 304.394 116.858,304.389 116.913,304.076 117.040 M92.679 118.284 C 92.815 118.850,92.764 119.237,92.554 119.237 C 92.360 119.237,92.201 118.744,92.201 118.140 C 92.201 116.878,92.352 116.923,92.679 118.284 M246.794 118.449 C 246.794 119.536,246.628 119.410,246.309 118.082 C 246.154 117.438,246.197 117.176,246.433 117.322 C 246.632 117.445,246.794 117.952,246.794 118.449 M118.544 118.371 C 118.544 118.847,118.422 119.237,118.273 119.237 C 118.124 119.237,117.970 118.847,117.930 118.371 C 117.891 117.894,118.013 117.504,118.201 117.504 C 118.390 117.504,118.544 117.894,118.544 118.371 M120.857 118.639 C 120.897 119.168,120.784 119.509,120.604 119.398 C 120.424 119.287,120.277 118.875,120.277 118.481 C 120.277 117.887,120.190 117.839,119.761 118.194 C 119.477 118.430,119.331 118.761,119.435 118.930 C 119.539 119.099,119.460 119.237,119.258 119.237 C 119.056 119.237,118.891 118.871,118.891 118.423 C 118.891 117.114,120.756 117.319,120.857 118.639 M93.934 118.544 C 93.934 118.925,93.778 119.237,93.588 119.237 C 93.397 119.237,93.241 118.925,93.241 118.544 C 93.241 118.163,93.397 117.851,93.588 117.851 C 93.778 117.851,93.934 118.163,93.934 118.544 M178.424 118.975 C 178.366 119.148,178.171 119.289,177.990 119.289 C 177.808 119.289,177.613 119.148,177.555 118.975 C 177.498 118.801,177.693 118.660,177.990 118.660 C 178.286 118.660,178.482 118.801,178.424 118.975 M85.269 127.903 C 85.269 128.094,85.074 128.252,84.835 128.255 C 84.546 128.258,84.574 128.373,84.922 128.601 C 85.384 128.905,85.384 128.981,84.922 129.289 C 84.460 129.598,84.460 129.677,84.922 130.001 C 85.353 130.304,85.323 130.348,84.749 130.258 C 83.478 130.060,83.716 127.588,85.009 127.562 C 85.152 127.559,85.269 127.712,85.269 127.903 M92.201 127.903 C 92.201 128.094,92.006 128.252,91.768 128.255 C 91.474 128.258,91.502 128.379,91.854 128.628 C 92.246 128.905,92.267 129.039,91.941 129.171 C 91.317 129.424,91.408 129.906,92.114 130.090 C 92.571 130.210,92.528 130.259,91.941 130.289 C 91.165 130.329,90.749 128.431,91.392 127.787 C 91.737 127.442,92.201 127.509,92.201 127.903 M96.508 128.221 C 97.636 129.467,95.886 131.103,94.697 129.913 C 94.093 129.310,94.187 128.339,94.887 127.931 C 95.721 127.445,95.822 127.464,96.508 128.221 M98.787 128.443 C 98.787 128.699,98.576 129.033,98.318 129.186 C 98.060 129.338,97.760 129.697,97.652 129.983 C 97.544 130.269,97.443 129.944,97.428 129.261 C 97.413 128.577,97.494 127.925,97.608 127.811 C 97.939 127.479,98.787 127.933,98.787 128.443 M100.520 127.903 C 100.520 128.094,100.247 128.268,99.913 128.290 C 99.336 128.328,99.336 128.338,99.913 128.489 C 100.247 128.576,100.520 128.801,100.520 128.989 C 100.520 129.177,100.375 129.241,100.197 129.131 C 100.020 129.021,99.783 129.080,99.670 129.262 C 99.558 129.445,99.742 129.765,100.079 129.974 C 100.646 130.325,100.639 130.347,100.000 130.252 C 98.728 130.065,98.967 127.588,100.260 127.562 C 100.403 127.559,100.520 127.712,100.520 127.903 M103.293 127.903 C 103.293 128.094,103.098 128.252,102.860 128.255 C 102.570 128.258,102.599 128.373,102.946 128.601 C 103.304 128.837,103.348 129.024,103.085 129.203 C 102.875 129.346,102.615 129.697,102.506 129.983 C 102.397 130.269,102.295 129.944,102.280 129.261 C 102.265 128.577,102.357 127.915,102.484 127.787 C 102.829 127.442,103.293 127.509,103.293 127.903 M106.200 128.336 C 106.717 129.157,106.073 130.156,105.026 130.156 C 103.811 130.156,103.347 129.147,104.153 128.257 C 104.904 127.427,105.646 127.456,106.200 128.336 M112.093 128.336 C 112.581 129.111,112.010 130.112,110.993 130.264 C 109.886 130.429,109.296 129.085,110.090 128.208 C 110.799 127.424,111.548 127.472,112.093 128.336 M117.504 127.903 C 117.504 128.094,117.309 128.252,117.071 128.255 C 116.781 128.258,116.810 128.373,117.158 128.601 C 117.620 128.905,117.620 128.981,117.158 129.289 C 116.696 129.598,116.696 129.677,117.158 130.001 C 117.588 130.304,117.558 130.347,116.984 130.255 C 116.244 130.136,116.012 128.805,116.589 127.990 C 116.957 127.470,117.504 127.418,117.504 127.903 M119.480 129.136 C 119.460 129.866,119.340 130.157,119.169 129.892 C 118.955 129.562,118.812 129.582,118.550 129.983 C 118.292 130.375,118.207 130.198,118.203 129.261 C 118.197 127.872,118.400 127.523,119.063 127.777 C 119.322 127.877,119.500 128.455,119.480 129.136 M211.389 128.288 C 211.043 128.507,211.033 128.587,211.352 128.591 C 211.590 128.594,211.785 128.761,211.785 128.963 C 211.785 129.165,211.629 129.234,211.438 129.116 C 211.248 128.998,211.092 129.223,211.092 129.616 C 211.092 130.008,210.933 130.329,210.740 130.329 C 210.294 130.329,210.421 128.157,210.885 127.839 C 211.076 127.709,211.373 127.689,211.546 127.796 C 211.718 127.902,211.647 128.124,211.389 128.288 M219.237 127.903 C 219.355 128.094,219.130 128.250,218.738 128.250 C 217.742 128.250,217.792 129.559,218.804 129.990 C 219.573 130.318,219.571 130.321,218.718 130.239 C 218.108 130.181,217.817 129.919,217.738 129.357 C 217.564 128.129,218.698 127.030,219.237 127.903 M220.825 129.116 L 220.579 130.503 220.412 129.208 C 220.316 128.468,220.400 127.858,220.608 127.783 C 221.106 127.602,221.100 127.564,220.825 129.116 M224.757 128.221 C 225.885 129.467,224.135 131.103,222.946 129.913 C 222.343 129.310,222.436 128.339,223.137 127.931 C 223.970 127.445,224.072 127.464,224.757 128.221 M87.706 128.570 C 87.714 127.860,87.768 127.819,88.053 128.306 C 88.709 129.430,88.065 130.125,87.157 129.273 L 86.361 128.525 86.214 129.514 C 86.094 130.315,86.056 130.245,86.014 129.142 L 85.962 127.782 86.828 128.596 L 87.695 129.410 87.706 128.570 M89.937 128.630 C 90.073 128.201,90.269 127.935,90.373 128.039 C 90.477 128.143,90.359 128.716,90.112 129.312 L 89.662 130.398 89.211 129.584 C 88.963 129.136,88.759 128.536,88.759 128.250 C 88.759 127.946,88.953 128.080,89.225 128.569 L 89.690 129.409 89.937 128.630 M93.536 128.683 C 93.481 129.112,93.557 129.658,93.705 129.896 C 93.878 130.173,93.780 130.329,93.435 130.329 C 93.048 130.329,92.894 129.984,92.894 129.116 C 92.894 128.449,93.061 127.903,93.266 127.903 C 93.470 127.903,93.592 128.254,93.536 128.683 M107.519 129.122 C 107.607 129.876,107.522 130.296,107.297 130.222 C 106.835 130.071,106.601 127.903,107.046 127.903 C 107.228 127.903,107.441 128.452,107.519 129.122 M109.303 130.063 C 109.564 130.229,109.493 130.321,109.099 130.324 C 108.619 130.328,108.503 130.058,108.544 129.029 C 108.591 127.851,108.610 127.826,108.749 128.768 C 108.833 129.340,109.082 129.922,109.303 130.063 M113.865 128.596 L 114.123 127.783 114.549 128.579 L 114.975 129.375 115.186 128.567 C 115.302 128.123,115.487 127.850,115.597 127.960 C 115.707 128.070,115.604 128.584,115.368 129.101 C 114.974 129.967,114.904 129.994,114.498 129.440 C 114.080 128.868,114.045 128.869,113.819 129.458 C 113.534 130.200,112.641 129.280,112.664 128.270 C 112.672 127.920,112.840 128.026,113.141 128.569 L 113.607 129.409 113.865 128.596 M169.324 128.558 C 171.306 129.473,173.928 132.947,173.192 133.683 C 173.104 133.770,172.859 133.315,172.646 132.671 C 172.069 130.922,169.841 128.927,167.874 128.399 C 166.826 128.117,166.527 127.944,167.071 127.934 C 167.548 127.925,168.562 128.206,169.324 128.558 M187.943 128.558 C 185.783 129.304,184.685 130.251,183.721 132.198 C 183.333 132.981,183.016 133.419,183.016 133.172 C 183.015 131.173,186.760 127.935,189.081 127.928 C 189.463 127.927,188.950 128.210,187.943 128.558 M212.825 128.972 C 212.825 130.324,213.597 130.162,213.925 128.741 C 214.145 127.785,214.155 127.796,214.098 128.940 C 213.997 130.980,212.151 130.738,212.137 128.683 C 212.134 128.254,212.288 127.903,212.478 127.903 C 212.669 127.903,212.825 128.384,212.825 128.972 M216.735 128.543 C 216.834 128.024,216.907 128.222,216.937 129.090 L 216.984 130.450 216.146 129.663 L 215.308 128.876 215.154 129.689 C 215.055 130.208,214.982 130.010,214.952 129.142 L 214.905 127.782 215.743 128.569 L 216.581 129.357 216.735 128.543 M222.184 129.116 C 222.184 129.783,222.028 130.329,221.837 130.329 C 221.646 130.329,221.490 129.783,221.490 129.116 C 221.490 128.449,221.646 127.903,221.837 127.903 C 222.028 127.903,222.184 128.449,222.184 129.116 M227.460 129.289 C 227.572 129.289,227.583 128.977,227.483 128.596 C 227.382 128.209,227.473 127.903,227.689 127.903 C 228.137 127.903,228.196 128.911,227.785 129.558 C 227.573 129.893,227.345 129.821,226.838 129.259 L 226.170 128.520 225.951 129.511 C 225.753 130.408,225.728 130.372,225.691 129.142 L 225.650 127.782 226.452 128.536 C 226.893 128.950,227.347 129.289,227.460 129.289 M94.820 128.565 C 94.486 129.106,95.034 130.022,95.624 129.909 C 96.498 129.743,96.576 128.250,95.712 128.250 C 95.329 128.250,94.927 128.391,94.820 128.565 M104.392 129.002 C 104.539 130.045,105.893 130.148,105.893 129.116 C 105.893 128.654,105.623 128.385,105.085 128.308 C 104.413 128.213,104.296 128.330,104.392 129.002 M110.284 129.002 C 110.360 129.540,110.630 129.809,111.092 129.809 C 112.124 129.809,112.021 128.456,110.977 128.308 C 110.305 128.213,110.189 128.330,110.284 129.002 M222.993 128.793 C 222.879 129.092,222.951 129.502,223.154 129.705 C 223.693 130.245,224.610 129.771,224.610 128.954 C 224.610 128.099,223.309 127.969,222.993 128.793 M170.725 135.159 C 170.444 135.613,169.497 135.650,169.497 135.207 C 169.497 135.031,169.770 134.825,170.104 134.751 C 170.860 134.583,171.017 134.686,170.725 135.159 M186.308 134.835 C 186.426 135.026,186.202 135.182,185.809 135.182 C 185.416 135.182,185.095 135.026,185.095 134.835 C 185.095 134.645,185.320 134.489,185.595 134.489 C 185.870 134.489,186.191 134.645,186.308 134.835 M108.997 135.158 C 109.107 135.335,109.028 135.585,108.821 135.713 C 108.614 135.841,108.516 136.130,108.602 136.356 C 108.690 136.583,108.468 136.767,108.106 136.767 C 107.287 136.767,107.288 136.754,108.232 135.841 L 109.012 135.087 108.232 135.276 C 107.803 135.379,107.539 135.323,107.646 135.150 C 107.899 134.740,108.742 134.745,108.997 135.158 M116.657 135.213 C 116.761 135.382,116.599 135.426,116.296 135.309 C 115.563 135.028,114.187 136.232,114.805 136.614 C 115.086 136.788,114.965 136.863,114.467 136.826 C 113.582 136.759,113.439 136.297,114.211 136.001 C 114.497 135.891,114.731 135.645,114.731 135.454 C 114.731 135.264,114.489 135.201,114.193 135.314 C 113.898 135.428,113.741 135.382,113.846 135.213 C 114.093 134.812,116.409 134.812,116.657 135.213 M121.758 135.182 C 121.970 135.182,121.840 135.411,121.470 135.691 C 121.100 135.971,120.641 136.202,120.451 136.206 C 120.260 136.209,120.338 136.058,120.624 135.870 C 121.086 135.567,121.086 135.486,120.624 135.149 C 120.190 134.832,120.209 134.804,120.739 134.976 C 121.088 135.089,121.547 135.182,121.758 135.182 M109.951 136.110 C 109.607 136.248,109.597 136.402,109.907 136.775 C 110.174 137.097,110.185 137.262,109.942 137.262 C 109.441 137.262,109.096 136.647,109.359 136.222 C 109.477 136.031,109.759 135.888,109.986 135.903 C 110.269 135.921,110.258 135.986,109.951 136.110 M112.998 136.227 C 112.536 136.531,112.536 136.606,112.998 136.910 C 113.312 137.116,113.355 137.253,113.105 137.256 C 112.568 137.263,112.205 136.664,112.478 136.222 C 112.596 136.031,112.878 135.878,113.105 135.881 C 113.355 135.884,113.312 136.021,112.998 136.227 M116.577 136.103 C 116.890 136.417,116.114 137.300,115.732 137.064 C 115.254 136.769,115.370 135.875,115.887 135.875 C 116.141 135.875,116.452 135.978,116.577 136.103 M122.620 136.496 C 123.073 136.123,123.135 136.135,122.991 136.568 C 122.782 137.202,121.929 137.258,121.805 136.646 C 121.756 136.403,121.797 136.371,121.897 136.574 C 122.019 136.824,122.254 136.799,122.620 136.496 M75.559 147.089 C 75.126 154.630,75.247 170.225,75.781 175.823 C 76.017 178.295,75.174 179.413,74.735 177.210 C 73.776 172.397,73.791 147.335,74.756 141.421 C 74.894 140.576,74.843 140.313,74.588 140.555 C 73.954 141.155,73.373 150.588,73.361 160.485 C 73.353 166.723,73.257 169.239,73.082 167.764 C 72.697 164.519,72.724 151.005,73.126 145.927 C 73.314 143.544,73.471 141.010,73.476 140.295 C 73.483 139.082,74.505 138.245,74.534 139.428 C 74.540 139.666,74.712 139.573,74.916 139.221 C 75.862 137.594,76.004 139.330,75.559 147.089 M334.286 140.699 C 334.854 145.390,335.231 156.441,335.008 161.872 C 334.639 170.847,334.229 172.181,334.422 163.778 C 334.598 156.148,333.955 141.966,333.393 141.075 C 333.180 140.736,333.130 141.520,333.252 143.328 C 334.034 154.936,333.700 176.967,332.728 177.972 C 331.953 178.773,331.777 177.508,332.127 173.657 C 332.637 168.051,332.621 151.270,332.101 144.983 C 331.615 139.115,331.616 139.110,333.062 139.110 C 334.027 139.110,334.105 139.211,334.286 140.699 M292.028 144.887 C 291.910 145.078,291.966 145.234,292.152 145.234 C 292.338 145.234,292.577 145.039,292.683 144.801 C 292.789 144.562,292.841 144.745,292.799 145.207 C 292.756 145.668,292.487 146.109,292.201 146.186 C 291.787 146.298,291.776 146.260,292.143 146.002 C 292.517 145.740,292.496 145.635,292.035 145.458 C 291.544 145.270,291.571 144.541,292.069 144.541 C 292.164 144.541,292.146 144.697,292.028 144.887 M312.825 144.887 C 312.707 145.078,312.759 145.234,312.941 145.234 C 313.122 145.234,313.361 145.468,313.470 145.754 C 313.726 146.421,313.533 146.413,312.847 145.726 C 312.365 145.245,312.377 144.541,312.866 144.541 C 312.961 144.541,312.943 144.697,312.825 144.887 M166.724 154.593 C 166.724 154.974,166.568 155.286,166.378 155.286 C 166.187 155.286,166.031 154.974,166.031 154.593 C 166.031 154.211,166.187 153.899,166.378 153.899 C 166.568 153.899,166.724 154.211,166.724 154.593 M190.295 154.613 C 190.295 155.006,190.139 155.230,189.948 155.113 C 189.757 154.995,189.601 154.674,189.601 154.399 C 189.601 154.124,189.757 153.899,189.948 153.899 C 190.139 153.899,190.295 154.221,190.295 154.613 M102.839 157.279 C 102.751 157.613,102.680 157.340,102.680 156.672 C 102.680 156.005,102.751 155.732,102.839 156.066 C 102.926 156.399,102.926 156.945,102.839 157.279 M126.437 157.019 C 126.746 157.019,127.553 157.397,128.231 157.860 C 130.002 159.068,130.822 159.128,130.965 158.059 C 131.029 157.582,131.247 157.036,131.449 156.846 C 131.699 156.611,131.744 156.629,131.590 156.904 C 131.446 157.162,131.774 157.395,132.493 157.544 C 133.114 157.673,134.618 158.318,135.835 158.977 C 137.053 159.637,138.261 160.095,138.522 159.995 C 138.782 159.895,138.995 159.996,138.995 160.219 C 138.995 161.300,139.705 159.746,139.986 158.050 C 140.188 156.831,140.315 156.525,140.341 157.195 C 140.374 158.042,140.676 158.415,141.955 159.188 C 143.935 160.384,143.837 160.410,143.903 158.666 C 143.951 157.389,143.977 157.342,144.098 158.319 C 144.175 158.938,144.362 159.445,144.515 159.445 C 144.667 159.445,144.717 159.016,144.626 158.492 C 144.466 157.568,144.477 157.560,145.010 158.232 C 145.346 158.658,145.563 158.750,145.570 158.472 C 145.576 158.222,145.739 158.116,145.933 158.236 C 146.127 158.355,146.182 158.638,146.055 158.863 C 145.886 159.164,145.936 159.171,146.241 158.890 C 146.707 158.462,148.354 158.661,148.354 159.146 C 148.354 159.318,147.964 159.361,147.487 159.241 C 146.745 159.055,146.621 159.141,146.626 159.841 C 146.630 160.496,146.698 160.555,146.967 160.139 C 147.247 159.706,147.308 159.735,147.333 160.312 C 147.362 160.986,147.370 160.987,147.625 160.335 C 148.096 159.133,148.313 160.285,148.376 164.320 L 148.438 168.284 141.030 168.244 C 118.024 168.120,103.034 167.945,107.272 167.851 C 109.937 167.792,112.269 167.592,112.454 167.407 C 112.639 167.222,113.032 167.082,113.328 167.095 C 113.712 167.113,113.668 167.208,113.172 167.430 C 112.599 167.686,112.657 167.722,113.509 167.637 C 114.784 167.511,115.260 166.228,114.427 165.165 C 114.067 164.706,114.050 164.618,114.377 164.905 C 115.104 165.544,115.585 165.431,115.034 164.751 C 114.711 164.353,114.697 164.248,114.991 164.425 C 115.230 164.568,115.425 164.520,115.425 164.319 C 115.425 164.117,115.600 163.951,115.814 163.951 C 116.082 163.951,116.069 164.112,115.771 164.471 C 115.534 164.757,115.442 164.991,115.568 164.991 C 115.693 164.991,115.620 165.320,115.405 165.722 C 115.108 166.276,115.117 166.548,115.443 166.848 C 115.766 167.146,115.817 167.144,115.648 166.842 C 115.350 166.312,115.755 165.287,116.163 165.539 C 116.338 165.647,116.439 165.530,116.386 165.277 C 116.334 165.025,116.521 164.869,116.801 164.930 C 117.204 165.019,117.186 164.904,116.715 164.383 C 116.386 164.020,116.128 163.346,116.140 162.884 L 116.162 162.045 116.500 162.893 C 117.276 164.835,118.544 165.051,118.544 163.242 C 118.544 161.830,119.232 161.578,119.262 162.978 C 119.282 163.934,119.336 164.009,119.584 163.432 C 119.817 162.890,119.887 162.863,119.906 163.308 C 119.938 164.043,121.003 164.456,121.371 163.877 C 121.556 163.585,121.655 163.759,121.658 164.385 C 121.661 164.909,121.753 165.338,121.862 165.338 C 122.329 165.338,123.050 164.289,123.050 163.609 C 123.050 163.203,123.206 162.967,123.397 163.085 C 123.588 163.203,123.744 162.992,123.744 162.617 C 123.744 162.154,123.021 161.478,121.499 160.516 C 118.802 158.813,118.892 158.823,118.886 160.225 C 118.876 162.155,118.544 162.372,116.507 161.775 C 115.025 161.340,114.731 161.333,114.731 161.730 C 114.731 162.837,113.069 162.613,109.382 161.007 C 104.067 158.693,103.444 158.638,102.957 160.444 C 102.502 162.135,102.408 162.151,100.197 160.919 L 98.488 159.965 97.422 160.985 L 96.356 162.006 94.192 161.223 C 90.307 159.818,88.437 159.395,87.746 159.765 C 87.318 159.994,86.987 159.986,86.743 159.741 C 86.487 159.485,86.308 159.594,86.146 160.104 C 86.019 160.504,85.809 160.827,85.679 160.820 C 85.273 160.801,83.774 159.438,83.957 159.255 C 84.052 159.160,84.327 159.320,84.568 159.610 C 85.115 160.269,85.962 160.300,85.962 159.661 C 85.962 158.839,90.272 159.221,92.873 160.275 C 95.664 161.405,96.476 161.408,97.352 160.295 L 98.047 159.411 100.063 160.430 L 102.080 161.450 102.426 160.014 C 102.909 158.015,103.596 158.024,108.237 160.089 C 113.343 162.360,113.522 162.404,114.128 161.539 C 114.595 160.872,114.714 160.860,116.237 161.318 C 118.060 161.867,118.029 161.888,118.364 159.865 L 118.610 158.378 120.223 159.306 C 121.111 159.817,122.071 160.433,122.357 160.675 C 122.643 160.917,123.345 161.168,123.917 161.233 L 124.957 161.352 125.283 158.579 C 125.462 157.054,125.668 156.079,125.741 156.412 C 125.814 156.746,126.127 157.019,126.437 157.019 M126.054 157.597 C 125.927 157.724,125.836 158.309,125.851 158.897 L 125.878 159.965 126.226 159.012 C 126.714 157.676,127.283 157.823,127.160 159.254 C 127.103 159.911,127.169 160.560,127.307 160.698 C 127.444 160.835,127.556 161.245,127.556 161.608 C 127.556 162.324,128.390 163.349,128.711 163.027 C 128.820 162.919,128.860 162.419,128.799 161.917 C 128.739 161.416,128.758 161.278,128.840 161.612 C 129.164 162.914,129.983 161.956,129.983 160.276 C 129.983 159.152,126.722 156.929,126.054 157.597 M131.923 157.967 C 131.525 158.365,131.720 158.825,132.207 158.638 C 132.741 158.433,133.102 159.078,133.102 160.236 C 133.102 161.093,133.642 160.672,133.895 159.619 C 134.001 159.177,134.076 159.342,134.102 160.072 C 134.146 161.328,134.820 161.292,134.859 160.032 C 134.873 159.568,135.062 159.848,135.344 160.751 C 136.170 163.398,136.217 163.478,136.587 162.902 C 136.850 162.492,136.972 162.480,137.206 162.841 C 137.580 163.421,138.245 162.697,138.382 161.562 C 138.470 160.831,136.417 159.384,134.208 158.619 C 133.886 158.508,133.287 158.269,132.876 158.088 C 132.466 157.908,132.037 157.853,131.923 157.967 M140.846 159.600 C 140.972 159.927,141.075 160.823,141.075 161.591 C 141.075 162.677,141.187 162.942,141.585 162.790 C 141.868 162.681,142.244 162.858,142.429 163.186 C 142.738 163.737,142.778 163.734,143.006 163.143 C 143.198 162.644,143.314 162.606,143.544 162.969 C 143.732 163.265,143.839 162.925,143.842 162.023 C 143.847 160.741,143.730 160.554,142.548 159.952 C 140.598 158.959,140.600 158.960,140.846 159.600 M139.000 162.132 C 139.004 162.875,139.080 162.970,139.341 162.565 C 139.780 161.887,139.780 161.179,139.341 161.179 C 139.151 161.179,138.997 161.607,139.000 162.132 M124.227 162.987 C 124.586 164.783,125.130 164.988,125.130 163.328 C 125.130 162.215,124.997 161.872,124.567 161.872 C 124.117 161.872,124.049 162.097,124.227 162.987 M114.081 163.674 C 113.925 164.093,113.615 164.471,113.390 164.514 C 113.165 164.557,113.141 164.513,113.336 164.417 C 113.532 164.320,113.692 163.941,113.692 163.576 C 113.692 163.211,113.842 162.912,114.027 162.912 C 114.227 162.912,114.249 163.219,114.081 163.674 M114.254 166.651 C 114.294 167.168,114.250 167.316,114.156 166.980 C 114.057 166.625,113.815 166.471,113.579 166.613 C 113.298 166.781,113.306 166.692,113.602 166.326 C 113.838 166.033,113.955 165.691,113.862 165.566 C 113.768 165.441,113.801 165.422,113.936 165.524 C 114.070 165.627,114.213 166.134,114.254 166.651 M320.099 174.259 C 325.055 177.701,323.342 186.001,317.591 186.404 C 311.605 186.823,309.510 179.041,314.906 176.429 C 317.539 175.155,320.316 176.159,322.058 179.015 C 322.562 179.841,322.701 179.924,322.702 179.399 C 322.706 177.303,319.548 173.665,317.712 173.652 C 317.312 173.649,316.750 173.480,316.464 173.276 C 316.075 172.999,316.291 172.955,317.326 173.100 C 318.085 173.206,319.333 173.728,320.099 174.259 M190.351 175.909 C 190.571 176.129,189.853 180.109,189.536 180.425 C 189.405 180.555,189.190 179.710,189.058 178.546 C 188.885 177.018,188.676 176.430,188.306 176.430 C 187.975 176.430,187.871 176.630,188.011 176.994 C 188.130 177.305,188.398 178.236,188.606 179.064 C 189.168 181.293,189.518 181.434,191.893 180.386 C 194.470 179.249,194.375 179.392,193.417 178.072 L 192.603 176.950 193.403 177.643 C 196.848 180.630,194.175 186.547,189.428 186.440 C 188.475 186.419,187.968 186.330,188.302 186.243 C 188.708 186.137,188.920 185.721,188.943 184.983 C 189.020 182.509,189.480 182.036,189.762 184.142 C 189.969 185.692,190.160 186.135,190.623 186.135 C 191.542 186.135,191.662 185.817,191.123 184.809 C 190.850 184.299,190.477 183.449,190.293 182.920 C 189.830 181.587,189.228 181.459,186.826 182.178 C 185.031 182.716,184.768 182.900,184.916 183.515 C 185.011 183.908,184.863 183.761,184.588 183.189 C 183.556 181.048,184.110 178.419,185.866 177.121 C 187.195 176.138,189.861 175.418,190.351 175.909 M316.531 176.802 C 316.599 177.007,316.803 177.175,316.984 177.175 C 317.166 177.175,317.370 177.007,317.438 176.802 C 317.506 176.597,317.302 176.430,316.984 176.430 C 316.667 176.430,316.463 176.597,316.531 176.802 M168.111 177.470 C 168.111 177.660,167.877 177.816,167.591 177.816 C 167.305 177.816,167.071 177.660,167.071 177.470 C 167.071 177.279,167.305 177.123,167.591 177.123 C 167.877 177.123,168.111 177.279,168.111 177.470 M232.963 178.989 C 232.656 179.359,232.686 179.515,233.093 179.671 C 233.822 179.951,233.761 180.937,233.016 180.931 C 232.500 180.926,232.487 180.876,232.927 180.598 C 233.374 180.315,233.355 180.204,232.788 179.789 C 232.141 179.316,232.269 178.510,232.992 178.510 C 233.238 178.510,233.228 178.669,232.963 178.989 M236.049 179.029 C 235.704 179.444,235.704 179.549,236.049 179.549 C 236.379 179.549,236.386 179.663,236.077 180.036 C 235.797 180.372,235.787 180.577,236.043 180.703 C 236.246 180.802,236.218 180.845,235.980 180.798 C 235.604 180.722,235.516 180.183,235.663 178.856 C 235.685 178.666,235.877 178.510,236.091 178.510 C 236.360 178.510,236.347 178.670,236.049 179.029 M238.073 178.963 C 238.354 179.302,238.277 179.564,237.769 180.000 C 237.196 180.491,237.088 180.501,237.088 180.066 C 237.088 179.782,237.332 179.549,237.629 179.549 C 237.926 179.549,238.071 179.391,237.951 179.197 C 237.832 179.003,237.564 178.949,237.358 179.077 C 237.133 179.216,237.081 179.149,237.229 178.910 C 237.541 178.404,237.613 178.409,238.073 178.963 M240.208 178.861 C 239.746 179.165,239.746 179.241,240.208 179.544 C 240.522 179.750,240.564 179.888,240.315 179.891 C 240.088 179.894,239.806 179.740,239.688 179.549 C 239.415 179.107,239.778 178.508,240.315 178.515 C 240.564 178.518,240.522 178.655,240.208 178.861 M250.981 178.996 C 250.671 179.369,250.682 179.524,251.025 179.662 C 251.333 179.785,251.344 179.850,251.060 179.869 C 250.833 179.884,250.551 179.740,250.433 179.549 C 250.171 179.124,250.515 178.510,251.016 178.510 C 251.260 178.510,251.248 178.674,250.981 178.996 M253.007 178.999 C 253.304 179.356,253.309 179.552,253.026 179.727 C 252.813 179.858,252.720 180.176,252.818 180.433 C 252.929 180.723,252.819 180.832,252.530 180.721 C 252.005 180.520,251.683 179.602,251.905 178.943 C 252.097 178.373,252.506 178.394,253.007 178.999 M146.967 180.531 C 146.967 180.983,146.555 181.283,146.220 181.076 C 145.861 180.854,146.170 180.243,146.641 180.243 C 146.820 180.243,146.967 180.373,146.967 180.531 M241.521 180.537 C 241.809 180.719,241.588 180.820,240.901 180.820 C 240.215 180.820,239.994 180.719,240.281 180.537 C 240.527 180.381,240.806 180.253,240.901 180.253 C 240.997 180.253,241.276 180.381,241.521 180.537 M245.568 180.610 C 245.324 181.004,244.367 181.046,244.367 180.663 C 244.367 180.513,244.683 180.366,245.068 180.337 C 245.454 180.308,245.678 180.431,245.568 180.610 M319.224 181.322 C 318.550 181.510,318.680 181.567,319.844 181.595 C 320.654 181.614,321.317 181.507,321.317 181.357 C 321.317 181.021,320.360 181.005,319.224 181.322 M114.064 181.724 C 114.021 182.139,113.546 182.059,113.397 181.612 C 113.321 181.383,113.445 181.258,113.674 181.334 C 113.903 181.411,114.078 181.586,114.064 181.724 M312.305 181.548 C 312.305 181.695,313.303 181.812,314.524 181.808 C 315.744 181.805,316.670 181.685,316.583 181.542 C 316.373 181.199,312.305 181.205,312.305 181.548 M185.101 184.835 C 185.105 185.154,185.185 185.144,185.404 184.798 C 185.621 184.455,185.769 184.436,185.949 184.729 C 186.133 185.026,186.337 185.013,186.742 184.679 C 187.199 184.302,187.259 184.314,187.114 184.749 C 187.019 185.035,186.642 185.269,186.278 185.269 C 185.913 185.269,185.420 185.395,185.182 185.549 C 184.944 185.703,184.749 185.755,184.749 185.664 C 184.749 185.573,184.654 185.252,184.538 184.950 C 184.423 184.649,184.501 184.402,184.712 184.402 C 184.923 184.402,185.098 184.597,185.101 184.835 M92.738 188.909 C 92.757 190.494,92.711 190.554,92.201 189.601 C 91.937 189.109,91.937 188.707,92.201 188.215 C 92.698 187.286,92.718 187.312,92.738 188.909 M94.544 188.588 C 94.654 189.615,94.150 190.469,93.626 190.145 C 93.205 189.885,93.097 188.128,93.479 187.746 C 93.914 187.311,94.453 187.737,94.544 188.588 M118.142 188.821 C 118.087 190.101,118.084 190.104,117.947 188.995 C 117.767 187.548,117.158 187.525,117.158 188.966 C 117.158 190.290,116.986 190.172,116.696 188.648 C 116.501 187.623,116.559 187.522,117.340 187.522 C 118.110 187.522,118.192 187.655,118.142 188.821 M120.419 188.393 C 120.293 188.892,120.382 189.484,120.628 189.779 C 120.917 190.128,120.932 190.295,120.673 190.295 C 120.204 190.295,119.782 188.756,120.056 188.042 C 120.383 187.190,120.655 187.452,120.419 188.393 M139.168 188.793 C 139.168 189.393,138.985 189.832,138.735 189.832 C 138.473 189.832,138.302 189.365,138.302 188.648 C 138.302 187.855,138.445 187.512,138.735 187.608 C 138.973 187.688,139.168 188.221,139.168 188.793 M140.235 188.892 C 140.250 189.646,140.133 190.182,139.975 190.085 C 139.617 189.863,139.592 187.522,139.948 187.522 C 140.091 187.522,140.220 188.139,140.235 188.892 M142.634 188.875 C 142.634 189.619,142.517 190.156,142.374 190.068 C 141.912 189.782,142.117 187.522,142.605 187.522 C 142.621 187.522,142.634 188.131,142.634 188.875 M145.069 187.854 C 144.956 188.037,145.060 188.501,145.300 188.885 C 145.655 189.454,145.648 189.666,145.261 190.026 C 144.867 190.392,144.825 190.356,145.016 189.817 C 145.142 189.460,145.074 188.960,144.863 188.706 C 144.518 188.289,144.672 187.522,145.102 187.522 C 145.197 187.522,145.182 187.671,145.069 187.854 M146.447 188.875 C 146.447 189.619,146.330 190.156,146.187 190.068 C 145.725 189.782,145.930 187.522,146.418 187.522 C 146.434 187.522,146.447 188.131,146.447 188.875 M164.731 187.751 C 164.206 187.963,164.148 189.601,164.665 189.601 C 164.867 189.601,164.934 189.760,164.815 189.954 C 164.449 190.545,163.951 189.964,163.951 188.945 C 163.951 187.910,164.194 187.506,164.789 187.549 C 164.999 187.564,164.973 187.654,164.731 187.751 M187.348 188.908 C 187.348 189.544,187.153 190.129,186.915 190.208 C 186.615 190.308,186.482 189.909,186.482 188.908 C 186.482 187.907,186.615 187.508,186.915 187.608 C 187.153 187.688,187.348 188.273,187.348 188.908 M188.434 188.903 C 188.459 189.663,188.342 190.200,188.174 190.096 C 187.677 189.789,187.841 187.519,188.359 187.522 C 188.375 187.522,188.409 188.144,188.434 188.903 M272.034 188.198 C 272.131 188.491,272.032 188.562,271.761 188.395 C 271.432 188.191,271.422 188.294,271.716 188.844 C 272.208 189.764,272.199 189.832,271.577 189.832 C 271.216 189.832,271.057 189.470,271.057 188.648 C 271.057 187.482,271.697 187.188,272.034 188.198 M273.009 188.903 C 273.034 189.663,272.917 190.200,272.749 190.096 C 272.378 189.867,272.337 187.522,272.704 187.522 C 272.847 187.522,272.984 188.144,273.009 188.903 M274.287 188.176 C 274.193 188.536,274.286 188.935,274.493 189.063 C 274.717 189.201,274.870 189.013,274.870 188.602 C 274.870 188.221,275.002 187.828,275.163 187.728 C 275.325 187.628,275.457 188.164,275.457 188.919 C 275.457 189.927,275.349 190.202,275.051 189.954 C 274.784 189.732,274.489 189.763,274.187 190.043 C 273.815 190.387,273.772 190.344,273.958 189.817 C 274.085 189.460,274.017 188.960,273.806 188.706 C 273.417 188.237,273.633 187.522,274.165 187.522 C 274.326 187.522,274.382 187.816,274.287 188.176 M276.802 188.734 C 276.768 190.317,276.256 190.318,276.256 188.735 C 276.256 188.068,276.385 187.522,276.542 187.522 C 276.700 187.522,276.817 188.067,276.802 188.734 M315.251 188.793 C 315.251 189.903,314.556 190.265,314.476 189.197 C 314.449 188.847,314.574 188.562,314.753 188.562 C 314.932 188.562,315.078 188.396,315.078 188.194 C 315.078 187.993,314.922 187.924,314.731 188.042 C 314.541 188.159,314.385 188.078,314.385 187.860 C 314.385 187.642,314.580 187.529,314.818 187.608 C 315.056 187.688,315.251 188.221,315.251 188.793 M318.745 188.892 C 318.760 189.646,318.643 190.182,318.485 190.085 C 318.002 189.786,318.183 187.515,318.689 187.522 C 318.705 187.522,318.730 188.139,318.745 188.892 M93.588 188.735 C 93.588 189.211,93.744 189.601,93.934 189.601 C 94.125 189.601,94.281 189.211,94.281 188.735 C 94.281 188.258,94.125 187.868,93.934 187.868 C 93.744 187.868,93.588 188.258,93.588 188.735 M96.212 189.106 C 96.084 189.614,95.902 189.952,95.807 189.856 C 95.711 189.761,95.738 189.268,95.865 188.760 C 95.993 188.252,96.175 187.914,96.270 188.009 C 96.366 188.105,96.339 188.598,96.212 189.106 M116.093 189.457 C 116.107 189.663,115.884 189.832,115.598 189.832 C 115.013 189.832,114.997 189.765,115.314 188.580 C 115.542 187.729,116.016 188.262,116.093 189.457 M141.416 189.168 C 141.412 189.997,141.306 190.303,141.122 190.012 C 140.854 189.590,140.988 187.868,141.288 187.868 C 141.361 187.868,141.419 188.453,141.416 189.168 M189.667 189.081 C 189.745 189.749,189.684 190.295,189.532 190.295 C 189.379 190.295,189.255 189.749,189.255 189.081 C 189.255 188.414,189.316 187.868,189.390 187.868 C 189.465 187.868,189.589 188.414,189.667 189.081 M192.440 188.966 C 192.361 189.506,192.253 189.948,192.201 189.948 C 192.149 189.948,192.042 189.506,191.962 188.966 C 191.878 188.393,191.978 187.984,192.201 187.984 C 192.424 187.984,192.524 188.393,192.440 188.966 M122.096 189.197 C 122.187 189.547,122.081 189.832,121.859 189.832 C 121.637 189.832,121.434 189.547,121.408 189.197 C 121.382 188.847,121.488 188.562,121.645 188.562 C 121.801 188.562,122.004 188.847,122.096 189.197 " stroke="none" fill="#000000" fill-rule="evenodd"></path></g></svg>