<svg enable-background="new 0 0 512 512" height="512" viewBox="0 0 512 512" width="512" xmlns="http://www.w3.org/2000/svg"><g><path d="m206.3 94.867h99.401v33.133h-99.401z" fill="#ddf1fc" transform="matrix(0 -1 1 0 144.568 367.434)"/><path d="m249.567 61.433h23v100h-23z" fill="#c5dcf5"/><path d="m305.701 32.883h-99.4v29.133c0 4.418 3.582 8 8 8h83.4c4.418 0 8-3.582 8-8z" fill="#1c3173"/><path d="m297.701 70.017h-23c4.418 0 8-3.582 8-8v-29.134h23v29.133c0 4.419-3.582 8.001-8 8.001z" fill="#162664"/><path d="m330.834 3.75h-149.667c-4.418 0-8 3.582-8 8v17.133c0 4.418 3.582 8 8 8h149.667c4.418 0 8-3.582 8-8v-17.133c0-4.418-3.582-8-8-8z" fill="#355b90"/><path d="m330.834 36.883h-23c4.418 0 8-3.582 8-8v-17.133c0-4.418-3.582-8-8-8h23c4.418 0 8 3.582 8 8v17.133c0 4.418-3.582 8-8 8z" fill="#2b4983"/><path d="m222.866 165.516v-37.516c0-4.575 3.709-8.283 8.283-8.283h49.7c4.575 0 8.283 3.709 8.283 8.283v37.517h-66.266z" fill="#355b90"/><path d="m280.85 119.716h-23c4.575 0 8.283 3.709 8.283 8.283v37.517h23v-37.516c0-4.575-3.709-8.284-8.283-8.284z" fill="#2b4983"/><circle cx="256" cy="326.8" fill="#ddf1fc" r="173.95"/><g><g><path d="m24.066 408.85c-13.27 0-24.066-10.796-24.066-24.067s10.796-24.066 24.066-24.066 24.066 10.796 24.066 24.066c.001 13.271-10.795 24.067-24.066 24.067zm0-33.133c-4.999 0-9.066 4.067-9.066 9.066s4.067 9.066 9.066 9.066 9.066-4.067 9.066-9.066c.001-4.999-4.067-9.066-9.066-9.066z" fill="#7fe0fc"/></g></g><g><g><path d="m487.933 408.85c-13.27 0-24.066-10.796-24.066-24.066 0-13.271 10.796-24.066 24.066-24.066 13.271 0 24.067 10.796 24.067 24.066s-10.797 24.066-24.067 24.066zm0-33.133c-4.999 0-9.066 4.067-9.066 9.066s4.067 9.066 9.066 9.066c5 0 9.067-4.067 9.067-9.066s-4.067-9.066-9.067-9.066z" fill="#7fe0fc"/></g></g><g><g fill="#f5de84"><path d="m57.199 261.317h-9.066v-9.066c0-4.143-3.357-7.5-7.5-7.5s-7.5 3.357-7.5 7.5v9.066h-9.066c-4.143 0-7.5 3.357-7.5 7.5s3.357 7.5 7.5 7.5h9.066v9.066c0 4.143 3.357 7.5 7.5 7.5s7.5-3.357 7.5-7.5v-9.066h9.066c4.143 0 7.5-3.357 7.5-7.5s-3.357-7.5-7.5-7.5z"/><path d="m487.933 261.317h-9.066v-9.066c0-4.143-3.357-7.5-7.5-7.5s-7.5 3.357-7.5 7.5v9.066h-9.067c-4.143 0-7.5 3.357-7.5 7.5s3.357 7.5 7.5 7.5h9.066v9.066c0 4.143 3.357 7.5 7.5 7.5s7.5-3.357 7.5-7.5v-9.066h9.066c4.143 0 7.5-3.357 7.5-7.5.001-4.143-3.357-7.5-7.499-7.5z"/></g></g><g><g fill="#f5de84"><path d="m106.899 476.683h-9.066v-9.066c0-4.143-3.357-7.5-7.5-7.5s-7.5 3.357-7.5 7.5v9.066h-9.066c-4.143 0-7.5 3.357-7.5 7.5 0 4.142 3.357 7.5 7.5 7.5h9.066v9.067c0 4.142 3.357 7.5 7.5 7.5s7.5-3.358 7.5-7.5v-9.067h9.066c4.143 0 7.5-3.358 7.5-7.5 0-4.143-3.357-7.5-7.5-7.5z"/><path d="m438.233 476.683h-9.067v-9.066c0-4.143-3.357-7.5-7.5-7.5s-7.5 3.357-7.5 7.5v9.066h-9.066c-4.143 0-7.5 3.357-7.5 7.5 0 4.142 3.357 7.5 7.5 7.5h9.066v9.067c0 4.142 3.357 7.5 7.5 7.5s7.5-3.358 7.5-7.5v-9.067h9.067c4.143 0 7.5-3.358 7.5-7.5 0-4.143-3.357-7.5-7.5-7.5z"/></g></g><path d="m256 152.85c-3.866 0-7.698.14-11.5.388 90.707 5.922 162.45 81.357 162.45 173.562 0 92.204-71.743 167.64-162.45 173.562 3.802.248 7.634.388 11.5.388 96.07 0 173.95-77.88 173.95-173.95s-77.88-173.95-173.95-173.95z" fill="#c5e0fa"/><g fill="#c5dcf5"><path d="m120.014 218.333h271.971c-4.199-5.257-8.691-10.267-13.461-15h-245.049c-4.769 4.734-9.262 9.744-13.461 15z"/><path d="m89.5 276.317h333c-1.545-5.104-3.32-10.107-5.31-15h-322.38c-1.99 4.893-3.765 9.896-5.31 15z"/><path d="m82.05 326.8c0 2.514.065 5.012.171 7.5h347.558c.105-2.488.171-4.986.171-7.5s-.066-5.012-.171-7.5h-347.558c-.106 2.488-.171 4.986-.171 7.5z"/><path d="m94.81 392.283h322.379c1.99-4.893 3.765-9.896 5.31-15h-332.999c1.545 5.104 3.32 10.107 5.31 15z"/><path d="m120.015 435.267c4.198 5.256 8.691 10.267 13.461 15h245.049c4.77-4.733 9.263-9.744 13.461-15z"/><path d="m248.5 153.021v347.558c2.488.105 4.986.171 7.5.171s5.012-.066 7.5-.171v-347.558c-2.488-.106-4.986-.171-7.5-.171s-5.012.065-7.5.171z"/><g><path d="m198.067 451.529c-17.774-33.192-27.562-77.488-27.562-124.729 0-47.24 9.788-91.536 27.562-124.729 16.968-31.686 38.995-49.146 62.027-49.17-1.362-.031-2.726-.052-4.095-.052-15.138 0-29.822 1.938-43.823 5.571-10.059 9.263-19.282 21.535-27.333 36.569-18.92 35.332-29.339 82.143-29.339 131.81s10.419 96.478 29.339 131.809c8.051 15.034 17.274 27.307 27.333 36.57 14.001 3.634 28.686 5.571 43.823 5.571 1.367 0 2.729-.021 4.088-.052-23.029-.026-45.053-17.485-62.02-49.168z"/><path d="m322.215 202.071c17.774 33.192 27.562 77.488 27.562 124.729 0 47.24-9.788 91.536-27.562 124.729-16.269 30.382-37.189 47.674-59.188 49.068 16.988-.675 33.354-3.773 48.749-8.982 8.637-8.771 16.602-19.821 23.663-33.006 18.92-35.331 29.339-82.142 29.339-131.809s-10.419-96.478-29.339-131.81c-7.06-13.185-15.026-24.235-23.663-33.006-15.397-5.209-31.765-8.307-48.756-8.982 22.001 1.391 42.924 18.684 59.195 49.069z"/><path d="m260.638 152.912c-.114-.003-.228-.005-.342-.008.114 0 .228.007.342.008z"/><path d="m260.318 500.695c.101-.002.202-.005.303-.007-.101.001-.202.007-.303.007z"/></g></g><g><g><path d="m97.762 99.837 8.721 17.67 19.5 2.833c6.794.987 9.507 9.337 4.591 14.129l-14.11 13.754 3.331 19.421c1.161 6.767-5.942 11.927-12.019 8.732l-17.441-9.169-17.441 9.169c-6.077 3.195-13.179-1.965-12.019-8.732l3.331-19.421-14.11-13.754c-4.916-4.792-2.203-13.142 4.591-14.129l19.5-2.833 8.721-17.67c3.037-6.156 11.816-6.156 14.854 0z" fill="#f5de84"/><path d="m429.094 99.837 8.72 17.67 19.5 2.833c6.794.987 9.507 9.337 4.591 14.129l-14.11 13.754 3.331 19.421c1.161 6.767-5.942 11.927-12.019 8.732l-17.441-9.169-17.441 9.169c-6.077 3.195-13.179-1.965-12.019-8.732l3.331-19.421-14.11-13.754c-4.916-4.792-2.203-13.142 4.591-14.129l19.5-2.833 8.72-17.67c3.039-6.156 11.818-6.156 14.856 0z" fill="#f5de84"/><g fill="#efc56c"><path d="m457.315 120.341-19.5-2.833-8.72-17.67c-3.038-6.157-11.817-6.157-14.856 0l-4.072 8.251 4.648 9.419 19.5 2.833c6.794.987 9.507 9.337 4.591 14.129l-14.11 13.754 3.331 19.421c.176 1.029.142 2.012-.031 2.943l11.012 5.789c6.077 3.195 13.179-1.966 12.019-8.732l-3.331-19.421 14.11-13.754c4.916-4.793 2.203-13.142-4.591-14.129z"/><path d="m125.982 120.341-19.5-2.833-8.72-17.67c-3.038-6.157-11.817-6.157-14.856 0l-4.072 8.251 4.648 9.419 19.5 2.833c6.794.987 9.507 9.337 4.591 14.129l-14.11 13.754 3.331 19.421c.176 1.029.142 2.012-.031 2.943l11.012 5.789c6.077 3.195 13.179-1.966 12.019-8.732l-3.331-19.421 14.11-13.754c4.917-4.793 2.204-13.142-4.591-14.129z"/></g></g></g></g></svg>