<svg xmlns="http://www.w3.org/2000/svg" width="400" height="199.664"><g><path fill="#000" fill-rule="evenodd" stroke="none" d="M65.21 34.29c-1.06 1.06-1.06 153.56 0 154.62 1.01 1.01 268.78 1.07 269.7.06.9-1.01.85-153.98-.06-154.8-1.06-.96-268.68-.85-269.64.12m33.21 8.13c.28.28.4 2.17.4 6.32s-.12 6.04-.4 6.32c-.3.3-3.67.4-13.1.4H72.6V42.02h12.7c9.44 0 12.81.1 13.11.4m27.3 2.62c0 4.6-.5 4.37 9.57 4.37s9.58.22 9.58-4.37v-3.02h11.41c11.41 0 11.41 0 11.94.74.45.65.52 2.8.52 16.64v15.9h3.4c4.96 0 6.68 1.07 6.68 4.2 0 3.52-1.46 4.2-9.3 4.22l-6 .02-10.29 11.66-10.3 11.66 3.24.17c4.62.24 6.03 1.39 5.67 4.6-.37 3.28-1.74 3.8-10.06 3.8h-6.49l-1.99 2.23c-3.2 3.58-2.64 3.47-17.3 3.48-11.25 0-12.65-.06-13.2-.55-.88-.8-.97-77.36-.09-78.25.46-.45 2-.52 11.77-.52h11.23v3.02m133.11.15c0 4.45-.5 4.22 9.6 4.22 9.72 0 9.12.28 9.28-4.28l.11-3.11h11.24c9.98 0 11.3.06 11.85.55 1.02.93.95 77.1-.07 78.12-.68.67-.98.68-13.73.59l-13.04-.1-1.32-.96c-.72-.52-2-1.75-2.82-2.72l-1.52-1.78-7.05-.13c-8.07-.15-8.85-.39-9.62-2.97-1.02-3.4 1.03-5.4 5.55-5.4 1.77 0 3.22-.07 3.22-.17s-4.62-5.38-10.26-11.74l-10.27-11.57-6.57-.1-6.56-.11-1.2-1.3c-1.09-1.2-1.17-1.43-1.02-2.94.3-3.06 1.93-4 6.97-4h3.37V59.27c0-14.44.05-16.09.55-16.64.52-.57 1.34-.61 11.94-.61h11.37v3.17m-64-1.66c.25.98-.36 1.9-1.06 1.62-.49-.18-.67-1.82-.26-2.24.48-.48 1.12-.18 1.32.62m1.3-.35c-.44.33-.5.5-.2.5.38.02.38.12.05.52-.35.42-.32.5.2.5.44 0 .5.1.23.38-.6.6-1.1.02-1.1-1.23 0-.97.11-1.16.73-1.16.72 0 .72.01.09.5m9.94.01c.63.77-.14 2.43-.86 1.83-.75-.62-.61-2.34.2-2.34.12 0 .42.23.66.51m1.95.63c.1.94-.46 1.68-1.02 1.34-.15-.1-.27-.7-.27-1.35 0-1.52 1.12-1.5 1.29.01m1.74-.78c0 .2-.14.26-.31.16-.18-.1-.41-.04-.53.15-.12.18.06.34.38.34.53 0 .52.04-.07.5-.59.44-.6.49-.06.5.32 0 .59.17.59.37 0 .2-.27.3-.59.24-.55-.1-.89-1.67-.52-2.37.21-.38 1.1-.3 1.1.1m-15.79.8c0 .48.15.87.34.87.18 0 .33-.3.33-.66 0-.35-.15-.74-.33-.86-.2-.11-.34.17-.34.66m3.8.92c.21.13.28.33.16.45-.45.45-.93-.25-.89-1.29.04-.92.07-.96.2-.23.09.46.33.94.53 1.07m2.19-.77c.31.9.28.96-.47.92-.45-.02-.81-.25-.81-.5 0-.27.2-.38.5-.27.28.11.5.05.5-.13a.33.33 0 00-.33-.32.34.34 0 01-.34-.34c0-.7.62-.29.95.64m1.3.05c-.2.53-.4.93-.42.9-.47-.65-.37-1.79.16-1.83.55-.04.58.07.26.93m2.15-.02c.17 0 .3-.22.3-.5s.15-.5.32-.5.3.46.29 1.02c-.02.57-.12.91-.23.76-.31-.42-1.48-.54-1.23-.13.13.2.05.36-.17.36-.22 0-.3-.23-.18-.53.1-.3.22-.78.24-1.1.03-.49.06-.48.2.04.07.32.28.58.46.58m1.89-.79c-.35.35-.29 1.47.08 1.47.17 0 .4-.15.52-.34.26-.42-.29-1.45-.6-1.13m1.78.6c0 .48.15.87.34.87.18 0 .33-.3.33-.66 0-.35-.15-.74-.33-.86-.2-.11-.34.17-.34.66m-73.71 1.6c-.08.43-.15.16-.16-.58 0-.74.07-1.08.15-.76.08.33.09.93 0 1.35m2.12-.33l-.01 1.42-.67-.84c-.4-.5-.59-.6-.46-.25.11.33.04.59-.15.59-.2 0-.33-.45-.3-1 .09-1.15.39-1.3.9-.43.3.53.34.5.35-.17 0-.41.08-.75.17-.75.1 0 .17.64.17 1.43m1.68-1.1c0 .19-.19.34-.42.34-.28 0-.25.13.09.37.41.29.42.39.04.54-.38.15-.38.23 0 .46.57.35.15.8-.53.53-.52-.2-.74-1.91-.3-2.35.35-.34 1.12-.26 1.12.11m1.98.93c-.04 1.24-.04 1.24-.28.25-.22-.95-.16-1.51.17-1.51.08 0 .13.56.11 1.26m128.99-.34c-.1-.32-.05-.59.11-.59.17 0 .3.46.28 1.01-.03 1.12-.4 1.32-.77.42-.22-.54-.26-.53-.52.09-.2.51-.28.36-.29-.68l-.01-1.34.7.84c.45.55.62.64.5.25m2.14-.59c0 .19-.26.34-.59.34-.5 0-.51.06-.08.34.45.3.45.37 0 .66-.43.29-.42.34.08.34.33 0 .6.16.6.34 0 .19-.31.34-.68.34-.56 0-.67-.23-.67-1.35s.11-1.34.67-1.34c.37 0 .67.15.67.33m2.06.96c-.16.3-.22.74-.14.98.09.23-.1.42-.41.42-.38 0-.5-.18-.37-.5.12-.29.3-.74.41-1.02.11-.27.03-.5-.19-.5-.21 0-.3-.16-.17-.35.37-.6 1.2.33.87.97m-140.2-.14c0 .44.18.88.41.96.23.08.31.26.18.4s-.47.17-.75.06c-.58-.22-.74-2.24-.19-2.24.19 0 .34.37.34.82m133.13.86c.17 0 .32.16.32.34 0 .19-.23.34-.5.34-.38 0-.5-.34-.46-1.26.04-1.02.08-1.08.19-.34.08.5.28.92.45.92m1.22-.08c-.08.32-.15.06-.15-.59 0-.64.07-.91.15-.59.09.33.09.86 0 1.18m-191.6.97c-.45.46-.26 3.48.23 3.48.8 0 1.27-.9 1.16-2.24-.1-1.22-.79-1.84-1.38-1.24m1.98.32c-.55 1.43.02 3.73.74 3.01.12-.12.04-.33-.18-.46-.23-.14-.28-.43-.11-.7.15-.24.2-.73.1-1.08-.08-.34.01-.63.22-.63.2 0 .37-.15.37-.34 0-.54-.91-.38-1.14.2m3.2.2c-.16.43-.35 1.07-.42 1.42-.27 1.39-1.05 1.02-.91-.43.17-1.82-.25-1.8-.5.03-.26 2 .62 2.73 1.66 1.36.27-.36.45-.43.45-.17.04 1.21.69.19.69-1.07 0-1.7-.53-2.3-.97-1.14m4.03-.3c-.48.48-.49 2.82-.01 3.11.2.12.45.12.57 0 .13-.12.05-.33-.17-.46-.23-.14-.28-.43-.11-.7.15-.24.2-.73.1-1.08-.12-.48.02-.63.58-.63.68 0 .72.11.52 1.34-.15.89-.1 1.35.14 1.35.2 0 .36-.6.36-1.35 0-.74.15-1.34.34-1.34.18 0 .33.6.33 1.32 0 1.26.47 2.03.94 1.55.12-.12.04-.33-.17-.46-.24-.15-.28-.42-.1-.7.15-.27.2-.7.1-.96a.67.67 0 01.27-.77c.25-.15.35-.39.22-.52-.13-.12-.44-.06-.7.15-.24.21-.56.28-.68.15-.4-.4-2.13-.4-2.53 0m4.53-.04c-.35 1.13-.46 2.97-.18 2.97.18 0 .32-.31.32-.7 0-.38.14-.6.32-.49.18.11.24.4.15.66-.1.25-.02.56.18.68.23.15.33-.37.27-1.53-.08-1.66-.73-2.64-1.06-1.6m5.01 1.35c0 .9.12 1.63.26 1.63.13 0 .25-.6.25-1.35 0-.97.14-1.34.5-1.34.46 0 .7 1 .53 2.27-.03.23.1.42.3.42.19 0 .35-.24.35-.52 0-.29.23-.97.51-1.52.28-.54.38-.99.22-.99s-.46.34-.66.76l-.36.76-.03-.76c0-.42-.13-.78-.27-.8-1.57-.27-1.6-.24-1.6 1.44m-12.14-.35c.12.58.22 1.38.22 1.77.02.51.15.38.46-.46.25-.65.56-1.45.7-1.77.15-.36.1-.59-.13-.59-.2 0-.38.34-.39.76l-.02.76-.3-.76c-.45-1.1-.78-.92-.54.3m8.81.33c-.2 1.28-.08 1.97.3 1.6.34-.35.58-2.99.26-2.99-.18 0-.43.63-.56 1.4m1.02-.03c-.27 1.64.18 2.65.5 1.15.33-1.52.34-2.52 0-2.52-.15 0-.38.62-.5 1.37m1.14.37c0 2.08.16 2.03.48-.14.15-1.05.1-1.6-.13-1.6-.2 0-.35.74-.35 1.74m-16.65-.3c-.26 1.19-.4 1.45-.67 1.2-.28-.28.23-2.3.58-2.3.19 0 .22.46.09 1.1m13.62-.6c0 .28-.15.5-.33.5-.19 0-.34-.22-.34-.5 0-.27.15-.5.34-.5.18 0 .33.23.33.5m123.5 2.04c.64.63.68 1.21.13 1.76-.87.88-2.62.25-2.62-.94 0-1.26 1.55-1.77 2.5-.82m100.69.4c0 .14-.5.48-1.1.76-2.38 1.1-3.24 5.49-1.43 7.37 2.24 2.35 6.88 1.74 7.75-1.01.12-.39.3-.62.4-.52.38.37-1.32 2.52-2.4 3.03-6.03 2.86-11.07-5.6-5.47-9.18 1.07-.69 2.26-.93 2.25-.45m3.6.4a4.7 4.7 0 012.29 3.21c.17.82.08.73-.47-.42a4.97 4.97 0 00-1.73-2.02c-.58-.32-1.3-.77-1.61-1-.97-.7.3-.5 1.52.23m-205.02.87a11.56 11.56 0 00-4.26 19.06c2.26 2.27 2.36 2.3 3.16.82.6-1.1.61-1.12 1.81-.69a9.22 9.22 0 009.42-2.33c1.1-1.17 1.17-1.19 2.1-.7 1.26.64 1.24.72-.74 2.67-1.77 1.73-2.17 1.73-2.78.02-.08-.2-.24-.28-.36-.17-.26.24.84 2.31 1.23 2.32.47 0 3.35-2.83 4.14-4.08 5.62-8.88-3.84-20.55-13.72-16.92m39.02-.05c-8.48 3.03-10.77 13.04-4.4 19.28.98.97 1.93 1.77 2.1 1.77.39 0 1.46-2.01 1.21-2.26-.1-.1-.36.22-.58.7-.58 1.27-1.95.6-3.65-1.8l-.67-.94.87-.57c.85-.56.88-.55 1.97.63a8.97 8.97 0 0012.98.1c1.08-1.13 1.16-1.16 2.06-.7 1.23.64 1.2.75-.64 2.6-1.82 1.8-2 1.86-2.52.73-.34-.76-.95-1.16-.95-.64 0 .75 1.45 2.12 1.96 1.84 2.46-1.31 4.97-5.4 5.3-8.62.84-7.97-7.6-14.77-15.04-12.12m93.62.22c-8.05 3.18-9.9 13.2-3.55 19.22 2 1.89 1.96 1.9 3.26-.2.3-.5.46-.5 1.85 0 1.47.52 4.44.5 6.27-.05.59-.18.84-.02 1.27.82.71 1.37.86 1.34 2.96-.73 8.92-8.74-.51-23.64-12.06-19.06m38.63 0c-8.1 3.21-9.83 13.43-3.28 19.46l1.6 1.48.8-.98c.84-1.06.97-1.48.44-1.48-.18 0-.33.12-.33.27 0 1.89-1.85 1.31-3.82-1.19l-.68-.86 1-.8c1.08-.86.72-1.09-.45-.27-.9.63-1.64-.5-1.99-3.03l-.2-1.52h1.05c.58 0 1.05-.15 1.05-.34 0-.18-.47-.33-1.05-.33h-1.05l.2-1.52c.37-2.63 1.07-3.64 2.1-2.98.46.3.92.47 1.04.35.1-.1-.2-.38-.69-.6-1.24-.57-1.12-.99.85-2.83 1.78-1.67 2.15-1.67 2.75-.02.07.2.24.27.37.15.14-.12-.01-.62-.32-1.1-.66-1 .2-1.55 3.12-2.03 1.42-.24 1.42-.23 1.42.8 0 .57.16 1.04.34 1.04.19 0 .34-.47.34-1.05 0-1.02.03-1.04 1.23-.81 2.74.51 3.85 1.18 3.3 1.97-.79 1.12-.58 1.5.26.48l.75-.93 1.08.86c.6.47 1.4 1.3 1.78 1.83l.7.98-.97.5c-.95.49-1 .47-2.12-.68-5.43-5.66-15.1-1.86-15.08 5.93.01 5.92 6.2 10.27 11.8 8.27 1.22-.44 1.23-.43 1.76.69.72 1.5.96 1.44 3.21-.82 8.73-8.72-.85-23.42-12.3-18.89m-167.84.66c0 .55.15 1 .34 1 .18 0 .33-.46.33-1.03 0-1.15 1.35-1.19 3.98-.1l1.11.45-.6 1.02c-.4.69-.78.96-1.12.82a9.05 9.05 0 00-10.23 2.08c-1.17 1.2-1.2 1.22-2.05.66l-.86-.56.7-.98c.38-.54 1.18-1.36 1.77-1.83l1.08-.86.76.93c.84 1.03 1.04.64.25-.49-.48-.69-.44-.74.93-1.23 3.33-1.19 3.61-1.18 3.61.12m38.66 0c0 .55.15 1 .33 1 .19 0 .34-.46.34-1.03 0-1.03 0-1.04 1.43-.8 2.92.48 3.77 1.04 3.12 2.04-.32.47-.46.97-.33 1.09.13.12.3.05.37-.15.6-1.65.97-1.65 2.76.02 1.98 1.86 2.07 2.18.81 2.88-.88.5-.94.47-2.08-.78a8.52 8.52 0 00-8.96-2.46c-.88.3-1.64.5-1.67.46-.04-.05-.25-.44-.48-.87-.22-.43-.49-.7-.6-.6-.1.1.04.53.3.95.47.73.4.85-1.1 2.29l-1.6 1.51-.86-.68-.85-.69 1.03-1.25a12.35 12.35 0 015.44-3.45c2.25-.7 2.6-.63 2.6.52m94.45 0c0 .55.16 1 .36 1 .2 0 .31-.4.25-.91-.27-2.33 6.28.2 8.45 3.26l.71.99-.91.47c-.85.45-.96.42-1.66-.41-6.4-7.6-18.32 0-14.77 9.42.15.4-1.75 1.87-2.02 1.57-.28-.31-1.17-3.45-1.17-4.14 0-.7.16-.83 1.01-.83.56 0 1.01-.15 1.01-.34 0-.18-.47-.33-1.05-.33h-1.06l.21-1.52c.36-2.63 1.07-3.64 2.09-2.98.46.3.93.47 1.04.35.11-.1-.2-.38-.68-.6-1.23-.56-1.13-.92.81-2.83 1.67-1.63 2.67-1.67 2.67-.09 0 .15.16.27.35.27.2 0 .12-.42-.17-1-.6-1.14-.3-1.43 2.07-1.99 2.24-.52 2.46-.47 2.46.64m-115.66.65c-2.91 2.91.8 7.3 4.39 5.19 2.2-1.3 2.4-3.47.46-5.17-1.59-1.4-3.47-1.4-4.85-.02m133-.27c-1.26.99-1.65 2.14-1.2 3.53.88 2.65 3.9 3.34 5.9 1.35.62-.63 1.21-1.05 1.31-.96.4.4.15-1.37-.32-2.27-1.2-2.3-3.88-3.08-5.7-1.65m49.48.49c-.32.32-.97-.2-.73-.59.14-.23.33-.22.57.02.2.2.27.45.16.57M123.38 54c1.97 1.78 2.19 2.32 1.2 2.97-1.29.84-4.08-1.91-3.35-3.3.6-1.14.52-1.15 2.15.33m130.4-.56c-.21.4-.31.8-.22.9.1.09.34-.17.56-.57.21-.4.31-.8.22-.9-.1-.09-.34.16-.56.56m-117.29.35c1.04.56.88 2.27-.24 2.56-1.79.44-2.85-1.35-1.4-2.37.9-.63.82-.63 1.64-.19m132.69.4c1 1 0 2.5-1.42 2.15-.97-.24-1.43-1.37-.86-2.07.5-.6 1.72-.64 2.28-.09m-150.36.9a7.81 7.81 0 014.49 7.27l-.05 1.35-.2-1.35c-.75-4.98-5.94-8.25-10.21-6.43-1.04.44-3 2.23-2.45 2.23.15 0 .03.37-.27.81-.29.45-.7 1.5-.91 2.35-.22.86-.54 1.45-.72 1.33-.19-.11-.47 0-.63.26-.65 1.01-.28-2.57.4-3.98 1.81-3.74 6.79-5.55 10.55-3.84m38.18-.24c2.52.75 5.24 3.94 4.94 5.77-.1.63-.2.57-.65-.47-1.4-3.17-4.18-4.88-7.48-4.61-1.93.16-4.65 1.6-4.53 2.38.04.23-.17.94-.46 1.59-.29.64-.63 1.73-.75 2.41-.17.87-.38 1.18-.7 1.06-.27-.1-.5.02-.5.27-.02.25-.16.05-.31-.45-1.45-4.82 4.86-9.63 10.44-7.95m95.62.33c1.76.82 3.72 2.96 4.03 4.39.31 1.42-.03 1.53-.7.22a7.47 7.47 0 00-5.84-4.3c-.82-.1-1.55-.38-1.62-.6-.23-.7 2.43-.5 4.13.29m37.83-.33a7.97 7.97 0 014.35 3.67c.91 1.78.87 2.86-.05 1.32-1.6-2.68-3.47-4.04-5.98-4.35-1.78-.22-2.31-1.03-.69-1.03.6 0 1.66.18 2.37.39m-112.4.17c-.13.12-.06.43.16.69.56.68-.22 1.43-.81.79-.29-.3-.3-.38-.03-.23.22.12.48.08.59-.09.1-.16-.05-.4-.34-.5-.55-.22-.35-.88.27-.88.2 0 .27.1.15.22m3.56 0c-.23.1-.42.4-.42.68 0 .31.19.44.48.33.33-.13.43-.03.3.3-.26.69-.7.6-.95-.18-.25-.77.03-1.36.6-1.32.3.02.29.07-.01.2m1.71 1.53c.25.16.18.25-.2.25-.45 0-.58-.25-.54-1.09.04-.92.07-.96.2-.25.08.46.33.95.54 1.09m1.4-1.5c-.53.39-.59 1.16-.1 1.5.33.24.32.28-.07.17-.78-.2-.87-1.93-.1-1.92.33 0 .45.1.27.25m5.2.2c0 .26-.22.65-.5.88-.42.36-.5.29-.5-.46 0-.56.18-.88.5-.88.28 0 .5.2.5.46m2.36.99c0 .18-.3.06-.67-.27-.37-.34-.68-.76-.68-.95 0-.18.3-.06.68.27.37.34.67.76.67.95m8.4-1.09c0 .34-.8 1.32-1.1 1.32-.1 0-.06-1.23.07-1.6.09-.27 1.03-.02 1.03.28m2.78-.1c.08-.23.15 0 .16.51 0 .9-.03.91-.63.37-.72-.66-.87-1.42-.16-.83.37.3.51.29.63-.04m6.88.4c.13.71-.44 1.48-.88 1.2-.64-.4-.46-1.94.21-1.8.32.05.62.33.67.6m1.16 1.08c-.2.21-.4.2-.55-.04-.12-.2-.06-.37.13-.37.2 0 .38-.34.4-.75.05-.75.05-.74.2.04.08.43 0 .94-.17 1.12m3.07 0c.25.17.18.26-.2.26-.45 0-.58-.25-.54-1.09.04-.92.07-.96.2-.25.09.46.33.95.54 1.09m5.93-1.4c0 .2-.15.26-.33.14-.19-.11-.34.14-.33.57 0 .64.06.69.36.27.29-.4.33-.41.23-.02-.27.97-.93.77-.93-.28 0-.7.16-1.04.5-1.04.28 0 .5.16.5.36m1.55.8c-.24.95-.7 1.12-.99.37-.12-.33-.02-.42.3-.3.34.13.49-.05.49-.58 0-.42.1-.67.2-.55.12.11.12.59 0 1.06m2.6.5c.31.36.28.43-.11.3-.28-.09-.53-.6-.57-1.15-.03-.61.01-.73.12-.3.1.36.36.88.57 1.14m-15.25-.81c0 .28.15.5.34.5.18 0 .33-.22.33-.5s-.15-.5-.33-.5c-.19 0-.34.22-.34.5m-15.82.7c-.42.51-.99.34-.98-.3 0-.24.13-.2.33.1.28.43.33.42.33-.1 0-.34.16-.51.36-.39.24.15.23.37-.04.69m52.46-.63c0 .13-.57.83-1.26 1.56-.7.73-1.08 1.22-.85 1.1.25-.14.16.33-.22 1.2-1.8 4.21-.84 7.25 2.9 9.14 2.19 1.1 6.03.37 7.66-1.46 1.25-1.4 2.05-1.63 1.31-.37-4.26 7.2-16.45 1.49-14.25-6.68.6-2.24 4.71-6.15 4.71-4.49m38.66 0c0 .13-.49.73-1.07 1.34a4.85 4.85 0 00-1.17 1.7c-.05.32-.33 1.64-.63 2.93-.63 2.77-.5 3.46.9 5.07 2.76 3.13 7.6 3.37 10.2.5.7-.78 1.85-1.52 1.85-1.2 0 .75-2.96 3.24-4.44 3.73-5.81 1.93-12.09-3.93-10.37-9.68.66-2.18 4.73-5.97 4.73-4.4m-82.7.37c0 .15-.3.3-.67.32-.38.03-.6-.1-.49-.27.24-.38 1.17-.42 1.17-.05M77 58.06c-.17 1.22-.18 1.23-.3.26-.07-.55-.3-1.12-.51-1.26-.24-.15-.13-.25.3-.25.6 0 .66.15.51 1.26m2.32-.17c0 .14-.14.25-.33.25-.18 0-.33-.34-.33-.75 0-.73.65-.24.66.5m1 .17c-.03 1-.09 1.13-.32.59-.17-.4-.3-.48-.31-.2-.02.26-.1.4-.2.3-.18-.18.5-1.95.73-1.95.06 0 .1.56.1 1.26m1.61-1.03c-.67.18-.8.76-.17.8.34.02.34.06 0 .2-.6.24-.51.7.17.89.44.11.4.16-.17.2-.64.02-.75-.14-.75-1.15 0-1 .1-1.17.75-1.13.57.02.61.07.17.19m1.79 1.5c-.28.69-.32.62-.33-.56 0-1.02.07-1.2.32-.78.2.35.2.85 0 1.34m1.3-.47c-.01 1-.07 1.13-.3.59-.17-.4-.3-.48-.32-.2-.01.26-.1.4-.2.3-.17-.18.5-1.95.74-1.95.06 0 .1.56.09 1.26M87 57.9c.07.62-.08 1-.44 1.14-.8.3-1.3-.37-1.04-1.4.3-1.17 1.33-1 1.48.26m1.9-.47c.28.9-.13 1.73-.87 1.73-.5 0-.64-.25-.64-1.18 0-1.31 1.13-1.73 1.5-.55m1.45-.4c-.68.19-.8.77-.17.81.33.02.33.06 0 .2-.6.24-.52.7.17.89.44.11.4.16-.17.2-.65.02-.76-.14-.76-1.15 0-1 .11-1.17.76-1.13.57.02.6.07.17.19m17.4 1.78c-.25.48-.56 1.4-.68 2.05-.2 1.1-.3 1.18-1.23 1.04-1.14-.16-1.15-1.07-.06-3.79l.5-1.25.95.54c.89.51.93.61.51 1.41m18.82.08c.76 2.56.69 2.95-.5 2.95-.79 0-1-.15-1-.68 0-.38-.24-1.25-.52-1.93-.5-1.19-.5-1.26.24-1.8.99-.75 1.16-.6 1.78 1.46m19.93-1.16c.34.23.32.54-.09 1.52a10.08 10.08 0 00-.04 6c.7 1.96-1.14 2.97-1.9 1.04-1.1-2.79-1.08-3.78.07-3.78.57 0 1.03-.15 1.03-.34 0-.18-.46-.33-1.03-.33-1.15 0-1.17-1-.07-3.78.5-1.28.59-1.3 2.03-.33m18.7.98c.88 2.58.75 3.13-.7 3.13-.68 0-1.14-.09-1.03-.2.1-.1-.03-.97-.31-1.9-.88-2.97 1.05-3.94 2.04-1.03m94.63 1.47l.26 1.66h-.96c-.68 0-.96-.17-.97-.59-.01-.32-.24-1.2-.5-1.93-.46-1.28-.44-1.37.27-1.92.92-.7 1.47.1 1.9 2.78m38.78.4c.3 2.04-1.54 1.9-2.08-.17a9.08 9.08 0 00-.69-1.92c-.23-.36-.08-.63.59-1.05 1.03-.64 1.78.44 2.18 3.14M77.88 58.74c-.09.32-.16.06-.16-.59 0-.65.07-.91.16-.59.08.33.08.86 0 1.18m7.97-1.13c-.12.32-.06.75.15.96.26.27.43.2.59-.22.12-.32.06-.75-.15-.95-.27-.27-.43-.21-.6.21m2.11-.24c-.34.35-.26 1.45.12 1.45.18 0 .33-.38.33-.84 0-.88-.07-.98-.45-.61m101.47.46c.15.24.4.21.75-.08.42-.35.56-.35.67-.02.08.24.28.34.45.23.37-.22 1.31.65 1.31 1.21 0 .22-.28.05-.62-.38l-.63-.77-.24.74c-.26.83-1.2 1.01-1.2.23 0-.65-.63-.65-.88 0-.4 1.02-.85-.33-.49-1.43.08-.23.69-.04.88.27m4.28-.13c-.51.2-.57 1.46-.07 1.46.2 0 .27-.15.15-.34-.11-.18-.03-.33.18-.33.48 0 .25.75-.28.93-.5.16-.88-.75-.62-1.44.1-.27.39-.49.63-.47.33.02.34.06 0 .2m25.54.06c-.35.22-.35.35.04.67.38.32.51.26.66-.28.1-.38.38-.68.63-.68.27 0 .32.1.11.26-.42.3-.44 1.18-.03 1.47.16.12-.29.21-1.01.2-.72 0-1.12-.07-.88-.16.33-.12.34-.27.06-.61-.42-.51-.16-1.16.45-1.16.28 0 .28.1-.03.29m3.14.81c.01.65-.1.8-.39.55-.27-.23-.46-.2-.58.1-.1.24-.18.04-.2-.43-.01-.48.08-.98.2-1.1.45-.45.95.01.97.88m2.14.44c.06.81-1.48.26-1.55-.56l-.07-.81.27.84.27.84.27-1c.27-.97.73-.58.81.69m-34.37-.97c-.1.17-.06.5.1.74.2.34.32.34.51.04a.63.63 0 00-.09-.74c-.18-.19-.41-.2-.52-.04m35.53 1.19c.24.16.17.25-.2.25-.44 0-.59-.25-.56-.92.03-.7.08-.77.21-.25.1.37.34.78.55.92m23.6-.39c.34.56-.44 1.2-.9.74-.4-.39-.15-1.1.37-1.1.16 0 .4.16.52.36m39 0c.34.56-.44 1.2-.9.74-.4-.39-.15-1.1.37-1.1.16 0 .4.16.52.36m-155.48 1.3c0 .95.09 1.03 1.22 1.03 1 0 1.17-.1.99-.57-.2-.5-.13-.5.47.05.67.6.69.6.72-.19l.03-.8.27.83c.15.47.28.64.3.38.03-.35.15-.37.5-.08.36.3.44.18.41-.63-.03-.95-.53-1.5-.54-.59 0 .26-.1.3-.25.08-.43-.58-1.1-.53-1.1.09 0 .48-.06.5-.3.1-.53-.83-1.37-.72-1.37.18 0 .45-.15.81-.34.81-.18 0-.34-.3-.34-.65 0-.36-.15-.75-.33-.86-.2-.12-.34.22-.34.82m133.16-.07c-.04.84.1 1.1.54 1.1.38-.01.45-.1.2-.26-.21-.14-.45-.63-.54-1.09-.13-.71-.16-.67-.2.25m1.32 0c-.02.76.13 1.1.48 1.1.28 0 .5-.17.5-.38 0-.27.14-.27.48.02.4.32.51.25.63-.38.14-.75.15-.75.2.06.04.68.11.74.38.34.21-.34.32-.36.33-.08 0 .23.16.42.36.42.2 0 .1-.42-.21-.96-.6-1.02-1.5-1.28-1.5-.44 0 .4-.1.37-.49-.14-.48-.64-.49-.64-.52.02l-.04.68-.29-.68c-.24-.56-.29-.5-.3.42m-132.8 2.34c-4.12 1.5-2.33 7.73 1.9 6.67.91-.23 3.14-2.3 3.14-2.9 0-2.3-2.97-4.52-5.05-3.77m82.47.02c-8.17.05-21.63.05-29.92 0-8.29-.05-1.6-.1 14.85-.1s23.23.05 15.07.1m49.56.27c-2.43 1.32-2.4 4.26.06 5.96 1.55 1.07 4.36.23 4.9-1.46.18-.58.3-.64.52-.28.21.33.3.2.3-.46.02-2.82-3.41-5.05-5.78-3.76m-159.15 1.74c.54 1.92-.22 3.84-1.14 2.87-.29-.3-1.32-3.7-1.32-4.36 0-1.55 1.93-.38 2.46 1.5m4.45-1.57c.35.56-.43 1.2-.9.74-.38-.4-.14-1.1.38-1.1.16 0 .4.16.52.36m15.28.24c0 .84-.97 4.03-1.28 4.22-.85.53-1.82-1.03-1.28-2.07.3-.57.54-1.43.54-1.9 0-.73.15-.86 1.01-.86.75 0 1 .16 1 .61m24.04.07c0 .72-.97.61-1.12-.12-.08-.45.05-.59.5-.5.34.07.62.34.62.62m14.5.84c-.36 2.7-1.03 3.6-2.19 2.94-.93-.54-.94-.6-.5-1.66.25-.6.46-1.48.46-1.95 0-.75.14-.85 1.22-.85h1.23l-.21 1.52m94.16.24c-.51 2.81-.97 3.47-1.88 2.72-.7-.58-.7-.68-.25-1.96.27-.74.5-1.6.5-1.93.02-.42.3-.59.98-.59h.97l-.32 1.76m38.86-.67c-.1.6-.41 1.74-.69 2.53l-.5 1.43-.98-.57c-.62-.37-.85-.7-.66-.94.16-.2.47-1.07.7-1.95.52-2.07 2.47-2.53 2.13-.5M85.1 63.15c-.25.16-.43.39-.4.5.03.13-.02.42-.11.64-.1.23-.18 0-.2-.5-.01-.68.14-.93.57-.93.45 0 .48.07.14.3m3.14.71c0 1.2-.98 1.1-1.12-.12-.1-.77 0-.93.5-.83.4.07.61.4.61.95m1.35-.76c-.53.4-.58 1.17-.1 1.48.33.2.29.27-.15.28-.43 0-.6-.27-.6-1 0-.74.17-1.01.6-1 .33 0 .44.1.25.24m217.46.12c-.13.2-.04.5.2.64.23.15.32.52.2.82-.12.34-.37.46-.61.31-.32-.2-.32-.28 0-.39.32-.1.33-.25.05-.6-.35-.4-.2-1.15.22-1.15.1 0 .06.16-.06.37m1.66.55c-.3 1.27-.36 1.28-.53.1-.1-.7-.02-1.02.3-1.02s.39.26.23.92m1.22-.42c-.34.4-.33.51.04.53.36.02.36.07.03.2-.36.14-.36.27 0 .7.36.44.35.5-.07.36-.89-.29-.86-2.3.03-2.3.28 0 .27.15-.03.51m1.79.7c-.1.26-.3.4-.46.3-.15-.09-.35.03-.44.26-.1.23-.18.03-.2-.45-.01-.47.08-.96.2-1.09.36-.35 1.1.45.9.98m1.06-.06c0 .63-.11 1.08-.25.99-.14-.09-.25-.6-.25-1.14 0-.55.11-1 .25-1s.25.52.25 1.15m1.98.46c-.67 1.06-1.48.1-.99-1.18.2-.5.26-.5.78.03.44.44.5.7.2 1.15m4.71 0c-.67 1.06-1.47.1-.98-1.18.2-.5.26-.5.78.03.44.44.49.7.2 1.15m1.01-.68c-.3 1.27-.36 1.28-.53.1-.1-.7-.01-1.02.3-1.02.33 0 .4.26.23.92M87.4 63.7c0 .27.15.5.33.5.19 0 .34-.23.34-.5 0-.28-.15-.5-.34-.5-.18 0-.34.22-.34.5m229.57.84c0 .45-.03.45-.32 0-.24-.37-.33-.39-.33-.07 0 .25-.16.35-.34.24-.2-.13-.18-.44.08-.85.42-.68.91-.32.91.68m5.05-1.01c.26-.39.33-.27.33.5 0 .78-.07.9-.33.5-.3-.44-.37-.44-.66 0-.26.4-.33.28-.33-.5 0-.77.07-.89.33-.5.3.45.37.45.66 0m-3.36.5c0 .28.16.5.34.5.19 0 .34-.22.34-.5 0-.27-.15-.5-.34-.5-.18 0-.34.23-.34.5M194.3 65.04c0 .95-.13 1.18-.68 1.18-.54 0-.67-.23-.67-1.18s.13-1.17.67-1.17c.55 0 .68.22.68 1.17m2.42-.75c-.19.23-.4.8-.47 1.26-.11.68-.17.6-.3-.42-.15-1.08-.08-1.26.47-1.26.48 0 .56.1.3.42m2.48-.03c.17.26.06.32-.31.18-.43-.17-.56-.02-.56.59 0 .44.19.87.42.97.26.1.2.18-.15.2-.72.03-1.12-1.2-.6-1.85.5-.59.88-.62 1.2-.1m1.7.9c.05.88-.03 1.03-.38.74-.33-.28-.5-.26-.62.06-.1.24-.18-.14-.2-.85-.03-1.72 1.12-1.68 1.2.05m1.13-.02c0 1.06.53.65.78-.6.1-.55.14-.44.1.34-.06 1.68-1.34 1.72-1.5.05-.07-.73.02-1.05.26-.9.2.12.36.62.36 1.1m2.69-.9c0 .2-.15.27-.32.16a.37.37 0 00-.5.12c-.1.17.04.39.31.5.8.3.61 1.22-.25 1.18-.57-.03-.61-.08-.17-.2.74-.19.74-.42.03-.93-.3-.23-.44-.58-.31-.8.3-.48 1.2-.5 1.2-.03m1.98.9c-.02.7-.1 1-.19.68-.19-.72-.78-.78-.78-.09 0 .28-.12.5-.28.5-.15 0-.28-.44-.28-1 0-.55.13-1 .28-1 .16 0 .28.14.28.33 0 .18.16.33.34.33.19 0 .34-.22.34-.5s.07-.5.17-.5c.09 0 .15.56.12 1.26m1.23-.86c-.65.38-.65.38 0 .64.57.22.58.26.07.28-.32 0-.58.16-.58.33s.26.38.58.47c.45.11.4.16-.16.19-.65.03-.76-.13-.76-1.14 0-1 .11-1.17.75-1.16.73 0 .74.02.1.39m2.3.09c.1.27.04.58-.13.68-.17.1-.22.45-.12.77.16.5.13.5-.18.07-.33-.45-.4-.45-.7 0-.25.38-.33.2-.34-.75 0-1.33 1.04-1.87 1.46-.77m-73.46.25c1.3 1.3-.58 3.35-1.95 2.11-.81-.73-.85-1.28-.14-1.99.63-.63 1.53-.68 2.09-.13m58.55.61c0 .56-.12 1-.27 1-.16 0-.22-.44-.13-1 .08-.55.2-1 .27-1 .08 0 .13.45.13 1m73.89-.6c.63.63.47 1.88-.3 2.3-.8.42-2.32-.35-2.32-1.18 0-1.19 1.78-1.96 2.62-1.13M122.2 66.4c-2.8 4.77-9.55 5.07-13.04.57-1.03-1.33-1.18-2.1-.42-2.1.28 0 .5.15.5.33 0 .62 2.13 2.74 3.4 3.4a7.04 7.04 0 008-1.5c.44-.47.94-.77 1.11-.67.17.1.26-.02.2-.27-.05-.25.13-.7.4-1 .87-.94.8-.38-.15 1.24m26.6-.06a7.07 7.07 0 0011.1.4c.68-.83 1.11-1.12 1.27-.86.47.76-2.9 3.57-4.84 4.03-3.74.9-9.1-1.74-9.1-4.48 0-.92.48-.64 1.57.9m95.47 3.75c-.14.19-.46.63-.7.98-.52.76-1.86-.03-3.25-1.91l-.76-1.03.92-.74.93-.73 1.56 1.55c.9.88 1.46 1.7 1.3 1.88m-134.59-1.65c1.4 1.38 1.5 1.62 1.17 2.35-.52 1.14-.8 1.05-2.74-.89l-1.7-1.7.83-.65c.45-.35.84-.64.87-.64.02 0 .73.68 1.58 1.53m148.11.5c-.72 1-2.94 2.87-3.14 2.63-1.37-1.57 1.06-4.96 2.91-4.08l.94.45-.7 1m38.67-.03c-1.7 2.38-3.09 3.08-3.65 1.84-.62-1.36 2.03-3.9 3.4-3.25l.94.44-.7.97m28.57 1.02c0 .21-3.65.33-10.27.33-6.76 0-10.2-.11-10.06-.33.13-.22 3.92-.34 10.27-.34 6.48 0 10.06.12 10.06.34m-192.43.32c-.1.15.07.47.35.7.41.34.43.48.08.7-.32.21-.28.28.15.29.68 0 .78-.68.19-1.28-.32-.3-.28-.4.17-.4.34 0 .57.27.57.66 0 .35.15.74.33.86.19.1.34-.1.34-.47s.17-.78.37-.9c.25-.16.3 0 .16.45-.12.38-.06.79.13.9.2.13.35.02.35-.22 0-.27.1-.3.26-.1.33.46 2.1.61 2.1.18 0-.2-.2-.31-.43-.27-.23.05-.42-.14-.42-.42 0-.27.19-.46.42-.42.23.05.42-.05.42-.22 0-.18-.45-.3-1-.3-.54.02-.91.17-.82.32.1.16.02.29-.18.29-.2 0-.35-.13-.35-.28 0-.37-2.97-.42-3.19-.07m133.13-.07c-.1.1.07.5.4.87.56.64.56.66-.09.43-.54-.2-.59-.17-.25.17.67.68 1.34-.17.72-.92-.4-.5-.4-.55.04-.41.27.09.55.5.6.9.16 1.01.74.9.74-.14 0-.47.14-.77.3-.67.17.1.24.53.17.94-.13.68-.12.69.14.1.29-.65.29-.65.67 0 .37.65.38.65.39 0 .01-.64.01-.64.5 0 .38.53.56.58.9.24.34-.34.3-.42-.17-.42-.34 0-.54-.18-.45-.42.08-.23.32-.38.53-.34.21.05.38-.07.38-.26 0-.43-1.76-.28-2.1.18-.16.22-.24.2-.25-.03 0-.38-2.82-.57-3.17-.22M89.46 71.44l-.27 1-.18-.92c-.1-.51-.01-.97.2-1.04.53-.2.55-.14.25.96m-4.33-.63c-.51.2-.57 1.12-.07 1.12.2 0 .26.16.15.34-.34.55-.84.03-.84-.86 0-.57.18-.81.59-.8.35.02.42.1.17.2m5.96.97c0 .19-.34.37-.75.4-.74.05-.74.04-.1-.44.35-.26.46-.48.23-.48-.24 0-.32-.17-.2-.37.25-.4.8.21.82.89m1.12.22c.2.13.28.33.16.45-.43.42-.94-.23-.9-1.13.03-.7.07-.75.2-.23.1.37.34.78.54.9m103.08-.22c1.3.67 2.33 1.94 2.48 3.04.07.54.05.76-.04.48-1.24-3.83-6.78-4.7-8.5-1.32-1.97 3.86.23 7.73 4.13 7.26.7-.09 1.26-.02 1.26.15 0 1.23-4.8-.03-6.02-1.58-3.6-4.59 1.5-10.7 6.7-8.03m18.07.24c.6.36 1.32 1.1 1.6 1.62.76 1.47.59 1.9-.26.65-3.02-4.43-8.66-2.63-8.66 2.77 0 2.6 3 4.88 5.4 4.12.37-.12.65-.05.65.15 0 1.59-5.07-.16-6.23-2.15-2.93-5 2.48-10.17 7.5-7.16m-125.76.1c-.12.3-.36.44-.55.33-.2-.13-.18-.37.09-.66.5-.56.73-.4.46.33m25.85 3.31c-.53 1.17 1.72 2.55 2.39 1.48.09-.15.27-.21.4-.13.12.07.42-.08.65-.33.25-.27.29-.47.09-.47a.36.36 0 01-.35-.36c0-.72 1.15-.13 1.35.7.2.79.22.77.38-.27l.17-1.1-1.87.1c-1.66.07-1.9.17-1.99.84-.15 1.06-.66.95-.81-.17-.11-.8-.16-.84-.41-.29m38.14.63c0 .83.09.97.33.59.3-.45.33-.45.36 0 .02.34.12.28.31-.17l.3-.67.02.67c.02.5.1.56.32.22.2-.32.36-.35.52-.09.36.59 1.2.44 1.2-.21-.01-.46-.08-.5-.3-.14-.2.32-.36.35-.52.09-.32-.51.1-1.1.59-.83.27.15.26.07-.02-.23-.35-.38-.51-.34-.95.2-.3.36-.42.44-.28.18.18-.35.1-.42-.32-.27-.3.12-.56.07-.56-.1 0-.19-.22-.33-.5-.33-.34 0-.5.34-.5 1.09m3.72-.08c-.01.88.07 1.05.31.67.3-.45.37-.45.67 0 .26.4.33.3.33-.44 0-.52.15-.86.31-.76.17.1.23.5.13.86-.1.37-.02.67.16.67.19 0 .4-.45.49-1 .17-1.17-1.14-1.52-1.59-.42-.22.54-.26.53-.51-.09-.22-.54-.28-.44-.3.5m91.12-.11c-.03.66.13 1.13.45 1.25.28.1.5.04.5-.14a.32.32 0 00-.3-.32c-.18 0-.39-.42-.46-.93-.14-.88-.14-.88-.2.14m1.3.08c0 .55.22 1.06.5 1.17.28.1.5.04.5-.14 0-.17-.18-.32-.41-.33-.26 0-.3-.1-.08-.25.51-.38.48-1.42-.04-1.42-.3 0-.47.37-.47.97m1.57-.75c-.49.49-.26 1.85.24 1.39.25-.24.39-.62.3-.85-.1-.24.08-.43.38-.43.35 0 .54.3.54.84 0 1.18.56 1.06.74-.16.15-1-1.43-1.56-2.2-.79m35.3 0c-.55.55-.23 1.75.46 1.7.52-.04.66-.25.59-.88-.1-.83-.63-1.25-1.05-.83m1.48.8c-.01.87.06 1.05.3.67.22-.34.33-.36.34-.08 0 .23.22.41.49.41.56 0 1.03-.61.7-.93-.12-.12-.36 0-.53.27-.26.42-.31.41-.32-.06 0-.31.19-.63.42-.71.23-.09.3-.27.17-.42-.13-.14-.45-.08-.72.14-.37.3-.52.3-.65-.04-.1-.23-.19.1-.2.75m2.3-1.01c-.03.09-.09.58-.12 1.09-.06.95.3 1.25.6.5.13-.33.17-.33.19 0 .01.24.2.42.4.42s.3-.2.2-.45c-.1-.24-.04-.66.12-.92.22-.34.32-.2.35.53.03.72.09.82.2.34.1-.37.33-.86.51-1.1.26-.3.12-.41-.55-.41-.52 0-.98.23-1.1.56-.2.5-.25.5-.48-.08-.13-.36-.28-.57-.32-.48m-172.25 1c0 .75-.69.74-.74-.01-.03-.4.11-.64.34-.56.22.07.4.33.4.58m19-.26c0 .37-.26.6-.7.6-.38 0-.99.15-1.34.34-.45.24-.65.24-.65 0 0-.2-.17-.35-.38-.35-.2 0-.3.2-.23.42.16.52-1.51 2.18-2.02 2.01-.2-.06-.34.23-.32.66.1 1.8-.09 2.63-.6 2.63-.29 0-.43.15-.31.34.11.19.35.25.52.15.17-.11.31.13.31.52s.17 1.02.37 1.4c.29.54.27.77-.08 1.02-.35.26-.33.29.1.15.32-.1.87.18 1.34.69 2.18 2.36 7.22 2.25 8.75-.2a.92.92 0 011.09-.44c.6.16.64.1.27-.34-.47-.58-.04-2.21.7-2.7.29-.18.3-.33.04-.5-.55-.39-1.15-2.39-.91-3.02.13-.34.08-.46-.15-.32-.48.3-2.34-1.57-2.18-2.17.1-.35.05-.36-.17-.05-.36.5-2.36-.1-3.02-.92-.36-.44-.41-.43-.42.08m37.7.93a3.25 3.25 0 00-.1 5.62c1.44.96 2.32.97 3.75 0 3.67-2.47.14-7.93-3.64-5.62m54.84-.36c-2.97 1.26-2.6 5.89.54 6.58 1.36.3 3.37-.7 3.83-1.92.2-.52.47-.94.6-.94.49 0-.44-1.94-1.34-2.8-1.03-.99-2.55-1.37-3.63-.92m37.24.36c.07.28-.37 1-.98 1.63-.6.62-1.1.95-1.1.73 0-.21-.16-.28-.37-.15-.26.16-.26.29 0 .45.44.27-.14 2.72-.65 2.72-.17 0-.32.16-.32.35 0 .2.14.27.31.17.17-.1.4.23.52.75.78 3.56 5.3 6.02 8.21 4.46.47-.25.71-.26.71-.03 0 .2.16.35.35.35.2 0 .3-.2.25-.42-.12-.55 1.45-2.13 2-2 .24.05.43-.06.43-.26 0-.19-.14-.35-.31-.35-.43 0 .36-2.1.98-2.6.44-.35.43-.4-.09-.41-.36 0-.58-.27-.58-.7 0-.39-.16-1-.35-1.35-.24-.45-.24-.65 0-.65.19 0 .35-.17.35-.37 0-.2-.22-.3-.47-.2-.26.1-.8-.18-1.22-.61-1.56-1.66-4.74-2.39-6.45-1.48-.53.29-.76.27-1.01-.08-.27-.37-.3-.36-.2.05m50.17-.03c.1.17-.41.4-1.15.53-1.91.32-2.94 1.28-3.53 3.28-1.5 5.05 3.5 8.31 7.45 4.86 1.16-1.02 1.2-1.03.65-.18-3.28 5.02-11.92-.35-9.16-5.69 1.02-1.97 5.04-3.93 5.74-2.8m-178.2.52c1.47.52 2.66 1.48 2.38 1.92-.1.16-.62-.07-1.16-.52-2.65-2.24-6.36-.86-7.35 2.72-1.46 5.27 6.4 7.97 8.84 3.03.3-.6.54-.84.54-.52.02 1.61-2.83 3.63-5.14 3.63-6.09 0-7.13-9.02-1.2-10.42 1.57-.36 1.65-.36 3.1.16m-56.31.25c.22.22.4.72.4 1.1 0 .4-.18.9-.4 1.12-.86.85-2.63.25-2.63-.9 0-1.28 1.78-2.17 2.63-1.32m186.6-.15c0 .14-.5.55-1.09.92-2.43 1.51-3.24 5.3-1.53 7.13 2.56 2.73 6.34 2.22 8-1.08.38-.74.69-1.15.69-.9 0 1.5-1.95 3.55-3.89 4.06-5.9 1.57-9.25-6.9-3.85-9.76 1.26-.67 1.7-.77 1.67-.37m3.31.22a4.59 4.59 0 012.6 3.43c.13 1.06.1 1.14-.13.44a5.4 5.4 0 00-2.58-3.2c-.64-.34-1.17-.74-1.17-.89 0-.36.25-.32 1.28.22m47.72.62c.71.76 1.43 2.3 1.42 3.04 0 .22-.3-.23-.65-1a5.07 5.07 0 00-1.34-1.85c-.38-.24-.7-.55-.7-.7 0-.47.56-.25 1.27.5m-233 .31c.15.24.1.3-.15.15-.2-.13-.38-.08-.38.12s.15.35.33.35c.19 0 .34.16.34.36 0 .2-.14.27-.3.16-.18-.1-.4 0-.49.24-.1.23-.18.03-.2-.45-.03-1.18.4-1.65.85-.93m1.34.28c0 .38-.16.68-.35.68-.2 0-.12.17.16.36.33.24.35.32.05.24-.24-.06-.43-.23-.41-.36 0-.13.02-.54.02-.91s.12-.68.27-.68c.14 0 .26.3.26.67m1.66-.33c.12.2.35.26.52.15.17-.1.3.23.3.75-.03.76-.08.83-.28.32-.23-.6-.28-.6-.82-.06-.53.53-.56.5-.56-.46 0-1.02.42-1.37.84-.7m1.91.69c-.17 1.17-.23 1.16-.53-.1-.16-.66-.1-.93.23-.93.31 0 .4.32.3 1.03m1.61-.7c0 .2-.15.34-.33.34-.49 0-.42.93.08 1.13.25.1.19.18-.17.2-.58.02-.85-1.28-.36-1.77.33-.34.78-.27.78.1m1.21.32c.39-.32.47-.22.47.57 0 .75-.08.86-.34.46-.29-.44-.36-.44-.66 0-.25.4-.32.28-.3-.5 0-.55.1-.81.19-.58.13.34.28.35.64.05m101.34.12c-.04.4-.5.32-.65-.11-.07-.22.05-.34.27-.27.22.07.4.24.38.38m2.85.76c-.32.49-.65.8-.75.71-.2-.2 1-1.9 1.2-1.71.07.07-.13.52-.45 1m14.94-.69c0 .28-.15.5-.34.5-.18 0-.33-.22-.33-.5 0-.27.15-.5.33-.5.19 0 .34.23.34.5m2.38.94l-.78.74.6-.93c.31-.51.67-.85.77-.75.1.1-.16.53-.6.94m101.83.07c0 .28-.15.5-.33.5-.19 0-.34-.22-.34-.5 0-.27.15-.5.34-.5.18 0 .33.23.33.5m-179.13 1.6c-.04.4-.5.33-.65-.1-.07-.22.05-.34.27-.27.22.07.4.24.38.38m3.33.58c0 .55-.05 1-.13 1-.07 0-.2-.45-.27-1-.09-.56-.03-1.01.13-1.01.15 0 .27.45.27 1m-41.85 2.03c-.28.45-22.68.43-22.68-.02 0-.2 4.44-.32 11.45-.32 7.72 0 11.37.1 11.23.34m71.84.56c-.33.13-.34.28-.04.64.24.29.26.47.05.47-.41 0-.79-.85-.5-1.14a.82.82 0 01.56-.17c.2.01.17.1-.07.2m1.84 1.37c-.08.32-.15.06-.15-.6 0-.64.07-.9.15-.58.09.32.09.85 0 1.18m3.35.3c-.09.1-.58-.05-1.09-.32l-.93-.49.99-.52c.92-.48 1.77.6 1.03 1.34m11.4-.8c0 .64-.1.79-.4.54-.27-.23-.45-.2-.57.1-.1.24-.19.04-.2-.43-.02-.48.08-.98.2-1.1.45-.45.95.01.96.88m1.23-.81c-.48.3-.43 1.08.1 1.47.2.14.08.25-.25.25-.43 0-.59-.26-.59-1s.16-1 .6-1c.43 0 .47.07.14.28m1.35 0c-.35.22-.35.35.04.67.39.32.52.26.67-.32.24-.94 1.07-.64 1.07.38 0 .7-.17.8-1.35.86-.74.04-1.15 0-.9-.1.32-.12.33-.28.05-.62-.42-.51-.16-1.16.45-1.16.28 0 .28.1-.03.29m5.72.72c-.09.55-.2 1-.24 1-.05 0-.16-.45-.24-1-.1-.63 0-1.01.24-1.01s.33.38.24 1m2.46-.3c.25.8-.26 1.51-.83 1.17-.4-.25-.49-1.3-.14-1.65.4-.4.74-.23.97.49m1.5-.03c.15-.26.25-.08.25.46 0 .48-.13.88-.3.88-.16 0-.29-.23-.29-.5 0-.28-.15-.51-.34-.51-.18 0-.33-.27-.32-.59 0-.54.04-.53.38.04.26.46.43.52.61.22m4.8-.26c.11.33.24.33.65 0 .61-.5.94-.23.94.81 0 .48-.2.79-.5.79-.28 0-.5-.19-.5-.4 0-.32-.1-.32-.4 0-.72.71-1.28.45-1.28-.61 0-1.02.8-1.45 1.09-.59m6.3-.08c-.45.3-.45.37 0 .66.71.47 1 .42 1-.16 0-.28.16-.5.34-.5.19 0 .34.29.34.64 0 .35.16.7.35.76.2.07-.37.13-1.26.15-.88.02-1.41-.04-1.18-.12.33-.12.34-.27.06-.61-.42-.51-.16-1.16.45-1.16.25 0 .2.14-.1.34m3.63.63c-.05.65-.22.92-.52.8-.59-.23-1.24-1.43-.77-1.43.2 0 .35.15.35.33 0 .19.15.34.33.34.19 0 .34-.23.34-.5 0-.28.08-.51.18-.51.09 0 .13.44.1.97m1.5-.52c.1.26-.11.7-.46 1.01-.61.52-.65.5-.65-.23 0-1.18.76-1.7 1.12-.77m2.44.21c0 .37-.16.68-.35.68-.2 0-.12.17.16.36.43.3.43.34 0 .22-.4-.1-.57-.9-.38-1.76.1-.48.57-.08.57.5m11.21.87c-1.18.65-1.32.6-1.32-.54v-1.02l1.07.56 1.07.55-.82.45m5.74-1.2c-.45.3-.45.37 0 .66.45.3.45.33 0 .34-.45.01-.45.05 0 .34.43.28.42.33-.09.33-.43 0-.58-.26-.58-1s.15-1 .58-1c.5 0 .52.05.09.33m2.2.01c.11.2.05.55-.15.79s-.27.53-.14.66c.12.12.04.22-.18.22-.47 0-.51-.56-.05-.84.18-.12.34-.36.34-.55 0-.18-.16-.24-.34-.13-.19.12-.34.05-.34-.14 0-.46.57-.47.85 0m-70.34.82c.08.46.03.84-.13.84s-.3-.38-.3-.84c0-.47.06-.84.13-.84.08 0 .2.37.3.84m2.6.54c0 .24-.22.14-.5-.23-.64-.85-.65-1.34 0-.7.28.28.5.7.5.93m21.36-.95c-.15.33-.17.7-.06.81.35.34.62-.14.46-.8-.13-.59-.15-.59-.4 0m1.96.98c.24.16.16.25-.2.25-.44 0-.59-.24-.56-.92.03-.7.08-.77.2-.25.1.37.35.78.56.92m1.56-.58c0 .95-.82 1.15-1.15.28-.18-.46-.13-.48.3-.12s.51.31.51-.3c0-.38.08-.7.17-.7.09 0 .17.37.17.84m2.69-.2c0 .39.15.7.33.7.19 0 .34-.22.34-.48 0-.27-.15-.58-.34-.7-.18-.11-.34.1-.34.49m6.4 0c0 .38.14.69.33.69.18 0 .33-.22.33-.48 0-.27-.15-.58-.33-.7-.19-.11-.34.1-.34.49m1.5-.29c-.13.2-.06.54.14.74.28.27.38.18.38-.37 0-.8-.18-.93-.52-.37m2.58 1.07c-.28.28-.39.22-.4-.27-.03-.64-.04-.64-.32.01-.32.76-.44.18-.13-.63.18-.47.25-.47.72-.01.38.39.41.61.13.9m23.94-.01c.25.16.17.25-.2.25-.43 0-.58-.24-.55-.92.03-.7.08-.77.2-.25.1.37.34.78.55.92m2.12-.92c.28.28.45.68.38.89-.07.2-.39-.02-.71-.5-.64-.98-.47-1.18.33-.39m-156.19.52c0 .2-.15.27-.34.15-.56-.35-.37.24.22.67.65.47.34 1.2-.49 1.16-.46-.02-.45-.07.1-.28.63-.25.63-.27.02-.61-.39-.22-.54-.55-.41-.9.23-.6.9-.74.9-.19m1.46.74c-.26 1.33-.45 1.62-.45.67 0-.38-.1-.94-.2-1.23-.14-.35-.02-.53.32-.53.42 0 .49.23.33 1.1m1.9-.75c0 .2-.15.27-.33.15-.19-.11-.34-.05-.34.15s.19.36.42.36c.28 0 .26.12-.08.36-.38.27-.4.4-.09.53.6.25.52.8-.08.57-.31-.12-.5-.63-.5-1.33 0-.8.15-1.14.5-1.14.27 0 .5.16.5.35m1.9.93c.05.88-.03 1.03-.38.74-.33-.27-.49-.25-.62.06-.1.24-.18-.14-.2-.85-.04-1.72 1.12-1.68 1.2.05m1.8-.93c0 .2-.14.27-.31.17-.17-.11-.41-.04-.53.14-.11.2.06.35.38.35.53 0 .53.04-.06.49-.6.45-.6.5-.07.5.48.01.92.69.45.69-1 0-1.7-1.75-.98-2.47.35-.35 1.12-.26 1.12.13m1.61.05c.54.54.51 1.44-.05 1.91-.67.56-1.36-.38-1.09-1.47.24-.93.54-1.05 1.14-.44m2.64.2c.41-.73.43-.7.44.58 0 .86-.1 1.18-.28.89-.16-.25-.4-.45-.55-.45-.14 0-.38.2-.54.45-.18.29-.28-.04-.27-.9.02-1.23.05-1.28.4-.56l.37.78.43-.78m2.41.55c.11.92-.46 1.66-1.01 1.32-.33-.2-.36-1.94-.04-2.27.44-.44.94.02 1.05.95m1.89-.39c.25.4.25.74-.02 1.16-.52.83-1.28.73-1.41-.2-.24-1.65.62-2.23 1.43-.96m1.35-.28c-.44.33-.5.5-.2.5.38.01.39.11.05.52-.35.42-.31.5.2.5.44 0 .5.1.23.38-.6.6-1.1.02-1.1-1.23 0-.97.12-1.16.73-1.16.72 0 .72 0 .09.5m-2.27.05c-.35.34-.28 1.46.08 1.46.17 0 .41-.14.52-.33.26-.42-.29-1.45-.6-1.13m-6.96.8c0 .43.17.66.42.58a.66.66 0 00.42-.59.66.66 0 00-.42-.59c-.25-.08-.42.16-.42.6m5.04 0c0 .36.16.66.34.66.19 0 .34-.3.34-.67 0-.37-.16-.67-.34-.67-.19 0-.34.3-.34.67M307.73 90c-.53.4-.58 1.17-.1 1.48.33.2.29.28-.15.28-.43 0-.59-.27-.59-1 0-.74.16-1.01.59-1 .33 0 .44.1.25.24m1.18.08c-.42.26-.43.44-.08 1 .26.43.29.69.07.69-.47 0-.78-.89-.54-1.52.1-.28.38-.5.62-.5.3 0 .28.1-.07.33m1.99.6c-.02.5-.1.72-.2.48-.14-.33-.29-.34-.65-.04-.38.31-.47.25-.47-.31 0-.49.16-.64.5-.51.28.1.5.03.5-.18 0-.2.08-.37.18-.37.09 0 .15.41.14.92m1.54.09c0 .92-.75 1.3-1.05.53-.27-.73.11-1.63.63-1.46.23.08.42.5.42.93m3.36 0c0 .92-.75 1.3-1.05.53-.27-.73.11-1.63.63-1.46.23.08.42.5.42.93m1.3.75c.24.16.17.25-.2.25-.46 0-.59-.25-.55-1.09.04-.92.07-.96.2-.25.09.46.33.95.54 1.09m1.31-.03c-.2.2-.5.08-.78-.29-.44-.55-.43-.56.11-.14.53.42.6.37.63-.5.04-.86.07-.88.2-.17.08.43.01.93-.16 1.1m1.74-1.27c.12-.3.3-.47.4-.37.1.1.01.51-.2.9-.44.83-1.36.4-1.34-.61.01-.48.07-.48.47.05.41.55.47.55.67.03m1.7-.2c-.52.38-.57 1.16-.1 1.47.33.2.3.28-.14.28-.43 0-.6-.27-.6-1 0-.74.17-1.01.6-1 .33 0 .44.1.25.24m-10.25.78c0 .38.15.6.33.48.19-.11.34-.43.34-.7 0-.26-.15-.48-.34-.48-.18 0-.33.31-.33.7m3.36-.21c0 .27.15.58.33.7.19.1.34-.11.34-.5 0-.38-.15-.69-.34-.69-.18 0-.33.22-.33.49m-183.3.07c-.13.13-.23.51-.23.86 0 .78.98 1.2 1.37.57.24-.37.3-.38.3-.03 0 .32.16.3.57-.11.44-.44.46-.62.13-.83-.34-.2-.34-.3.03-.44.33-.14.3-.2-.1-.21-.31-.02-.64.16-.73.39-.14.34-.18.34-.2 0-.03-.45-.77-.57-1.15-.2m2.8.81c0 .97.04 1 .56.48.44-.44.47-.62.13-.83-.34-.2-.33-.3.03-.44.32-.13.28-.2-.13-.21-.44-.02-.59.23-.59 1m1.5-.67c-.12.2.06.59.4.87.56.45.56.49.04.32-.33-.1-.6-.06-.6.1 0 .15.63.28 1.38.28.76 0 1.25-.1 1.1-.21-.16-.11-.3-.48-.34-.81-.07-.93 1-.55 1.24.44.2.79.22.77.38-.27.17-1.1.15-1.11-1.03-1.01-.99.08-1.19.22-1.1.75.1.56.04.6-.41.22-.3-.25-.45-.58-.35-.74.1-.17.03-.3-.15-.3-.19 0-.44.16-.56.36m128.69.2c-.3.77.1 1.29 1 1.3.9.02 1.43-.62 1.04-1.26-.13-.2-.02-.28.25-.2.25.1.49.38.51.64.1 1.06.16 1.12.49.55.19-.32.25-.74.14-.92-.4-.63.4-.33 1.04.4.35.4.45.62.22.48-.23-.13-.42-.1-.42.08 0 .17.55.32 1.22.32.73 0 1.06-.1.8-.26-.33-.2-.32-.3.04-.45.38-.15.37-.24-.05-.54-.42-.3-.38-.35.23-.36.56 0 .77.23.85.92.12.9.12.9.3-.17.18-1.05.15-1.09-.93-1.09-.92 0-1.12.13-1.12.71 0 .6-.08.65-.52.29-.38-.32-.41-.5-.12-.68.22-.14-.78-.23-2.2-.21-1.77.02-2.66.17-2.77.45m-42.18.03c-11.21.05-29.67.05-41 0-11.34-.05-2.17-.1 20.39-.1 22.55 0 31.83.05 20.61.1m-134.6.92c-.11.28-.03.5.17.5s.37.23.37.51-.26.5-.59.48c-.37-.02-.42-.1-.15-.2.33-.13.34-.29.06-.63-.21-.25-.28-.62-.17-.81.33-.53.52-.42.3.15m29.05.2c-9.43 1.47-12.83 13.14-5.77 19.81l1.9 1.79.62-.82c.34-.44.62-1.04.62-1.31 0-.52-.82.32-1.09 1.12-.15.45-1.76-.78-3.03-2.33l-.95-1.14.86-.4c.48-.21.86-.51.86-.67 0-.4-.25-.35-1.15.24-.79.52-.8.5-1.3-1.1-.96-3.03-.94-3.45.15-3.45.53 0 .96-.16.96-.34 0-.19-.43-.34-.96-.34-1.1 0-1.11-.42-.16-3.44.57-1.81.52-1.78 1.64-1.06.45.3.82.4.82.23 0-.18-.38-.5-.85-.72l-.86-.39.9-1.18c.87-1.14 2.77-2.72 2.96-2.46 1.22 1.59 1.22 1.63-.18 2.9-4.53 4.08-3.64 11.04 1.77 14.03a8.82 8.82 0 0010.55-1.75c1.1-1.15 1.13-1.16 2.17-.62l1.04.54-.83 1.09c-1.04 1.35-2.98 2.81-3.13 2.35-.21-.64-1.04-1.62-1.22-1.44-.5.5 1.2 2.33 1.86 1.98 10.68-5.72 3.97-23.02-8.2-21.12m165.83.02c-8.95 1.65-12.55 12.99-6.15 19.39 2.2 2.2 2.64 2.32 3.31.9.65-1.35.63-1.35 2.24-.67 1.44.6 4.39.65 5.93.12.89-.31 1.15-.3 1.37.08 1.06 1.83 1.07 1.83 3.1-.02 8.52-7.8 1.55-21.9-9.8-19.8M118.65 93.6c0 1.1-.07 1.18-1.02 1.18-.56 0-1.48.24-2.05.53-.56.29-1.04.48-1.07.42-.03-.06-.25-.45-.48-.86-.72-1.3-.81-1.21 2.78-2.29 1.36-.4 1.84-.14 1.84 1.02m3.66-.62c1.88.6 1.98.76 1.2 1.95-.5.77-.58.78-1.67.33a6.43 6.43 0 00-2-.48c-.75 0-.85-.14-.85-1.18 0-1.4.58-1.5 3.32-.62m75.9-.07c-.44.33-.48.5-.16.6.32.11.29.3-.15.73-.56.56-.59.53-.59-.61 0-1.03.11-1.2.76-1.2.7.02.72.05.15.48m3.9.6c-.2 1.15-.36 1.48-.56 1.24-.56-.65-.47-2.32.12-2.32.56 0 .63.16.45 1.09m1.9-.76c0 .19-.26.36-.59.38-.53.03-.53.05.03.2.6.15.6.17 0 .62-.57.43-.57.46-.03.47.33 0 .6.18.6.38s-.27.3-.6.24c-.6-.11-.94-1.3-.62-2.14.2-.55 1.21-.66 1.21-.15m1.56.07c.32.53.38 1.95.08 1.95-.13 0-.31-.19-.4-.42-.14-.32-.27-.3-.53.08-.29.4-.36.3-.37-.53 0-1.41.65-2 1.22-1.08m79.17.69l.05 1.1.14-1.14c.14-1.12.16-1.13 1.5-.91 2.9.46 3.73 1.04 3.14 2.18-.5 1-.53 1-1.68.52-1.5-.63-4.08-.62-5.9.02-.8.28-1.46.47-1.49.42-.02-.05-.25-.5-.5-1.01-.56-1.1-.6-1.05 1.33-1.72 2.54-.88 3.35-.75 3.41.54m-85.54.84c-.08.32-.15.06-.15-.59 0-.65.07-.91.15-.59.09.33.09.86 0 1.18m.86-.76c-.12.62-.01.84.38.84.3 0 .55.17.55.36 0 .2-.27.31-.59.25-.62-.11-1.08-2.29-.49-2.29.17 0 .24.38.15.84m-73.3 2.22l1.72 1.72-1 .64-1.02.64-1.5-1.5c-1.45-1.45-1.48-1.52-.98-2.36.7-1.15.81-1.11 2.79.86m152.95-.76c.56.94.55.96-.65 2.09a8.73 8.73 0 000 12.7c1.16 1.12 1.17 1.14.62 2.1-.73 1.29-.8 1.27-2.8-.73l-1.71-1.72.97-.8c1.1-.89.86-1.08-.35-.29-.78.51-.8.5-1.3-.92-1.04-2.9-1.02-3.63.09-3.63.54 0 1.07-.16 1.19-.34.12-.2-.28-.34-.98-.34-1.34 0-1.4-.57-.32-3.6l.51-1.43.98.5c.54.29.99.39.99.23s-.4-.47-.87-.69l-.86-.39.7-1c.67-.92 2.66-2.68 3.05-2.69.1 0 .44.42.74.95m12.19-.1c1.97 1.51 2.44 2.5 1.52 3.25-1.23 1-4.19-1.77-3.4-3.18.62-1.12.5-1.11 1.88-.06m-169.82 1.54c1.56.8 2.7 1.88 2.42 2.32-.12.19-.82-.1-1.61-.67-3.02-2.15-8.01-1.81-8.88.59-.1.31-.45.95-.76 1.4-4.66 6.94 4.73 14.43 10.38 8.3.45-.48.96-.78 1.15-.66.21.13.26-.01.13-.37-.13-.32-.09-.49.08-.39.16.1.38 0 .47-.23.14-.34.18-.34.2 0 .01.23-.53 1.03-1.21 1.78-4 4.43-10.56 3.5-13.1-1.87-3.18-6.75 4.03-13.62 10.73-10.2m164.94-.4c.78.5.23.73-1.98.82-2.3.1-4.86 1.5-4.95 2.74-.03.36-.3 1.22-.59 1.9-.3.7-.54 1.55-.54 1.91 0 .36-.17.71-.37.78-1.2.4 1.29 4.57 3.35 5.62 3.15 1.61 5.12 1.27 9.12-1.56l.84-.6-.54.84c-4.18 6.51-15.44 1.6-14.26-6.22.6-4.09 6.98-8.09 9.92-6.23m-188.23 1.7c0 .21-4.03.33-11.42.33-7.4 0-11.43-.12-11.43-.34 0-.21 4.03-.33 11.42-.33 7.4 0 11.43.12 11.43.33m192.68 1.2c.5.73 1 1.78 1.13 2.33.19.88.06.8-1-.73a12.63 12.63 0 00-1.54-1.95c-.5-.3-.42-1.26.08-1.1.23.08.83.73 1.33 1.46m-161.83 2.75c.16 1.4.14 1.42-.83 1.42-.9 0-1.03-.14-1.34-1.42-.2-.8-.46-1.69-.6-2-.17-.4.03-.7.72-1.07 1.11-.59 1.72.33 2.05 3.06m165.57-1.89c.8 2.48.74 3.32-.24 3.32-.67 0-.89-.3-1.45-2.01l-.66-2.02.7-.48c1.01-.72 1.05-.7 1.65 1.2m-125.22.36c1.08 1.08-.13 2.92-1.61 2.45-.83-.26-1.15-1.3-.69-2.17.4-.76 1.67-.91 2.3-.28m118.2 1.31c-.3.46-1.16.35-1.16-.15 0-.25.1-.55.22-.67.3-.3 1.16.45.93.82m-161.88 1.58l-.06 1.58-.13-1.43c-.07-.79-.28-1.43-.47-1.43-.18 0-.24-.16-.12-.34.44-.72.83.1.78 1.62m-4.8-.92c.35.57-.43 1.2-.9.74-.38-.38-.14-1.1.38-1.1.16 0 .4.16.52.36m-35.15 1.4c.82.42 1.54.95 1.61 1.18.08.24-.6.04-1.56-.46-2.76-1.44-4.98-.6-6.44 2.4-2.5 5.16 5.1 9 8.32 4.22.88-1.31 1.03-1.09.2.31-1.66 2.82-6.4 3.1-8.45.5-3.62-4.6 1.17-10.77 6.32-8.15m132.15.11c1.19.61 2.32 2.07 2.29 2.96-.02.7-.03.7-.3.04-1.18-2.82-5.66-3.97-7.51-1.92-3.43 3.78-.53 9.58 4.1 8.2 1.7-.52 2.07-.48 1.04.1-3.07 1.76-7.29-.7-7.65-4.45-.4-4.26 4.04-7 8.03-4.93m95.08-.25c0 .15-.52.52-1.17.83-2.06.98-3.11 4.75-1.89 6.74 1.68 2.71 4.96 2.97 7.56.6.9-.82.94-.83.58-.13-2.55 4.93-10.7 1.22-9.65-4.39.34-1.81 4.57-5.2 4.57-3.65m3.93.64c.8.51 1.79 1.87 1.79 2.43 0 .2-.55-.26-1.22-1a5.89 5.89 0 00-2.02-1.55c-.44-.1-.8-.34-.8-.52 0-.38 1.21-.04 2.25.64m-187.7.68c-.08.5-.38 1.64-.65 2.52l-.5 1.6-1-.58c-.54-.32-.94-.74-.88-.93.06-.19.31-1.06.55-1.94.55-1.96 2.79-2.57 2.48-.67m165.96-.17a9.8 9.8 0 01-.99 3.6c-.27.42-.44.42-1.17.03-.57-.3-.75-.59-.55-.83.17-.2.49-1.09.7-1.96.46-1.8 2.01-2.45 2-.84m-128.84 1.48c-.12.13-.08.4.1.6.46.56-.18 1.48-.68.98-.38-.38.08-1.8.59-1.8.11 0 .11.1-.01.22m1.83 1.56c-.56.56-.87-.68-.33-1.33.42-.5.47-.49.57.2.06.43-.05.93-.24 1.13m1.8-.77c.01 1.2-.97 1.1-1.1-.11-.1-.77 0-.93.5-.84.38.08.6.42.6.95m9.25-.67c-.33.22-.36.33-.08.33.23 0 .42.3.42.68 0 .73-.5.9-.87.28-.15-.24-.1-.3.14-.15.22.14.4.08.4-.11 0-.2-.16-.36-.34-.36-.19 0-.34-.23-.34-.5 0-.28.26-.5.59-.5.5 0 .51.05.08.33m1.4-.1c-.4.15-.4.22 0 .47.35.23.32.3-.14.3-.6 0-.77-.38-.36-.78a.86.86 0 01.59-.2c.2.01.15.1-.1.2m1.3.34c0 .5.06.49.5-.08.47-.63.49-.63.43.19-.07 1.12-1.41 1.2-1.48.08-.03-.42.09-.76.25-.76.17 0 .3.26.3.57m9.75.44c0 .55-.12 1-.25 1-.14 0-.26-.45-.26-1s.12-1 .26-1c.13 0 .25.45.25 1m1.05.76c-.45.45-.72-.17-.48-1.1l.21-.79.3.8c.16.45.16.9-.03 1.09m2.17-.21c-.1.27-.36.4-.57.27-.26-.16-.23-.32.09-.52.38-.24.38-.29 0-.3-.4 0-.4-.08 0-.56.52-.64.86.12.48 1.1m1.42-.65c-.15 1.3-.94 1.42-.94.14 0-.72.16-1.04.52-1.04.38 0 .5.26.42.9m-107.5 1.45c0 .74-.06 1.35-.13 1.35s-.2-.6-.26-1.34c-.07-.74-.01-1.35.13-1.35s.26.6.26 1.34m56.17.53c-2 1.68-1.6 4.53.8 5.67 2.83 1.34 6-1.6 4.69-4.35-1.05-2.21-3.68-2.84-5.49-1.32m108 .28c-2.62 2.63-.02 6.87 3.42 5.57 2.6-.98 3.38-2.77 2.07-4.72-1.54-2.29-3.72-2.62-5.49-.85m40.54.35c0 .44-3.28 3.76-3.48 3.53-.95-1.08-.86-1.62.54-3.06s2.94-1.69 2.94-.47m-145.57.52c1.48.79 1.01 2.7-.65 2.7-2 0-2.04-2.5-.06-3 .06-.02.38.12.71.3m108.53.4c.7.72.47 1.94-.46 2.36a1.42 1.42 0 01-1.9-1.9 1.47 1.47 0 012.36-.45m-38.93.27c0 .18-.23.33-.5.33-.28 0-.5-.15-.5-.33 0-.19.22-.34.5-.34.27 0 .5.15.5.34m-22.87.33c1.2.64 1.19 2.07-.03 2.72-1.52.81-2.88-1.82-1.38-2.69.73-.43.68-.43 1.4-.03m-112.85 6.4c-.08.55-.19 1-.23 1a3.1 3.1 0 01-.25-1c-.09-.63 0-1.02.25-1.02.23 0 .33.39.23 1.01m3.63.19c0 .5-.2.82-.5.82-.5 0-.73-1.35-.3-1.78.39-.39.8.11.8.96m5.78-.97c-.33.13-.34.28-.04.65.3.36.29.47-.07.47s-.35.08.05.36c.43.3.43.34 0 .23-.27-.08-.47-.47-.45-.87.05-1.04.06-1.07.53-1.04.32.02.32.07-.02.2m21.45.8c0 .85.07.95.46.58.34-.31.37-.5.09-.68-.27-.18-.24-.35.12-.59.43-.28.42-.33-.08-.33-.44 0-.6.26-.6 1.01m1.35 0c0 .73.16 1 .59 1 .5-.01.52-.06.08-.34-.44-.29-.44-.32 0-.33.45-.01.45-.05 0-.34-.44-.3-.44-.37 0-.67.44-.28.42-.33-.08-.33-.43 0-.59.26-.59 1m1.35 0c0 .74.15 1 .59 1 .5 0 .51-.05.08-.33-.4-.25-.4-.32-.04-.33.35 0 .37-.1.07-.47s-.3-.52.04-.65c.28-.11.22-.18-.15-.2-.44-.02-.6.23-.6.98m1.58-.78c-1.14 1.13-.22 1.65 2.93 1.67 3.07.02 4.76-.8 3.74-1.83-.1-.1-.18 0-.18.2 0 .28-.25.3-.86.06-1.14-.44-1.13-.44-1.48.43l-.3.75-.02-.75c-.03-.82-.7-1.08-.7-.27 0 .26-.17.6-.4.72-.26.17-.31.06-.16-.33.26-.69-.72-1.18-1.11-.55-.19.3-.33.3-.49.05-.26-.43-.64-.49-.98-.15m22.37.78c.09.56.03 1-.13 1-.15 0-.27-.44-.27-1 0-.55.05-1 .13-1 .07 0 .2.45.27 1m2.31 0c.17 0 .31.26.31.57 0 .5-.06.48-.5-.08a2.22 2.22 0 01-.46-1.16c.02-.35.08-.33.18.08.09.33.3.6.47.6m1.49-.76c-.19.14-.34.47-.34.75s.15.63.34.78c.2.17.14.23-.16.15-.27-.08-.48-.47-.46-.87.05-1.04.07-1.07.53-1.06.26 0 .3.1.09.25m1.74 1.34c-.08.32-.15.06-.15-.59 0-.65.07-.91.15-.59.09.33.09.86 0 1.18m3.47-.59c0 1.15 0 1.15-1.16.62-1.06-.48-1.08-.75-.1-1.22 1.14-.55 1.26-.5 1.26.6m63.28-.78c-.24.09-.43.44-.43.78s.2.7.43.79c.32.13.32.17-.02.2-.53.03-.88-.81-.62-1.5.1-.27.39-.49.62-.47.34.02.34.06.02.2m1.25 1.45c.16 0 .36-.3.45-.67.12-.57.14-.55.1.08-.06 1.06-1.04.99-1.08-.08-.03-.73-.02-.74.1-.08.08.41.28.75.43.75m1.77-.84c-.09.47-.2.84-.25.84-.05 0-.16-.38-.25-.84-.1-.52 0-.84.25-.84s.35.32.25.84m1.6-.48c0 .2-.16.26-.34.15-.18-.12-.34.1-.34.5s.16.62.34.5c.19-.1.34-.04.34.15 0 .54-.67.43-.89-.14-.1-.28-.1-.74 0-1.01.22-.58.89-.69.89-.15m2.42-.13c-.31.13-.33.3-.08.6.26.32.24.49-.1.61-.3.12-.42-.06-.36-.55.1-.94.07-.9.55-.86.32.02.32.07-.01.2m8.98.86c-.02.6-.1.9-.2.67-.1-.23-.3-.33-.48-.23-.16.1-.3-.2-.3-.67 0-.54.18-.86.5-.86.35 0 .5.34.48 1.1m2.43-.8c-.35.22-.33.33.12.5.78.3.84.28.84-.3 0-.27.22-.5.5-.5.31 0 .5.32.5.82 0 .9-.5 1.41-.84.85-.16-.25-.37-.23-.7.05-.27.22-.59.3-.7.18-.12-.12-.02-.22.22-.22.33 0 .3-.16-.1-.61-.56-.61-.45-1.07.25-1.06.2 0 .16.13-.09.29m6 .18c0 .26.17.53.39.6.2.08.32.32.24.55-.08.23-.4-.03-.74-.6-.33-.57-.44-1.03-.25-1.03.2 0 .36.22.36.48m1.68.03c-.33.4-.33.6 0 1 .24.3.27.5.08.5-.2 0-.43-.22-.54-.5-.24-.62.08-1.5.54-1.5.2 0 .16.2-.08.5m18.15.23c.35.11.17.34-.59.73l-1.09.57v-1.03c0-.87.09-.98.59-.73.32.17.81.38 1.1.46m4.36.97c0 .22-.3.02-.67-.45a3.54 3.54 0 01-.67-1.12c0-.15.3.06.67.46.37.4.67.9.67 1.11m1.18-1.45c-.19.14-.34.47-.34.75s.15.63.34.78c.2.17.13.23-.17.14-.78-.2-.87-1.93-.1-1.92.33 0 .45.11.27.25m2.03.86c0 .52-.17.9-.42.9-.55 0-.56-.42-.02-.96.33-.33.32-.48-.08-.76-.45-.3-.45-.33 0-.21.28.08.51.53.52 1.03m15.46-.85c-.32.32-.2 1.75.15 1.75.34 0 .47-.46.36-1.26-.02-.23.1-.42.3-.42.2 0 .35.38.35.84 0 .5.2.84.48.84.34 0 .44-.27.33-.87-.11-.61-.03-.83.27-.73.24.08.44.43.44.78 0 .38.27.69.67.75.38.06.52-.01.33-.17-.5-.4-.58-1.18-.15-1.45.22-.13-.45-.24-1.48-.24s-1.95.08-2.05.18m4.19.7v.96l2.75-.02c1.5-.01 2.56-.08 2.35-.15-.48-.16-.53-1.09-.06-1.09.18 0 .34-.15.34-.33 0-.63-.7-.34-.98.41l-.27.75-.27-.83-.27-.84-.44 1.01c-.39.9-.44.93-.45.24-.02-.9-.96-1.38-1.39-.7-.2.33-.3.34-.3.04 0-.23-.23-.42-.5-.42-.34 0-.51.33-.51.97m5.76.04c0 .65.08.98.18.74.12-.3.3-.33.59-.09.31.26.41.1.41-.65s-.1-.91-.41-.65c-.3.24-.47.21-.6-.1-.09-.23-.17.1-.17.75m18.27-.34c.25.8-.03 1.35-.7 1.35-.3 0-.47-.35-.47-1 0-1.17.83-1.41 1.17-.35m1.4.45c.06.8.01.84-.41.42-.6-.59-.64-1.65-.07-1.45.23.07.45.54.49 1.03m1.16.08l-.27.99-.18-.92c-.1-.5-.04-.83.11-.73.16.1.3-.01.3-.24 0-.22.06-.34.15-.25.08.08.04.6-.11 1.15m10.77-.9c-.48.3-.42 1.07.1 1.46.2.14.09.25-.25.25-.43 0-.58-.26-.58-1s.15-1 .58-1c.44 0 .48.07.15.28m1.36.72c-.09.56-.2 1-.25 1a3.1 3.1 0 01-.24-1c-.09-.62 0-1 .25-1 .24 0 .33.38.24 1m-244.56-.16c.27.27.45.64.4.8-.07.17-.4-.06-.72-.5-.67-.9-.47-1.1.32-.3m3.17.94c-.27.26-.48.25-.79-.06-.33-.34-.3-.38.17-.2.45.17.6.04.63-.57.03-.62.07-.66.2-.17.08.35 0 .8-.21 1m7.64-.27c.43-.16.47-.12.17.18-.53.54-1.13.1-1.07-.8.04-.7.05-.7.2.05.1.57.3.73.7.57m1.76-.84c.3-.42.33-.4.25.16-.06.37-.33.67-.6.67-.28 0-.55-.3-.6-.67-.1-.55-.05-.58.24-.17.31.45.4.45.7 0m216.46.32c0 .38.15.7.34.7.18 0 .33-.22.33-.5 0-.26-.15-.57-.33-.68-.19-.12-.34.1-.34.48m-188.57.19c0 .28-.15.5-.34.5-.18 0-.33-.22-.33-.5s.15-.5.33-.5c.19 0 .34.22.34.5m4.96-.09a.66.66 0 01-.6.42.66.66 0 01-.58-.42c-.08-.25.16-.42.59-.42.43 0 .67.17.59.42m46.47-.08c0 .19-.43.34-.96.34s-1.23.3-1.56.67c-.34.37-.7.6-.79.5-.1-.09.19-.54.62-1 .78-.84 2.69-1.2 2.69-.5m25.88.5c.43.46.71.91.62 1-.1.1-.45-.13-.79-.5a2.37 2.37 0 00-1.73-.67c-.62 0-1.13-.15-1.13-.34 0-.72 2.23-.34 3.03.5m33.5-.35c-.1.26 0 .55.22.64.3.13.3.17 0 .2-.52.03-.88-.55-.61-.99.31-.5.6-.4.39.15m-47.02.37c.41.3.75.7.75.9 0 .21-.38.02-.84-.41l-.84-.79-.84.79c-.94.88-1.16.57-.29-.4.68-.75 1.1-.76 2.06-.09m-50.32 9.24c1.26.68.61 2.68-.87 2.68-1.43 0-1.95-1.31-.95-2.41.64-.71.92-.75 1.82-.27m107.54-.01c0 .18-.2.34-.42.34-.29 0-.26.1.07.32.41.26.36.42-.3 1-1.3 1.13-2.05.92-2-.57.04-.93.1-1.04.2-.42.31 1.64 1.44 1.62 1.44-.02 0-.65.17-.99.5-.99.28 0 .5.15.5.34m1.97.82c.14 1.2-.4 1.8-1.1 1.2a1.31 1.31 0 01-.12-1.96c.6-.6 1.1-.3 1.22.76m2.07.41c0 1.44-.16 1.4-.45-.14-.12-.63-.06-1.1.12-1.1s.33.56.33 1.24m-142.18.28c0 .65-.16 1.18-.34 1.18-.19 0-.34-.53-.34-1.18 0-.65.16-1.17.34-1.17.19 0 .34.52.34 1.17m1.34-.63c0-.32.15-.5.32-.39.35.22.32 2.2-.03 2.2-.12 0-.33-.27-.46-.59-.22-.54-.26-.53-.51.08-.22.52-.28.36-.3-.67 0-1.25.03-1.3.49-.7.44.6.5.6.5.07m2.23-.02c.12.3-.1.8-.52 1.19l-.71.66v-1.19c0-1.25.83-1.7 1.23-.66m1.15 1.3c.19.2.3-.09.3-.75 0-1.02.08-1.08 1.25-1.08.97 0 1.16.1.84.4-.22.23-.42.8-.44 1.27-.03.68-.07.72-.19.18-.33-1.48-.55-1.68-.75-.67-.31 1.54-1.52 1.41-1.6-.17-.03-.78.01-.89.12-.33.09.46.3.98.47 1.16m4.6-1.6c-.68.17-.8.76-.17.8.33.02.33.06 0 .2-.59.23-.53.78.08.78.28 0 .5-.28.5-.63 0-.76.84-1.53 1.33-1.23.83.51.4 2.29-.5 2.11-.46-.09-.92-.03-1.02.13-.38.62-1.35-.34-1.3-1.28.08-1.2.02-1.12.9-1.08.58.03.62.08.17.2m3.11.98c0 .5.15.75.35.63.2-.12.27-.5.16-.84-.11-.34-.04-.71.15-.83.22-.13.36.22.38.9.01.68.1.91.25.6.12-.27.45-.5.73-.5.28 0 .6.23.73.5.14.31.24.09.25-.58.03-1.36.7-1.47.7-.12 0 .54.19 1.07.42 1.17.23.1-.45.13-1.52.08-1.07-.06-2.03.03-2.13.2-.1.16-.4.12-.66-.1-.54-.44-.67-2.48-.14-2.16.18.12.33.59.33 1.05m2.36-.71c0 .28-.16.5-.34.5-.19 0-.34-.22-.34-.5s.15-.5.34-.5c.19 0 .34.22.34.5m2.59 1.26c-.08.41-.15.15-.16-.59 0-.74.07-1.08.15-.76.08.32.09.93 0 1.35m1.79-1.58c0 .11-.17.5-.38.89-.28.53-.26.76.09.98.33.2.25.29-.3.3-.86 0-.9-.11-.39-1.07.29-.54.27-.77-.08-.99-.33-.2-.25-.29.3-.29.42 0 .76.08.76.18m1.15.3c-.64.5-.64.5.02.52.67.02.67.03.02.4-.66.38-.66.39 0 .64.6.24.6.26-.1.28-.65.02-.76-.15-.76-1.15 0-.98.12-1.17.74-1.17.72 0 .72 0 .08.49m2.38.77c0 1.01-.48 1.6-.54.67-.02-.34-.06-.34-.2 0-.3.76-.78.43-.78-.53 0-1.11.27-1.47 1-1.33.34.07.52.47.52 1.19m42.66-.77c-.64.48-.64.5.03.51.66.02.66.03.01.4-.65.38-.65.39 0 .64.61.24.6.26-.1.28-.64.02-.76-.15-.76-1.15 0-.98.12-1.17.74-1.17.72 0 .72 0 .09.49m2.08.44c-.1-.32-.04-.67.13-.78.19-.1.33.33.33 1 0 1.27-.45 1.59-.84.61-.23-.54-.27-.53-.52.08-.21.52-.28.36-.3-.67l-.01-1.34.7.84c.43.53.62.62.5.26m1.47.07c.16 0 .36-.19.44-.42.08-.23.1.03.02.57-.13 1.03-.34 1.42-.62 1.14-.1-.09-.22-.6-.3-1.14-.06-.54-.05-.8.03-.57.08.23.28.42.43.42m1.87-.6c-.66.38-.66.38 0 .64.56.22.58.25.07.28-.33 0-.6.16-.6.33s.27.38.6.47c.44.11.4.16-.17.19-.65.03-.76-.13-.76-1.14 0-1 .12-1.17.76-1.16.72 0 .73.02.1.39m1.77 1.72c.4.1.35.16-.2.19-.66.03-.74-.11-.7-1.22.06-1.21.07-1.22.2-.2.07.65.35 1.14.7 1.23m2.02-.84c.08.88-.02 1.07-.57 1.07-.82 0-1.26-1.2-.7-1.88.62-.74 1.15-.4 1.27.81m1.97-.76c.11.35-.96 1.83-1.32 1.83-.14 0-.1-1.86.04-2.3.09-.25 1.17.14 1.28.47m1.37-.3c-.68.18-.8.77-.17.81.33.02.33.06 0 .2-.6.24-.52.7.17.9.33.1.23.15-.26.11-.46-.03-.8-.17-.75-.31.04-.14.08-.63.08-1.1 0-.65.16-.83.76-.8.57.03.6.08.17.2m2.35 0c-.68.18-.78.65-.17.86.3.1.25.3-.17.72-.56.56-.59.53-.59-.62 0-1.03.11-1.19.76-1.16.57.03.61.08.17.2m2.04 1.05c.08.88-.02 1.07-.57 1.07-.82 0-1.26-1.2-.7-1.88.62-.74 1.15-.4 1.27.81m1.07-.3c0 .53.19 1.05.42 1.15.23.09.08.18-.34.2-.64.01-.75-.16-.75-1.16 0-.65.15-1.17.33-1.17.19 0 .34.44.34.97m1.57.07c-.1.38.06.77.4.96.47.28.44.33-.2.34-.65 0-.76-.17-.76-1.19 0-.77.13-1.12.36-.97.2.13.3.51.2.86m2.67-.18c.25 1-.26 1.67-1.03 1.38-.52-.2-.73-1.6-.3-2.02.49-.49 1.12-.18 1.33.64m1.15-.38c0-.65.01-.65.5 0 .47.62.5.62.5.03 0-.35.08-.54.2-.43.1.11.09.68-.04 1.26-.21.97-.26 1-.7.44-.42-.57-.45-.57-.46-.02-.02.8-.69.75-.69-.06 0-.35-.08-.92-.2-1.26-.17-.56-.14-.56.34.04.53.65.54.65.55 0m2.49 0c-.65.5-.65.5.02.52.66.02.66.03.01.4-.65.38-.65.39 0 .64.61.24.6.26-.1.28-.64.02-.75-.15-.75-1.15 0-.98.12-1.17.73-1.17.72 0 .72 0 .09.49m2.18-.02c.25.3.27.55.05.68-.18.12-.25.47-.15.79.16.49.13.5-.18.07-.33-.45-.4-.45-.7 0-.25.38-.33.2-.34-.75 0-1.34.57-1.69 1.32-.8m45.74.2c0 .38.15.68.33.68.19 0 .34-.3.34-.67 0-.37-.15-.67-.34-.67-.18 0-.33.3-.33.67m56.92 1.44c.24.17.13.23-.28.17-.74-.12-1.04-1-.64-1.89.2-.44.29-.34.4.44.07.56.3 1.13.52 1.28m1.56-1.77c-.43.28-.43.37-.03.63s.4.39-.06.84c-.75.75-.92.67-.85-.39.07-1.22.2-1.43.88-1.42.49 0 .5.05.06.34m2.3.75c.07.62-.08 1-.45 1.14-.8.3-1.3-.37-1.04-1.4.3-1.18 1.34-1 1.49.26m2.24-.77c.1.19.04.64-.16 1.01-.26.5-.26.68 0 .68.2 0 .28.15.17.32-.1.18-.43.24-.7.13-.45-.17-.45-.29.01-1 .48-.72.48-.8 0-.8-.3 0-.44-.14-.33-.33.27-.43.75-.43 1 0m-191.75.84c0 .5.14.8.33.67.19-.11.34-.41.34-.67 0-.25-.15-.56-.34-.67-.19-.12-.33.17-.33.67m76.08-.31c-.12.29-.03.7.17.9.29.29.39.16.39-.52 0-1.01-.26-1.18-.56-.38m112.49.31c0 .5.14.8.33.67.19-.11.34-.41.34-.67 0-.25-.15-.56-.34-.67-.19-.12-.33.17-.33.67M151.16 152.8c-.1 13.6-.26 24.82-.37 24.93-.11.1-.2-11.02-.2-24.73 0-18.04.1-24.93.37-24.93s.33 6.73.2 24.73m23.63-24.06c0 .37.15.67.34.67.18 0 .33-.3.33-.67 0-.37-.15-.67-.33-.67-.19 0-.34.3-.34.67m7.73 0c0 .37.15.67.34.67.18 0 .33-.3.33-.67 0-.37-.15-.67-.33-.67-.19 0-.34.3-.34.67m28.15 36.72c-.05 6.89-.09 1.25-.09-12.52s.04-19.4.1-12.52c.04 6.89.04 18.16 0 25.04m59.9-30.17c0 4.6-.11 7.23-.33 7.23-.21 0-.33-2.63-.33-7.23 0-4.59.12-7.22.33-7.22.22 0 .34 2.63.34 7.22m-47.4-1.7c0 .45-.15.92-.33 1.03-.19.12-.34-.1-.34-.49v-.7l-1.33.68c-1.5.76-1.83.84-1.52.34.26-.42 2.54-1.64 3.1-1.66.23-.01.42.35.42.8m9.75.02c.88.94.57 1.16-.4.29-.56-.52-.65-.52-1.22 0-.97.87-1.27.65-.4-.29.44-.46.9-.84 1.01-.84.12 0 .58.38 1.01.84m49.7.26c-.03.79-.08.88-.19.33-.18-.92-.12-.92-1.6-.04-.67.4-1.3.62-1.43.5-.26-.26-.2-.32 1.42-1.16 1.78-.92 1.86-.9 1.8.37m10.13-.26c.88.94.57 1.16-.4.29-.56-.52-.65-.52-1.22 0-.96.87-1.27.65-.4-.29.44-.46.9-.84 1.01-.84.13 0 .58.38 1.01.84m-162.75.62c.08.64-.04.9-.43.9-.63 0-1-.8-.72-1.54.3-.8 1.03-.4 1.15.64m1.52-.51c.1-.25.18 0 .2.52.02.8-.06.9-.45.58-.36-.3-.5-.3-.61.04-.09.24-.17-.1-.18-.74-.03-1.06.01-1.12.41-.57.34.45.5.5.63.16m-2.31.1c-.13.2-.06.53.14.74.28.27.38.18.38-.37 0-.8-.18-.93-.52-.37m53.28 1.74c1.88.96 2.73 2.12 2.95 4.05.58 5.23-5.68 8-9.3 4.13-1.17-1.25-.6-1.5.63-.27 4.2 4.2 10.82-.86 7.4-5.65-2.67-3.76-6.95-2.53-8.52 2.44-.32 1-.88.65-.88-.54 0-2.22 2.95-4.92 5.38-4.92.47 0 1.53.34 2.34.76m47.14 0c1.6.89 2.63 2.72 2.58 4.52l-.04 1.28-.23-1.18c-1.22-6.07-8.78-6.07-9.36 0-.14 1.42-.04 1.9.58 2.74.82 1.1.7 1.66-.2.92-4.63-3.84 1.35-11.28 6.67-8.29m20.01-.23c1.45.6 2.5 1.47 2.25 1.86-.09.15-.71-.1-1.38-.55-4.87-3.3-10.28 3.9-5.6 7.48 2.99 2.28 7.53.16 7.63-3.55.02-.89.13-1.2.3-.88.15.27.12 1.08-.07 1.8-1.56 5.8-9.53 5.3-10.61-.66-.69-3.81 3.74-7.07 7.48-5.5m39.4.07c3.59 1.8 3.67 7.39.15 9.4-1.34.78-4.17 1.06-4.17.43 0-.19.69-.34 1.53-.34 6 0 6.66-8.33.74-9.3-3.5-.56-6.35 3.82-4.6 7.08.8 1.5.56 2.09-.38.87-3.57-4.6 1.53-10.76 6.74-8.14m21.01.18c.74.42 1.4 1.03 1.46 1.35.1.5-.07.46-1.1-.24-4.09-2.77-9.23 1.32-7.15 5.68 2.11 4.42 8.35 3.03 9-2.01l.22-1.69.05 1.45c.19 5.75-7.69 7.54-10.07 2.29a5.33 5.33 0 017.6-6.83m-198.83-.01c0 .23-.45.62-1 .86-4.4 1.95-2.9 8.8 1.94 8.8a4.61 4.61 0 002-8.85c-1.46-.72-1.39-1.36.08-.85 5.92 2.06 3.01 11.39-3.18 10.23-4.68-.88-5.8-7.7-1.62-9.91 1.52-.8 1.78-.84 1.78-.28m50.08-.11c0 .17-.3.4-.65.52-3.92 1.25-3.67 7.84.34 8.92 5.61 1.51 8.52-6.22 3.26-8.67-1.32-.61-1.63-1.08-.72-1.08 2.99 0 4.97 5.01 3.16 7.98-3.42 5.6-12.28.8-9.43-5.1.93-1.93 4.04-3.9 4.04-2.57m38.34.02c4.15 1.15 5 7.13 1.37 9.6-2.14 1.46-5.18 1.03-7.07-1-1.2-1.26-.55-1.51.73-.28 3.97 3.83 10.3-.16 7.82-4.93-2.24-4.33-8.92-3.01-8.92 1.76 0 .31-.24.57-.55.57-.44 0-.51-.26-.36-1.4.44-3.22 3.69-5.23 6.98-4.32m-37.28 3.2c0 .17-.16.37-.36.44-.2.06-.36-.14-.36-.44 0-.31.16-.51.36-.44.2.06.36.26.36.44m-50.13.16c0 .19-.23.34-.5.34-.28 0-.5-.15-.5-.34 0-.18.22-.33.5-.33.27 0 .5.15.5.33m106.71 1.08c.84.4 1.52.86 1.52 1 0 .43-.41.33-1.6-.4-1.36-.83-1.34-.83-1.52.09-.1.54-.16.45-.2-.34-.05-1.3-.11-1.28 1.8-.35m17.29.35c-.03.98-.06 1.01-.26.28-.3-1.09-.97-1.27-1.11-.3-.1.76-1.29 1.34-1.29.64 0-.2.23-.37.5-.37.29 0 .51-.3.51-.67 0-.5.23-.67.84-.67.73 0 .84.14.8 1.1m42.39-.43c1.19.6 2.03 1.35 1.53 1.35-.12 0-.8-.3-1.54-.68l-1.33-.68v.68c0 .37-.15.68-.33.68-.19 0-.34-.46-.34-1.01 0-1.19.26-1.23 2-.34m17.5.17c0 .46-.16.84-.34.84-.19 0-.34-.3-.34-.67 0-.92-.6-.85-.73.08-.11.77-1.62 1.34-1.62.61 0-.2.23-.36.5-.36.28 0 .5-.3.5-.67 0-.52.23-.67 1.02-.67.85 0 1 .13 1 .84m-45.66 0c0 .18-.16.37-.36.44-.2.07-.36-.13-.36-.44 0-.3.16-.5.36-.44.2.07.36.26.36.44m-72.32 1.68c0 .28-.14.5-.31.5-.43 0-.73-.52-.46-.79.38-.38.77-.23.77.3m18.09.18c-.07.2-.27.37-.44.37-.18 0-.38-.17-.44-.37-.07-.2.13-.36.44-.36.3 0 .5.17.44.36m35.12 1.25c-1.4 1.88-4.13 2.95-5.71 2.24-.43-.19.03-.34 1.5-.5 2.24-.24 3.83-1.28 4.33-2.82.15-.47.27-.55.38-.24.08.25-.14.84-.5 1.32m-5.12-.17c-.04.4-.5.32-.64-.11-.08-.22.04-.34.27-.27.22.08.39.25.37.38m59.81-.15c0 .44-.4.73-.72.53-.35-.22-.05-.8.4-.8.18 0 .32.12.32.27m32.4 1.57c-.12.28-.03.5.17.5s.37.23.37.5c0 .28-.26.5-.59.49-.37-.02-.43-.1-.15-.2.33-.14.34-.3.05-.64-.2-.25-.28-.61-.16-.8.33-.53.52-.43.3.15m4.65.09c-.5.16-.54 1.09-.04 1.09.2 0 .26.15.14.34-.33.53-.84.04-.84-.81 0-.91.3-1.28.79-.98.24.15.23.27-.05.36m-3.02.64c-.08.43-.19.78-.24.78-.05 0-.15-.35-.24-.78-.08-.46.02-.79.24-.79.23 0 .33.33.24.79m1.62.13c.24.45.24.65 0 .65-.19 0-.34-.22-.34-.5s-.16-.5-.34-.5c-.19 0-.34-.17-.34-.36 0-.5.6-.08 1.02.7m-62.8-.4c-.35.23-.33.37.08.71.61.5.39 1.04-.42 1-.37-.02-.42-.09-.13-.2.32-.13.34-.29.05-.63-.42-.51-.16-1.16.46-1.16.28 0 .27.09-.04.28m2.32 1.09c-.3.76-.33.74-.35-.35-.01-.8.09-1.05.33-.81.23.23.23.62.02 1.16m2.32-1.02c0 .2-.15.27-.34.15-.18-.11-.33.1-.33.46s.19.74.42.83c.33.13.32.18-.01.2-.53.03-.89-.8-.63-1.49.22-.57.89-.68.89-.15m-3.03.4c-.01.98-.58 1.33-.74.46-.12-.6-.02-.88.29-.88.25 0 .45.2.45.42m12.47.52c.83.74 1.06 1.24 1.14 2.44.04.82.02 1.01-.06.42-.33-2.54-3.03-3.9-5.39-2.72-.85.43-1.96 3-1.64 3.81.13.35.06.5-.21.41-.56-.18-.73-2.4-.25-3.28 1.1-2.08 4.63-2.67 6.4-1.08m-50.82.65c.27.48.4.5.85.12.3-.24.54-.3.54-.1 0 .76-.87 1.07-1.6.57-.38-.27-.94-.4-1.23-.3-.3.12-.53.07-.53-.1 0-.91 1.49-1.06 1.97-.2m8.83.03c-.3.1-.24.28.19.6.84.64 1.08.6.87-.19-.1-.39-.01-.67.22-.67.22 0 .3.16.18.35-.12.2-.05.55.16.8.28.34.25.5-.13.64-.28.1-.6.04-.71-.14-.14-.22-.37-.21-.66.03-.32.27-.5.26-.7-.04-.15-.25-.1-.31.15-.16.21.13.38.1.38-.09 0-.18-.17-.39-.4-.46-.22-.08-.3-.38-.16-.72.13-.35.39-.49.63-.34.31.2.31.28-.02.4m50.72-.1c.25.31.7.44 1.13.32.7-.19.7-.18.06.33-.6.48-.71.46-1.37-.15-.55-.52-.8-.58-1.1-.27-.25.25-.41.27-.41.06 0-.89 1.04-1.06 1.69-.29m8.95 0c-.2.5 1 1.4 1.38 1.03.1-.1.02-.2-.2-.2-.21 0-.4-.22-.4-.5 0-.76.58-.6.8.23.24.93-.06 1.42-.6.97-.28-.23-.53-.22-.8.05-.3.3-.5.3-.8 0-.32-.32-.26-.4.25-.42.62 0 .62-.03.05-.36-.48-.28-.53-.45-.21-.83.51-.62.77-.61.53.02m-56.36.18c.26-.4.33-.3.34.46 0 .79-.08.9-.47.57-.36-.3-.51-.29-.65.04-.1.24-.18-.02-.2-.57 0-.78.06-.9.32-.5.3.44.37.44.66 0m59.2.08c.01.34.05.34.19 0 .28-.7.62-.47.62.42 0 .84-.49 1.22-.54.42-.02-.34-.06-.34-.2 0-.27.69-.6.48-.66-.42-.02-.46.09-.84.25-.84.17 0 .32.19.33.42m-152.03 1.64c3.05 1.48 3.9 7.76 1.15 8.62-.23.08-.03-.44.45-1.15 2.95-4.3-2.82-9.57-6.72-6.14-3.61 3.17-1.13 9.07 3.46 8.2.76-.14 1.05-.09.9.15-.37.62-3.28.41-4.47-.31-5.9-3.6-1-12.38 5.23-9.37m-53.94 0c5.31 2.73 2.69 11.66-3 10.23-1.28-.32-.92-.72.5-.59 5.03.48 7-6.02 2.65-8.68-3.94-2.4-8.54 2.32-6.3 6.48.8 1.5.84 1.82.14 1.24-4.35-3.61.96-11.28 6.01-8.68m25.28.3c.3.5-.15 1.67-.67 1.67-.54 0-.9-.83-.64-1.51.22-.58 1-.67 1.3-.17m43.76 1.26c-.08.32-.15.06-.15-.59 0-.64.07-.9.15-.59.09.33.09.86 0 1.18m3.8-.68c0 1.03.6.98.78-.08.14-.8.15-.8.1.06-.05 1.15-.79 1.42-1.15.42l-.28-.75-.56.8-.56.8v-1.08c0-.94.1-1.07.84-1 .63.05.84.25.84.83m2.09.1c-.09.55-.2 1-.25 1a3.1 3.1 0 01-.24-1c-.09-.63 0-1.01.25-1.01.24 0 .33.38.24 1m1.78-.55c-.37.27-.51.62-.35.88.2.33.32.32.58-.04.26-.37.3-.37.19.03-.2.7-.9.84-1.14.22-.29-.77.1-1.54.76-1.54.53 0 .53.03-.03.45m1.87.66c.03.58.1.52.31-.27l.27-1.01-.06.98c-.05.85-1.58 1.72-1.56.9.03-1.51.96-2.04 1.04-.6m1.64-.61c0 .28.15.5.34.5.18 0 .33.25.33.55 0 .41-.17.33-.67-.3-.75-.96-.83-1.25-.33-1.25.18 0 .33.22.33.5m9.48.6c.11.57 0 .77-.46.77-.68 0-.7-.04-.4-1.12.24-.9.66-.73.86.34m1.01-.09c-.08.56-.19 1.01-.24 1.01-.05 0-.16-.45-.24-1-.09-.63 0-1.01.24-1.01s.33.38.24 1m1.35 0c-.08.56-.2 1.01-.24 1.01-.05 0-.16-.45-.24-1-.1-.63 0-1.01.24-1.01s.33.38.24 1m1.58.52c.02.2-.26.35-.6.35-.62 0-.64-.13-.18-1.46.21-.6.72.12.78 1.11m1.12-1.3c-.23.1-.42.44-.42.78s.19.7.42.79c.33.13.33.18-.01.2-.53.03-.89-.81-.63-1.5.11-.27.4-.48.63-.47.34.02.34.06 0 .2m1.39.16c.27-.23.4-.04.42.66.03.75-.06.9-.39.62-.3-.25-.47-.22-.6.09-.1.23-.17-.1-.17-.75 0-.64.08-.98.17-.74.12.29.31.33.57.12m10.74-.13c.08.14.03.55-.12.92s-.29.52-.3.34c-.02-.19-.18-.11-.36.17-.24.38-.32.24-.33-.6 0-1 .7-1.54 1.11-.83m1.12.76c0 .56-.14.97-.3.92-.17-.06-.3-.21-.28-.35.02-.13.03-.54.03-.91s.12-.67.27-.67c.15 0 .28.45.28 1.01m1.58.75c.26.16.2.24-.16.25-.55 0-1.07-1.46-.66-1.87.1-.12.25.15.32.58.06.43.29.9.5 1.03m1.4-1.5c-.49.36-.5 1.43-.03 1.43.22 0 .55-.42.73-.93l.34-.92.35 1c.36 1 .35 1.02-.94 1.09-1.23.07-1.3.03-1.3-.92 0-.74.17-1 .6-1 .33 0 .44.11.25.25m2.56.05c-.37.24-.32.38.27.69.64.34.72.31.63-.2-.06-.39.14-.64.57-.72.38-.06.53 0 .34.16-.42.34-.44 1.2-.03 1.5.16.12-.25.2-.93.18-.67-.02-1.05-.14-.85-.26.25-.15.17-.34-.22-.56-.61-.35-.42-1.1.28-1.09.26 0 .24.1-.06.3m45.06.67c-.07.5.02.7.25.55.2-.12.36-.51.36-.87 0-.6.67-.99.68-.4 0 .14.09.55.18.92.15.56 0 .69-.84.75-.62.04-1.03-.1-1.03-.34 0-.25-.13-.22-.33.1-.25.38-.33.23-.33-.62 0-.88.11-1.09.58-1 .4.08.55.37.48.9m2.36.04c-.08.56-.18 1.01-.23 1.01-.06 0-.16-.45-.24-1-.1-.63 0-1.01.24-1.01.23 0 .33.38.23 1m1.35-.78c-.34.14-.34.29-.04.65.3.36.28.47-.07.47-.37 0-.36.08.04.34.43.27.42.32-.09.33-.39 0-.58-.26-.58-.78 0-.87.25-1.25.8-1.2.2 0 .18.1-.06.2m55.97.44c-.1.37-.05.75.11.85.17.1.4-.21.52-.7.23-.92.6-.78.93.35.23.75-1.39 1.04-1.89.35-.16-.23-.37-.17-.58.16-.26.4-.33.32-.34-.37 0-.98.23-1.31.93-1.31.32 0 .43.22.31.67m2.53.33c-.08.56-.2 1.01-.24 1.01-.05 0-.16-.45-.24-1-.1-.63 0-1.01.24-1.01s.33.38.24 1m1.44-.75c-.19.14-.34.48-.34.75 0 .28.15.62.34.75.19.14.08.25-.25.26-.44 0-.6-.27-.6-1 0-.75.17-1.01.6-1.01.33 0 .44.11.25.25m-36.64 3.11c-1.35 1.49-5.55 1.47-5.55-.03 0-.25.29-.2.83.16 1.16.75 3.28.7 4.26-.12 1.03-.86 1.23-.86.46-.01m-4.76 3.89c-.1.26-.02.48.19.48.2 0 .37-.3.37-.68 0-.37.16-.67.37-.67.2 0 .28.24.17.52-.11.3-.06.44.13.32.19-.11.34 0 .34.27 0 .32-.42.47-1.35.47-1.3 0-1.9-.9-1.12-1.69.36-.35 1.1.45.9.98m2.57-.2c0 .56-.15 1.01-.33 1.01-.19 0-.34-.45-.34-1 0-.56.15-1.01.34-1.01.18 0 .33.45.33 1m2.3.23c-.14 1.11-.82 1.4-1.11.47-.26-.83.01-1.37.7-1.37.36 0 .48.28.4.9m-.94-.06c0 .28.15.5.34.5.18 0 .33-.22.33-.5s-.15-.5-.33-.5c-.19 0-.34.22-.34.5m-132.07.6c-.43.44-.87.1-.55-.41.13-.2.38-.27.57-.16.23.15.22.33-.02.58m-56.48-.01c-.04.4-.5.32-.64-.11-.08-.22.04-.34.27-.27.22.07.39.25.37.38m37.96 3.1c0 1.23-.15 2.19-.34 2.19-.18 0-.33-.9-.33-2.03v-2.02l-8.66.09-8.65.09-.2 2.02-.2 2.01-.05-2.27-.06-2.27H121.68v2.19m148.9-.99c0 .45-.14.82-.33.82-.18 0-.33-.46-.33-1.03 0-.6.14-.94.33-.82s.34.58.34 1.03m-104.9-.44c-.06 1.13-.58 1.75-.56.67 0-.6.14-1.09.3-1.09.16 0 .27.19.26.42m25.23 0c0 .23-.14.63-.3.9-.22.33-.29.21-.25-.43.05-.87.56-1.3.55-.47m30 .59c.07.55.02 1-.14 1-.15 0-.28-.45-.28-1 0-.56.06-1 .13-1 .08 0 .2.44.28 1m6.14-.69c.23.38-.52 1.7-.96 1.7-.17 0-.06-.28.24-.62.7-.77.72-1.2.04-.94-.3.12-.44.06-.32-.13.26-.42.74-.42 1 0m2.36.68c0 .94-.98 1.34-1.29.52-.3-.77.12-1.58.75-1.46.32.07.54.44.54.94m.74.59c-.09.32-.16.06-.16-.6 0-.64.07-.9.16-.58.08.33.08.85 0 1.18m19.97-.23c-.31.77-.33.75-.35-.34-.02-.8.09-1.06.32-.82.23.23.24.62.03 1.16m35.86-.36c-.02.55-.16 1-.32 1-.33 0-.35-.23-.07-1.25.28-1.04.42-.95.39.25m23.93-.59c0 .23-.14.63-.3.9-.22.33-.29.21-.25-.43.05-.87.56-1.3.55-.47m-142.01.76c0 .34-.2.65-.43.7-.23.05-.27.01-.08-.08.19-.1.34-.38.34-.62 0-.25-.15-.53-.34-.62-.2-.1-.15-.13.08-.09.24.05.43.37.43.7m2.85-.06c0 .25-.14.21-.36-.1-.29-.4-.33-.34-.19.3.13.57.08.7-.18.44-.44-.43-.08-1.54.4-1.25.18.12.33.4.33.61m22.41.38c-.22.6-.9.72-.9.17 0-.2.16-.26.34-.15.19.12.34-.03.34-.33 0-.33-.16-.45-.39-.3-.25.15-.3.09-.13-.18.36-.58 1 .1.74.8m2.8-.39c0 .24-.13.2-.33-.1-.28-.44-.33-.43-.33.06 0 .3.18.63.41.72.3.13.31.18.02.2-.54.04-.87-.57-.64-1.19.22-.56.88-.32.87.31m32.44-.44c-.24.4.08 1.01.53 1.01.17 0 .31-.3.31-.67 0-.71-.49-.9-.84-.34m4.18 1.16c.01.17-.19.02-.45-.33-.26-.36-.38-.8-.28-.97.19-.3.68.58.73 1.3m20-.94c.17.46.13.48-.3.13-.42-.35-.52-.34-.52.09 0 .28.2.6.43.69.3.12.3.17.02.2-.55.03-.88-.58-.65-1.18.25-.65.75-.61 1.02.07m2.75-.16c.16.25.09.3-.2.11-.33-.2-.4-.09-.26.45.1.4.06.73-.11.73-.35 0-.41-1.13-.08-1.46.3-.3.37-.28.65.16m31.68.33c-.38.24-.37.35.05.63.43.28.42.33-.08.33-.35 0-.6-.24-.6-.6 0-.76.33-1.12.76-.85.2.11.14.32-.13.5m25.15.43c-.23.6-.9.72-.9.17 0-.2.15-.26.34-.15.18.12.33-.03.33-.33 0-.33-.15-.45-.38-.3-.25.15-.3.09-.13-.18.35-.58 1 .1.74.8m2.8-.39c-.01.24-.14.2-.34-.1-.28-.44-.32-.43-.33.06 0 .3.19.63.42.72.3.13.3.18.02.2-.55.04-.88-.57-.65-1.19.22-.56.88-.32.87.31m-91.62-.18c-.2.14-.46.47-.56.75-.13.34-.2.25-.22-.25-.02-.5.16-.75.56-.75.36 0 .45.1.22.25m1.46.35c-.34.07-.5.28-.38.51.14.24.04.23-.24-.04-.54-.5.2-1.22.86-.81.2.13.1.27-.24.34m-113.16.04c-.45.28-.38 1.07.14 1.45.19.14.08.25-.26.25-.38 0-.59-.25-.59-.73v-.73l-.84.8-.84.78v-.84c0-1.09.08-1.15 1.56-1.2.68-.01 1.06.09.83.22m1.65.8c0 .56.08.63.3.26.17-.26.27-.63.23-.84-.05-.2-.02-.24.06-.1.08.15.32.13.53-.05.28-.23.4-.03.43.69.02.67-.06.86-.25.55-.2-.3-.38-.33-.55-.09-.25.36-1.77.5-1.76.16.04-1.48 1-2.03 1.01-.58m-30.27 1.93c-.31.2-.34.31-.08.32.23 0 .32.23.22.5-.27.7-.7.64-.64-.09.06-.77.53-1.52.8-1.25.1.11-.02.35-.3.52m1.96.43c-.04.45-.29.75-.6.75-.57 0-.67-.72-.21-1.46.37-.6.88-.16.81.71m1.42-.78c0 .18-.2.34-.42.34-.28 0-.26.11.08.33.4.26.4.33.04.33-.39 0-.39.1 0 .57.4.47.4.53-.04.39-.56-.19-.83-1.07-.54-1.81.2-.55.88-.66.88-.15m51.09 0c0 .18-.19.34-.42.34-.3 0-.31.07-.04.25.28.18.26.37-.08.68-.5.46-.74-.9-.25-1.38.34-.34.79-.27.79.1m1.45.97c-.22.86-1.12.76-1.12-.12 0-.4.1-.83.23-.95.38-.38 1.06.44.9 1.07m3.03.3c-.23.87-.55.95-1.1.29-.3-.36-.29-.46.04-.42.24.02.44-.1.44-.3.01-.18-.2-.28-.48-.21-.42.1-.43.03-.04-.44.62-.75 1.42.01 1.14 1.08m-54.07-.25c0 .43-.19.84-.42.92-.52.17-.9-.73-.63-1.45.3-.78 1.05-.4 1.05.53m-.84-.17c0 .28.15.5.33.5.19 0 .34-.22.34-.5s-.15-.5-.34-.5c-.18 0-.33.22-.33.5m52.92.2c-.13.21-.03.51.23.67.36.23.34.3-.13.3-.36 0-.58-.25-.58-.67 0-.37.16-.67.35-.67.2 0 .25.17.13.37m28.76.32c0 .18-.23.32-.5.32-.53 0-.67-.4-.3-.78.28-.26.8.04.8.46m25.21 0c0 .18-.23.32-.5.32-.52 0-.67-.4-.3-.78.28-.26.8.04.8.46m-88.5 1.99c1.63.74 2.8 2.38 2.75 3.88l-.02 1-.28-.9c-.94-3.14-3.7-4.32-7.31-3.13-1.2.4-.92-.47.33-1.01 1.5-.65 2.86-.6 4.53.16m124.46.1c1.79.9 2.6 1.98 2.85 3.78.18 1.3.17 1.3-.2.33-2.38-6.23-10.62-4.3-9.51 2.23.18 1.07.16 1.1-.34.48-3-3.7 2.7-9.12 7.2-6.83m25.13-.1c1.46.67 2.77 2.34 2.77 3.54 0 .49-.17.35-.62-.5-1.83-3.44-6.56-3.66-8.26-.37-.88 1.7-.94 3.13-.21 4.55.8 1.54.6 2.08-.32.86-3.49-4.62 1.33-10.48 6.63-8.07m34.6-.01a4.13 4.13 0 012.66 3.4l.2 1.16-.68-1.42c-1.79-3.75-6.81-3.83-8.4-.13-.9 2.08-.9 2.92-.03 4.36.82 1.34.54 1.9-.38.77-3.64-4.5 1.3-10.56 6.64-8.14m25.97.3c1.33.98 2 2.14 2.19 3.75.13 1.16.1 1.28-.1.5-1.65-6.12-9.42-5.46-9.46.8 0 .63.32 1.68.72 2.32.96 1.54.09 1.32-.98-.25-3.06-4.51 3.23-10.39 7.63-7.13m-195.78-.17c-2.2 1.32-3.86 4.33-3.33 6.05 1.05 3.4 4.91 4.54 7.86 2.34 1.05-.78 1.11-.8.52-.12-2.98 3.4-8.64 1.47-9.16-3.12-.3-2.63 1.81-5.62 3.94-5.57.8.02.81.04.17.42m4.56.47a5.47 5.47 0 011.97 4.2c-.02 1.02-.06.97-.45-.5-.48-1.78-1.84-3.43-3.09-3.74-.44-.12-.8-.36-.8-.54 0-.64 1.3-.32 2.37.58m43-.63c0 .15-.52.52-1.16.83-2.2 1.04-3.34 4.84-2.06 6.8 1.64 2.5 4.91 2.88 7.44.88.38-.3.2-.06-.41.54-4 3.95-10.8-2.04-7.84-6.9.97-1.6 4.03-3.23 4.03-2.15m3.74.49a5.27 5.27 0 012.28 4.28l-.03 1.17-.26-1.06a5.85 5.85 0 00-2.78-3.9c-1.27-.65-1.66-1.26-.81-1.26.25 0 .97.35 1.6.77m21.47-.5c0 .16-.5.52-1.13.82-2.47 1.18-3.31 5.1-1.54 7.12 1.92 2.18 4.72 2.35 7 .42 1.17-1 1.19-1 .38-.1-4.09 4.6-11.57-.36-8.82-5.83.85-1.7 4.11-3.62 4.11-2.42m4.44 1.01c1.28 1.2 1.39 1.44 1.48 3.28.08 1.7.06 1.79-.15.64-.41-2.18-2.28-4.53-3.6-4.53-.27 0-.48-.16-.48-.34 0-.76 1.46-.25 2.75.95m-108.64-.28c0 .19-.8.34-1.78.34-1.55 0-1.92.13-2.75 1-.53.56-1.04.93-1.13.84-.1-.1.34-.7.96-1.34 1.14-1.18 4.7-1.81 4.7-.84m52.44.84c.62.64 1.06 1.25.96 1.34-.1.1-.6-.28-1.13-.84-.83-.87-1.2-1-2.75-1-.98 0-1.79-.15-1.79-.34 0-.97 3.57-.34 4.7.84m-41.2-.3c.44.17.4.34-.23 1.2-3.02 4.08 1.64 8.86 6.34 6.51l1.66-.82-1.01.82c-3.56 2.9-8.58.34-8.58-4.38 0-1.23.8-3.53 1.23-3.53.03 0 .3.09.58.2m21.3 2.35c-.32.32-.96-.2-.72-.59.14-.23.33-.22.57.02.2.2.27.45.15.57m72.73-.1c-.43.43-.87.1-.55-.42.12-.2.38-.27.57-.15.23.14.22.33-.02.57m-25.31-.07c-.07.2-.27.36-.44.36-.18 0-.37-.16-.44-.36-.07-.2.13-.36.44-.36.3 0 .5.16.44.36m-67.23.67c-.06.2-.26.36-.44.36-.17 0-.37-.16-.44-.36-.06-.2.13-.36.44-.36s.5.16.44.36m167.57 1.22c.22-.08.38-.4.35-.7-.03-.3.1-.55.27-.55.7 0 .1 1.52-.65 1.62-.66.1-.75-.03-.7-1 .05-1.05.06-1.06.2-.18.07.54.3.89.53.8m3.81-.48c0 .6-.06.9-.14.67-.08-.23-.26-.35-.4-.26-.16.1-.35-.12-.44-.47-.12-.45-.03-.6.3-.47.25.1.46.01.46-.2 0-.2.05-.36.11-.36s.11.49.11 1.09m-1.9 4.94c0 1.86-.15 3.43-.34 3.55-.21.13-.33-1.06-.33-3.34 0-2.15.13-3.55.33-3.55s.34 1.33.34 3.34m-44.37-2.5c0 .27-.15.5-.34.5-.18 0-.33-.23-.33-.5 0-.28.15-.5.33-.5.19 0 .34.22.34.5m26.22.5c0 .19-.23.34-.5.34-.28 0-.51-.15-.51-.34 0-.18.22-.34.5-.34s.5.16.5.34m-21.03.7a5.42 5.42 0 01-6.2 1.14c-1.6-.82-1.14-1.2.55-.44 1.82.8 3.21.65 4.88-.54 1.43-1 1.57-1.04.77-.15m85.04 0c-1.3 1.43-5.52 2.41-5.52 1.28 0-.22.37-.28.98-.15 1.29.28 3.47-.32 4.23-1.16.34-.38.69-.68.78-.68.1 0-.12.32-.47.7m-60.01.2c-.98 1.17-5.34 2.08-5.34 1.11 0-.2.51-.26 1.26-.15.95.15 1.63 0 2.78-.62 1.9-1.02 1.85-1 1.3-.35m34.69-.08c-.98 1.18-5.4 2.2-5.4 1.24 0-.17.56-.23 1.25-.14.94.12 1.66-.06 2.78-.68 1.8-1 1.87-1.03 1.37-.42m-189.92 4.37c-.22.27-.25.52-.07.59.17.06.1.3-.16.55-.5.46-.74-.9-.24-1.39.44-.44.86-.22.47.25m1.84.64c.02.82-.03.84-.57.36-.31-.3-.5-.75-.39-1.02.3-.76.94-.32.96.66m1.27-.7c-.38.6-.37 1.03.04 1.57.27.37.24.44-.15.31-.87-.28-.86-2.3.01-2.3.21 0 .26.19.1.43m1.9.96c0 .75-.94.85-1.21.13-.11-.28-.1-.75.01-1.05.27-.71 1.2 0 1.2.92m13.19-.79c-.23.07-.4.39-.4.7 0 .44.06.46.3.1.17-.28.36-.33.49-.12.12.2.5.27.84.18.35-.1.74 0 .86.18.13.23-.16.3-.8.23-.56-.07-1.1.01-1.21.18-.32.51-.83 0-.83-.83 0-.91.3-1.28.8-.98.23.15.22.27-.06.36m3.94.11c.22-.34.29-.22.25.42-.03.5-.11.9-.18.9-.23 0-1.03-1.17-1.03-1.52 0-.18.14-.1.32.17.29.43.38.43.64.03m42.72.2c0-.31.14-.57.3-.57.17 0 .23.31.13.7-.23.86-1.22.72-1.36-.2-.1-.66-.1-.66.41-.01.46.57.52.58.52.08m2.02.25c0 .94-.5 1.4-.87.82-.15-.25-.1-.3.14-.16.25.16.4-.02.4-.47 0-.39-.16-.62-.34-.5-.19.11-.34.04-.34-.15 0-.2.23-.36.5-.36.31 0 .5.32.5.82m1.41.94c-.36.36-1.07.08-1.07-.42 0-.17.23-.22.5-.11.36.13.53-.05.56-.6l.04-.8.15.8c.09.44 0 .95-.18 1.13m1.59-1.39c.22-.34.29-.22.25.42-.03.5-.1.9-.16.9-.3 0-1.06-1.02-1.06-1.41 0-.33.09-.31.34.06.28.43.37.43.63.03m20.19.22c0-.32.15-.59.31-.59.17 0 .23.31.13.7-.23.85-1.22.72-1.38-.2-.12-.66-.12-.66.4 0 .47.6.53.62.54.1m2.3.1c.24.39.65.62.9.53.31-.12.4-.02.29.3-.22.57-.66.64-.97.14-.15-.25-.35-.24-.66.01-.33.27-.51.26-.7-.03-.15-.26-.1-.32.14-.17.25.16.4-.02.4-.47 0-.39-.16-.62-.34-.5-.19.11-.34.04-.34-.15 0-.61.82-.4 1.28.34m2.9.94c-.2.2-1.16-.88-1.16-1.31 0-.22.3-.04.65.4.35.43.59.84.52.91m28.75-.63c.16 0 .36-.26.44-.59.14-.55.16-.55.2.01.02.35-.32.73-.83.93-1.15.43-2.16.41-2.16-.05 0-.23.32-.3.84-.16.7.18.84.09.88-.55.03-.57.07-.62.19-.18.08.33.28.6.44.6m2.19-.68c.26.43-.12 1.68-.5 1.68-.4 0-.78-1.25-.52-1.68.12-.19.35-.34.51-.34.16 0 .4.16.5.34m1.26 1.13c.22-.14.26-.07.12.17-.39.62-.88.09-.82-.9l.05-.9.14.93c.09.56.29.84.5.7m1.28-.96c0 .27.15.5.33.5.19 0 .34.16.34.36 0 .5-.6.07-1.02-.71-.24-.45-.24-.66 0-.66.19 0 .35.23.35.5m1.76.34c-.09.47-.2.84-.25.84-.05 0-.16-.38-.25-.84-.1-.52 0-.84.25-.84.26 0 .35.32.25.84m19.01-.35c.36-.6.38-.59.32.22-.07 1.1-1.27.96-1.24-.16.02-.68.04-.68.28-.06.26.66.26.66.64 0m1.92-.15c.27.45-.13 1.68-.54 1.68-.45 0-.75-.9-.52-1.51.22-.58.75-.66 1.06-.17m1.24 1.41c-.21.21-.42.18-.59-.09-.16-.27-.12-.33.13-.18.26.16.4-.08.44-.7.04-.85.06-.87.2-.15.08.44 0 .94-.18 1.12m1.28-1.33c0 .31.08.3.3-.03.2-.32.28-.2.28.41 0 .95-.38.89-.93-.14-.24-.45-.24-.66 0-.66.19 0 .35.2.35.42m1.76.42c-.09.47-.2.84-.25.84-.05 0-.16-.38-.25-.84-.1-.52 0-.84.25-.84.26 0 .35.32.25.84m27.82-.27c0 .5.06.49.5-.08.47-.63.48-.62.43.23-.05.65-.2.84-.58.7-.86-.32-1.4-1.42-.69-1.42.19 0 .34.26.34.57m2.89.05c-.06.83.74.81.9-.01.13-.7.15-.7.2.13.05 1.02-.56 1.6-.98.92-.21-.34-.38-.35-.75-.04-.6.49-.92.2-.92-.83 0-.61.17-.77.8-.71.44.03.77.27.75.54m2.57-.35c.08-.24.16-.02.16.49 0 1.07-.17 1.15-.79.34-.59-.78-.59-1.28 0-.79.37.3.51.3.63-.04m1.34.57c-.09.47-.2.84-.25.84-.05 0-.16-.38-.25-.84-.1-.52 0-.84.25-.84.26 0 .35.32.25.84m18.74-.27c0-.31.14-.57.3-.57.17 0 .28.36.25.8-.06.98-1.33.7-1.49-.33-.09-.61-.07-.61.42.02.46.57.52.58.52.08m1.96.28c-.12.9-.68 1.19-.88.44-.08-.3 0-.28.24.06.29.41.35.37.36-.28 0-.43-.15-.68-.33-.56-.19.11-.34.04-.34-.15 0-.2.24-.36.53-.36.36 0 .5.26.42.85m1.61.69c-.24.62-.75.62-1 0-.12-.33-.02-.43.3-.3.34.12.5-.07.53-.61.03-.6.08-.65.2-.19.09.34.07.83-.03 1.1m1.56-1.27c.08-.24.16-.02.16.49 0 1.07-.17 1.15-.79.34-.59-.78-.59-1.28 0-.79.37.3.51.3.63-.04m1.34.57c-.09.47-.2.84-.25.84-.05 0-.16-.38-.25-.84-.1-.52 0-.84.25-.84.26 0 .35.32.25.84m-90.17 0c0 .28.16.5.34.5.19 0 .34-.22.34-.5 0-.27-.15-.5-.34-.5-.18 0-.33.23-.33.5m25.2 0c0 .28.16.5.34.5.19 0 .34-.22.34-.5 0-.27-.15-.5-.34-.5-.18 0-.34.23-.34.5m-61.7.47c.1.16-.2.29-.65.29s-.75-.13-.65-.3c.1-.16.4-.29.65-.29.26 0 .55.13.65.3m59.17.02c.1.17-.1.29-.48.26-.38-.03-.68-.17-.68-.31 0-.38.93-.33 1.16.05"/></g></svg>