<svg xmlns="http://www.w3.org/2000/svg" width="400" height="213.172" version="1.1"><g><path fill="#000" fill-rule="evenodd" stroke="none" d="M71.22 19.15c-.1.24-.13 40.05-.08 88.48l.1 88.04 132.66.08 132.67.1V18.71h-132.6c-105.75 0-132.62.09-132.75.43m21.82 6.02c.58.22.76 1.7.24 2.02-.18.1-.2.73-.04 1.4.16.69.14 1.3-.04 1.42-.36.22-.75-.61-.6-1.3.07-.25-.04-.54-.23-.63-.19-.1-.4.25-.45.78-.06.52-.26.95-.44.95-.19 0-.24-.83-.12-2 .31-3 .4-3.14 1.68-2.64m2.8.13c.12.2-.01.35-.28.35-.28 0-.59.31-.69.7-.11.44 0 .69.31.69.27 0 .49.15.49.34 0 .2-.24.35-.52.35-.76 0-.68 1.64.08 1.84.38.1.24.17-.35.2l-.95.04.2-2c.3-2.83.93-3.77 1.71-2.5M97 27.34c-.16 2.4.22 2.23.72-.32.23-1.15.55-2 .7-1.9.38.22-.43 3.8-1.01 4.5-.75.9-1.05.22-1.05-2.34 0-1.8.1-2.37.38-2.09.22.21.33 1.16.26 2.15m3.6.3c-.09 1.18-.3 2.16-.47 2.16-.36 0-.39-1.04-.08-3.26.32-2.34.76-1.48.56 1.1m1.77-1.91c.12.43.21 1.16.22 1.63 0 1.33.63.38.79-1.2.09-.95.15-.65.2.93.07 3.1-.82 3.81-1.35 1.07l-.25-1.3-.04 1.47c-.05 1.7-.74 2.03-.73.34 0-2.9.7-4.65 1.16-2.94m4.03-.44c0 .2-.23.35-.52.35-.4 0-.52.46-.52 2.08 0 1.32-.14 2.08-.4 2.08-.27 0-.33-.64-.2-2.08.15-1.68.1-2.08-.32-2.08-.28 0-.4-.16-.3-.35.13-.19.68-.34 1.24-.34.56 0 1.02.15 1.02.34m1.74-.03c0 .17-.24.4-.52.5-.63.25-.69 1.13-.1 1.41.36.16.36.24 0 .4-.65.31-.52 1.8.18 1.99.36.1.2.18-.4.2l-1 .04.2-2.06c.1-1.13.28-2.22.4-2.42.28-.45 1.24-.5 1.24-.06m1.57.99c.37 2.22.66 2.41.78.5.06-1 .22-1.76.35-1.67.13.08.19 1.17.13 2.43-.14 2.72-.87 3.14-1.39.82l-.33-1.48-.04 1.48c-.03 1.5-.73 2.13-.73.65 0-3.26.83-5.1 1.23-2.73m3.63-.96c0 .2-.26.35-.56.35-.44 0-.51.2-.33.95.73 2.9.26 4.45-.97 3.22-.25-.25-.18-.36.24-.36.86 0 1.07-.88.43-1.8-.65-.93-.7-1.72-.13-2.29.5-.5 1.31-.55 1.31-.07m1.05 2.08c0 1.39-.15 2.43-.35 2.43-.39 0-.46-2.11-.13-3.77.34-1.69.48-1.3.48 1.34m3.69-1.06l.23 1.24.38-1.1c.4-1.17.9-1.87.9-1.26 0 .2-.38 1.35-.83 2.56l-.83 2.2-.25-2.18c-.34-2.98-1.34-2.96-1.5.04-.05 1.14-.26 1.99-.47 1.99-.25 0-.32-.7-.2-2.08.11-1.15.05-2.08-.12-2.08-.17 0-.31-.16-.31-.36 0-1.13 2.77-.18 3 1.03m-25.88-.15c0 .29-.01.63-.03.77 0 .14.15.3.35.38.2.07.37-.28.37-.77 0-.5-.15-.9-.34-.9-.2 0-.35.23-.35.52m103.31 4.39c-.85.69-1.4.82-1.4.33 0-.45 1.5-1.38 1.87-1.16.18.1-.03.48-.47.83m11.35-.8c.24.15.34.54.22.86-.46 1.2-6.73.65-6.73-.59 0-.52 5.74-.76 6.5-.27m-9.39 1.66c-.12.13-.08.41.1.64.25.28-.21.89-1.53 2.02-5.6 4.83-5.83 13.32-.53 18.66 1.07 1.07 1.74 1.88 1.5 1.78-.76-.29-.53.51.3 1.1 1.46 1.01.05.53-1.58-.54-5.62-3.73-7.63-11.6-4.51-17.74 1.3-2.55 4.85-6.21 4.54-4.67-.04.24.23.43.6.43.39 0 .75-.27.81-.6.08-.4-.1-.61-.51-.62-.54 0-.56-.05-.12-.34.6-.38 1.28-.46.93-.12m-88.1 1.16c0 .26-.23.53-.52.6-.46.13-.46.1 0-.23s.46-.4 0-.74c-.46-.33-.46-.36 0-.23.28.08.52.35.52.6m106.14 5.8c1.27 2.58 1.68 2.98 1.92 1.91.07-.33.34.28.6 1.37 1.1 4.79-2.16 11.72-6.6 13.97l-1.2.6.89-.99c1.85-2.08 2-2.43.67-1.53-1 .68-.9.5.62-1.04 4.93-5.01 5.22-12.23.7-17.56L212 33.8l1.13 1.04c.63.57 1.7 2.17 2.38 3.55m-43.78.3c.12.32.15.65.06.74-.27.27-.9-.28-.9-.8 0-.68.57-.64.84.07m28.1.02c-.56.3-1.71 1.1-2.55 1.79l-1.51 1.23.16 2.67c.17 3.05.63 3.97 2.76 5.51 1.73 1.25 1.3 1.39-.5.16-2.05-1.4-3.67-7.12-2.44-8.66.73-.92 4.17-3.27 4.78-3.27.2 0-.12.26-.7.57m8.86 0c3.9 2.74 4.53 4.02 3.78 7.66-.45 2.15-2.71 4.93-4 4.91-.45 0-.3-.19.49-.57 2.49-1.23 4.01-5 3.21-7.97-.37-1.39-.74-1.74-4.15-4.01-.5-.34-.74-.6-.55-.61.2 0 .74.27 1.22.6m111.05.53c3.66 2.1 3.57 7.14-.16 9.23-3.5 1.97-7.96-.7-7.96-4.78.01-4.08 4.48-6.53 8.12-4.45M95.2 40.68c.08.07.03 1.56-.1 3.3l-.23 3.16h-6.49V45.8c0-.73-.1-2.25-.22-3.38l-.21-2.04 3.56.08c1.95.04 3.62.14 3.7.22m73.76.22c.12.2-.04.45-.34.57-.67.25-1.04-.03-.72-.55.3-.46.78-.47 1.06-.02m66.13 1.73c-.1.39-.32.7-.49.7-.35 0-.41-1.16-.08-1.5.4-.4.75.1.57.8m3.71.87a.52.52 0 01-1.04 0c0-.28.24-.52.52-.52.29 0 .52.24.52.52m80.42 3.84c0 .61.74.5.96-.14.07-.22-.11-.4-.41-.4s-.55.24-.55.54M119.3 51.36c-.53.53-.92.14-.62-.62.17-.46.32-.5.63-.2.3.32.3.51 0 .82m170.38-.47c.07.23-.19.41-.59.41-.72 0-.94-.36-.48-.82.32-.32.9-.1 1.06.4m-173.67.98c-.33.33-1.32-.57-1.07-.98.13-.2.43-.12.75.2.3.3.45.65.32.78m195.53.32c-.17 1.46-.98 1.52-.98.07 0-.65.1-1.29.24-1.42.43-.42.86.36.74 1.35m1.8-1.05c0-.15.23-.07.51.17.59.48.71 1.73.18 1.73-.2 0-.33-.11-.3-.26.12-.81-.1-1.48-.42-1.28-.22.13-.28.61-.15 1.12.18.74.13.82-.27.49-.27-.23-.6-.3-.73-.16-.14.13-.13-.06 0-.44.14-.37.43-.8.63-.94.22-.15.12-.25-.25-.26-.35 0-.53-.16-.4-.36.15-.25.37-.24.7.04.27.22.5.29.5.15m-224 .24c.29.28.43.29.43.04 0-.21.39-.36.86-.33.99.05.97.03.55.83-.18.33-.42.9-.53 1.25-.23.73-1.23.19-1.23-.67a.93.93 0 00-.4-.7c-.22-.14-.32-.11-.22.06.1.17.06.63-.1 1.01-.21.54-.28.4-.3-.6-.02-1.36.24-1.6.95-.9m3.22.25c.22-.35.3-.23.3.45.02 1.03-.66 1.73-.7.73-.03-.56-.06-.55-.33.07-.37.87-.44.02-.1-1.21.21-.73.27-.77.39-.21.1.52.2.56.44.17m1.23.73c.02.75-.1 1.3-.26 1.19-.37-.23-.42-2.58-.05-2.58.14 0 .28.63.3 1.38m1.7-.11c0 .7-.19 1.04-.57 1.07-.48.03-.68-1.26-.34-2.28.18-.56.9.4.9 1.2m111.02-.66c-.71.08-1.96.08-2.77 0-.82-.07-.24-.13 1.29-.13 1.52 0 2.19.06 1.48.13M77.6 52.6c-.01.38-.09.44-.2.16-.14-.34-.3-.36-.67-.05-.3.26-.48.28-.48.05 0-.34.51-.67 1.12-.74.15-.02.25.25.24.58m56.57 3.87c-.18.11-.38.6-.45 1.07-.08.58-.34.87-.78.87-.93 0-1.09-.76-.22-1.04.47-.15.7-.52.7-1.11 0-.76.09-.82.55-.44.3.25.39.53.2.65m-14.12-.37c.21.34-.54 2.13-.89 2.13-.12 0-.14-.31-.04-.7.1-.37.32-.68.48-.68.17 0 .31-.17.31-.37 0-.2-.16-.27-.35-.15-.19.11-.34.05-.34-.16 0-.44.58-.48.83-.07m3.88.1c.15.25.1.31-.15.16-.27-.16-.4.06-.4.64 0 .98.67 1.24.72.28.02-.38.1-.44.2-.16.22.54-.53 1.53-.96 1.26-.36-.22-.42-2-.08-2.34.31-.32.38-.3.67.17m35 .47c.24.9-.39 2.04-.93 1.7-.36-.22-.42-2-.08-2.34.45-.45.8-.23 1.02.64m1.7-.53c-.11.18-.05.63.15 1 .26.5.22.77-.16 1.09-.36.3-.51.3-.51.03 0-.2.19-.38.42-.38.32 0 .32-.1 0-.42-.52-.51-.55-1.66-.05-1.66.2 0 .27.15.15.34m1.11 1.47c-.08.43-.15.16-.16-.6 0-.76.07-1.12.15-.79.09.34.1.96.01 1.4m5.5-.45c.02.75-.1 1.29-.26 1.19-.48-.3-.3-2.57.2-2.56.02 0 .05.61.06 1.37m38.05-.91c-.88.19-1.96.19-2.77-.01-1.17-.28-1-.32 1.44-.32 2.5 0 2.63.04 1.33.33m36.21.7c.06.5.26.84.43.73.18-.1.6-.04.93.15.49.28.38.33-.51.22-.62-.07-1.21.01-1.32.2-.36.56-.85-.04-.85-1.04 0-1.7 1.13-1.93 1.32-.26m-113.3.76c0 .2-.33.38-.76.4-.67.05-.7 0-.25-.35.3-.23.5-.73.44-1.1l-.1-.7.32.7c.18.37.33.85.34 1.05m29.84-.73c0 .49.16.89.35.89.19 0 .34-.3.34-.68 0-.37-.15-.77-.34-.88-.2-.13-.35.17-.35.67m82.5 0c0 .49.15.89.34.89.2 0 .35-.3.35-.68 0-.37-.16-.77-.35-.88-.2-.13-.34.17-.34.67m3.46.54c.16 0 .39-.31.5-.7.16-.58.18-.57.1.1-.11 1.07-1.1 1-1.18-.1-.05-.76-.03-.77.12-.08.09.43.3.78.46.78m4.26.01c.27 1.01 0 .83-.66-.44-.5-.96-.5-1.06-.05-.69.3.25.62.75.71 1.13m33.5.16l-.03.7-.3-.7c-.44-1.03-.44-1.9 0-1.21.2.28.33.83.32 1.21M121.5 57.3c0 .51-.22.81-.6.84-.76.06-.78-.38-.07-1.1.69-.68.67-.7.67.26m-43.53.15c-.02.42-.08.47-.21.14-.12-.29-.28-.34-.4-.13-.14.22-.4.17-.67-.13-.38-.4-.3-.48.43-.48.62 0 .87.18.85.6m47.34.23c0 .46-.11.76-.26.67-.14-.09-.26-.46-.26-.83 0-.37.12-.67.26-.67.15 0 .26.37.26.83m155.8.3c0 .14-.15.25-.34.25-.19 0-.34-.35-.34-.78 0-.74.67-.24.68.52m2.81-.47c.25-.38.3-.36.31.13 0 .33-.23.6-.51.6-.32 0-.5-.3-.48-.78.03-.66.06-.68.2-.12.14.53.24.56.48.17m3.06.13c-.01.52-.09.6-.22.26-.11-.29-.37-.64-.58-.78-.24-.16-.15-.26.22-.26.41 0 .6.25.58.78m-85.19 2.64c-.38.25-.36.47.14 1.23.55.84.56.99.08 1.47-.36.36-.6.4-.77.15-.13-.21 0-.38.3-.38.7 0 .7-.3-.01-1.09-.6-.67-.43-1.69.29-1.68.34 0 .34.08-.03.3m1.24 2.03c-.08.53-.15.18-.15-.77 0-.96.06-1.39.15-.96.08.42.08 1.2 0 1.73m1.83-2.01c0 .18-.16.75-.36 1.27-.27.7-.25 1.02.08 1.22.59.36.18.72-.53.45-.5-.2-.5-.33-.04-1.45.42-1 .43-1.3.08-1.52-.32-.2-.28-.28.17-.29.33 0 .6.14.6.32m1.48-.1c-.24.1-.44.4-.44.67s.2.5.44.52c.34.02.34.06 0 .2a.75.75 0 00-.44.64c0 .25.2.53.44.62.23.08.32.27.18.42-.56.6-1.16-.51-1.02-1.89.1-1.03.28-1.4.7-1.38.36.02.4.1.14.2m-90.98 6.22c.06.4-.13.92-.42 1.16-1.06.88-2.44-.5-1.57-1.56.62-.74 1.87-.5 2 .4m2.17-.35c.57.69.02 1.7-.91 1.7-.57 0-.79-.84-.54-2.08.08-.38 1.02-.14 1.45.38m1.53 1.36c.2 0 .45-.47.58-1.04.23-1.01.24-1.01.18.17-.05.96-.2 1.21-.76 1.21-.55 0-.7-.25-.75-1.2-.06-1.19-.05-1.2.18-.18.13.57.39 1.04.57 1.04m1.98-.7c.07.67.01 1.22-.14 1.22-.15 0-.28-.55-.28-1.22 0-.66.06-1.2.14-1.2.07 0 .2.54.28 1.2m2.52-.19c.67 1.3.67 1.61.01 1.06-.28-.23-.43-.56-.32-.73.35-.57-.3-.32-.76.3-.4.52-.42.45-.1-.52.47-1.38.51-1.38 1.17-.1m1.57-.51c-.23.28-.33.75-.22 1.04.1.29.06.52-.1.52s-.36-.47-.45-1.04c-.12-.85-.03-1.04.53-1.04.55 0 .6.09.24.52m.94 1.3c-.08.43-.16.16-.16-.6 0-.77.06-1.12.15-.79.09.33.1.96 0 1.39m2.84-1.22c.44.79-.13 1.83-1 1.83-.9 0-1.57-1.26-1.02-1.93.56-.68 1.61-.63 2.02.1m2.57.04c.12-.63.16-.56.2.31.05 1.24-.3 1.44-1.02.58-.42-.5-.49-.5-.71.08-.19.47-.26.32-.28-.54l-.02-1.19.83.79.84.78.16-.8m145.2-.35c-.36.23-.35.37.07.71.58.49.37 1.42-.33 1.42a.94.94 0 01-.71-.4c-.16-.28-.07-.34.3-.2.84.32 1.02-.15.25-.7-.77-.53-.62-1.13.29-1.12.44 0 .47.07.13.29m3.03.2c.32.38.32.68.02 1.23-.44.84-1.75.84-2.02 0-.14-.44-.09-.45.4-.04.7.57 1.7-.04 1.4-.85-.22-.55-1.51-.68-1.51-.14 0 .19-.18.34-.39.34-.27 0-.25-.16.04-.52a1.33 1.33 0 012.06-.02m1.48-.26c-.29.11-.33.31-.12.58.21.25.16.55-.16.84-.4.38-.48.28-.48-.6 0-.79.15-1.05.6-1.03.39.02.45.1.16.2m1.73.19c-.32.32-.5.32-.83 0-.32-.33-.23-.42.42-.42.64 0 .74.1.41.42m1.6-.19c-.91.25-1.01 1.1-.19 1.67.61.43.65.53.17.53-.84 0-1.47-1.3-.94-1.93.23-.28.67-.48.98-.46.5.04.5.06-.01.2m1.9 1.95c.28.2.24.24-.11.15-.32-.08-.54-.6-.57-1.33-.05-1.08-.04-1.1.12-.14.09.57.34 1.17.57 1.32m.81-.54c-.09.33-.16.06-.16-.6 0-.68.07-.95.16-.62.09.34.09.88 0 1.22m2.03-1.28c.13.21-.1.68-.5 1.06l-.73.68v-1.06c0-1.05.74-1.46 1.23-.68m-178.35.3c0 .56-.41 1.41-.68 1.41-.15 0-.2-.39-.1-.87.16-.8.78-1.25.78-.54m1.6 1.55c-.09.21-.17.1-.19-.23-.03-.7-.59-.81-.81-.17-.09.24-.27.33-.4.2-.14-.12.03-.55.37-.95l.63-.72.27.75c.16.41.21.92.13 1.13m.95-1.36c-.12.3-.05.73.15.93.53.53 1.53.05 1.4-.67-.16-.8-1.27-.99-1.55-.27m3 .43c0 .87.04.9.56.38.3-.31.45-.73.32-.94-.42-.7-.89-.4-.89.56m10.63-.45c-.28.76.69 1.43 1.31.91.63-.52.32-1.4-.5-1.4-.34 0-.7.22-.8.5m-49.8 3.66c-.43.27-.44.33-.03.34.27 0 .4.09.3.19-.1.1-.44.07-.77-.05-.62-.24-.14-.82.67-.82.19 0 .11.15-.17.34m238.44.7c-5.54.93-8.03 6.66-4.64 10.69.77.9.8 1.05.3 1.46-.45.38-.52.37-.43-.05.06-.27-.24-1.06-.66-1.75-2.8-4.52.53-10.81 5.63-10.66l1.4.03-1.6.28m-110.86 2.07c-.08.29-.3 1.34-.5 2.34-.46 2.26-.76 2.3-1.08.17-.14-.9-.38-1.9-.55-2.2-.4-.77-.03-1.05 1.22-.93.75.07 1.01.25.91.62m113.58.55c-.33.33-1-.2-.75-.6.15-.24.34-.23.59.01.2.2.27.47.16.59m-117.19-.1c0 .69 1.89 3.75 2.45 3.96.68.26 3.63-2.67 3.37-3.35-.1-.3.2-.16.68.3 2.4 2.25 1.72 6.45-1.3 8.06-.66.35-.7.34-.3-.15.39-.47.26-.81-.81-2.31-1.1-1.53-2.24-2.3-2.24-1.5 0 .14-.62.92-1.38 1.73l-1.38 1.46.95.52c.52.28.79.51.6.52-2.68.1-4.57-4.87-2.9-7.6 1.04-1.72 2.26-2.6 2.26-1.64m-87.23 3.19c0 .29-.16.52-.35.52-.19 0-.34-.23-.34-.52 0-.29.15-.52.34-.52.2 0 .35.23.35.52m70.95.2c-.16.6-.1.64.33.28.42-.35.58-.34.84.06.78 1.24.05 2.5-.96 1.66-.5-.42-.52-.39-.15.31.38.72.34.78-.48.78-.8 0-.85-.07-.48-.78.33-.64.32-.7-.06-.34-.25.23-.66.43-.91.43-.69 0-.37-.84.42-1.1.64-.2.64-.22-.1-.25-.8-.04-1.03-.53-.4-.91.19-.13.6-.02.91.24.5.41.52.38.15-.32s-.34-.78.33-.78c.58 0 .7.16.56.71m10.32 1.4c-.27.42-6.4.34-6.4-.1 0-.15 1.49-.28 3.31-.28 2.26 0 3.24.12 3.09.37M207.8 78c-.14.22-.1.56.1.75.22.23.42.21.6-.06a.64.64 0 00-.1-.75c-.23-.23-.43-.21-.6.06m-3.64 1.67c0 .51.15 1.44.32 2.06.32 1.11.32 1.12-.9 1.12-.95 0-1.16-.1-.89-.43.2-.24.46-1.25.6-2.25.25-1.85.87-2.2.87-.5m84.84.96c-.34.33-1-.2-.75-.6.14-.24.34-.24.59.01.2.2.27.47.16.59m-46.43-.18c-.07.2-.28.38-.46.38s-.38-.17-.45-.38c-.07-.2.14-.37.45-.37.32 0 .53.17.46.37m-1.67 1.88c0 .05-.22.28-.5.5-.4.35-.49.3-.45-.26.04-.52.95-.75.95-.24m45.48.6c-.33.31-.42.22-.42-.42 0-.65.1-.74.42-.42.32.32.32.5 0 .83M89.34 85.8c-.09.47-.03.86.14.86.6 0 .27.55-.36.6-.64.05-.68-.3-.2-1.9.25-.8.6-.44.42.44m2.46.43c-.06 1.28-.06 1.28-.2.17-.09-.73-.33-1.12-.68-1.12-.43 0-.5.26-.35 1.21.23 1.42.02 1.58-.45.35-.44-1.17-.1-1.9.9-1.9.74 0 .83.14.78 1.3m1.44-.96c0 .19-.16.34-.35.34-.2 0-.26.37-.14.87.14.54.07.87-.17.87-.4 0-.53-1.81-.15-2.2.35-.34.81-.28.81.12m1.59 1.05c.03 1.47-.38 1.46-.65-.01-.15-.85-.15-.85-.2.08-.05 1.07-.74 1.34-.74.29 0-.64.84-1.76 1.33-1.76.13 0 .24.63.26 1.4m21.57-.1c-.06.72-.27 1.3-.46 1.3s-.39-.58-.45-1.3c-.08-1.01.02-1.3.45-1.3.44 0 .54.29.46 1.3m2.64-.99c.1.17-.04.76-.32 1.3l-.52 1v-1.3c0-1.23.4-1.7.84-1m25.5.06c0 .2-.16.27-.35.15-.19-.12-.34-.05-.34.16 0 .2.15.36.34.36.2 0 .31.2.26.44-.04.23.25.43.67.43.4 0 .83.08.93.18.1.1-.41.2-1.14.2-1.29.03-1.84-.92-1.18-2.03.24-.39.81-.31.81.1m2.43.86c0 .66-.06 1.2-.14 1.2-.07 0-.2-.54-.28-1.2-.07-.67-.01-1.22.14-1.22.15 0 .28.55.28 1.22m34.51 0c.02.66-.1 1.2-.26 1.2s-.28-.54-.28-1.2c0-.67.12-1.22.26-1.22.15 0 .27.55.28 1.22m1.7.04c0 .68-.17 1.05-.53 1.07-.4.03-.5-.23-.39-1.16.17-1.45.93-1.38.93.1m1.07.1c.01.76-.1 1.3-.26 1.2-.36-.23-.39-2.57-.03-2.57.14 0 .27.62.29 1.37m1.06-.85c-.11.29-.03.52.18.52.26 0 .26.14-.01.47-.22.25-.29.56-.16.69.13.13.05.23-.18.23-.42 0-.56-1.8-.17-2.2.4-.39.55-.25.34.3m1.65.25a4.63 4.63 0 00-.22 1.43c.02.35-.07.53-.2.4-.45-.45-.27-2.6.21-2.6.32 0 .38.23.2.77m1.1.6c.03 1.01-.07 1.3-.37 1.05-.4-.33-.29-2.43.13-2.43.12 0 .23.62.25 1.38m13.66-1.01c0 .2-.15.27-.34.15-.2-.12-.35.18-.35.7 0 .58.14.82.4.66.22-.14.32-.06.24.18-.3.9-.82.48-.92-.76-.08-1 .02-1.3.43-1.3.3 0 .54.17.54.37m1.22.32c-.08 1.07-.52 1.27-.52.24 0-.51.13-.93.28-.93.16 0 .27.31.24.69m1.04.5c0 .64-.12 1.1-.26 1.01-.45-.28-.25-2.2.23-2.2.01 0 .03.53.03 1.18m36.7-.08c-.19 1.57-.48 1.67-.48.17 0-.7.13-1.27.3-1.27.17 0 .24.5.17 1.1m1.11.27c.02.76-.1 1.3-.25 1.2-.49-.3-.3-2.57.2-2.57.01 0 .04.62.05 1.37m1.34-.59c-.05.43-.1.99-.12 1.24-.02.25-.16.37-.32.27-.34-.2-.1-2.29.27-2.29.14 0 .21.35.16.78m1.8.1c.23.9-.4 2.03-.94 1.7-.36-.22-.41-2-.07-2.35.44-.44.8-.22 1 .64m1.38-.49c.13.21-.01.63-.32.94-.32.32-.56.4-.56.17 0-.21.2-.47.43-.57.33-.13.3-.26-.09-.54-.32-.23-.36-.37-.1-.37.22 0 .51.16.64.37m2.43.99c0 .75-.11 1.28-.26 1.19-.48-.3-.29-2.58.21-2.56.02 0 .04.62.05 1.37m21.26.57c.02.2-.2.37-.48.37-.58 0-.63-.32-.28-1.62l.24-.86.24.86c.14.48.26 1.04.28 1.25m2.14-.64l-.18 1.3-.12-1.15c-.07-.69-.28-1.09-.53-1-.52.16-.75 1.63-.26 1.63.2 0 .37.18.37.4 0 .26-.16.25-.52-.05-1.04-.87-.6-2.43.69-2.43.65 0 .71.15.55 1.3m2.06.52c0 1-.7.34-.74-.71-.04-.82-.08-.78-.3.28l-.26 1.21-.04-1.07c-.03-.59.06-1.18.2-1.32.34-.33 1.14.8 1.14 1.61m1.21-.45c0 .9-.13 1.27-.43 1.15-.27-.1-.35-.48-.22-1 .12-.5.05-.83-.18-.83-.63 0-.43-.54.22-.59.48-.03.61.23.61 1.27m14.13-1.14c-.53.21-.59 1.85-.07 1.85.2 0 .27.16.15.35-.37.6-.87.01-.87-1 0-1.04.25-1.44.84-1.4.21.02.19.1-.06.2m22.45.14c0 .2-.16.27-.35.15-.19-.12-.35-.05-.35.16 0 .2.15.36.33.36.17 0 .39.28.47.6.1.41.25.21.43-.58.23-1 .32-1.09.52-.52.14.37.11.85-.05 1.05-.17.21-.23.46-.14.55.1.09-.28.16-.82.16-.95 0-1.41-1.1-.85-2.04.23-.39.8-.31.8.1m5.34.97c.07.6-.01 1.1-.18 1.1-.16 0-.3-.57-.3-1.27 0-1.5.3-1.4.48.17m-195.94-.48c.17-.1.31-.03.31.17s-.14.37-.32.37c-.17 0-.39.27-.48.6-.08.34-.16.07-.17-.6 0-.67.07-1.02.16-.78.1.24.32.35.5.24m84.52 1.09c.01.2-.21.37-.5.37-.58 0-.6-.06-.28-1.25.23-.85.7-.32.78.88m1.1-.47c-.1.7-.22.9-.3.5-.14-.6.1-1.62.37-1.62.06 0 .04.5-.06 1.13m37.04-.29c0 .5.16.9.35.9.19 0 .34-.31.34-.68 0-.37-.15-.77-.34-.89-.2-.12-.35.17-.35.67m6-.26c-.1.26.03.74.29 1.07.42.54.4.55-.1.15-.47-.36-.6-.36-.73 0-.09.25-.14-.03-.12-.62.02-.58.21-1.06.43-1.06s.32.2.22.46m41.13 1c.01.21-.21.38-.5.38-.28 0-.52-.13-.52-.29 0-.16.14-.28.31-.28.18 0 .25-.36.17-.78-.14-.73-.12-.74.18-.1.18.39.34.87.36 1.08m2.44.12c0 .35-.14.3-.5-.17a2.6 2.6 0 01-.52-1.17c0-.36.14-.3.5.17.28.37.51.9.52 1.17m20.8-1.34c0-.27.08-.41.17-.33.09.1.02.63-.15 1.19-.16.56-.32.76-.33.44a5.71 5.71 0 00-.24-1.21c-.17-.53-.14-.55.17-.12.31.44.38.44.38.03m5.41 1.2c.05.47-.05.78-.23.67-.18-.11-.32-.6-.32-1.1 0-1.11.42-.78.55.42m-72.17.1c.08.14-.4.26-1.07.29-.67.02-1.05-.06-.85-.19.52-.32 1.74-.38 1.92-.1m7.67 6.48c2.66.28 6.14.52 7.71.52h2.87l-.18 1.4c-.1.75-.26 1.99-.35 2.73-.1.75-.45 1.86-.78 2.47l-.6 1.1-4.51-.19c-8.87-.37-20.46-2.38-20.1-3.47.13-.41.31-1.72.41-2.9l.18-2.18h5.25c2.88 0 7.43.24 10.1.52m-13 .59l-.87.73 1.03-.25c.98-.24 1-.22.48.38-.8.92-1.41 2.2-1.04 2.2.17 0 .5-.47.74-1.05.24-.57.57-1.04.74-1.04.17 0 .3-.39.3-.86 0-1.05-.25-1.07-1.38-.11m6.56 2.74c-.41.78.1 1.76.62 1.2.15-.16.08-.36-.14-.44-.23-.08-.33-.37-.23-.64s.33-.4.5-.3c.17.1.31.02.31-.18 0-.63-.65-.4-1.06.36m-3.19.69c-.33.2-.78.24-1 .1-.25-.14-.3-.08-.15.16.34.56 1.08.5 1.6-.12.5-.6.4-.63-.45-.14m-160.04.49c0 .29-.32.83-.7 1.21l-.7.7V98.6c0-.98.14-1.21.7-1.21.39 0 .7.23.7.52m1.9-.17c.12.2-.09.74-.47 1.22-.78 1-1.1.77-.84-.62.18-.94.9-1.27 1.31-.6m1.65-.12c-.24.1-.44.33-.44.51 0 .19.16.25.35.13.2-.12.35-.06.35.12 0 .19-.2.42-.44.52-.32.13-.3.27.1.56.43.33.4.38-.18.29-1.1-.18-1.2-2.37-.11-2.33.44.01.6.1.37.2m2.73.01c-.4.16-.4.24 0 .5.33.2.36.38.1.56-.22.14-.48.5-.59.78-.1.29-.2-.06-.22-.78-.02-1.03.1-1.3.58-1.27.42.02.46.08.13.21m1.24 1.58c-.08.43-.15.16-.16-.6 0-.77.07-1.12.15-.79.09.33.1.95 0 1.39m1.62.34c.26.17.19.26-.2.26-.49 0-.6-.26-.56-1.3.04-1.17.06-1.2.2-.25.09.57.33 1.15.56 1.29m1.33-.95c-.16 1.42-.61 1.33-.83-.17-.12-.8-.02-1.04.4-1.04.45 0 .54.27.43 1.21m1.58-.97c-.34.09-.52.3-.41.48.1.19.34.24.52.13.18-.1.32-.03.32.17s-.27.37-.6.38c-.55 0-.55.06.06.52.66.5.66.5-.08.5-.6 0-.76-.2-.76-.97 0-1.13.23-1.47 1-1.4.44.02.43.06-.05.19m2.38 1.07c.04.89-.04 1.06-.4.77-.32-.27-.49-.25-.62.07-.1.25-.2-.15-.2-.88-.04-1.76 1.13-1.73 1.22.04m111.57-.97c.12.2-.02.26-.33.14-.3-.11-.53-.03-.53.18 0 .2.19.38.43.39.3 0 .31.08.05.25-.2.15-.47.5-.58.78-.1.29-.2-.06-.22-.78-.03-1.27.65-1.82 1.18-.96m2.77.87c0 .93-.11 1.04-1.03 1.04-1.07 0-1.5-.7-1.08-1.77.4-1.05 2.11-.45 2.11.73m1.63-.97c-.36.14-.33.32.12.81.61.68.43 1.38-.36 1.38a.93.93 0 01-.72-.39c-.16-.25 0-.3.5-.15.83.27 1.03-.32.22-.63-.72-.28-.65-1.27.09-1.23.4.02.45.09.15.2m2.06.55c-.16.43-.22.97-.14 1.21.08.24 0 .44-.19.44-.18 0-.4-.55-.48-1.22-.11-.98-.02-1.21.48-1.21s.56.16.32.78m2.63-.54c-.5.13-.54.27-.22.66.27.31.28.49.05.49-.2 0-.44.27-.52.6-.1.34-.18.03-.2-.69-.04-1.14.05-1.3.74-1.26.61.03.65.08.15.2m1.05 1.58c-.09.43-.16.16-.16-.6 0-.77.06-1.12.15-.79.09.33.09.95 0 1.39m1.61.34c.26.17.2.26-.2.26-.48 0-.6-.26-.56-1.3.05-1.17.07-1.2.2-.25.1.57.34 1.15.56 1.29m1.3-.86c-.18 1.25-.19 1.26-.31.26-.07-.57-.31-1.15-.53-1.3-.25-.15-.13-.25.3-.25.63 0 .7.15.54 1.29m1.7-.92c-.42.3-.43.4-.04.55.4.17.4.24 0 .5-.4.25-.39.36.04.64.45.3.45.35-.06.35-.68 0-.91-.53-.7-1.63.08-.44.4-.79.72-.78.5 0 .5.05.04.37m2.3.93c.04.89-.05 1.06-.4.77-.32-.27-.5-.25-.62.07-.1.25-.2-.15-.21-.88-.04-1.76 1.13-1.73 1.22.04m31.7-.64c-.22.4-.28.92-.14 1.14.16.26.35.04.52-.6.34-1.24.14-1.52-.39-.54m-47.72.2c-.11.3-.05.73.16.93.52.53 1.52.05 1.39-.67-.16-.8-1.27-.99-1.55-.27m50.14.21c0 .17.15.32.33.32.19 0 .25.23.14.52-.29.74.13.64.55-.14.28-.53.22-.69-.34-.83-.37-.1-.68-.04-.68.13m-184.78 4.76c-.02.38-.09.43-.2.13-.14-.33-.3-.35-.66-.05-.52.43-1.32.12-1-.4.11-.17.34-.24.5-.14.17.1.4.03.52-.17.31-.5.88-.08.84.63m-.34 1.3c-.18.22-.28.45-.23.53.04.08-.1-.05-.3-.29-.46-.52-.97-.59-.66-.1.12.2.05.36-.15.36-.4 0-.5-.45-.18-.78.39-.38 1.84-.1 1.52.29m77.02 1.48c2.46 1.56 3.4 4.34 2.22 6.6-.63 1.22-2.47 2.8-3.25 2.8-.43 0-.46-.08-.14-.29.38-.23-.99-4.21-1.44-4.21-.28 0 .3 4.38.61 4.59.7.46-1.86.27-3.04-.22-1.03-.43-1.23-.43-1.73.07-.3.3-.56.39-.56.18 0-.22.26-.49.58-.6.5-.2.49-.3-.16-1-2.66-2.83-1.09-7.65 2.8-8.58 1.92-.45 2.5-.36 4.1.66m128.38 0a5.2 5.2 0 011.95 6.73c-.36.7-.52 1.29-.36 1.29.17 0 .21.23.1.52-.24.63-.87.7-.8.08.14-1.04-.05-1.64-.54-1.64-.73 0-.65.96.09 1.12 1.06.23-1.65 1.65-3.15 1.65-4.69 0-7.38-5.7-4.13-8.73 2.24-2.1 4.44-2.43 6.84-1.02m-131.54-.13c0 .29-.15.52-.34.52-.2 0-.35-.18-.35-.4 0-.22-.07-.34-.16-.25-.18.18.83 3.77 1.06 3.77.08 0 .05-.62-.07-1.38-.15-.93-.1-1.4.16-1.4.22 0 .4-.3.4-.68 0-.38-.16-.7-.35-.7-.2 0-.35.24-.35.52m-74.53.18c.3-.47.35-.47.36 0 0 .46.04.46.34 0 .29-.44.34-.43.34.1.01.8-1.77.7-1.98-.1-.13-.47-.1-.47.23 0 .33.46.41.46.71 0m100.79.9c-.33.32-1-.21-.75-.61.15-.24.34-.23.6.02.2.2.27.46.15.58m-68.72 1.53c.56.24.49.28-.4.23-.6-.03-1.02-.17-.93-.31.2-.32.43-.3 1.33.08m5.54.52c.04.5-.16.7-.7.7-.42 0-.7-.18-.61-.4.08-.2-.12-.48-.44-.6-.7-.27-1.17.06-.61.4.27.18.24.38-.1.7-.4.37-.48.28-.48-.58 0-1.31 2.85-1.52 2.94-.22m2.6-.53c-.44.28-.41.4.18.86.6.45.62.58.18.86-.28.18-.58.26-.68.16-.1-.1.03-.3.28-.45.36-.22.34-.33-.1-.5-.74-.28-.7-1.27.06-1.26.52 0 .53.05.09.33m2.51-.1c-.6.24-.54.8.09.8.28 0 .52.24.52.52 0 .3-.16.52-.35.52-.19 0-.46 0-.6.01-.14 0-.3-.46-.35-1.04-.06-.8.06-1.04.52-1.02.36.02.43.1.17.2m4.56.07c.08.12-.53.23-1.36.23-.82 0-1.44-.08-1.37-.19.17-.28 2.56-.31 2.73-.04m4.6-.06c-.27.26-2.66.39-2.5.13.08-.12.7-.24 1.4-.26.7-.02 1.19.04 1.1.13m115.85.08c.35.22.22.3-.43.26-.5-.03-.92-.17-.92-.31 0-.36.75-.32 1.35.05m3.89.2c0 .2-.3.55-.66.79-.61.41-.77-.01-.45-1.24.07-.28 1.1.15 1.1.46m2.59-.27c-.64.16-.63.2.11.76.7.53.73.64.24 1.04-.37.3-.55.33-.55.07 0-.22.2-.4.43-.4.23 0 .07-.24-.35-.54-.85-.58-.74-1.2.2-1.14.47.03.45.07-.08.2m1.72.07c-.67.26-.67.27 0 .66.56.32.58.4.11.4-.58.01-1.1-.8-.73-1.17.11-.11.45-.2.75-.18.4.02.37.1-.13.29m-128.67.95c.44.44-.51 1.2-1 .8-.28-.24-.5-.25-.65-.02-.26.42-1.23.1-1.23-.4 0-.2.22-.16.52.09.37.3.52.31.52.04 0-.26.35-.33.95-.2.73.17.83.13.43-.16-.28-.2-.35-.37-.14-.37.2 0 .48.1.6.22m126.05.38c0 .52-.05.53-.34.09-.3-.46-.38-.46-.69 0-.18.29-.34.35-.34.14 0-.5.36-.83.92-.83.25 0 .46.27.45.6m-139.9.17c-.11.18-.57.23-1.03.11-.47-.11-.83-.05-.83.15 0 .5-.58.44-.78-.08-.12-.3.28-.44 1.33-.46.83-.02 1.41.1 1.3.28m18-.13c.14.03.26.22.26.44 0 .26-.18.24-.55-.07-.43-.35-.6-.36-.81-.02-.2.33-.35.32-.65-.04-.36-.43.32-.55 1.75-.3m176.34 3.45c0 .45-.41.75-.75.54-.36-.22-.05-.83.42-.83.18 0 .33.13.33.29m-2.75 1.54c-.04.41-.52.33-.67-.12-.07-.22.05-.35.28-.27.23.07.4.25.4.39m-224.87 1.8c-.1.3-.35.53-.54.53-.2 0-.26.23-.15.5.1.29.04.6-.14.72-.44.27-.42-.75.03-1.6.42-.78 1.1-.9.8-.14m13.59 1.56c.02 1.62-.08 1.71-.55.47-.29-.74.01-1.87.49-1.86.02 0 .05.63.06 1.39m1.1.43c-.09.43-.16.16-.17-.6 0-.77.07-1.12.16-.79.08.33.09.96 0 1.39m3.08-.45c.01.75-.09 1.3-.22 1.22-.43-.26-.57-2.22-.18-2.38.2-.08.37-.17.37-.18 0-.02.01.59.03 1.34m22.33-.16c0 .67-.12 1.22-.26 1.22-.15 0-.26-.55-.26-1.22 0-.66.11-1.2.26-1.2.14 0 .26.54.26 1.2m57.19-.84c0 .2-.16.27-.35.15-.45-.28-.44.05.04.93.23.44.24.63.03.5-.2-.12-.42-.02-.51.21-.09.25-.12-.1-.07-.77.1-1.4.86-2.3.86-1.02m2.26-.03c-.12.19-.05.65.15 1.02.27.5.25.75-.07.93-.24.14-.32.13-.19-.03.14-.15.1-.56-.1-.92-.32-.6-.18-1.34.24-1.34.1 0 .08.15-.03.34m41.38 1.58c.02.2-.25.38-.6.4-.56.05-.6-.07-.26-1.14.37-1.18.7-.9.86.74m2.01-.1c-.08.43-.15.16-.16-.6 0-.77.07-1.12.16-.79.08.33.09.96 0 1.39m1.04 0c-.08.43-.15.16-.16-.6 0-.77.07-1.12.16-.79.08.33.09.96 0 1.39m24.37-.6c0 .66-.06 1.2-.14 1.2-.07 0-.2-.54-.28-1.2-.07-.67-.01-1.22.14-1.22.15 0 .28.55.28 1.21m2.92-.9c.1.17-.04.76-.32 1.3-.46.88-.52.9-.52.24 0-.41.2-.83.43-.93.33-.13.3-.26-.09-.54-.32-.23-.36-.37-.1-.37.22 0 .5.13.6.3m1.03.47c-.04.43-.11.86-.15.95a.97.97 0 00-.03.44c.02.14-.13.26-.35.26-.23 0-.3-.31-.18-.78.12-.43.22-.98.22-1.22 0-.23.13-.43.3-.43.15 0 .24.35.2.78m52.4.53c.05.92-.02 1.01-.42.6-.6-.6-.64-2.02-.06-1.83.23.08.45.63.48 1.23m1-.1c0 .67-.11 1.22-.26 1.22-.32 0-.34-1.88-.03-2.2.13-.13.25-.23.26-.23.02 0 .03.55.03 1.21m1.3-.98c-.31.13-.33.37-.06.93.35.71.34.72-.17.09-.55-.7-.44-1.27.25-1.22.3.02.3.07-.01.2m-211.4 1.24c.13.57.08.96-.13.96-.19 0-.35-.5-.35-1.1 0-1.26.15-1.22.48.14m154.11.17c0 1.09-.16.96-.48-.37-.16-.64-.11-.9.12-.76.2.13.36.63.36 1.13m-128.25-.08c0 .48-.12.87-.27.87-.15 0-.3-.4-.34-.87-.04-.48.08-.87.27-.87s.34.4.34.87m2.32.27c.04.53-.08.87-.26.76-.18-.11-.32-.53-.32-.92 0-.6-.09-.64-.52-.29-.28.24-.43.57-.33.74.1.17.03.3-.17.3s-.37-.36-.37-.8c0-1.32 1.87-1.11 1.97.2m-26.93-.09c0 .38-.15.7-.34.7-.2 0-.35-.31-.35-.7 0-.38.16-.69.35-.69.19 0 .34.31.34.7m84.5.42a.49.49 0 01-.44.32.5.5 0 01-.44-.32c-.05-.17.14-.31.44-.31s.5.14.43.31m-93.15 8.93c0 .2-.2.35-.44.35-.28 0-.26.12.1.35.45.3.45.38 0 .69-.47.3-.47.39 0 .71.42.3.4.35-.18.26-1.27-.2-1.03-2.67.26-2.7.14 0 .26.15.26.34m6.93 0c0 .2-.2.35-.43.35-.3 0-.27.13.08.38.4.28.42.4.1.54-.63.25-.54.74.16.92.46.12.42.17-.17.2-.77.04-1.2-1.86-.55-2.5.35-.35.81-.28.81.11m4.3.32c1.14 1.25-.61 2.88-1.8 1.7-.6-.61-.51-1.58.19-1.99.83-.49.93-.47 1.62.3m2.28.21c0 .26-.21.6-.47.75-.26.15-.56.5-.67.8-.1.28-.2-.05-.22-.73-.02-.68.06-1.33.18-1.45.33-.33 1.18.12 1.18.63m1.73-.54c0 .2-.27.37-.6.39-.58.04-.58.05 0 .2.33.09.6.31.6.5s-.14.25-.32.14a.38.38 0 00-.53.13c-.11.19.07.5.4.71.58.35.57.38-.07.28-1.27-.19-1.03-2.66.26-2.69.14 0 .26.15.26.34m2.77 0c0 .2-.2.35-.43.35-.29 0-.26.12.09.35.35.24.4.42.13.6-.2.15-.47.5-.57.78-.11.29-.22-.04-.23-.72-.02-.68.08-1.34.2-1.47.35-.35.81-.28.81.11m2.91.44c.52.82-.13 1.82-1.17 1.82-1.22 0-1.68-1.01-.88-1.9.75-.83 1.5-.8 2.05.08m5.9 0c.48.77-.09 1.77-1.1 1.92-1.11.17-1.7-1.17-.91-2.05.7-.79 1.46-.74 2 .13m5.41-.44c0 .2-.2.35-.43.35-.29 0-.26.12.09.35.46.3.46.38 0 .69-.46.3-.46.39 0 .71.43.3.4.35-.18.25-.74-.11-.97-1.44-.4-2.26.38-.52.92-.57.92-.09m1.98 1.24c-.02.73-.14 1.02-.31.75-.22-.33-.36-.3-.62.1-.26.38-.34.2-.35-.73 0-1.39.2-1.74.86-1.48.26.1.44.68.42 1.36m91.9-.85c-.34.22-.35.3-.03.3.24 0 .44.17.44.37 0 .2-.16.27-.35.16-.2-.12-.35.1-.35.5 0 .39-.16.7-.35.7-.45 0-.32-2.16.14-2.48.2-.13.5-.15.67-.04.17.1.1.32-.16.49m7.85-.39c.11.2-.11.35-.5.35-1 0-.95 1.3.06 1.74.77.33.77.33-.08.25-.61-.06-.9-.32-.98-.88-.18-1.23.96-2.33 1.5-1.46m1.58 1.22l-.24 1.38-.17-1.3c-.1-.73-.01-1.34.2-1.42.5-.18.49-.22.21 1.34m3.94-.9c1.13 1.25-.63 2.88-1.81 1.7-.6-.61-.51-1.58.19-1.99.83-.49.93-.47 1.62.3m-137.05.34c0-.71.06-.75.34-.26.66 1.12.02 1.81-.9.96l-.79-.75-.15 1c-.12.8-.15.72-.2-.38l-.05-1.36.87.82.86.81.02-.84m2.23.06c.13-.43.33-.7.43-.6.1.11-.01.69-.26 1.28l-.45 1.09-.45-.82a3.6 3.6 0 01-.45-1.33c0-.3.2-.17.46.32l.47.84.25-.78m3.6.05c-.06.43.02.98.16 1.22.18.27.08.43-.27.43-.38 0-.54-.35-.54-1.21 0-.67.17-1.22.38-1.22.2 0 .32.35.27.78m13.98.44c.09.76 0 1.18-.22 1.1-.47-.15-.7-2.32-.25-2.32.18 0 .4.55.47 1.22m1.78.94c.26.17.2.26-.2.26-.48 0-.6-.26-.56-1.3.05-1.17.07-1.2.2-.25.1.57.34 1.15.56 1.3m4.56-1.47l.26-.82.43.8.42.8.22-.81c.11-.45.3-.72.4-.61.12.11.01.62-.22 1.14-.4.87-.47.9-.87.34-.42-.57-.45-.57-.68.02-.29.74-1.18-.18-1.16-1.19.01-.35.18-.24.48.3l.47.84.25-.81m55.46-.04c1.99.91 4.6 4.39 3.87 5.12-.09.09-.33-.37-.54-1-.58-1.76-2.8-3.75-4.78-4.28-1.04-.28-1.34-.46-.8-.47.48 0 1.5.28 2.25.63m18.62 0c-2.16.74-3.25 1.7-4.22 3.64-.39.78-.7 1.22-.7.97 0-2 3.74-5.23 6.06-5.24.38 0-.13.28-1.14.63m24.88.41c0 1.35.78 1.2 1.1-.23.23-.96.24-.94.18.2-.1 2.04-1.95 1.8-1.96-.26 0-.43.15-.78.34-.78.19 0 .34.48.34 1.07m3.92-.43c.1-.52.17-.32.2.55l.04 1.36-.83-.79-.84-.78-.16.8c-.1.53-.17.33-.2-.54l-.04-1.36.83.79.84.79.16-.82m5.44.58c0 .66-.15 1.2-.34 1.2-.2 0-.35-.54-.35-1.2 0-.67.16-1.22.35-1.22.19 0 .34.55.34 1.22m5.28.17c.11 0 .12-.31.02-.7-.1-.38 0-.69.2-.69.46 0 .52 1.01.1 1.66-.2.33-.44.26-.94-.3l-.67-.74-.22 1c-.2.89-.22.85-.26-.38l-.04-1.36.8.76c.44.41.9.75 1.01.75m-132.64-.72c-.33.54.21 1.45.8 1.34.88-.17.96-1.66.1-1.66-.4 0-.8.14-.9.31m9.57.44c.15 1.04 1.5 1.15 1.5.12 0-.47-.27-.74-.8-.81-.68-.1-.8.02-.7.7m5.9 0c.07.53.34.8.8.8 1.03 0 .93-1.35-.11-1.5-.67-.1-.8.02-.7.7m112.71-.22c-.11.3-.04.71.16.92.54.53 1.46.06 1.46-.76 0-.85-1.3-.98-1.62-.16m-52.27 6.37c-.28.45-1.22.49-1.22.05 0-.18.27-.39.6-.46.76-.17.92-.06.63.4m15.58-.31c.12.19-.1.34-.5.34s-.72-.15-.72-.34c0-.2.23-.35.5-.35.28 0 .6.16.72.34m-77.31.33c.1.18.03.43-.18.55-.2.13-.3.42-.22.65.09.22-.13.4-.5.4-.81 0-.81 0 .13-.92l.78-.75-.78.19c-.43.1-.7.04-.58-.13.25-.41 1.1-.4 1.35 0m7.66.06c.1.17-.06.22-.36.1-.74-.28-2.11.92-1.5 1.3.29.18.17.25-.33.22-.89-.07-1.03-.53-.26-.83.29-.1.52-.35.52-.55 0-.19-.24-.25-.54-.14-.3.12-.45.07-.34-.1.24-.4 2.56-.4 2.8 0m5.1-.03c.22 0 .09.23-.28.51s-.83.51-1.02.52c-.19 0-.11-.15.17-.34.47-.3.47-.38 0-.72-.43-.32-.41-.35.12-.17.35.1.8.2 1.02.2m-11.8.93c-.35.14-.36.3-.05.66.26.33.28.5.03.5-.5 0-.84-.62-.58-1.05.12-.19.4-.33.63-.32.28.02.27.09-.04.21m3.05.12c-.46.3-.46.38 0 .68.31.2.36.34.1.35-.53 0-.9-.6-.62-1.04a.8.8 0 01.63-.34c.25 0 .2.14-.11.35m3.58-.13c.31.32-.47 1.2-.85.96-.48-.3-.36-1.19.16-1.19.25 0 .56.1.69.23m6.04.4c.45-.38.52-.37.37.07-.2.63-1.06.69-1.18.08-.05-.25-.01-.28.09-.08.12.25.35.23.72-.07m-47.06 10.59c-.43 7.54-.31 23.13.22 28.73.24 2.47-.6 3.6-1.05 1.39-.95-4.81-.94-29.88.03-35.79.13-.84.08-1.1-.17-.86-.64.6-1.22 10.03-1.23 19.93 0 6.23-.1 8.75-.28 7.27-.38-3.24-.36-16.75.05-21.83.18-2.39.34-4.92.35-5.64 0-1.2 1.02-2.04 1.05-.86.01.24.18.14.39-.2.94-1.64 1.08.1.64 7.86m258.73-6.4c.56 4.7.94 15.75.72 21.18-.37 8.98-.78 10.31-.59 1.9.18-7.62-.47-21.8-1.03-22.7-.21-.33-.26.45-.14 2.26.78 11.6.45 33.64-.52 34.64-.78.8-.95-.46-.6-4.31.5-5.6.5-22.39-.03-28.68-.49-5.86-.48-5.87.96-5.87.97 0 1.05.1 1.23 1.59m-42.26 4.19c-.12.19-.06.34.12.34.19 0 .43-.2.53-.43.1-.24.16-.06.12.4-.04.47-.31.9-.6.99-.41.1-.42.07-.06-.19.38-.26.36-.37-.1-.54-.5-.19-.47-.92.03-.92.1 0 .08.16-.04.35m20.8 0c-.12.19-.07.34.11.34s.42.24.53.52c.26.67.06.66-.62-.02-.49-.48-.47-1.19.02-1.19.1 0 .07.16-.05.35m-146.1 9.7c0 .38-.15.7-.34.7-.2 0-.35-.32-.35-.7 0-.38.16-.7.35-.7.19 0 .34.32.34.7m23.57.02c0 .4-.15.62-.34.5-.2-.12-.35-.44-.35-.71 0-.28.16-.5.35-.5.19 0 .34.32.34.71m-87.45 2.67c-.09.33-.16.06-.16-.6 0-.68.07-.95.16-.61.09.33.09.88 0 1.2m23.6-.25c.3 0 1.11.38 1.8.84 1.76 1.2 2.58 1.27 2.72.2.07-.48.29-1.02.49-1.21.25-.24.3-.22.14.05-.14.26.18.5.9.64.62.13 2.13.78 3.34 1.44 1.22.66 2.43 1.12 2.7 1.02.25-.1.47 0 .47.22 0 1.08.7-.47.99-2.17.2-1.22.32-1.53.35-.86.03.85.34 1.22 1.62 2 1.97 1.2 1.88 1.22 1.94-.52.05-1.28.08-1.33.2-.35.08.62.26 1.13.41 1.13.16 0 .2-.43.12-.96-.16-.92-.15-.93.38-.26.34.43.55.52.56.24 0-.25.17-.35.36-.23.2.11.25.4.13.62-.17.3-.12.31.18.03.47-.43 2.11-.23 2.11.26 0 .17-.39.21-.86.1-.75-.2-.87-.1-.86.6 0 .65.07.7.34.29.28-.43.34-.4.36.17.03.68.04.68.3.03.47-1.2.68-.06.75 3.98l.06 3.96-7.41-.04c-23-.12-38-.3-33.76-.39 2.67-.06 5-.26 5.18-.44.19-.19.58-.33.88-.31.38.01.34.1-.16.33-.57.26-.51.3.34.2 1.27-.12 1.75-1.4.92-2.47-.36-.45-.38-.54-.05-.25.72.63 1.2.52.65-.16-.32-.4-.33-.5-.04-.32.24.14.44.09.44-.11s.17-.37.38-.37c.27 0 .26.16-.04.52-.24.29-.33.52-.2.52.12 0 .05.33-.16.73-.3.56-.3.83.03 1.13.33.3.38.3.2 0-.29-.54.11-1.56.52-1.31.18.1.28-.01.23-.26-.06-.25.13-.41.41-.35.4.09.39-.03-.08-.55a2.5 2.5 0 01-.58-1.5l.02-.84.34.85c.78 1.95 2.04 2.16 2.04.35 0-1.41.7-1.66.72-.26.02.95.08 1.03.32.45.24-.54.3-.57.33-.12.03.73 1.1 1.15 1.46.57.19-.3.28-.12.29.5 0 .53.1.96.2.96.47 0 1.19-1.05 1.19-1.73 0-.4.16-.64.35-.53.19.12.34-.09.34-.46 0-.47-.72-1.14-2.24-2.1-2.7-1.7-2.6-1.7-2.61-.3-.01 1.94-.35 2.15-2.38 1.56-1.48-.44-1.78-.45-1.78-.05 0 1.1-1.66.88-5.35-.72-5.31-2.32-5.94-2.37-6.42-.57-.46 1.7-.55 1.71-2.76.48l-1.71-.95-1.07 1.02-1.06 1.02-2.17-.79c-3.88-1.4-5.75-1.82-6.44-1.46-.43.23-.76.23-1-.02-.26-.25-.44-.15-.6.36-.13.4-.34.73-.47.72-.4-.02-1.9-1.38-1.72-1.56.1-.1.37.06.6.35.55.66 1.4.69 1.4.05 0-.82 4.31-.44 6.91.62 2.8 1.13 3.6 1.13 4.48.01l.7-.88 2.01 1.02 2.02 1.02.35-1.44c.48-2 1.17-1.99 5.8.08 5.11 2.27 5.3 2.31 5.9 1.45.47-.67.58-.68 2.1-.22 1.83.55 1.8.57 2.13-1.45l.25-1.5 1.61.94c.9.5 1.85 1.12 2.14 1.37.28.24.98.49 1.56.55l1.04.12.32-2.77c.18-1.53.39-2.5.46-2.17.07.34.39.6.7.6m-.39.59c-.12.12-.21.7-.2 1.3l.03 1.06.35-.95c.48-1.33 1.05-1.19.93.24-.06.66 0 1.31.15 1.45.13.14.25.55.25.9 0 .72.83 1.75 1.15 1.43.11-.11.15-.61.09-1.11-.06-.5-.04-.64.04-.3.32 1.3 1.14.34 1.14-1.34 0-1.13-3.26-3.35-3.93-2.68m5.87.37c-.4.4-.2.85.29.67.53-.2.9.44.9 1.6 0 .85.53.43.78-.62.11-.44.19-.28.21.45.05 1.26.72 1.22.76-.04.01-.46.2-.18.48.72.83 2.65.88 2.73 1.25 2.15.26-.4.38-.42.62-.06.37.58 1.03-.14 1.17-1.28.09-.73-1.96-2.18-4.17-2.94-.32-.11-.92-.35-1.33-.53-.41-.18-.84-.24-.96-.12m8.93 1.63c.12.33.22 1.22.22 2 0 1.08.12 1.34.52 1.19.28-.1.65.07.84.4.3.55.35.54.58-.05.19-.5.3-.53.53-.17.2.3.3-.04.3-.95 0-1.28-.11-1.47-1.3-2.07-1.94-1-1.94-.99-1.7-.35m-1.84 2.53c0 .75.08.84.34.44.44-.68.44-1.4 0-1.4-.19 0-.34.44-.34.96m-14.77.86c.36 1.8.9 2 .9.34 0-1.12-.13-1.46-.56-1.46-.45 0-.52.23-.34 1.12m-10.15.68c-.16.42-.47.8-.69.84-.22.05-.25 0-.05-.1.2-.09.35-.47.35-.83 0-.37.15-.67.34-.67.2 0 .22.3.05.76m.17 2.98c.04.52 0 .67-.1.33-.1-.35-.34-.5-.57-.37-.28.17-.27.08.02-.28.24-.3.36-.64.26-.76-.1-.13-.06-.15.08-.05.13.1.27.61.31 1.13m205.85 7.6c4.95 3.45 3.24 11.75-2.5 12.15a5.23 5.23 0 01-2.7-9.97c2.64-1.28 5.42-.27 7.16 2.58.5.83.64.91.64.39 0-2.1-3.15-5.74-4.99-5.75-.4 0-.96-.17-1.25-.37-.38-.28-.17-.32.87-.18.75.1 2 .63 2.77 1.16m-129.75 1.65c.22.22-.5 4.2-.81 4.52-.13.13-.35-.72-.48-1.88-.18-1.53-.38-2.12-.75-2.12-.34 0-.44.2-.3.56.12.31.39 1.25.6 2.07.56 2.23.9 2.37 3.28 1.33 2.58-1.14 2.49-1 1.53-2.32l-.82-1.12.8.7c3.45 2.98.78 8.9-3.97 8.79-.96-.02-1.46-.11-1.13-.2.4-.1.62-.52.64-1.26.08-2.47.54-2.94.82-.84.2 1.55.4 2 .86 2 .92 0 1.04-.32.5-1.33-.27-.51-.64-1.36-.83-1.89-.46-1.33-1.06-1.46-3.46-.74-1.8.54-2.06.72-1.91 1.33.1.4-.06.25-.33-.32-1.03-2.14-.48-4.77 1.28-6.07 1.32-.98 4-1.7 4.48-1.21m126.18.9c.07.2.27.37.45.37.19 0 .39-.17.46-.38.07-.2-.14-.37-.46-.37-.31 0-.52.17-.45.37m-148.42.67c0 .19-.23.35-.52.35-.28 0-.52-.16-.52-.35 0-.2.24-.35.52-.35.29 0 .52.16.52.35m64.85 1.52c-.3.37-.27.52.13.68.73.28.67 1.27-.07 1.26-.52 0-.53-.05-.1-.33.45-.28.44-.4-.13-.81-.65-.47-.52-1.28.2-1.28.25 0 .24.16-.03.48m3.09.04c-.35.41-.35.52 0 .52.33 0 .34.11.03.49-.28.33-.3.54-.04.66.2.1.18.15-.06.1-.38-.08-.46-.62-.32-1.94.03-.2.22-.35.43-.35.27 0 .26.16-.04.52m2.02-.07c.28.34.2.6-.3 1.04-.57.5-.68.5-.68.07 0-.29.24-.52.54-.52.3 0 .44-.16.32-.35-.12-.2-.39-.25-.6-.12-.22.14-.27.07-.12-.17.31-.5.38-.5.84.05m2.14-.1c-.46.3-.46.38 0 .68.31.21.35.35.1.35a.8.8 0 01-.62-.34c-.28-.44.09-1.04.63-1.04.24 0 .2.15-.11.35m10.77.14c-.3.37-.3.52.05.66.3.13.31.19.03.2a.75.75 0 01-.63-.31c-.26-.43.08-1.04.59-1.04.24 0 .23.16-.04.49m2.03 0c.3.36.3.55.02.73-.22.13-.31.45-.21.7.1.3 0 .4-.29.3-.53-.21-.85-1.13-.63-1.79.2-.57.6-.55 1.1.06m-106.03 1.53c0 .45-.41.75-.75.55-.36-.23-.05-.84.42-.84.18 0 .33.13.33.3m94.55 0c.29.18.07.28-.62.28s-.9-.1-.62-.28c.25-.16.53-.29.62-.29.1 0 .38.13.62.29m4.05.07c-.25.4-1.2.44-1.2.05 0-.15.31-.3.7-.32.38-.03.6.1.5.27m73.65.71c-.67.19-.54.25.62.28.81.01 1.48-.1 1.48-.24 0-.34-.96-.36-2.1-.04m-205.16.4c-.04.42-.51.34-.66-.1-.08-.24.04-.36.27-.29.23.08.4.26.4.4m198.24-.18c0 .14 1 .26 2.21.26 1.22 0 2.15-.13 2.06-.27-.2-.34-4.27-.33-4.27 0m-127.2 3.3c0 .31.07.3.3-.04.21-.34.36-.36.54-.07.18.3.39.28.8-.05.45-.38.5-.37.36.07-.1.28-.47.52-.83.52-.37 0-.86.13-1.1.28-.24.15-.43.2-.43.11 0-.09-.1-.4-.21-.71-.12-.3-.04-.55.17-.55.21 0 .39.2.4.44m-92.37 4.07c.02 1.58-.03 1.64-.54.7-.26-.5-.26-.9 0-1.4.5-.92.52-.9.54.7m1.8-.32c.11 1.03-.39 1.88-.91 1.56-.42-.27-.53-2.02-.15-2.4.43-.44.97-.01 1.06.84m23.6.23c-.05 1.28-.06 1.28-.2.18-.17-1.45-.78-1.47-.78-.03 0 1.32-.17 1.2-.46-.32-.2-1.03-.14-1.13.64-1.13.77 0 .85.13.8 1.3m2.28-.43c-.13.5-.04 1.1.2 1.39.3.35.31.51.05.51-.47 0-.89-1.53-.61-2.25.32-.85.6-.59.36.35m18.75.4c0 .6-.18 1.04-.43 1.04-.27 0-.44-.47-.44-1.18 0-.8.14-1.14.44-1.04.23.08.43.61.43 1.18m1.07.1c.01.76-.1 1.3-.27 1.2-.35-.23-.38-2.57-.02-2.57.14 0 .27.62.29 1.37m2.4-.01c0 .74-.12 1.28-.27 1.19-.46-.29-.25-2.55.23-2.55.02 0 .03.61.03 1.35m2.44-1.02c-.11.19-.01.65.23 1.03.35.57.35.79-.04 1.15-.4.36-.44.33-.24-.21.12-.36.05-.86-.16-1.11-.34-.42-.19-1.19.24-1.19.1 0 .08.15-.03.33m1.38 1.03c0 .74-.12 1.28-.26 1.19-.47-.29-.26-2.55.23-2.55.01 0 .03.61.03 1.35m18.28-1.12c-.52.21-.58 1.85-.06 1.85.2 0 .26.16.15.35-.37.6-.87.01-.87-1 0-1.04.24-1.44.84-1.4.2.01.18.1-.06.2m22.62 1.16c0 .63-.2 1.22-.44 1.3-.3.1-.43-.3-.43-1.3s.14-1.4.44-1.3c.23.08.43.66.43 1.3m1.08 0c.03.75-.09 1.29-.26 1.19-.5-.31-.33-2.58.19-2.58.01 0 .05.62.07 1.38m83.6-.7c.1.3 0 .36-.27.2-.33-.2-.34-.1-.04.44.49.92.48 1-.14 1-.36 0-.52-.37-.52-1.2 0-1.16.64-1.45.97-.44m.98.7c.02.76-.1 1.3-.26 1.2-.37-.23-.41-2.58-.05-2.58.15 0 .28.62.3 1.38m1.29-.72c-.1.36 0 .75.2.88.23.14.38-.05.38-.46 0-.38.13-.77.3-.87.15-.1.29.43.29 1.19 0 1-.11 1.28-.4 1.03-.28-.22-.57-.19-.87.1-.38.34-.42.3-.23-.23.13-.36.06-.86-.15-1.11-.4-.47-.18-1.19.36-1.19.16 0 .21.3.12.66m2.51.55c-.03 1.59-.54 1.59-.54 0 0-.66.13-1.2.28-1.2.16 0 .28.54.26 1.2m38.45.06c0 1.11-.7 1.47-.77.4-.03-.34.1-.63.27-.63.18 0 .33-.16.33-.37 0-.2-.16-.27-.35-.15-.19.12-.35.04-.35-.18s.2-.33.44-.25c.24.08.43.61.43 1.18m3.5.1c.01.76-.1 1.3-.26 1.2-.49-.3-.3-2.58.2-2.57.01 0 .04.62.06 1.37m-225.16-.15c0 .47.15.86.34.86.2 0 .35-.39.35-.86 0-.48-.16-.87-.35-.87-.19 0-.34.39-.34.87m2.62.37c-.13.5-.3.84-.4.75-.1-.1-.07-.6.05-1.1.13-.5.31-.85.41-.75.1.1.07.59-.06 1.1m19.88.35c.02.2-.2.37-.5.37-.58 0-.6-.07-.28-1.25.23-.85.7-.32.78.88m25.33-.3c0 .84-.11 1.14-.3.85-.27-.42-.13-2.14.17-2.14.07 0 .13.58.13 1.3m48.25-.09c.08.67.01 1.21-.14 1.21-.15 0-.28-.54-.28-1.2 0-.68.07-1.22.14-1.22.08 0 .2.54.28 1.21m2.77-.11c-.08.54-.19.98-.24.98-.05 0-.16-.44-.24-.98-.08-.58.02-.99.24-.99s.32.41.24.99m-70.34.23c.09.35-.02.63-.24.63s-.43-.28-.45-.63c-.03-.35.08-.64.23-.64.16 0 .36.29.46.64"/></g></svg>