<svg xmlns="http://www.w3.org/2000/svg" width="400" height="213.172"><g><path fill="#000" fill-rule="evenodd" stroke="none" d="M162.03 25.91c-.2.14-.4.87-.45 1.62-.18 2.87 4.12 2.63-46.12 2.62l-44.58-.01-3.89 2c-2.14 1.1-3.9 2.12-3.9 2.26 0 .15 61.63.26 136.95.26H337l-.17.87c-.12.63-.02.87.4.87.73 0 .65 94.81-.09 95.57-.33.34-17.3.45-81 .52-189.18.21-193.29.23-193.29.77 0 .28.14.42.32.31.17-.1.26.1.2.44-.06.35.1.64.34.64.25 0 .72.36 1.04.79.58.77.67.77 11.16.87l10.57.1-10.84.08-10.84.08-.33-.87a2.87 2.87 0 00-.42-.86c-.18 0 .06 69.84.25 70.62l.18.78H199.8c123.16 0 135.34-.05 135.53-.55.11-.3.2-16.32.2-35.6v-35.04l1.4-1.64 1.38-1.65V35.4l-.95-.66a75.35 75.35 0 00-4.7-2.62l-3.75-1.96h-28.87c-27 0-28.91-.04-29.56-.61-.98-.86-1.58-2.07-1.15-2.34.2-.12.35-.37.35-.56 0-.2-.16-.25-.35-.13-.19.11-.34-.03-.34-.33 0-.47-.73-.54-5.29-.54-5.23.01-6.91.3-5.8 1.03.34.23.37.35.08.35-.24 0-.43.4-.43.87 0 2.45 3.52 2.26-41.83 2.26h-40.64l-.88-.89c-.48-.48-.88-1.25-.88-1.7 0-1.92-.01-1.92-5.67-1.91-2.89 0-5.41.11-5.61.25m5.39.78c-.69.44-3.37.44-3.64 0-.14-.22.6-.35 1.97-.34 1.54 0 2.03.1 1.67.34m3.03-.1c-.33.08-.88.08-1.21 0-.34-.1-.06-.17.6-.17.67 0 .94.07.61.16m93.16.11c-.12.19-.99.35-1.93.35s-1.72-.16-1.72-.35c0-.2.87-.35 1.93-.35 1.2 0 1.85.14 1.72.35m3.35-.05c-.42.27-2.14.14-2.14-.16 0-.08.58-.13 1.3-.13.83 0 1.13.1.84.3m-99.95 2.5c.36.01.42.09.15.2a.75.75 0 00-.44.64c0 .25-.35.53-.78.62-.42.08.16.18 1.3.22 4 .13 3.64.66-.52.75-2.19.05-3.2.15-2.25.22.96.07 1.88.28 2.06.46.45.44-4.32.42-5-.02-.43-.28-.38-.34.25-.35.43 0 .75-.2.7-.42-.05-.24.43-.5 1.13-.62l1.2-.2-1.2-.28c-1.19-.29-1.2-.3-.35-.57.49-.15.64-.3.34-.35-.28-.04.03-.2.7-.33.66-.14 1.42-.2 1.67-.13.26.07.72.14 1.04.15m3.8.21c-.34.1-.96.1-1.4.01-.43-.08-.16-.15.6-.16.77 0 1.12.07.8.15m92.38-.01c-.23.1-.33.4-.22.66.15.4-.2.5-1.73.5-1.82 0-3.26-.66-1.56-.71.76-.03.77-.05.11-.33-.48-.2 0-.3 1.56-.3 1.24 0 2.07.09 1.84.18m3.8.02c-.44.08-1.14.08-1.56 0-.43-.08-.08-.15.77-.15.86 0 1.21.07.78.15m-95.58.8c-.11.19-.68.34-1.25.34-.6 0-.95-.14-.83-.34s.69-.35 1.26-.35c.6 0 .95.14.82.35m94.8 0c0 .19-.23.34-.51.34-.3 0-.52-.15-.52-.34 0-.2.23-.35.51-.35.3 0 .52.16.52.35m1.56 0c-.11.19-.44.34-.7.34-.28 0-.5-.15-.5-.34 0-.2.31-.35.7-.35.4 0 .62.16.5.35m-95.49 2.08c-.29.18-.99.33-1.56.33-.8 0-.92-.08-.52-.33.29-.19.99-.34 1.56-.34.8 0 .92.08.52.34m90.64 0c.28.45-4.32.45-5.02 0-.37-.24.3-.34 2.14-.35 1.47 0 2.76.16 2.88.35m5.9 0c-.12.19-.95.32-1.85.3-1.6-.05-1.6-.05-.4-.3 1.82-.39 2.48-.39 2.24 0m-103.55 1.41c-.4.24-1.11.25-2.08.03l-1.47-.33 2.08-.03c1.58-.02 1.93.06 1.47.33m96.36-.13a7.7 7.7 0 01-1.9 0c-.53-.08-.1-.14.95-.14s1.48.06.95.14m14.47 50.19c0 23.83.04 33.53.09 21.55.05-11.98.05-31.48 0-43.33-.05-11.85-.1-2.05-.1 21.78M254.82 43c-.03.36-.69.67-2.06.95-1.96.4-5.55 2.32-5.13 2.74.11.12.49-.04.83-.35 1.59-1.43 6.32-2.8 6.32-1.82 0 .34-.31.54-.82.54-1.16 0-2.96.67-4.48 1.67l-1.3.86-.9-.83c-.89-.81-.9-.81-.68-.08.13.43.06.85-.16 1-.69.42-2.4 4.44-2.4 5.61 0 .77-.17 1.13-.53 1.13-.28 0-.52.16-.52.35 0 .19.24.34.52.34.34 0 .52.34.52 1 0 1.39.9 3.77 1.91 5.1.55.73.78 1.36.63 1.76-.18.5-.04.47.7-.2 1.08-.99 1.15-1.19.31-.93-1.34.43-4.04-6-2.83-6.74.38-.25.54-.02.73 1 1.23 7 9.27 10.77 14.89 7 1.5-1.01 1.5-1.02 2.22-.34.76.7 1.63.96.94.27-.3-.3-.16-.75.58-1.82 1.03-1.5 2.1-4.26 2.1-5.42 0-.41.24-.68.61-.69.55 0 .55-.05.06-.43-.63-.49-1.17-2.68-.66-2.68.19 0 .34-.16.34-.36 0-.2-.16-.27-.35-.16-.5.31-.86-.83-.4-1.29.5-.5-.17-1.77-.8-1.53-.7.27-1.98-1.28-1.7-2.06.2-.56.1-.53-.69.19l-.93.84-.75-.75c-.93-.93-.54-1.47.42-.6.38.35.78.56.87.46.1-.1-.14-.45-.52-.8-.38-.35-.7-.87-.7-1.17 0-.4-.1-.43-.4-.13-.53.53-2.36-.4-2.38-1.23 0-.52-.05-.53-.33-.05-.42.72-2.68.48-2.9-.32-.12-.47-.15-.48-.18-.03m50.26.02c-.03.4-.51.62-1.6.77-1.7.24-4.63 1.58-5.36 2.46-.37.45-.55.47-.98.12-.44-.37-.49-.33-.3.3.16.46.05.88-.31 1.18-.8.66-1.82 2.8-2.25 4.71-.2.92-.56 1.8-.79 1.96-.32.23-.31.34.02.47.24.1.43.37.43.6 0 1.07 1.13 4.05 2.05 5.42.55.82.93 1.75.84 2.05-.1.3.22.12.7-.4l.87-.95 1.76 1.19c5.75 3.86 14.9-.33 14.93-6.83 0-.53.15-.96.35-.96.98 0-.62 4.83-2.1 6.3l-.94.95.7.62c.67.58.7.59.5.02-.14-.38.15-1.17.76-2.08 1.14-1.73 1.77-3.43 1.77-4.82 0-.65.18-.99.52-.99.28 0 .52-.15.52-.34 0-.2-.22-.35-.49-.35-.58 0-.96-2.73-.46-3.38.44-.57.06-1.5-.53-1.28-.63.24-2.37-2.45-2.1-3.23.17-.46.11-.51-.21-.21-.32.3-.85.1-2.15-.77a12 12 0 00-3.78-1.59c-1.3-.27-2.1-.62-2.19-.96-.13-.47-.15-.47-.18.02m-237.85.97c-.96.96-1.02 1.17-1.02 3.9 0 1.6 0 19.97-.03 40.84-.02 20.88-.02 38.32 0 38.77.02.44.49 1.26 1.05 1.82l1.01 1h90.86l1.13-1 1.13-1.01.1-10.86c.06-8.2-.03-11.07-.36-11.7-.24-.47-4.4-3.6-9.27-6.97-4.86-3.37-24.96-17.3-44.67-30.96-40.09-27.79-37.51-26.25-39.93-23.83m73.5-.66c0 .19-.3.34-.67.34-1.16 0-3.93 1.08-5.42 2.1-.95.66-1.56.88-1.82.66-.28-.23-.3-.2-.08.06.22.26-.07 1-.85 2.15a12.7 12.7 0 00-1.6 3.68 9.42 9.42 0 01-.74 2.36c-.2.26-.2.43-.02.43.18 0 .51.93.75 2.06a12 12 0 001.59 3.79c.89 1.32 1.07 1.83.77 2.18-.22.25.04.07.57-.4.8-.7 1.08-.77 1.56-.43 3.51 2.48 7.98 2.82 11.16.85l1.84-1.15.75.71c.78.73 1.68 1.02.97.32-.3-.3-.17-.69.48-1.54 1.03-1.35 2.2-4.3 2.2-5.52 0-.54.2-.87.53-.87.28 0 .52-.15.52-.34 0-.2-.24-.35-.52-.35-.33 0-.52-.33-.52-.86 0-1.24-1.14-4.06-2.2-5.46-.5-.66-.8-1.32-.66-1.48.14-.16.04-.16-.23 0-.38.22-.44.1-.3-.46.2-.75-.01-.9-1.19-.77a5.07 5.07 0 01-1.9-.63c-.74-.37-2.07-.78-2.97-.92-.9-.13-1.55-.38-1.45-.55.1-.17.03-.3-.18-.3-.2 0-.36.15-.36.34m42.3 3.72c-.01 2.6-.15 4.25-.36 4.25s-.35-1.5-.35-3.81c0-2.93-.1-3.82-.45-3.82-1.16 0-4.08 1.14-5.43 2.11-1.2.87-1.55.99-1.82.62-.25-.36-.29-.32-.14.14.12.36-.21 1.2-.82 2.08-.57.8-1.26 2.4-1.55 3.53-.3 1.13-.71 2.16-.93 2.3-.3.18-.25.41.17.83.62.63.79 2.26.23 2.26-.2 0-.35.15-.35.34 0 .18.2.25.44.16.68-.26 1.4 1.9.85 2.57-.36.44-.32.49.21.29.84-.32 2.02 1.05 1.74 2.01-.2.65-.15.64.66-.1l.86-.8 1.7 1.05c3.61 2.25 8.37 2 11.3-.6.56-.48.7-.45 1.54.3.68.63.86.69.7.25-.13-.37.23-1.25.96-2.33a12.3 12.3 0 001.55-3.55c.22-1 .58-1.94.81-2.1.33-.2.33-.32 0-.54-.23-.15-.6-1.09-.8-2.09-.22-1-.92-2.6-1.56-3.55-.72-1.07-1.1-1.96-.96-2.33.16-.45.1-.5-.22-.2s-.83.11-2.1-.74a12.98 12.98 0 00-3.53-1.57c-1.01-.24-1.96-.6-2.1-.82-.14-.21-.26 1.53-.26 3.86m35-3.72c0 .19-.22.34-.5.34-1 0-4.38 1.46-5.43 2.34-.88.75-1.12.81-1.4.4-.29-.38-.32-.36-.17.11.12.35-.29 1.32-.98 2.35a9.57 9.57 0 00-1.42 3.32c-.13.86-.46 1.8-.73 2.07-.44.44-.44.58.04 1.05.6.6.74 2.23.2 2.23-.2 0-.35.15-.35.34 0 .18.2.25.44.16.68-.26 1.4 1.9.85 2.57-.35.44-.33.49.15.31.8-.3 2.12 1.17 1.8 2.02-.24.65-.23.65.51 0 .84-.73 1-1.31.29-1.04-.6.23-1.76-1.45-1.23-1.78.2-.13.84.33 1.4 1.02 3.05 3.7 8.7 4.42 12.87 1.66l1.3-.86.92.83c.68.62.86.68.7.24-.13-.37.23-1.25.95-2.33a12.3 12.3 0 001.56-3.55c.22-1 .58-1.94.81-2.1.33-.2.33-.32 0-.54-.23-.15-.6-1.09-.81-2.09-.21-1-.91-2.6-1.56-3.55-.71-1.07-1.08-1.96-.95-2.33.16-.46.11-.5-.23-.19-.34.32-.75.18-1.81-.58a13.11 13.11 0 00-3.17-1.55 20.2 20.2 0 01-2.33-.85c-.48-.26-.53.16-.4 3.66.11 2.78.04 3.94-.23 3.94s-.4-1.26-.4-3.98c0-2.43-.13-3.99-.34-3.99-.19 0-.35.16-.35.35m-77.3 1.08c0 .27.16.26.51-.03.56-.46 1.95-.26 4.1.59 2.56 1.02 1.24 1.53-1.48.57-5.44-1.91-12.48 2.94-12.48 8.6 0 .35-.25.63-.57.63-.47 0-.53-.26-.35-1.56.36-2.6 2.43-6.12 3.3-5.58.17.1.3-.05.27-.36-.07-.76 1.42-1.82 3.64-2.59 2.15-.74 3.07-.82 3.07-.27m41.25-.05c0 .45-1.28 1.23-2.86 1.73-2.54.8-5.78 4.89-5.8 7.32-.01 1.05-.26 1.37-.86 1.14-1.11-.42 1.46-6.95 2.7-6.85.28.03.45-.15.36-.38-.22-.57 2.82-2.5 4.56-2.9 1.87-.45 1.9-.45 1.9-.06m5.26.78c1.77.74 2.9 1.76 2.56 2.31-.14.21-.86-.05-1.84-.67a7.03 7.03 0 00-2.16-1.03c-.68 0-2.1-.95-2.1-1.4 0-.42 1.4-.11 3.54.79m30.07-.3c-.27.25-1.22.72-2.1 1.04-.89.33-1.88.9-2.22 1.27-.73.81-1.06.86-1.32.2-.24-.65 1.95-2.1 4.15-2.74 1.83-.55 2.27-.48 1.49.23m6.63.58c1.4.71 2.27 1.62 1.92 1.98-.14.13-.5.04-.83-.2a16.5 16.5 0 00-2.15-1.12c-2.23-1-2.55-1.2-2.69-1.63-.16-.49 1.97.06 3.75.97m33.1-1.05c.28 0 .5.15.5.34 0 .43-1.97.47-2.22.05-.27-.43.2-.8.76-.58.26.1.7.19.97.19m47.73.16c.04.19-.58.45-1.37.59a9.88 9.88 0 00-4.37 1.95c-.44.38-.72.43-.99.17-.44-.45 2.02-2 4.3-2.72 1.6-.5 2.33-.5 2.43.01m4.81.6c1.65.7 3 1.84 2.62 2.22-.12.12-.68-.12-1.25-.53-1.24-.88-3.62-1.76-4.76-1.76-.52 0-.83-.2-.83-.54 0-.66 1.8-.4 4.22.61m-50.13.08c.38.27.58.58.46.7-.27.27-2.03-.51-2.03-.9 0-.45.83-.35 1.57.2m-112.71 2.36c-.94 1-2.16 2.4-2.7 3.12-.93 1.24-1.59 1.65-1.59 1 0-.43 5.6-6.34 5.82-6.13.1.1-.59 1-1.53 2.01m2.94 1.12c1.05 1.54 1.76 3.54 1.73 4.86l-.02 1.04-.27-1.04c-.36-1.4-1.2-3.24-2.07-4.5a5.01 5.01 0 01-.7-1.3c0-.6.56-.19 1.33.94m42.49 1.35c.94 1.97 1.5 4.38 1 4.38-.18 0-.53-.77-.77-1.72a11.1 11.1 0 00-1.46-3.14c-.57-.77-.93-1.56-.81-1.76.34-.55 1.09.26 2.04 2.24m19.44-2.19c.13.2 0 .64-.3.96-.8.89-1.94 3.58-1.95 4.6-.01 1.05-.26 1.37-.86 1.14-.84-.32.14-3.73 1.8-6.28.56-.86.96-.98 1.31-.42m16.6 2.19c1.01 2.1 1.5 4.38.94 4.38-.2 0-.47-.43-.59-.95-.45-2.05-.9-3.14-1.7-4.25-.47-.63-.76-1.28-.66-1.45.32-.52 1.1.37 2.01 2.27m18.84-.76a8.3 8.3 0 00-1.65 4.32c0 .5-.2.82-.52.82-.65 0-.66-.82-.03-2.9.6-2.02 2.21-4.24 2.7-3.75.24.24.07.74-.5 1.5m16.68-.24c-.3.3-1.72-.88-1.49-1.26.14-.21.5-.07.94.37.4.4.64.8.55.89m34.1-1.34c.11.12-.24.83-.79 1.59-.55.76-1.19 2.22-1.42 3.26-.44 2-1.01 2.52-.99.93.04-2.35 2.39-6.59 3.2-5.77m16.55 1.88c0 .53-.97-.02-1.53-.87-.28-.44-.41-.9-.28-1.04.25-.25 1.8 1.38 1.8 1.9m-49.23.5c-.86.84-5.9 3.4-6.16 3.13-.13-.15-.08-.33.1-.4.2-.08 1.68-.83 3.3-1.67 3.31-1.7 3.47-1.76 2.76-1.07m50 1.14c-1.21.96-4.94 2.63-5.23 2.34-.3-.3.41-.71 2.5-1.49a16.7 16.7 0 002.76-1.27c1.23-.86 1.2-.56-.04.42m-203.75.77c-2.72 1.65-1.99 5.88 1.1 6.46 3.64.68 5.75-3.34 3.14-5.95-1.37-1.37-2.6-1.52-4.24-.51m85.63.19c-.12.49-.14 1.2-.04 1.57.14.51.01.69-.48.69-.36 0-.66.16-.66.35 0 .19.27.34.6.34.5 0 .6.29.57 1.48-.05 2.2.19 2.33 4.03 2.33 3.77 0 3.81-.02 3.81-2.42 0-.74.2-1.4.44-1.5.32-.14.33-.25.02-.47-.22-.16-.46-.91-.52-1.68l-.11-1.38-3.72-.1-3.71-.1-.23.89m118.73 1.65c.03.9-.57.74-.74-.18-.23-1.17.1-1.98.44-1.1.15.37.28.95.3 1.28m-50.24-.24c0 .47-.15.85-.34.85-.2 0-.35-.48-.35-1.06 0-.62.14-.97.35-.85.19.12.34.6.34 1.06m-134 2.96a12.15 12.15 0 002.02 4.55c.54.76.1 1.2-.62.6-1.52-1.26-3.26-6.57-2.15-6.57.34 0 .6.5.75 1.42m19.82.39c-.22 1.5-2.05 5.13-2.58 5.13-.7 0-.59-.5.45-2.05.61-.91 1.32-2.39 1.57-3.28.55-1.97.87-1.85.56.2m21.98-.77c0 .66-.18 1.04-.48 1.04-.27 0-.55-.45-.63-1.04-.13-.83-.03-1.04.48-1.04.47 0 .63.27.63 1.04m19.94.26c-.3 1.6-1.4 4.18-2.15 5-.93 1.04-1.2.31-.32-.86.82-1.09 1.94-3.94 1.94-4.93 0-.28.17-.5.39-.5.25 0 .3.43.14 1.3m16.1-.27c0 .66-.17 1.04-.47 1.04-.27 0-.55-.45-.63-1.04-.13-.83-.03-1.04.48-1.04.47 0 .63.27.63 1.04m19.94.26c-.33 1.78-1.5 4.43-2.26 5.11-1.05.95-1.05.07-.01-1.48a11.8 11.8 0 001.4-3.2c.48-2.03 1.23-2.4.87-.43m36.07.18c-.35 2.2-2.31 5.9-2.84 5.36-.13-.12.26-.95.85-1.85a8.72 8.72 0 001.3-3.3c.13-.93.38-1.69.57-1.69.22 0 .26.57.12 1.48m30.4.56c.32 1.13.99 2.54 1.5 3.15.72.85.83 1.19.5 1.5-.76.75-3.13-3.46-3.14-5.56 0-1.75.52-1.33 1.14.91m-121.88 1.4c.3.8.28 1.06-.05 1.2-.4.15-1.22-1.1-1.22-1.88 0-.75.91-.26 1.27.69m36.05 0c.3.78.28 1.05-.06 1.18-.4.16-1.21-1.1-1.21-1.87 0-.75.91-.26 1.27.69m-34.77 2.25c.4.6.45.92.17 1.1-.43.26-1.73-1.24-1.46-1.67.3-.48.72-.3 1.3.57m-69.28.32c-.7.52-.6 1.55.22 2.07.42.27.73.24 1.13-.1 1.26-1.04-.03-2.93-1.35-1.97m1.22 1.42c-.57.69-.93.68-1.2-.03-.35-.92.48-1.68 1.13-1.03.42.43.44.62.07 1.06m6.63-.42c-.05 1.15.03 1.3.72 1.26.56-.03.61-.08.2-.2-.36-.09-.65-.59-.73-1.25-.13-1.06-.14-1.06-.2.2m7.23-.1c0 .58.06 1.05.14 1.05.07 0 .2-.47.28-1.05.08-.57.03-1.03-.13-1.03s-.29.46-.29 1.04m77.33-.56c-.44.53.32 1.6 1.12 1.58.22 0 .13-.16-.2-.36-.85-.5-.76-1.28.17-1.46.75-.14.75-.15.05-.2-.41-.02-.92.17-1.14.44m2.2-.12c-.12.2-.13.47-.02.58.12.11.03.41-.18.67-.48.58.1.62.67.05.5-.5.56-1.1.07-.8-.2.12-.35.04-.35-.17 0-.5 2.16-.31 2.33.2.06.2-.24.55-.67.76-.56.27-.63.39-.23.4.75.03 1.47-.87 1.22-1.53-.23-.6-2.48-.73-2.83-.16m-90.15.47c-.28.73.08 1.6.63 1.56.35-.02.36-.06.02-.2-.24-.1-.44-.47-.44-.84 0-.7.52-.9.81-.3.1.19.14.16.1-.07-.13-.66-.89-.76-1.12-.15m5.84-.24c-.53.2-.57 1.36-.05 1.68.7.43 1.6-.8 1-1.37-.28-.26-.7-.4-.95-.31m2.22-.02c.22.16.48.68.58 1.16.15.74.17.72.12-.15-.03-.57-.28-1.07-.58-1.15-.34-.1-.38-.05-.12.15m1.74 0c-.31.3-.3 1.42.03 1.61.14.1.28-.29.3-.84.04-1.09.02-1.13-.33-.78m-12 .23c-.01.15.16.6.37 1 .41.77 1 .32 1-.77 0-.46-.05-.46-.35 0-.3.47-.38.47-.68 0-.19-.28-.35-.39-.35-.23m4.16.75c0 .48.05.87.13.87.07 0 .2-.39.3-.87.09-.47.03-.86-.14-.86-.16 0-.3.39-.3.86m4.59.24c-.53.53-.92.14-.63-.63.17-.45.32-.5.63-.18.31.3.3.5 0 .81m57.58 4.27c.05 1.2.17 1.4.92 1.5.48.07.74 0 .58-.17-.16-.16-.47-.29-.7-.29-.22 0-.5-.55-.63-1.21l-.22-1.22.05 1.4m4.27-1c-.13.14-.23.7-.23 1.28 0 1.3.23 1.11.46-.38.18-1.17.15-1.27-.23-.9m3.12 0c-.36.37-.27 2.14.12 2.38.56.35 1.64-.14 1.82-.83.32-1.24-1.1-2.37-1.94-1.54m27.4-.02c-.39.4-.29 2.21.12 2.21.2 0 .27-.15.15-.34-.36-.6.6-.38 1.04.23.36.49.42.37.39-.78-.04-1.33-.97-2.05-1.7-1.32m9.95.26c-.38.97 0 2.13.68 2.13.93 0 1.53-1.05 1.04-1.82-.5-.8-1.47-.97-1.72-.31m27.6 1c.03 1.26.07 1.36.35.67.18-.44.48-.7.67-.58.2.11.35.05.35-.16 0-.2-.24-.36-.54-.36-.3 0-.44-.16-.32-.36.12-.19.35-.26.51-.16.17.1.4.02.52-.17.13-.2-.16-.35-.67-.35-.81 0-.88.12-.86 1.47m7.21-.87c-.02.34-.02.8.01 1.02.03.22-.13.52-.35.66-.29.17-.36-.03-.23-.67.19-1.01-.22-1.26-.58-.34-.24.64.21 1.24 1.02 1.36.39.06.52-.26.52-1.28 0-1.33-.3-1.93-.39-.75m1.11.62c-.03 1.56 1.11 2.18 1.54.84.25-.8-.04-1.37-.7-1.37a.75.75 0 01-.64-.43c-.1-.24-.19.2-.2.96m6.22-1.14c-.28.8-.14 2.33.21 2.2.22-.08.57.03.78.24.27.27.39.27.39.02 0-.2-.23-.56-.5-.8a2.34 2.34 0 01-.65-1.16c-.08-.42-.19-.64-.23-.5m34.44.41c-.38 1 .02 2.1.82 2.22.43.06.78-.06.78-.26s-.23-.37-.52-.37c-.72 0-.65-.61.09-.8.57-.15.57-.16 0-.2-.34-.02-.61-.2-.61-.38s.23-.24.52-.13c.29.1.52.02.52-.19 0-.56-1.38-.47-1.6.11m4.44.9c0 .85.09 1.24.18.86.28-1.18.8-1.43.8-.4 0 .53.13.88.3.78.44-.28.03-1.94-.5-1.94a.74.74 0 01-.62-.43c-.1-.24-.17.27-.16 1.12m5.2-.12c.1 1.28 1.67 2.35 1.67 1.15 0-.22-.24-.32-.52-.2-.4.14-.52-.06-.52-.82 0-.55-.17-1.1-.37-1.23-.25-.15-.34.22-.26 1.1m8.14-1c-.27.45-.16 2.17.16 2.36.16.1.3-.44.3-1.22 0-1.35-.14-1.69-.46-1.14M131.8 67.24c0 .67.07.95.16.61.08-.33.08-.88 0-1.21-.1-.34-.16-.06-.16.6m7.48-.85c-.23.22.06 1.86.36 2.04.26.16.24-1.8-.01-2.05a.25.25 0 00-.35 0m2.25.86c.05 1.02.2 1.24.93 1.34.48.06.74-.02.58-.18-.16-.16-.47-.29-.7-.29-.21 0-.5-.47-.63-1.04-.23-1.01-.23-1-.18.17m7.86 0c0 .58.16 1.04.35 1.04.2 0 .35-.46.35-1.04 0-.57-.16-1.03-.35-1.03-.2 0-.35.46-.35 1.03m30.16-.02c0 .56.16 1.12.35 1.24.2.13.34-.29.34-1.02 0-.68-.15-1.23-.34-1.23-.2 0-.35.45-.35 1.01m3.64-.03c0 1.07-.67.95-.8-.15-.09-.64.02-.87.34-.76.25.09.46.5.46.9m3.37.06c0 .67.07.95.16.61.09-.33.09-.88 0-1.21-.09-.34-.16-.06-.16.6m23.94-.81c.37.36-.09.8-.63.59-.28-.1-.42-.33-.31-.5.22-.37.63-.4.94-.1m4.49.82c0 .67.07.95.15.61.1-.33.1-.88 0-1.21-.08-.34-.15-.06-.15.6m2-.07c0 .59.13 1.16.3 1.26.37.23.32-1.72-.05-2.09-.14-.14-.26.23-.26.83m3.82.07c0 .34-.24.71-.52.82-.4.15-.52-.05-.52-.82 0-.76.13-.96.52-.81.28.1.52.47.52.81m2.77 0c0 .58.16 1.04.35 1.04.19 0 .34-.46.34-1.04 0-.57-.15-1.03-.34-1.03-.2 0-.35.46-.35 1.03m-90.38-.46c-.24.1-.42.51-.41.93.02.7.04.7.4-.12.39-.86.39-.86.53-.09.07.43.28.78.46.78.37 0 .4-.4.1-1.18-.21-.57-.36-.61-1.08-.32m2.8.81c0 .56.13.93.29.83.16-.1.29-.47.29-.83s-.13-.73-.29-.83c-.16-.1-.29.28-.29.83m7.74-.8c-.36.35-.27 1.43.15 1.69.2.12.56.03.78-.2.3-.34.3-.39 0-.21-.57.31-.98-.45-.5-.92.28-.29.38-.28.38.02 0 .23.18.42.39.42.27 0 .25-.16-.04-.52-.47-.56-.8-.65-1.16-.29m2.89.23c0 .32-.16.58-.35.58-.19 0-.34-.18-.34-.4 0-.23-.08-.33-.18-.23-.25.25.19 1.32.54 1.32.36 0 .8-1.37.53-1.64-.1-.11-.2.06-.2.37m1.04.06c-.48.58.07 1.59.82 1.53.25-.01.23-.09-.04-.2-.24-.1-.43-.51-.43-.93 0-.6.07-.64.33-.24.18.28.42.41.55.29.27-.27-.1-.97-.51-.97-.16 0-.48.23-.72.52m29-.3c-.36.37-.27 1.45.15 1.7.2.13.56.06.78-.17.3-.3.26-.35-.2-.17-.47.17-.61.05-.61-.5 0-.76.5-1 .8-.38.1.2.15.17.1-.06-.1-.5-.68-.75-1.01-.41m7.97 0c-.37.36-.28 1.44.14 1.7.2.12.56.05.78-.18.3-.3.26-.35-.2-.17-.46.17-.61.05-.61-.5 0-.76.5-1 .81-.38.1.2.14.17.1-.06-.1-.5-.69-.75-1.02-.41m2.88.14c0 .2.16.27.35.15.19-.12.34.1.34.5s.16.71.35.71c.4 0 .44-.39.14-1.18-.24-.61-1.18-.76-1.18-.18m25.07.17c-.11.3-.04.71.16.9.25.26.34.22.3-.1-.03-.26.1-.51.3-.56.19-.04.33.27.32.7 0 .42-.2.73-.43.69-.23-.05-.42.08-.42.28 0 .88 1.22.09 1.33-.85.16-1.36-1.11-2.22-1.56-1.06m9.25-.02c-.35.42-.35.63 0 1.04.5.6 1.04.68 1.04.15 0-.2-.16-.27-.35-.15-.2.12-.34-.14-.34-.58 0-.63.07-.7.33-.3.17.28.42.41.55.29.26-.27-.1-.97-.52-.97-.15 0-.48.23-.71.52m2.96-.2c-.14.23 0 .28.37.14.34-.14.5-.09.39.1-.12.19-.06.57.13.84.26.39.31.31.24-.33-.11-.9-.77-1.34-1.13-.75m2.76.27c-.17.42-.31.48-.42.2-.09-.25-.31-.44-.5-.44-.18 0-.16.3.06.72.22.4.3.96.18 1.26-.16.44-.1.46.29.13.5-.41 1.06-2.07.8-2.34-.09-.08-.27.13-.41.47m21.44-.07c-.11.29-.11.76 0 1.04.22.59 1.26.72 1.26.15 0-.2-.16-.27-.35-.15-.2.12-.33-.14-.32-.58.02-.45.11-.61.2-.37.1.24.34.43.54.43.22 0 .19-.2-.07-.52-.24-.28-.57-.52-.75-.52-.17 0-.4.23-.51.52m2.2-.3c-.38.37-.29 1.45.13 1.7.2.13.56.06.78-.17.3-.3.26-.35-.2-.17-.46.17-.61.05-.61-.5 0-.76.5-1 .81-.38.1.2.14.17.1-.06-.1-.5-.69-.75-1.02-.41m6.19.1c-.14.22 0 .27.37.13.35-.14.5-.09.39.1-.12.19-.06.57.13.84.26.39.31.31.24-.33-.11-.9-.77-1.34-1.13-.75m2.12-.09c-.36.36-.27 1.44.15 1.7.2.12.56.03.78-.2.31-.35.27-.4-.2-.23-.45.16-.61.03-.61-.46 0-.48.16-.6.58-.45.38.15.49.09.32-.18-.28-.46-.67-.52-1.02-.18m38.82 0c-.36.36-.27 1.44.15 1.7.2.12.56.04.78-.18.3-.31.28-.39-.12-.3-.28.06-.52-.12-.52-.4 0-.3.2-.49.44-.44.24.05.43-.07.43-.26 0-.4-.8-.47-1.16-.12m4.07.27c-.32.82.13 1.65.81 1.52.39-.08.61-.44.61-.98 0-.99-1.1-1.4-1.42-.55m5.19.03c-.11.29-.11.76 0 1.04.22.59 1.26.72 1.26.15 0-.2-.16-.27-.35-.15-.2.12-.34-.14-.34-.58 0-.63.08-.7.33-.3.18.28.42.41.55.29.33-.34-.15-.97-.74-.97-.28 0-.6.23-.71.52m2-.15c-.1 1.2.86 1.92 1.13.86.13-.53.16-1.05.05-1.15-.1-.1-.19.07-.19.38 0 .77-.6.75-.8-.03-.12-.47-.17-.48-.2-.06m2.03.17c-.63.75.45 1.93 1.14 1.24.35-.35.31-.39-.18-.2-.47.18-.6.05-.6-.59s.08-.7.33-.3c.18.28.43.4.55.28.27-.27-.1-.97-.51-.97-.16 0-.49.24-.73.54m-176.77.9c0 .6.12.99.26.84.35-.35.37-1.93.02-1.93-.15 0-.28.5-.28 1.1m2.37-.38c.15.4.38.7.51.69.14-.01.4-.03.6-.03.18 0 .33-.35.32-.78-.03-.76-.03-.75-.41.1-.38.86-.39.86-.52.08-.08-.43-.28-.78-.45-.78-.17 0-.2.32-.05.72m52.2.48c.03 1.54.27 1.54 1 .01.32-.67.44-1.21.26-1.21-.17 0-.39.2-.48.43-.14.34-.24.34-.5 0-.2-.3-.3-.05-.28.77m22.04-.94c.02.76.68 1.26.69.52 0-.43-.15-.78-.34-.78-.2 0-.35.11-.35.26m44.89.78c-.17.27-.37.29-.6.06a.64.64 0 01-.1-.76c.17-.27.37-.29.6-.06.2.2.23.53.1.76m47.14 0c-.17.27-.37.29-.6.06a.64.64 0 01-.1-.76c.17-.27.37-.29.6-.06.2.2.24.53.1.76m-229.6 8.34c.4.2 1 1.03 1.35 1.82l.64 1.45.03-1.65.02-1.64h14.21v1.9c0 1.05.16 1.9.35 1.9.19 0 .34-.85.34-1.9v-1.9h3.7c2.96 0 3.83.11 4.34.57.59.53.63.53.63 0 0-.44.33-.57 1.37-.57h1.37l.1 1.82.1 1.82.87-1.72c1.53-3.02 2.64-3.01 4.16.01 1.4 2.8 2 4.27 1.8 4.47-.43.43-2.87.16-3.06-.34-.1-.28-.5-.52-.86-.52-.37 0-.76.24-.87.52-.3.76-6.78.76-7.4 0-.4-.47-.49-.46-.85.03-.48.66-2.84.57-2.7-.11.1-.55.02-.55-1.18.08-2.26 1.18-4.76.17-5.18-2.1-.38-2-1.19-1.5-1.19.72v1.9H82.9c-2.8 0-3.13-.07-3.63-.78l-.54-.78-.02.78c-.02.98-4.1 1.2-4.87.26-.24-.28-.65-.52-.92-.52s-.58.24-.69.52c-.17.47-3.24.82-3.24.38 0-.08.55-1.44 1.23-3.03 1.52-3.6 2.17-4.2 3.67-3.39m-1.35 1.1c-1.17 1.47-2.18 4.86-1.19 3.96.85-.77 2.8-.75 3.4.03.77 1.02.57-.21-.36-2.21-.92-2-1.35-2.4-1.85-1.77m31.4 1.83c-1.01 2.15-1.1 3.45-.14 2.15.58-.8 2.81-.83 3.25-.04.8 1.43.56-.28-.31-2.21-1.23-2.72-1.49-2.7-2.8.1m-26.98.14c0 1.13.16 2.15.35 2.27.19.12.34-.1.34-.5 0-.97 1.49-.96 2.46 0 .8.82 1.36.64.66-.2-.34-.41-.36-.64-.05-.95 1.26-1.25.14-2.68-2.1-2.68h-1.66v2.06m5.2-1.7c0 .2.2.34.43.3 1.5-.19 1.65 0 1.65 1.96 0 1.2.13 1.84.34 1.7.2-.1.35-.98.35-1.92 0-1.58.06-1.71.85-1.71.46 0 .94-.16 1.06-.35.13-.22-.7-.34-2.23-.34-1.47 0-2.45.14-2.45.36m6.15 1.46c.2 2.4 1.78 3.46 3.53 2.36.68-.43 1.1-4.18.48-4.18-.3 0-.46.5-.46 1.51 0 3.05-2.53 3.33-2.7.3-.07-1.19-.26-1.81-.55-1.81-.32 0-.4.5-.3 1.82m6.18.32c.02 1.31.19 2.2.43 2.28.23.08.41-.18.41-.58 0-.98 1.56-1 2.08-.03.2.38.62.7.92.7.44 0 .47-.1.13-.51-.32-.4-.32-.77.02-1.71.62-1.72.06-2.3-2.24-2.3h-1.78l.03 2.15m6.04.1c0 1.28.15 2.26.35 2.26.2 0 .34-.98.34-2.25s-.15-2.25-.34-2.25c-.2 0-.35.98-.35 2.25m-20.51-1.59c1.18.08.23 1.59-1.07 1.7-1.24.1-1.3.06-1.3-.97 0-.97.09-1.06.96-.91.52.08 1.16.16 1.4.18m17.81.5c.38.6-.4 1.26-1.5 1.26-.88 0-.99-.12-.99-1.06 0-1.11 1.83-1.26 2.5-.2m-24.2.4c.3 1.2.21 1.4-.62 1.26-.97-.16-.97-.16-.58-1.22.44-1.15.92-1.17 1.2-.05m32.39.02c.59 1.3.51 1.44-.64 1.27-.57-.08-1.04-.2-1.04-.27 0-.36.84-1.88 1.04-1.88.13 0 .42.4.64.88m85.58.2c-.76.43-.78 2-.03 2.28 1.34.51 2.51-1.6 1.26-2.27a1.25 1.25 0 00-1.23 0m3.61.06c-.24.3-.27.8-.07 1.47.23.75.32.84.36.33.03-.38.12-1.05.2-1.48.17-.89.05-.97-.49-.32m11.22.1c-.66.67-.58 1.48.2 1.97 1.28.8 2.38-1.01 1.28-2.11-.55-.55-.8-.53-1.48.15m36.23-.07c-.7.85-.31 2.1.65 2.1.46 0 .91-.23 1-.52.16-.45.1-.45-.41-.03-.43.35-.7.38-.97.11-.6-.6-.06-1.55.75-1.3.82.27.95-.34.15-.65-.72-.27-.7-.28-1.17.3m48.25-.28c-.51.2-.59 2.55-.08 2.55.19 0 .34-.26.34-.58 0-.53.05-.53.64 0 .6.55.63.52.64-.55 0-1.38-.5-1.84-1.54-1.42m6.76.04c-.66.14-.9 2.5-.26 2.5.2 0 .35-.21.35-.47 0-.27.3-.56.69-.66 1.38-.37.63-1.69-.78-1.37m7.8-.01c-.24.08-.43.7-.42 1.42 0 1.03.07 1.16.36.66.2-.33.58-.6.86-.6.27 0 .5-.3.5-.66 0-.7-.59-1.07-1.3-.82m16.59.06c-.6.38-.25 1.42.47 1.42.3 0 .53.16.53.37s-.3.27-.74.13c-.5-.16-.66-.1-.5.15.31.5 1.48.5 1.79 0 .13-.23-.13-.7-.59-1.08-.61-.5-.66-.63-.2-.47.41.13.6.05.5-.2-.18-.57-.68-.69-1.26-.32m-240.02.78c-.2.75.27 2.02.75 2.02.13 0 .25-.62.24-1.38 0-1.49-.66-1.9-.99-.64m111.73.46c0 .67.16 1.22.35 1.22.19 0 .34-.55.34-1.22 0-.66-.15-1.21-.34-1.21-.2 0-.35.55-.35 1.21m50.95 0c0 .67.16 1.22.35 1.22.2 0 .35-.32.35-.7 0-.94.6-.88.8.09.12.52.16.44.12-.26-.03-.63-.23-1-.49-.95-.24.04-.43-.07-.43-.26 0-.2-.16-.35-.35-.35-.19 0-.35.55-.35 1.21m12.5-.3c.2.51.44 1.08.56 1.27.25.4 1.14-1.07 1.12-1.83-.01-.29-.23-.06-.48.52l-.46 1.04-.24-.96c-.14-.52-.38-.95-.55-.95-.16 0-.14.41.05.92m3.54.3c0 .75.07 1.03.15.6a3.8 3.8 0 000-1.4c-.09-.32-.16.03-.15.8m5.33-.96c-.22.36.15 2.17.44 2.17.13 0 .18-.55.1-1.22-.15-1.23-.25-1.41-.54-.95m21.27.95c0 1.75 2.22 1.88 2.6.15.13-.58.15-1.16.03-1.27-.1-.11-.3.3-.42.9-.3 1.5-1.52 1.55-1.52.05 0-.57-.15-1.04-.35-1.04-.19 0-.34.55-.34 1.21m30.3-.36c-.28 1.1.21 1.98.58 1.03.23-.58.27-.59.29-.06.03.7.58.81.83.17.14-.34.19-.34.2 0 .07.95 1.36.44 1.6-.63.32-1.47-.06-1.7-.47-.27l-.34 1.16-.03-1.12c-.03-1.2-1.06-1.69-1.08-.52-.01.57-.04.57-.48 0-.61-.82-.85-.77-1.1.24m-124.84-.07c.22.63-.1 1.3-.6 1.3-.52 0-.97-.95-.68-1.42.28-.46 1.1-.38 1.28.12m14.99.44c0 .97-1.02.86-1.16-.13-.08-.62.03-.78.52-.68.37.07.64.42.64.8m2.11.06c.32 1.33.49 1.45.49.37 0-.5-.16-1-.36-1.13-.24-.15-.28.12-.13.76m37.29-.32c-.43.84-.14 1.48.67 1.48.85 0 1.22-.89.65-1.57-.56-.68-.94-.65-1.32.1m5.63-.21c-.14.22.05.63.41.9.57.45.57.5.05.31-.33-.11-.6-.05-.6.13 0 .43 1.28.44 1.54.01.11-.18-.07-.49-.41-.68-.37-.22-.44-.36-.16-.37.25 0 .36-.17.24-.36-.29-.46-.77-.44-1.07.06m11.43.01c-.15.23-.08.29.16.14.26-.16.39.03.37.55-.01.44-.1.6-.2.37-.1-.24-.32-.35-.5-.24-.5.3-.01.85.75.85.48 0 .67-.24.67-.83 0-.9-.86-1.47-1.25-.84m3.38-.1c-.63.39-.36 1.56.39 1.7.33.06.7-.14.82-.45.29-.75-.58-1.64-1.2-1.25m33.48-.05c-.38.08-.61.46-.61.97 0 1.06.6 1.1.8.07l.14-.78.05.78c.07 1.05.74 1 .74-.07 0-.96-.25-1.17-1.12-.97m1.83.24c-.57.7-.07 2.27.72 2.27.51 0 .65-.26.65-1.18 0-1.28-.73-1.86-1.37-1.09m4.5.01c-.57.68-.2 1.57.64 1.57.82 0 1.24-.96.7-1.6-.5-.62-.81-.6-1.34.03m2.5-.27c-.23.09-.4.58-.38 1.08.04.82.06.84.2.15.18-.97.8-1.03.8-.09 0 .38.15.7.34.7.5 0 .43-1.24-.09-1.65-.24-.19-.63-.27-.87-.19m1.85.07c-.5.81-.06 2.49.63 2.39 1.06-.15 1.24-2.19.23-2.45-.4-.1-.78-.08-.86.06m-102.9.73c-.1.38-.04.78.13.88.18.1.32-.2.32-.69 0-1.06-.2-1.15-.45-.2m40.31.24c0 .75.5.92.53.17 0-.13.12-.43.28-.66.17-.28.08-.44-.27-.44-.35 0-.54.32-.54.93m1.39-.06c0 .7.17.87.86.87.7 0 .87-.18.87-.87 0-.48-.16-.87-.35-.87-.19 0-.34.32-.34.72 0 .41-.16.62-.37.48-.2-.13-.29-.45-.19-.71.1-.27.04-.49-.15-.49-.18 0-.33.4-.33.87m10.91 0c0 .48.12.87.27.87.14 0 .25-.4.25-.87 0-.48-.11-.87-.25-.87-.15 0-.27.4-.27.87m1.26.09c.03.73.08.79.21.26.1-.38.35-.81.57-.95.25-.16.17-.26-.21-.26-.45 0-.6.25-.57.95m36.7-.1c0 .49.16.88.35.88.19 0 .34-.4.34-.87 0-.48-.15-.87-.34-.87-.2 0-.35.4-.35.87m-51.3 0c0 .28-.16.52-.35.52-.19 0-.34-.23-.34-.52 0-.29.15-.52.34-.52.2 0 .35.23.35.52m20.16 0c0 .18-.17.38-.38.45-.2.07-.37-.13-.37-.45s.17-.52.37-.45c.2.06.38.27.38.45m40.15 0c0 .28-.15.52-.34.52-.2 0-.35-.23-.35-.52 0-.29.15-.52.35-.52.19 0 .34.23.34.52M192.36 83.7c0 .1-.02 1.7-.03 3.56l-.01 3.38H209.19v-6.93l-8.41-.1c-4.62-.05-8.41 0-8.42.1m54.09 3.47v3.63H263.44v-7.27h-17v3.63m50.61 0v3.66l8.35-.1 8.35-.09v-6.93l-8.35-.1-8.35-.09v3.66m-45.75.17c0 1.31-.16 2.48-.35 2.6-.22.13-.34-.81-.34-2.6s.12-2.74.34-2.6c.2.12.35 1.29.35 2.6m50.6-.17c0 1.5-.14 2.6-.34 2.6s-.35-1.1-.35-2.6.15-2.6.35-2.6c.2 0 .35 1.1.35 2.6m-115.82-1.55c-.77.68-.78.7-.06.35.97-.47 1.5-.46 1.5.01 0 .21-.32.47-.7.57-.75.19-.92.65-.33.85.2.07.26.4.13.73-.19.5-.32.54-.8.18-.37-.3-.34-.18.1.33.85 1 1.97.99 2.92-.02 1.85-1.97-.73-4.77-2.76-3m19.1 1.9c0 1.5-.14 2.6-.34 2.6s-.34-1.1-.34-2.6c0-1.51.14-2.6.34-2.6s.35 1.09.35 2.6m7.58-1.9l-.82.72.81-.4c1.72-.84 3.91.81 2.7 2.02-.3.3-.67.42-.82.26-.15-.15-.07-.35.17-.44.74-.26.47-1.14-.46-1.49-1.18-.45-1.3-.43-1.07.17.11.28.05.6-.13.71a.74.74 0 00-.34.56c0 .19.14.26.31.15.17-.1.49.03.7.29.3.36.28.52-.1.67-.28.1-.7-.04-.93-.32-.23-.28-.5-.42-.6-.32-.1.1.11.41.48.7 2.16 1.63 4.68-1.22 2.76-3.14-1.04-1.03-1.6-1.06-2.66-.13m27.4.2l-.84.93.86-.58a3.35 3.35 0 011.3-.58c.7 0 .5.75-.25.95-.7.18-.98.79-.36.79.19 0 .24.26.11.58-.17.45-.08.52.39.34.33-.12.83-.23 1.1-.23a.5.5 0 00.5-.52c0-.28-.17-.52-.36-.52-.19 0-.34-.23-.34-.52 0-.7.6-.65.98.09.82 1.6-1.6 3.03-2.97 1.76-.84-.77-.86-.77-.5-.07 1.06 2.03 3.96 1.2 3.96-1.14 0-2-2.2-2.79-3.58-1.27m27.24-.66c-.2.14-.58.56-.87.95-.49.64-.48.66.11.2.73-.58 1.56.17.92.81-.49.49-.41.9.16.9.28 0 .6.15.72.34.4.65-.87.35-1.6-.38-.64-.65-.7-.66-.6-.1.33 1.72 3.5 1.83 4.04.13.12-.37-.05-.33-.6.16l-.76.67.37-.95c.46-1.22.46-1.27-.12-1.27-.26 0-.69-.25-.95-.57-.42-.5-.38-.54.4-.3.47.16 1.05.53 1.28.84.38.5.42.5.43-.03.02-1.08-2.03-2.06-2.93-1.4m23.02.66l-.84.92.86-.58a3.35 3.35 0 011.3-.58c.71 0 .5.75-.26.95-.54.14-.61.29-.32.64.21.26.3.62.18.8a.4.4 0 00.14.56c.2.12.35.05.35-.15s.16-.37.35-.37c.56 0 .4.6-.23.84-.35.14-.89-.08-1.38-.54-.45-.42-.81-.6-.81-.38 0 1.3 2.66 1.85 3.65.76.56-.63.57-.68.05-.48-.46.17-.54.09-.37-.37.13-.33.04-.71-.21-.86a.5.5 0 01-.17-.72c.2-.33.38-.28.74.2.4.56.46.57.46.08 0-1.57-2.3-2.04-3.49-.72m26.78-.13c-.42.45-.76.94-.76 1.11 0 .17.22.01.48-.34.53-.73 2.43-.88 3.07-.24.31.3.22.4-.36.4-.42 0-.76-.15-.76-.34 0-.58-.6-.39-.83.26-.11.33-.3.83-.43 1.1-.15.33-.06.42.32.27.3-.11.62.02.73.3.28.74-.72.6-1.52-.2-.38-.38-.7-.54-.7-.35 0 1.47 2.6 2.2 3.66 1.03.53-.58.54-.67.08-.5-.44.17-.52.06-.38-.5.21-.8.66-.94.92-.28.1.25.19.17.2-.2.08-1.8-2.48-2.84-3.72-1.52M72.44 86c0 .2-.46.81-1.04 1.35-.95.89-1.04 1.16-1.04 3.26 0 1.8-.1 2.28-.52 2.28-1.2 0-.68-4.75.66-6.1 1.2-1.19 1.94-1.5 1.94-.8m2.34.32c1.13.68 1.13.68 2.26 0 1.92-1.18 2.43-.37.62.97-.94.7-1.03.96-1.13 3.1-.15 3.57-1.31 3.68-1.31.12 0-2.3-.06-2.48-1.04-3.2-1.83-1.36-1.33-2.17.6-1m6.54.5c1.34 1.34 1.85 6.1.66 6.1-.41 0-.52-.5-.52-2.3 0-2.09-.1-2.36-1.04-3.25-1.06-1-1.35-1.73-.66-1.73.2 0 .9.53 1.56 1.17m8.8-.66c0 .4-.45.53-2 .53-3 0-4.83 1.7-3.84 3.57.7 1.3 1.43 1.6 3.85 1.61l2.34.01v-1.4c0-1.96.8-3.65 2.03-4.3 1.52-.78 1.78 0 .38 1.16-.99.83-1.15 1.2-1.3 3-.2 2.49-.3 2.57-3.3 2.58-4.24 0-6.38-2.5-4.74-5.56.83-1.54 6.58-2.59 6.58-1.2m6.13.33c.95.82 1 .82 1.67.2.38-.35.99-.7 1.35-.75 1-.18 1.08.7.09 1.07-1.23.47-1.61 1.38-1.61 3.81 0 1.64-.12 2.1-.52 2.1-.41 0-.52-.48-.52-2.27 0-2.3-.65-3.54-2.08-4.02-.49-.16-.2-.98.34-.98.17 0 .75.37 1.28.84m6.96.89c.96 1.42 1.16 5.54.26 5.54-.4 0-.52-.44-.52-1.89 0-2.17-.52-3.55-1.44-3.84a.97.97 0 01-.64-.86c0-.99 1.37-.37 2.34 1.05m4.24-1.04c0 .38-.22.7-.5.7-1.64 0-2 2.79-.54 4.15 1.06 1 1.34 1.73.66 1.73-.96 0-2.74-2.35-2.74-3.64 0-1 .27-1.54 1.18-2.46 1.34-1.34 1.94-1.49 1.94-.48m2.74.13c2.16 1.73 1.4 5.46-1.27 6.26-1.09.34-1.05-.74.05-1.24 1.81-.82 1.82-3.58.03-4.4-1.12-.51-1.18-1.6-.08-1.25.43.13 1 .41 1.27.63m8.35.12c.48.6.66 1.19.52 1.64-.12.39-.2.86-.19 1.05.02.2.13 1.1.24 2 .16 1.36.1 1.64-.36 1.64-.4 0-.55-.32-.55-1.14 0-1.58-.54-1.97-2.67-1.97-1.4 0-1.84-.13-1.84-.53s.44-.52 1.87-.52c2.1 0 3.05-.64 2.3-1.56-.31-.36-1.1-.52-2.65-.52H113v3.13c0 2.54-.1 3.11-.52 3.11-.43 0-.52-.63-.52-3.64v-3.64h2.92c2.76 0 2.96.06 3.66.95m2.08.03c0 2.33 3.05 3.4 4.48 1.58.4-.5.72-1.28.72-1.73 0-.5.2-.83.52-.83 1.21 0 .08 3.38-1.4 4.17-1.84.99-4.34.19-5.02-1.6-.5-1.33-.42-2.57.18-2.57.34 0 .52.34.52.98m68.3.1c.31.57.27.85-.21 1.38-.65.72-1.53.9-1.53.3 0-.2.27-.31.6-.26.49.08.6-.11.52-1.02-.1-1.3.08-1.42.62-.4m-99.84 2.56c0 .4-.46.53-2.08.53s-2.08-.12-2.08-.53c0-.4.46-.52 2.08-.52s2.08.12 2.08.52m34.6 2.72c.08.65-.05.92-.43.92s-.55-.33-.55-1.06c0-1.33.82-1.21.98.14m131.22 3.52c0 2.1.05 2.91.12 1.81.07-1.1.07-2.82 0-3.81-.07-1-.13-.1-.12 2m-58.57-2.9c-.13.22.13.7.59 1.08l.83.67-.78-.17c-.9-.2-1.07.27-.22.6 1.05.4 1.7-.54.86-1.22-.88-.71-.95-1.06-.15-.76.38.15.5.09.32-.18-.32-.52-1.13-.53-1.45-.02m99.34 1c0 1.5.56 1.81 1.53.84.95-.95.42-2.23-.9-2.23-.5 0-.63.28-.63 1.39m4.6-.18c0 .77.07 1.04.15.6.08-.42.08-1.05 0-1.38-.1-.33-.16.02-.16.78m5.83.1c.02 1.03.08 1.15.32.6.26-.6.3-.6.32-.09.02.33.17.6.34.6s.42-.27.56-.6c.22-.56.27-.55.53.09.22.54.29.41.3-.6.04-1.44-.52-1.74-.97-.54l-.29.78-.24-.78c-.39-1.21-.9-.9-.87.53m6.27-1.04c-.03.24-.27.43-.54.43-.69 0-1.01 1.08-.48 1.61.73.73 1.38.03 1.22-1.3-.08-.64-.17-.98-.2-.74m-15.3 1.15c0 .37-.24.67-.53.67-.51 0-.72-1.06-.3-1.5.37-.35.82.1.82.83m-98.3.58c.03 1.6.72 1.43 1-.26.08-.47.08-.67 0-.43-.22.63-.72.53-.88-.17-.07-.34-.13.05-.11.86m2.89-.43c.09.48.22.87.3.87.07 0 .13-.4.13-.87 0-.48-.14-.87-.3-.87-.16 0-.22.4-.13.87m1.35-.64c-.36.37-.27 1.44.15 1.7.2.13.55.06.76-.15.29-.29.23-.39-.2-.39-.33 0-.59-.25-.59-.56 0-.36.19-.48.54-.35.3.12.44.06.32-.13-.24-.4-.64-.45-.98-.11m95.33-.01c-.37.37-.28 1.44.14 1.7.2.13.56.05.78-.18.3-.31.3-.38-.07-.3-.26.06-.52-.16-.58-.5-.1-.65.36-.83.65-.24.1.2.14.16.1-.07-.1-.5-.69-.74-1.02-.41m2.88.12c0 .21.13.31.28.22.15-.1.3.17.33.58.04.58-.02.64-.26.25-.17-.28-.42-.4-.56-.25-.42.41.4.98 1.04.73.76-.3.6-1.66-.22-1.81-.33-.06-.6.06-.6.28m1.74 0c0 .29.14.75.32 1.03.2.32.19.67-.05.95-.26.32-.26.45.02.45.41 0 1.55-2.42 1.27-2.7-.1-.1-.27.09-.4.4-.2.54-.25.54-.68-.03-.38-.5-.47-.52-.48-.1m6 .18c-.3.76.77 1.84 1.3 1.32.54-.54.25-1.64-.47-1.78a.76.76 0 00-.83.46m4.62-.3c-.7.71.05 2.15.87 1.64.28-.17.2-.33-.26-.52-.62-.24-.63-.26-.04-.28.35-.02.58-.21.5-.44-.17-.5-.75-.72-1.07-.4m-3.44 1.02c-.33.33-1-.2-.75-.6.15-.24.34-.24.6.01.2.2.27.47.15.59m2.17-.38c0 .29-.16.52-.35.52-.2 0-.35-.23-.35-.52 0-.29.16-.52.35-.52.19 0 .35.23.35.52M94.34 95.9c.72.66.83 1.87.22 2.48-.33.32-.33.5 0 .83 1.66 1.66-.07 3.05-3.8 3.05H87.7v-6.93h3.01c2.31 0 3.15.13 3.64.57m7.9.55c.45.8.46 1.07.08 1.68-.3.47-.34.86-.12 1.13.18.22.4.8.5 1.27.08.48.17-.5.2-2.17.04-2.44.15-3.03.57-3.03.84 0 .75 6.44-.1 6.9-.92.49-1.81-.17-1.81-1.35 0-1.27-.44-1.53-2.6-1.56-2.66-.05-2.39-.99.35-1.22 2-.16 2.13-.25 1.95-1.38-.02-.2-1.12-.35-2.47-.35h-2.43v2.95c0 2.38-.1 2.94-.52 2.94-.43 0-.52-.61-.52-3.48V95.3l3.2.1c3.07.09 3.2.13 3.72 1.04m9.37-.6c0 .4-.47.52-2.17.52-2.74 0-3.72.6-3.72 2.27 0 1.77.98 2.58 3.12 2.58 1.5 0 1.73-.09 1.73-.69 0-.38.23-.7.52-.7.36 0 .52.37.52 1.22v1.21h-2.4c-3.27 0-4.53-.96-4.53-3.46s1.26-3.47 4.53-3.47c1.9 0 2.4.1 2.4.52m3.81-.24c0 .16-.46.63-1.03 1.05-1.9 1.4-1.43 2.14 1.38 2.14 1.34 0 2.43-.14 2.43-.3 0-.55-1.43-2.13-1.93-2.13a.5.5 0 01-.5-.52c0-1.2 2.15-.32 2.94 1.2.72 1.4.72 5.21 0 5.21-.36 0-.51-.36-.51-1.21v-1.21h-5.28l.14 1.21c.12.99.03 1.21-.48 1.21-.87 0-.9-3.95-.03-5.2 1-1.45 2.88-2.4 2.88-1.45m7.27.24c0 .35-.34.52-1.04.52h-1.04v4.85h1.04c.7 0 1.04.18 1.04.52 0 .39-.4.52-1.56.52h-1.56v-6.93h1.56c1.16 0 1.56.14 1.56.52m2.96.53c1.85 1.93.67 5.88-1.75 5.88-.83 0-.59-.9.36-1.32 1.82-.83 1.76-3.58-.1-4.4-.42-.18-.77-.53-.77-.77 0-.8 1.24-.46 2.26.61m8.74-.62c-.09.28-.97.48-2.36.54-5.27.25-5.25 4.74.03 5 3 .13 2.87.76-.2.89-4.28.18-6.23-3.24-3.45-6.02.96-.96 6.29-1.32 5.98-.4m-45.57 3.01l.03 2.44h2.37c1.8 0 2.43-.12 2.58-.52.4-1.02-.58-1.62-2.45-1.5-2.77.18-2.46-.86.32-1.1 3.36-.28 3.06-1.52-.4-1.66l-2.47-.1.02 2.44m22.78.02c0 .86-3.25 1.05-3.58.2-.28-.73.07-.9 1.9-.9 1.45 0 1.68.1 1.68.7m21.67-.06c0 .33-.6.48-2.03.52-2.03.06-2.54-.14-2.12-.83.34-.55 4.15-.26 4.15.31m49.18 1.93c-.11.3-.77.64-1.47.77a11.82 11.82 0 00-4.82 2.09c-.62.47-1.31.74-1.53.6-.25-.15-.3-.09-.14.18.15.23.03.69-.25 1-.87 1-1.97 3.44-2.36 5.26-.2.96-.52 1.75-.71 1.75-.2 0-.1.24.2.54.3.3.55.96.55 1.47.01 1.08 1.06 3.54 2.05 4.79.38.49.59 1.12.47 1.45-.15.42.05.35.7-.25.86-.78.97-.8 1.55-.28 2.98 2.7 9.3 2.7 12.29 0 .57-.52.68-.5 1.5.27.57.53.8.63.67.27-.13-.33.21-1.17.84-2.07.58-.83 1.29-2.45 1.58-3.6.3-1.14.69-2.13.88-2.2.19-.05.34-.26.34-.44 0-.19-.14-.26-.31-.15-.18.11-.43-.45-.56-1.24a11.74 11.74 0 00-2.13-5.07c-.47-.62-.75-1.29-.62-1.5.12-.2.01-.32-.24-.26-.26.05-1.1-.3-1.86-.77-1.78-1.11-3.16-1.71-3.95-1.71a3.3 3.3 0 01-1.55-.72c-.79-.62-.94-.64-1.12-.18m35.1.12c-.17.48-.56.78-1.03.79-.93 0-3.45 1.12-4.62 2.04-.48.38-1.1.59-1.42.47-.37-.14-.47-.08-.3.2.15.25-.2 1.16-.83 2.13a12.3 12.3 0 00-1.5 3.8c-.25 1.32-.58 2.13-.92 2.22-.45.12-.44.15.03.18.4.03.63.51.78 1.6.23 1.7 1.57 4.62 2.45 5.36.45.37.47.56.13 1.01-.24.31 0 .19.51-.28.95-.84 1.35-1.48.47-.76-.87.73-3.34-3.9-3.34-6.25 0-1.27.95-.64 1.18.78 1.1 6.93 10.5 10.53 15.54 5.96.57-.52.68-.5 1.42.19.8.76 1.75 1.09 1.01.35-.3-.3-.15-.75.59-1.82 1.01-1.48 2.1-4.26 2.1-5.4 0-.35.27-.72.6-.8.58-.16.58-.17 0-.2-.4-.03-.6-.33-.6-.9 0-1.42-1.04-4.1-2.13-5.47-.56-.72-.92-1.48-.78-1.7.16-.26.09-.3-.18-.14-.25.16-.75-.03-1.18-.42a10.6 10.6 0 00-4.6-2.2 5.32 5.32 0 01-2.16-.97c-.39-.47-.43-.37-.28.66.48 3.27.64 8.32.26 8.32-.25 0-.4-.9-.43-2.51-.07-4.1-.44-7.16-.77-6.24m87.36-.13c-.24.61-2.02.95-2.58.49-.31-.26-.43-.22-.43.13 0 .58-1.99 1.41-2.28.95-.32-.52-.84-.35-.62.2.12.31-.14.81-.62 1.2-.45.38-.67.7-.5.7.18 0 .62-.25.98-.58.54-.49.7-.51.95-.12.71 1.16-1.1 1.8-2.21.77-.7-.63-.94-.74-.8-.33.13.37-.24 1.26-.96 2.34-.67 1-1.35 2.59-1.59 3.74-.22 1.1-.58 2.1-.8 2.25-.29.18-.28.25.02.26.22 0 .58.84.8 1.87.2 1.03.89 2.71 1.51 3.75.63 1.03 1.06 2.1.97 2.38-.1.34.08.29.59-.17.84-.74.98-1.31.26-1.04-.95.37-2.98-3.58-2.98-5.8 0-1.97.8-1.22 1.19 1.13 1.65 9.96 17.81 9.34 19.16-.74.19-1.38.8-1.95.8-.74 0 2.12-2.43 6.88-3.26 6.4-.21-.12-.1.11.27.53.77.88.95.94.69.25-.1-.28.2-1.03.7-1.67 1.04-1.38 1.94-3.75 1.94-5.15 0-.72.17-1 .6-1 .5 0 .52-.07.11-.33-.27-.17-.55-.75-.62-1.29a11.3 11.3 0 00-1.86-4.88c-.6-.9-.9-1.7-.77-2.08.17-.48.12-.52-.23-.2-.61.57-2.46-.77-2.18-1.58.15-.43.1-.47-.23-.16-.53.49-2.45-.15-2.45-.82 0-.24-.15-.44-.34-.44-.2 0-.35.16-.35.37 0 .22-.3.27-.74.13-.68-.21-.72-.14-.5.93.48 2.45.64 7.23.24 7.23-.25 0-.39-.86-.39-2.43 0-3.97-.92-7.95-1.5-6.45m-121.9 4.38c0 2.77-.13 4.5-.34 4.5-.38 0-.49-6.9-.13-8.23.4-1.45.48-.79.48 3.73m71.75-4.3c0 .22-.93.58-2.06.8-1.26.25-2.72.85-3.73 1.55-.92.63-1.88 1.07-2.15.98-.27-.1-.38 0-.26.19.12.2-.32 1.25-.98 2.34-.66 1.1-1.3 2.7-1.42 3.59-.12.88-.47 1.8-.77 2.04-.5.4-.5.43.03.43.42 0 .6.3.6 1 0 1.3.82 3.63 1.75 4.93.4.56.64 1.26.54 1.54-.5 1.27 2.55-.47 5.06-2.9.9-.87 1.73-1.49 1.84-1.38.22.22-2.8 3.16-4.3 4.2-.74.5-.78.6-.22.5.38-.08 1.32.17 2.08.54a10.32 10.32 0 009.73-.67l1.28-.86.87.8c.53.49.8.6.7.27-.27-.8 1.02-2.43 1.73-2.17.5.19.53.14.15-.32-.53-.66.08-2.36.85-2.36.25 0 .46-.16.46-.34 0-.2-.17-.35-.39-.35-.51 0-.1-2.12.48-2.5.31-.2.32-.35.04-.53-.64-.44-.91-1.82-.46-2.36.33-.4.32-.5-.07-.5-.59 0-1.5-2.2-.99-2.37.2-.07.35-.26.35-.43 0-.16-.23-.21-.52-.1-.72.27-1.93-1.25-1.68-2.13.15-.53.1-.6-.21-.3s-.84.1-2.12-.76c-.94-.63-2.6-1.34-3.7-1.58s-2.1-.6-2.25-.8c-.18-.26-.25-.25-.26.02m-31.26 2.18c1.24.63 2.87 2.1 2.32 2.1-.15 0-1.22-.44-2.4-.99a86.65 86.65 0 00-3.07-1.38c-.52-.2-.95-.53-.95-.7 0-.43 2.52.16 4.1.97m37.15.5c.76.51 1.38 1.08 1.38 1.26 0 .5-.29.43-1.33-.3-1.05-.75-3.9-1.78-4.92-1.78-.65 0-.89-.37-.48-.77.38-.38 3.99.7 5.35 1.6m-79.04-1.06c-.28.26-1.29.75-2.24 1.1-3.12 1.15-6.07 5.06-6.07 8.06 0 .6-.16.8-.6.7-.83-.15-.64-1.98.43-4.26 1.07-2.26 1.75-3.08 2.28-2.75.28.17.33.11.16-.16-.32-.53.47-1.19 2.76-2.3 1.93-.94 4.17-1.2 3.28-.39m4.89.06c1.63.56 3.75 2.05 3.4 2.4-.11.11-1.2-.25-2.42-.8s-2.5-1.1-2.83-1.2c-.7-.24-.82-.92-.15-.92.26 0 1.15.23 2 .52m30.66-.2a9.9 9.9 0 01-2.3 1.28c-3.25 1.46-5.86 5.01-5.86 7.99 0 .48-.2.8-.52.8-1.07 0-.41-3.1 1.2-5.63.72-1.14 1.2-1.57 1.57-1.43.37.15.47.05.33-.3-.12-.34.2-.8.85-1.27 1.74-1.24 5.27-2.3 4.73-1.43m37.6-.03c0 .17-.58.42-1.28.55-4.31.81-7.6 4.44-7.98 8.83-.16 1.85 0 2.59 1.32 5.82.8 1.98-.12 2.11-1.18.17-1.14-2.1-1.58-4.52-.9-4.96.41-.26.41-.3 0-.31-1.05-.01.36-4.85 1.94-6.65.28-.33.74-.5 1-.4.34.13.43.02.3-.33-.38-1 3.3-2.95 5.65-3 .62-.01 1.13.11 1.13.28m49.22.22c-.24.28-.57.52-.74.52-.17 0-.3-.24-.3-.52 0-.3.3-.52.73-.52.62 0 .67.08.3.52m-1.73.29c0 .65-1.63 1.37-1.94.85-.26-.42.76-1.32 1.49-1.32.25 0 .45.21.45.47m7.14-.1c1.17.44.7 1.04-.61.78-.62-.12-.87-.34-.75-.66.23-.58.18-.58 1.36-.13m2.92 2.1c0 .4-.25.4-1.07-.04-.37-.2-.67-.6-.67-.88 0-.44.13-.43.87.05.48.32.87.71.87.88m-120.15 2.86c.96 2.03 1.47 4.38.94 4.38-.2 0-.45-.59-.58-1.3-.25-1.42-1.82-4.6-2.27-4.6-.15 0-.19-.23-.08-.52.3-.79.99-.09 2 2.03m71.6-.93c0 .64-.35.58-.9-.14-.76-1-.6-1.7.21-.95.39.34.7.83.7 1.09m34.15-1.25c.13.2 0 .64-.28.96a9.93 9.93 0 00-1.92 4.3c-.3 1.7-1.1 2.2-1.1.69 0-2.64 2.53-7.2 3.3-5.95m16.6 2.19c.46.98.95 2.48 1.08 3.34.3 2.02-.26 1.43-.82-.87-.24-.95-.89-2.37-1.45-3.16-.55-.78-.91-1.52-.8-1.64.38-.38 1.1.48 1.98 2.33m-87.15-1.19c.87 1.22 1.75 3.6 1.75 4.75 0 1.42-.52.9-.96-.98-.24-1-.82-2.4-1.3-3.11-1.3-1.96-.84-2.55.5-.66m37.41 1.97c.43.95.27 1.55-.26.98-.48-.51-.81-1.89-.46-1.89.17 0 .5.41.72.91m-135 .22c.52.83-.13 1.82-1.21 1.82-.86 0-1.28-1.04-.86-2.13.26-.67 1.58-.48 2.07.3m2.88 1.4c-.08.42-.15.07-.15-.78 0-.86.07-1.21.15-.78.09.42.09 1.13 0 1.56m12.93-.76c0 .77-.14 1.32-.31 1.2-.18-.1-.24-.5-.14-.88.11-.42.01-.7-.25-.7-.34 0-.34-.1 0-.51.63-.76.7-.67.7.89m1.68.06c-.03 1.04-.1 1.2-.2.52-.07-.52-.3-.95-.5-.95-.23 0-.2-.2.06-.52.63-.76.7-.67.64.95m2.3-.06c0 .96-.13 1.19-.69 1.19-.82 0-1.14-1.34-.5-2.11.67-.8 1.2-.38 1.2.92m1.9-.9c.6.73.15 2.34-.62 2.2-.61-.12-.96-1.35-.63-2.22.25-.63.71-.63 1.25.02m-64.9.49c.37.2-.22.25-1.69.14-2.84-.23-6.23 1.48-6.19 3.12.01.23.25.11.53-.26 1.35-1.8 6.06-.78 7.27 1.56 2.18 4.22-3.49 8.28-7.03 5.04-1.3-1.2-2.26-6.28-1.04-5.53.25.16.3.03.14-.39-.97-2.52 5.1-5.31 8-3.68m41.75.47c.06.43.27.78.46.78s.4-.35.46-.78c.07-.53-.07-.78-.46-.78-.4 0-.53.25-.46.78m3.3-.4c.49.5.16 1.7-.47 1.7-.59 0-.96-.84-.68-1.56.23-.61.63-.66 1.15-.14m2.56 1.17c.17-.11.33-.54.34-.96.03-.73.04-.73.3-.07.37.92.1 1.56-.66 1.56-.61 0-1.18-1.48-.74-1.93.12-.12.26.2.32.7.06.49.26.8.44.7m2.63-.5c0 .6-.19.88-.58.88-.39 0-.58-.29-.58-.89 0-.6.2-.89.58-.89.4 0 .58.3.58.9m2.02 0c0 .98-1.1 1.4-1.42.54-.32-.82.13-1.65.81-1.52.39.07.61.43.61.97m11.79-.7c-.12.2-.06.62.14.96.3.52.36.47.37-.35 0-1-.15-1.18-.51-.6m-65.69 1.06c.38.25.18.3-.72.14a4.72 4.72 0 00-2.57.33c-1.58.67-2.02.47-.64-.28 1.13-.61 3.17-.71 3.93-.2m180.6 1.22c0 .47-.15.85-.31.85-.34 0-.74-1.62-.47-1.89.35-.35.77.22.77 1.04m-92.11 3.12c.1.91.64 2.32 1.27 3.34 1.12 1.8 1.15 2.46.1 1.8-1.53-.97-3.37-6.72-2.15-6.72.46 0 .64.38.78 1.58m19.85-.1c-.28 1.8-1.81 5.09-2.49 5.35-.9.35-.86-.15.18-1.78.57-.9 1.21-2.4 1.44-3.34.5-2.12 1.19-2.3.87-.23m35.87-.5c0 2.33-2.16 6.38-3.1 5.8-.32-.2-.25-.45.26-1a8.76 8.76 0 002-4.36c.26-1.61.84-1.92.84-.44m36.4.06c0 .63-.19 1.04-.47 1.04-.31 0-.41-.33-.3-1.04.08-.57.29-1.04.45-1.04.17 0 .31.47.31 1.04m-175.87 3.04a5.72 5.72 0 01-1.1 1.48c-.32.27-.17-.11.33-.85s.93-1.75.95-2.24c.04-.79.07-.8.2-.15a3.3 3.3 0 01-.38 1.76m55.94.43c0 1.62-.14 2.77-.35 2.77-.2 0-.34-1.16-.34-2.77 0-1.62.14-2.77.34-2.77s.35 1.15.35 2.77m-56.82-1.58c.18-.1.32.06.32.36 0 .31-.15.47-.33.36-.18-.11-.57.26-.87.84-.3.57-.89 1.22-1.31 1.45-.63.33-.56.16.35-.87.61-.7 1.13-1.63 1.15-2.05.01-.42.1-.57.2-.33.1.24.32.35.5.24m39 .36c-.1.3-.07.52.07.52s.29.32.31.7c.08.97-.15.87-.97-.44-.5-.78-.65-.89-.5-.34.14.46.08.78-.14.78-.2 0-.37.17-.37.38s.22.3.48.2c.26-.1.64-.02.83.18.61.6 1.2-.08.99-1.15-.25-1.22.37-1.34.68-.13.26 1.05-.26 1.77-1.47 2-1.58.3-2.87-1.72-1.79-2.8.63-.63 2.14-.54 1.89.1m25.77.15c0 .36-.2.74-.43.83-.3.11-.24.3.22.66.97.74.6 1.47-.4.78-.84-.6-1.02-1.86-.36-2.52.6-.6.97-.51.97.25m111.6-.4c-.03.68-.95 1.88-1.16 1.52-.28-.45.35-1.78.84-1.78.18 0 .33.11.32.25m-109.4 1.04c.13.65 0 1.1-.38 1.4-.57.43-1.42.6-1.02.2.12-.11.05-.54-.17-.95l-.38-.73.8.7.8.68-.23-1.12c-.11-.62-.08-1.13.08-1.13.17 0 .39.43.5.95m108.03 1.83c-.45.84-.95 1.13-1.41.84-.24-.14-.1-.52.4-1.05.86-.92 1.54-.79 1 .2m-184.12 5.27c.6.6.51 2-.15 2.25-1.22.47-2.34-1.14-1.5-2.16.51-.61 1.1-.64 1.65-.09m8.03.09c.78.94.3 2.1-.85 2.1-.82 0-1.06-.17-1.16-.8-.12-.88.47-1.8 1.16-1.8.24 0 .62.22.85.5m1.5.1c-.2.55-.14.54.54-.05.85-.75.98-.28.4 1.53-.27.83-.28.83-.31.08-.04-.96-.73-1.04-.73-.08 0 .38-.16.69-.34.69-.39 0-.49-2.17-.12-2.54.45-.45.78-.23.56.37m83.1-.1c-.33.4-.27.59.31.95.94.58.93 1.09-.02.79-.5-.16-.66-.11-.5.15.31.5 1.48.49 1.79-.01.14-.22-.12-.68-.59-1.04-.7-.54-.73-.64-.2-.64.35 0 .53-.17.41-.36-.3-.48-.7-.43-1.2.16m12.2-.09c-1.15 1.14.27 3.02 1.5 2 .65-.54.64-1.19-.04-1.87-.66-.65-.92-.67-1.47-.13m2.61-.2c-.14.14-.24.8-.22 1.5l.03 1.23.34-1.16c.35-1.22.28-2-.15-1.57m1.22.22c-.19.24-.32.78-.28 1.2.11 1.36.46 1.23.6-.23.15-1.58.15-1.56-.32-.97m19.64-.05c-.4.27-.35.44.3.98.97.82.99 1.18.03.88-.49-.16-.65-.11-.5.15.33.53 1.08.47 1.57-.12.33-.4.23-.6-.56-1.06-.83-.47-.86-.53-.2-.4.43.09.78.04.78-.11 0-.46-.9-.66-1.42-.32m-123.72 1.05c-.36 1.23-.69 1.7-.68.96 0-.87.41-2.05.7-2.05.16 0 .15.5-.02 1.09m109.08-.86c-.36.36-.28 1.79.11 2.03.21.12.35-.29.35-1.02 0-1.27-.06-1.4-.46-1m16.75.72c0 .6.14 1.17.3 1.27.37.23.33-1.72-.04-2.09-.14-.14-.26.23-.26.83m9.72.12c.17.6.4 1.17.49 1.26.16.17.23.02.64-1.3.1-.36.3-.19.59.51.46 1.13 1.01.55.98-1.04-.02-.57-.05-.59-.18-.08-.2.74-.8.8-.8.08 0-.77-.53-.63-.96.26l-.38.78-.02-.78c-.01-.43-.17-.78-.35-.78-.2 0-.2.43 0 1.09m5.52-.72c0 .2-.14.28-.3.18-.45-.28-1.2.75-.97 1.33.4 1.05 1.62.49 1.62-.74 0-.62-.08-1.14-.17-1.14-.1 0-.18.17-.18.37m1.04.79c0 .7.13 1.27.28 1.27.32 0 .25-2.01-.07-2.34-.11-.1-.2.37-.2 1.07m1.06.07c.03 1.36.04 1.36.34.34.2-.64.18-1.16-.03-1.37-.22-.22-.33.15-.3 1.03m21.49-.14c-.5 1.42-.5 1.42.32.91.58-.36.76-.35 1.03.08.48.75.43-.12-.06-1.2-.53-1.16-.83-1.1-1.3.21m12-.85c-.23.38.12 2.19.43 2.19.26 0 .19-2.03-.08-2.3-.1-.1-.25-.04-.35.11m39.27.98c0 1.17.07 1.25.96 1.15 1.4-.17 1.39-2.14-.02-2.3-.87-.1-.94-.02-.94 1.15m2.5-.15c.12 1.51.62 1.65.62.17 0-.68-.16-1.24-.35-1.24-.2 0-.31.48-.27 1.07m6.47-.63c-.09.99-.14 1.12-.47 1.12-.2 0-.33-.2-.3-.43.02-.24-.1-.43-.29-.43-.75 0-.1 1.56.67 1.6.66.03.78-.14.78-1.13 0-1.1-.3-1.67-.38-.73m-230.81.58c0 .37.13.76.3.87.43.26 1.2-.73.92-1.18-.38-.61-1.22-.4-1.22.31m3.7.55c.03.7 0 .78-.12.25-.2-.96-.81-1.03-.81-.08 0 .38-.16.69-.35.69-.39 0-.47-1.49-.1-1.86.55-.56 1.32 0 1.37 1m4.34-.44c.06.43.27.78.46.78s.4-.35.46-.78c.07-.54-.07-.78-.46-.78-.4 0-.53.24-.46.78m87.98.07c0 .46.13.92.29 1.02.16.1.29-.28.29-.84 0-.57-.13-1.03-.3-1.03-.15 0-.28.38-.28.85m1.4-.34c-.56.67-.22 1.58.58 1.54.36-.01.44-.1.19-.2-.24-.1-.43-.51-.43-.93 0-.6.07-.64.33-.24.17.28.4.42.52.31.11-.1-.02-.38-.28-.6-.37-.3-.58-.28-.92.12m3.47 0c-.56.67-.2 1.58.59 1.53.58-.04.58-.05 0-.2-.32-.09-.6-.37-.6-.63 0-.65.6-.97.8-.43.08.24.25.34.38.22.12-.11 0-.39-.26-.6-.37-.32-.58-.29-.91.11m2.13-.2c-.63.4-.37 1.56.38 1.7.33.07.7-.14.82-.45.29-.74-.58-1.63-1.2-1.25m4.45.36c0 .37-.17.78-.38.9-.53.34-1.14-.38-.9-1.03.3-.77 1.28-.67 1.28.13m3.6-.27c-.13.22.03.6.36.84.45.33.48.47.14.58-.34.11-.33.15.03.12.69-.05.9-.9.23-.9-.3 0-.55-.16-.55-.37 0-.2.16-.27.35-.15.19.12.34.05.34-.15 0-.5-.58-.47-.9.03m1.98.07c-.5.62-.13 1.62.6 1.58.37-.02.42-.09.14-.2-.23-.1-.43-.51-.42-.93 0-.6.07-.64.32-.24.18.28.42.42.53.31.1-.1-.02-.38-.28-.6-.37-.3-.58-.29-.89.08m20.08.04c-.56.67-.21 1.58.58 1.54.37-.01.44-.1.19-.2-.24-.1-.43-.51-.43-.93 0-.6.07-.64.33-.24.18.28.41.42.52.31.11-.1-.01-.38-.28-.6-.37-.3-.58-.28-.91.12m3.24-.02c-.3.8.1 1.6.81 1.55.58-.04.58-.05.01-.2-.33-.09-.6-.37-.6-.63 0-.61.58-.98.8-.51.1.2.15.17.1-.06-.13-.66-.88-.76-1.12-.15m1.97.17c-.53.98.48 1.76 1.27.97.46-.46.48-.65.1-1.1-.58-.7-.95-.67-1.37.13m35.54.26c.32 1.33.49 1.46.49.37 0-.5-.17-1-.36-1.13-.24-.14-.28.12-.13.76m1.04 0c.32 1.33.49 1.46.49.37 0-.5-.17-1-.36-1.13-.24-.14-.28.12-.13.76m1.58-.6c-.63.38-.37 1.55.38 1.7.34.06.7-.15.83-.46.28-.74-.59-1.63-1.21-1.25m5 .61c.33 1.33.5 1.46.5.37 0-.5-.17-1-.37-1.13-.24-.14-.28.12-.12.76m44.2-.6c-.65.4-.34 1.55.46 1.7.62.13.62.1.07-.45-.32-.32-.48-.75-.36-.94.14-.23.32-.2.5.1.16.26.38.37.49.26.36-.36-.7-.96-1.16-.67m-126.56.91c0 1 .51.88.8-.18.11-.46 0-.7-.31-.7-.3 0-.49.35-.49.88m4.5.3c-.47.47-.82 0-.54-.73.2-.51.28-.53.55-.1.19.3.18.64-.01.83m31.23-.23c.02.54.1.73.22.43.1-.28.34-.71.53-.95.25-.3.19-.43-.22-.43-.38 0-.55.3-.53.95m11.93.09c-.17.27-.37.29-.6.06a.64.64 0 01-.1-.76c.17-.27.37-.29.6-.06.2.2.24.53.1.76m3.4-.36c.17 1.09.59 1.26.59.24 0-.5-.16-.92-.35-.92-.19 0-.3.3-.24.68m26.92.5c-.47.47-.81 0-.53-.73.2-.51.28-.53.54-.1.2.3.19.64 0 .83m1.13-.49c.12 1.27 1.64 1.46 1.64.2 0-.5-.15-.9-.33-.9-.19 0-.26.22-.15.5.32.84-.55.97-.9.14l-.34-.8.08.86m1.99-.02c0 .37.16.77.35.89.2.12.34-.17.34-.68 0-.48-.15-.88-.34-.88-.2 0-.35.3-.35.67m47.14.2c0 .47.06.86.13.86s.21-.39.3-.87c.1-.47.03-.86-.13-.86-.17 0-.3.39-.3.86m1.04-.19c0 .4.16.71.35.71.19 0 .34-.22.34-.5 0-.27-.15-.6-.34-.71-.2-.12-.35.1-.35.5m-89.08.2c0 .28-.16.51-.35.51-.19 0-.35-.23-.35-.52 0-.28.16-.52.35-.52.2 0 .35.24.35.52m83.95.25c-.32.32-.5.32-.83 0-.33-.33-.23-.42.41-.42.65 0 .74.1.42.42m-171.19 10.93c-6.7.05-17.78.05-24.6 0-6.84-.05-1.35-.1 12.18-.1 13.54 0 19.13.05 12.42.1m38.8 0c-2.72.06-7.17.06-9.88 0-2.72-.06-.5-.1 4.94-.1 5.43 0 7.65.04 4.94.1m28.77 0c-2.15.06-5.66.06-7.8 0-2.15-.06-.4-.11 3.9-.11 4.29 0 6.04.05 3.9.11m28.05 0c-2.15.06-5.58.06-7.62 0s-.28-.11 3.92-.11 5.86.05 3.7.11m33.3 0c-2.9.06-7.67.06-10.57 0-2.91-.06-.53-.1 5.28-.1 5.82 0 8.2.04 5.29.1m37.98 0c-3.38.06-9 .06-12.48 0-3.5-.05-.74-.1 6.13-.1 6.86 0 9.72.04 6.35.1m32.92 0c-2.23.06-5.97.06-8.32 0-2.34-.06-.52-.1 4.06-.1 4.57 0 6.5.04 4.26.1m-234.3 4.56c-.38.6-.36.8.15 1.32.91.91 1.84.19 1.71-1.33l-.1-1.17.58.81a1.6 1.6 0 01-2.26 2.25c-.8-.55-.95-1.82-.3-2.46.6-.6.74-.25.22.57m4.9.76c0 .75-.15 1.36-.34 1.36-.2 0-.35-.7-.35-1.58 0-.96.14-1.5.35-1.36.2.12.35.83.35 1.58m2.25-.6c-.11-.41-.04-.85.16-.97.23-.15.36.35.36 1.35 0 1.82-.29 1.98-1.12.63l-.6-.95v.97c-.01.56-.16.88-.36.76-.4-.24-.48-2.35-.1-2.72.13-.13.6.19 1.05.72.72.84.8.87.61.21m3.26-.51c.38.7-.1 1.43-.9 1.43-.25 0-.45.24-.45.52 0 .29-.16.52-.35.52-.2 0-.35-.7-.35-1.56 0-1.72 1.31-2.3 2.05-.91m1.42.76c0 .68.17 1.02.52 1.02.37 0 .52-.37.52-1.28 0-.92.1-1.18.37-.91.53.52.26 2.22-.41 2.64-1.02.64-1.7.04-1.7-1.5 0-.85.14-1.33.35-1.2.2.12.35.67.35 1.23m4.16-1.06c0 .2-.16.35-.35.35-.19 0-.34.54-.34 1.21 0 .67-.16 1.21-.35 1.21-.2 0-.35-.54-.35-1.2 0-.68-.15-1.22-.34-1.22a.35.35 0 01-.35-.35c0-.19.47-.34 1.04-.34.57 0 1.04.15 1.04.34m3.62-.02c.11.17-.23.39-.76.47l-.95.15.84.28.84.27-.84.36-.84.36.95.13c1.35.18 1.19.84-.17.71-1.16-.11-1.67-1.25-1.17-2.56.21-.55 1.8-.68 2.1-.17m2.91.13c.82.99.39 2.91-.6 2.73-1.24-.22-1.77-.7-1.77-1.6 0-1.4 1.54-2.13 2.37-1.13m2.07 1.9c.4-.08.55-.4.48-1.03-.06-.5.05-1.02.26-1.14.23-.15.36.28.36 1.2 0 .98-.17 1.48-.56 1.63-1.24.47-2.3-1.22-1.64-2.6.2-.43.3-.23.4.73.09 1.02.25 1.3.7 1.2m3.83-.64c.42 1.25.23 1.92-.3 1.06-.28-.43-.44-.44-1.06-.06-1 .62-1.12.4-.53-1 .86-2.08 1.2-2.08 1.9 0m2.14.72c.37 0 .67.17.67.37 0 .2-.43.32-.95.26-1.02-.12-1.48-1.44-.91-2.65.2-.42.3-.22.4.72.09 1.02.26 1.3.79 1.3m1.71-.84c0 .96-.13 1.5-.35 1.36-.6-.37-.4-2.94.23-2.94.07 0 .12.7.12 1.58m2.77-1.28c0 .16-.32.7-.72 1.2l-.71.92h.71c.4 0 .72.16.72.35 0 .19-.54.34-1.21.34-1.42 0-1.46-.1-.49-1.33.63-.8.65-.93.18-1.03-.96-.2-.6-.75.48-.75.58 0 1.04.13 1.04.3m2.43.04c0 .2-.31.35-.7.35-.95 0-.87.68.1.74l.77.05-.78.15c-.96.18-1.03.8-.08.8.38 0 .69.15.69.34 0 .19-.47.34-1.04.34-1.02 0-1.6-2.09-.81-2.88.36-.37 1.85-.27 1.85.11m2.77 0c.42.26.44.46.11.99-.3.48-.3.76-.02 1.04.21.21.28.49.16.61-.13.13-.54-.14-.92-.6l-.7-.83v.78c0 .43-.17.78-.36.78-.38 0-.49-2.52-.12-2.88.33-.34 1.25-.28 1.85.1m57.71.26c-1.17.28-1.43.8-.4.8.56 0 .87.14.75.34-.12.19-.52.34-.89.34s-.67.16-.67.35c0 .2.4.35.87.35s.86.16.86.37c0 .2-.48.32-1.1.26-1.06-.1-1.34-.9-1-2.88.01-.1.53-.16 1.15-.14.73.03.88.1.43.2m2 .45c.23.39.53.7.66.7.12 0 .14-.31.04-.7-.1-.38 0-.69.21-.69.23 0 .38.66.38 1.65l-.02 1.64-.85-1.04c-.8-.98-.85-1-.85-.26 0 .43-.16.78-.35.78-.2 0-.35-.62-.35-1.38 0-1.51.44-1.78 1.12-.7m2.55.18c.26 1.02.84 1.16.84.2 0-.64.57-1.3.87-1 .07.06-.19.82-.57 1.67l-.7 1.55-.45-.86c-.73-1.4-.97-2.43-.57-2.43.2 0 .46.4.58.87m5.43-.62c-.87.16-1.08.8-.26.8.29 0 .52.15.52.34 0 .19-.23.34-.52.34a.52.52 0 00-.52.52c0 .29-.16.52-.35.52-.19 0-.34-.62-.34-1.38 0-1.34.03-1.39 1.12-1.34.82.03.91.09.35.2m3.31.17c1.18 1.17-.2 3.13-1.66 2.35-.7-.37-.88-1.2-.49-2.22.25-.65 1.56-.73 2.15-.13m1.46.8c0 .98.13 1.2.69 1.2.38 0 .7.17.7.38 0 .2-.44.32-.96.26-.98-.12-1.75-3.06-.8-3.06.2 0 .37.55.37 1.21m3.4 1.3c.77.11.83.18.32.4-1.13.52-1.65 0-1.59-1.6.06-1.48.06-1.48.2-.2.11 1.08.27 1.3 1.06 1.4m3.37-1.16c0 1.57-.9 2.17-1.9 1.27-1.27-1.16-.64-2.74 1.03-2.55.73.09.87.28.87 1.28m1.2-.66c0 .39.16.7.35.7.2 0 .35-.31.35-.7 0-.38.23-.69.52-.69.29 0 .52.3.52.7 0 .38.16.69.35.69.19 0 .34-.31.34-.7 0-.38.16-.69.36-.69.31 0 .23.94-.2 2.34-.23.74-.78.48-1.1-.52l-.33-.95-.23.95c-.25.99-.84 1.28-1.08.52-.43-1.4-.5-2.34-.2-2.34.2 0 .36.31.36.7m4.94-.45c-.97.18-1.04.8-.09.8.38 0 .7.15.7.34 0 .19-.32.34-.7.34-.38 0-.7.16-.7.35 0 .2.32.35.7.35.38 0 .7.16.7.37 0 .2-.44.32-.96.26-1.63-.2-1.65-3.08-.02-3.01.81.03.92.09.37.2m3.56.11c.12.2.03.6-.2.88-.34.4-.34.62-.04.92.8.81.38 1.06-.46.27-.7-.65-.87-.7-.87-.26 0 .31-.16.66-.35.78-.2.13-.34-.4-.34-1.37 0-1.58 1.52-2.4 2.26-1.22m64.29.85c0 .99.13 1.22.7 1.22.37 0 .69.15.69.34 0 .4-.71.46-1.54.14-.61-.23-.8-2.9-.2-2.9.2 0 .35.54.35 1.2m3.81-.87c0 .18-.22.25-.48.15-.27-.1-.58-.04-.7.14-.1.18.15.45.58.59l.77.26-.78.15c-.5.1-.78.4-.78.84 0 .38-.15.6-.34.48-.94-.58-.38-2.95.7-2.95.56 0 1.03.15 1.03.34m3.05.94c.19 1.9-2.1 2.43-2.57.59-.28-1.1.45-1.93 1.57-1.8.73.09.92.31 1 1.2m-179.48-.06c0 .95.03.97.84.66.81-.31.7-1.52-.15-1.52-.5 0-.69.23-.69.86m18.03-.52c0 .2.23.35.51.35.3 0 .53-.16.53-.34 0-.2-.24-.35-.53-.35-.28 0-.51.15-.51.34m70.84.15c-.28.75.11 1.68.65 1.5.23-.08.43-.5.43-.95 0-.95-.77-1.35-1.08-.55m8.24-.18c-.63.4-.37 1.56.38 1.7.33.07.7-.14.83-.45.28-.74-.59-1.63-1.21-1.25m9.48.03c-.12.2.11.35.52.35.4 0 .64-.16.52-.34-.12-.2-.35-.35-.52-.35-.17 0-.4.15-.52.34m71 .18c-.27.72.1 1.56.7 1.56.67 0 1.01-1.02.53-1.6-.51-.63-.98-.61-1.22.04m-130.46 30.13c0 19.6-.12 30.04-.34 30.18-.24.14-.35-9.93-.35-29.96 0-19.89.12-30.18.34-30.18.23 0 .35 10.22.35 29.96m90.12.2c0 19.87-.11 30.15-.34 30.15-.23 0-.35-10.28-.35-30.15 0-19.88.12-30.16.35-30.16.23 0 .34 10.28.34 30.16m55.8-25.3c0 .57-.15 1.03-.34 1.03-.19 0-.34-.23-.34-.52 0-.65-.14-.64-1.44.03-.58.3-1.14.46-1.25.35-.26-.26-.18-.32 1.47-1.18 1.82-.95 1.9-.94 1.9.28m10.4.82c0 .19-.36 0-.8-.41l-.8-.76-.64.7c-.35.38-.72.62-.81.52-.1-.1.19-.57.63-1.04l.82-.87.8.76c.44.41.8.9.8 1.1m-247.04.76c-.07.58-.02.56.32-.12.47-.94 1.46-.87 1.58.1.14 1.05-.47 1.84-1 1.3-.3-.3-.55-.31-.88-.03-.87.72-1.58-.53-1.18-2.07.13-.5 1.22.27 1.16.82m3.25-.45c.33-.8.82-.44.82.6 0 .58-.16 1.05-.35 1.05a.35.35 0 01-.35-.35c0-.59-.63-.38-.8.26-.08.33-.17-.02-.2-.78-.02-1.07.06-1.27.34-.87s.41.42.55.09m15.3.7c-.1 1.11-.94 1.58-1.23.69-.1-.28.05-.36.4-.22.4.15.5.06.34-.35-.12-.3-.36-.56-.54-.56-.18 0-.24-.16-.12-.35.52-.84 1.26-.33 1.15.78m1.73.09c-.03.73-.22 1.21-.49 1.21-.7 0-.87-.57-.3-1.04.69-.57.65-1.07-.07-.8-.38.16-.5.1-.32-.18.54-.88 1.23-.41 1.18.81m1.63.03c0 .66-.18 1.01-.52 1.01-.57 0-.87-.96-.55-1.78.33-.86 1.07-.33 1.07.77m1.35-.81c.17.35.25.35.4 0 .35-.74.85-.47.85.45 0 .5.15.8.33.69.18-.12.24-.44.13-.72-.13-.35-.03-.45.32-.32.28.11.52.6.52 1.07 0 .94-1.44.95-2.1.02-.23-.31-.34-.3-.47.02-.33.8-.81.44-.81-.6 0-1.06.47-1.4.83-.61m37.99-.07c0 .2-.2.25-.44.11-.24-.15-.2.01.1.38.5.63.52.62.62-.1.13-.87.3-.93.87-.32.8.85.66 1.6-.28 1.5-.5-.06-.98.04-1.08.21-.28.45-1.18-.38-1.18-1.09 0-.32.1-.7.23-.82.37-.36 1.16-.27 1.16.13m2.92.07c.16.35.24.35.4 0 .35-.74.84-.47.84.45 0 .5.15.8.33.69.18-.12.24-.44.13-.72-.13-.35-.03-.45.32-.32.29.11.52.6.52 1.07 0 .94-1.44.95-2.1.02-.22-.31-.34-.3-.47.02-.33.8-.81.44-.81-.6 0-1.06.47-1.4.84-.61m15.4.7c-.01.61-.1.85-.19.51-.09-.33-.32-.6-.52-.6-.22 0-.2-.2.07-.52.61-.74.7-.67.65.6m1.96-.76c.12.2.03.59-.2.86-.33.4-.32.51.03.51.57 0 .12.46-.55.56-.57.08-.69-.4-.16-.73.19-.12.35-.45.35-.74 0-.28-.16-.42-.35-.3-.2.11-.35.05-.35-.16 0-.47.93-.47 1.22 0m1.32.48c.24-.1.43.2.46.73.04.66-.06.8-.38.52-.23-.2-.53-.25-.66-.13-.12.13-.2-.3-.18-.95.02-.65.1-.92.2-.6.08.32.33.52.56.43m1.8-.15c.25 0 .54-.2.63-.43.1-.24.18.11.18.78 0 .66-.08 1.02-.18.78a.75.75 0 00-.63-.44c-.26 0-.54.2-.64.44-.1.24-.18-.12-.18-.78 0-.67.08-1.02.18-.78.1.24.38.43.64.43m-71.71.35a8.2 8.2 0 014 1.61c.34.3.86.45 1.18.33.43-.16.52-.07.35.36-.12.32.03.85.36 1.21.32.36.48.65.35.65s-.7-.53-1.27-1.17c-1.93-2.2-5.64-3.15-8.65-2.23-1.54.47-3.2 1.62-2.93 2.04.1.17-.05.32-.34.32-1.13 0-3.09 4.69-2.2 5.26.35.23.35.34 0 .57-.89.57 1.07 5.26 2.2 5.26.3 0 .44.14.33.32-.1.18.15.57.57.86.6.42.83.44 1.04.11.22-.33.28-.32.28.03 0 .7-1.01 2.5-1.43 2.5-.22 0-.16-.34.17-.84.6-.91-.66-2.29-1.58-1.73-.26.16-.32.06-.17-.32.12-.3.05-.66-.16-.79-.53-.33-2.02-3.66-2.02-4.53 0-.42-.2-.83-.44-.93-.28-.12-.31-.27-.08-.46.2-.16.55-1.05.8-1.98.24-.94.78-2.18 1.2-2.78.42-.59.72-1.28.66-1.54-.06-.26.05-.37.25-.25s.97-.19 1.73-.69c.76-.5 2.01-1 2.8-1.1.77-.1 1.51-.35 1.64-.56.16-.25.27-.23.37.05.07.23.52.42.98.42m61.36 0a8.2 8.2 0 014 1.61c.34.3.86.45 1.17.34.42-.17.5-.06.34.45-.11.36-.03.77.19.9.6.37 1.7 2.98 1.7 4.03 0 .51.17.98.36 1.04.43.15-.07 1.81-1.34 4.45a7.89 7.89 0 00-.83 2.26c.04.2-.19.38-.52.39-.34.01-.92.14-1.3.28l-.7.25.7-.57c.38-.31.65-.79.6-1.06-.07-.3.08-.42.39-.3 1.01.38 2.34-3.23 2.21-6-.12-2.53-1.54-5.62-2.35-5.11-.2.11-.3 0-.25-.25.11-.55-3.32-2.37-4.47-2.37-.45 0-.81.2-.81.44 0 .29-.11.27-.33-.08-.66-1.05-5.79 1.08-5.35 2.22.11.3-.04.45-.42.42-1.16-.1-3.06 4.44-2.11 5.05.32.21.32.33 0 .54-.93.6.95 5.15 2.09 5.06.78-.07.72.33-.18 1.12-.66.58-.72.59-.53.06.12-.33.05-.7-.15-.82-.54-.33-2.02-3.66-2.03-4.53 0-.42-.2-.84-.44-.96-.34-.16-.34-.24 0-.4.24-.11.44-.54.44-.95 0-.88 1.5-4.2 2.03-4.53.2-.13.27-.49.15-.8-.14-.37-.08-.48.17-.32.22.13 1.01-.17 1.77-.67s2.01-1 2.8-1.1c.78-.1 1.52-.35 1.64-.56.16-.25.28-.23.37.05.08.23.52.42.99.42m32.02-.35c0 .2.45.35 1 .35.56 0 1.9.47 2.98 1.04 1.1.57 2.15.93 2.35.8.24-.14.3-.01.15.35-.13.35.12 1.09.63 1.83.46.69.95 1.81 1.07 2.51.13.7.4 1.49.62 1.76.29.36.28.52-.05.63-.24.08-.43.53-.43 1 0 1.02-.87 3.17-1.6 4-.3.32-.45.76-.32.96.3.5-.27.47-.78-.05-.57-.56-.53-.99.06-.76 1 .38 2.33-3.26 2.2-6-.12-2.53-1.54-5.62-2.36-5.11-.19.11-.3.01-.24-.22.31-1.44-5.2-2.82-8.12-2.03-3 .8-7.08 6.58-5.41 7.66.37.24.37.34 0 .59-.54.34-.29 1.67.7 3.64.37.73.58 1.41.47 1.52-.27.27-1.93-3.41-1.93-4.3 0-.42-.2-.84-.44-.96-.34-.16-.34-.24 0-.4.24-.11.44-.58.44-1.04 0-.98 1.22-3.74 1.91-4.31a.9.9 0 00.26-.94c-.15-.38-.08-.47.22-.29.24.15.69.03 1.02-.28a8.18 8.18 0 014.03-1.6c.48 0 .88-.16.88-.35 0-.19.15-.35.34-.35.2 0 .35.16.35.35m30.48.35c.5 0 1.1.14 1.35.3.27.17-.61.24-2.1.16-2.67-.15-6.47 1.23-6.25 2.26.05.22-.13.4-.4.4-.87 0-2.24 3.42-2.22 5.54.01 2.63 1.5 5.91 2.4 5.35.46-.28.37.34-.1.82-.5.5-1.1.56-.82.1.11-.18-.2-.91-.68-1.63a7.82 7.82 0 01-1.06-2.19c-.1-.49-.4-1.32-.67-1.84-.27-.53-.35-.95-.19-.95.17 0 .41-.51.54-1.13.13-.62.66-1.9 1.19-2.86.52-.95.88-1.95.79-2.22-.1-.27-.01-.38.2-.25.19.12 1.24-.25 2.32-.82a8.97 8.97 0 012.98-1.04c.56 0 1-.19 1-.42 0-.32.1-.32.43 0 .22.23.8.42 1.3.42m28.24.38c-.09.14-.45.17-.82.07-1.3-.34-5.5 1.58-5.06 2.3.1.16-.12.37-.49.46-1.21.32-2.93 4.82-2 5.25.3.15.31.25.03.4-.97.46 1.16 5.6 2.16 5.2.6-.22.63.21.07.77-.47.47-1.02.56-.9.16a6.1 6.1 0 00-.83-1.82c-.5-.86-1.02-2.1-1.16-2.77-.14-.67-.43-1.35-.64-1.5-.28-.21-.27-.34.04-.47.24-.1.44-.51.44-.92 0-.88 1.49-4.2 2.03-4.53.2-.13.26-.49.14-.8-.14-.37-.08-.48.18-.32.22.13 1.01-.17 1.77-.67.75-.5 2.01-1 2.8-1.1.77-.1 1.5-.34 1.62-.52.12-.2.32-.16.49.11.15.25.21.57.13.7m1.12 2.23c-.12 1.82-.38 3.58-.57 3.9-.31.52-.16-4.62.19-6.51.36-1.96.58-.46.38 2.61m35.07-2.6c.5 0 1.14.14 1.4.3.31.2-.32.26-1.66.17-2.88-.2-4.65.33-6.32 1.88-2.09 1.93-3.7 5.64-2.63 6.08.33.13.33.24 0 .47-.9.64 1.2 5.54 2.2 5.16.26-.1.48-.07.48.08 0 .38-.77 1.1-1.17 1.1-.18 0-.24-.1-.13-.2.11-.12-.25-.93-.8-1.8a10.03 10.03 0 01-1.24-2.83c-.13-.68-.4-1.37-.61-1.52-.28-.2-.26-.34.05-.47.24-.1.43-.51.44-.92 0-.88 1.48-4.2 2.02-4.53.2-.13.27-.49.15-.8-.14-.37-.08-.48.18-.32.21.13 1-.17 1.76-.67s2.02-1 2.8-1.1c.78-.1 1.52-.35 1.65-.56.15-.25.27-.23.36.05.08.23.56.42 1.07.42m-195.79.17c-.3.36-.3.52-.04.52.21 0 .39.16.39.35 0 .19-.3.34-.66.34-.48 0-.64-.23-.6-.86.03-.6.25-.87.7-.87.53 0 .57.09.21.52m15.6 0c0 .29.16.52.35.52.19 0 .34-.23.34-.52 0-.29-.15-.52-.34-.52-.2 0-.35.23-.35.52m222.57.2c.32.17.71.13.95-.11.3-.3.4-.27.4.15 0 .3.53.95 1.18 1.45.66.5 1.63 1.8 2.16 2.9a9.17 9.17 0 001.24 2.11c.15.07.18.28.06.47-.12.2-.28 1.05-.34 1.9-.13 1.66-1.3 4.62-1.8 4.62-.19 0 .05-.74.51-1.65 1.09-2.12.99-5.9-.21-7.84-.9-1.46-2.73-3.07-3.28-2.88-.21.07-.57-.11-.78-.4-.82-1.12-7.21-.8-6.52.33.16.25.01.31-.43.17-1.24-.4-4.56 3.87-4.16 5.36.09.35-.01.7-.23.77-.3.1-.29.65.02 2.12.5 2.36 1.7 4.5 2.4 4.23.58-.23.62.2.06.76-.47.47-1.02.56-.9.16a7.03 7.03 0 00-.93-1.96 8.26 8.26 0 01-1.16-3.64c-.09-1.07-.33-2.06-.54-2.2-.28-.18-.27-.25.03-.25.24 0 .76-.79 1.17-1.74.41-.95 1.39-2.3 2.18-3.01a9.25 9.25 0 001.66-1.83c.16-.36.25-.38.26-.08.02.25.18.36.37.24 1.22-.75 5.26-.84 6.63-.15m-74.66.68c1.02.58 2.02.95 2.22.83.2-.12.3 0 .24.25-.06.26.23 1.01.65 1.68.41.67.93 1.95 1.16 2.86.23.9.57 1.65.76 1.65.23 0 .23.14 0 .43-.2.24-.53 1.07-.74 1.86-.2.78-.77 2-1.25 2.7-.48.72-.78 1.44-.67 1.62.28.46-.33.4-.82-.1-.55-.55-.53-.99.04-.77.29.1.82-.47 1.39-1.53 1.61-2.97.69-9.41-1.35-9.41-.27 0-.45-.2-.4-.44.04-.23-.73-.82-1.72-1.3-1-.47-1.81-.98-1.82-1.12-.03-.44.37-.3 2.3.79m35.27-.61c-.2.54 1.78 1.77 2.32 1.44.24-.15.32-.06.22.24-.09.26.27 1.26.8 2.21.52.95 1.05 2.24 1.18 2.86.13.62.37 1.13.54 1.13.16 0 .08.42-.19.95a8.57 8.57 0 00-.67 1.84 7.8 7.8 0 01-1.06 2.2c-.48.7-.79 1.44-.68 1.62.29.46-.32.4-.81-.1-.56-.56-.53-.99.07-.76.84.32 2.26-3.17 2.25-5.55-.02-2.33-1.06-4.97-2.12-5.37-.37-.13-.62-.37-.56-.53.07-.16-.22-.5-.63-.78-.7-.47-.76-.44-.97.65-.32 1.63-1.63 4.45-1.97 4.24-.16-.1.07-.92.52-1.81.45-.9.93-2.25 1.07-3.01.14-.76.33-1.5.42-1.65.26-.43.45-.3.27.18m-116.96.63c0 .4-.95.4-1.19.01-.1-.16-.1-.38.01-.5.28-.26 1.18.11 1.18.5m51.98 1.2c-1.04 2.5-2.2 4.65-2.5 4.65-.4 0-.34-.2.78-2.08.57-.97 1.03-1.82 1.03-1.88 0-.4 1.12-2.67 1.25-2.54.09.09-.16.93-.56 1.86m1.58-.54c.13.2.45.29.72.19.6-.23.63.27.05.75-.32.26-.6.13-1.06-.47-.34-.46-.47-.84-.28-.84.19 0 .45.17.57.37m2.45 3.23a9 9 0 01.83 2.53c0 .41.2.83.43.92.31.13.33.26.05.47-.2.15-.48.84-.6 1.52-.13.68-.69 1.95-1.24 2.83-.56.88-.92 1.68-.8 1.8.1.1.12.2.02.2-.1 0-.47-.32-.82-.71-.54-.6-.55-.68-.07-.49 1.1.42 3.18-4.2 2.34-5.2-.28-.35-.26-.5.07-.61.55-.19-.5-3.77-1.3-4.44-.58-.49-.7-1.19-.12-.84.2.13.75 1.04 1.2 2.02m-125.68 1.4c-2.46 1.44-4.67 2.38-4.04 1.72.35-.37 5.82-3.15 6.3-3.2.19-.02-.83.64-2.25 1.48m2.76.95c0 .51.2 1 .44 1.09.35.12.35.25 0 .61-.24.26-.43.83-.43 1.28 0 .88-1.16 3.37-1.75 3.73-.2.13-.26.56-.13.98.23.74.23.74-.5.09-.84-.75-.98-1.32-.26-1.04 1 .38 2.3-3.2 2.18-6-.05-1.39.03-2.32.18-2.09.14.24.27.84.27 1.35m208.37-.72c.78.4 1.33.8 1.24.89-.1.1-.65-.07-1.23-.37-1.3-.68-1.44-.68-1.44-.03 0 .29-.16.52-.35.52-.19 0-.34-.39-.34-.86 0-1.06.3-1.08 2.12-.15m25 .15c.09.47.03.86-.13.86-.17 0-.3-.32-.3-.72 0-.94-.83-.68-.98.32-.11.75-1.45 1.12-1.45.4 0-.19.23-.34.52-.34.29 0 .52-.31.52-.7 0-1.1 1.6-.94 1.82.18m-215.5 3.65c.12.77.68 2.25 1.24 3.3.55 1.03.88 1.88.71 1.88-.42 0-2.02-3.07-2.3-4.44l-.25-1.15-1.02.98c-1.14 1.1-2.38 3.25-2.38 4.14 0 .32-.1.5-.21.38-.35-.35.13-1.77 1.08-3.16.48-.72.77-1.47.64-1.67-.14-.24-.07-.28.2-.12.48.3 1.84-.78 1.56-1.24-.1-.17-.04-.3.15-.3.18 0 .44.63.57 1.4m64.44 2.44c-1.14 1.2-3.21 2.57-3.47 2.3-.1-.1.34-.49.97-.88.63-.39 1.6-1.18 2.16-1.77.56-.58 1.1-.98 1.19-.88.1.1-.29.65-.84 1.23m144.13 1.53c.49.72.16.5-1.07-.68-.99-.95-1.8-1.87-1.8-2.06 0-.44 1.96 1.43 2.87 2.74m-171.85-.9c.33.75 1.21 1.95 1.95 2.67.75.73 1.35 1.56 1.35 1.84 0 .35-.2.23-.6-.32a8.32 8.32 0 00-1.35-1.47c-.63-.5-2.55-3.47-2.55-3.94 0-.6.7.13 1.2 1.22m8.63-.27c.65-.54 1.4.37 1.1 1.33-.3.9-1.24.92-1.47.02-.1-.38-.33-.6-.51-.49-.19.12-.25.43-.15.7.13.31-.06.48-.55.48-.72 0-.73-.01-.07-.75.47-.53.53-.78.22-.9-.24-.08-.34-.3-.23-.48.13-.2.4-.18.7.07.36.3.6.31.96.02m39.58 2.45c-.68.4-.68.4 0 .66.55.22.56.27.1.29-.33.01-.66.3-.75.63-.08.34-.17.02-.2-.7-.03-1.12.06-1.29.74-1.28.75 0 .76.02.1.4m20.82 0c.17.27.07.33-.32.18-.74-.29-.75.08 0 .62.62.45.37 1.22-.4 1.22a.96.96 0 01-.73-.41c-.17-.27-.07-.34.31-.19.31.12.66.07.77-.11.11-.19-.03-.33-.31-.33-.63 0-1.03-.57-.74-1.05.3-.47 1.12-.43 1.42.06m.91.97c-.2 1.42-.42 1.33-.42-.18 0-.68.13-1.15.29-1.05.16.1.22.65.13 1.23m7.81-1.13c-.7.18-.82.78-.17.82.34.03.34.07 0 .2-.24.1-.44.41-.44.7 0 .28-.15.4-.34.3-.94-.59-.3-2.28.83-2.22.59.03.61.07.12.2m20.54.1c0 .18-.28.24-.6.14-.42-.14-.35.02.21.48.46.37.72.85.59 1.07-.32.51-1.13.5-1.45-.01-.17-.27-.06-.33.32-.19.74.29.75-.07 0-.61-.3-.23-.45-.6-.32-.82.3-.49 1.25-.53 1.25-.07m.94 1.48c-.09.44-.16.16-.16-.6s.06-1.11.15-.78c.09.33.09.95 0 1.38M72.8 164.1c0 .28-.17.61-.38.74-.27.17-.24.33.08.54.35.21.26.3-.3.3-.94 0-.98-.24-.18-1.15.58-.66.58-.69 0-.47-.33.12-.6.06-.6-.12s.3-.34.69-.34c.38 0 .69.23.69.5m1.68.5c.11.82-.52 1.55-1.06 1.22-.15-.1-.27-.65-.27-1.22 0-1.3 1.14-1.29 1.33 0m1.27-.3c.25 0 .54-.2.63-.44.1-.23.18.12.18.78 0 .67-.08 1.02-.18.79a.75.75 0 00-.63-.44c-.26 0-.54.2-.64.44-.1.23-.17-.12-.17-.78 0-.67.07-1.02.17-.78.1.23.38.43.64.43m17.1.43c-.03.82-.08.91-.19.35-.08-.43-.3-.78-.5-.78-.18 0-.24-.16-.12-.35.44-.71.86-.3.82.78m3.86-.7c0 .17.18.2.4.06.27-.17.34-.07.2.28-.11.3-.05.7.14.88.23.23.05.35-.54.35-.68 0-.9-.18-.9-.74 0-.58-.07-.63-.33-.23-.17.28-.24.63-.14.78.1.15-.18.28-.6.28-.72 0-.73-.04-.2-.64.74-.8.74-1.14 0-.86-.37.15-.49.09-.34-.16.28-.45 2.3-.46 2.3 0m37.3.43c.06.37-.06.88-.26 1.12-.4.47-.98.3-.98-.28 0-.2.15-.25.34-.14.2.12.35.06.35-.13s-.16-.44-.35-.56c-.56-.34-.4-.93.23-.8.31.06.62.42.67.79m1.62.6c.16.43.04.56-.46.53-.5-.04-.67-.31-.67-1.04 0-1.06.64-.77 1.13.5m1.52-.75c.28 0 .41-.16.3-.35-.12-.19-.05-.34.15-.34s.37.46.37 1.03c0 .58-.17 1.05-.37 1.05-.2 0-.27-.16-.16-.35.12-.2-.01-.35-.3-.35-.27 0-.58.2-.68.44-.1.23-.17-.12-.17-.78 0-.67.07-1.02.17-.78.1.23.4.43.69.43m17.1-.33c0 .2.14.28.3.18.18-.1.31.17.31.6 0 1.26-1.19 1.13-1.22-.13-.02-.56.12-1.02.3-1.02.17 0 .32.17.32.37m1.87.07c.16.34.25.34.4 0 .35-.74.85-.48.85.45 0 .49.14.8.33.68.18-.1.24-.43.13-.71-.12-.33.02-.5.4-.5.43 0 .55.19.42.69-.1.38-.03.69.16.69.18 0 .25.13.14.3-.24.39-2.03.06-2.36-.44-.18-.26-.37-.22-.6.14-.38.57-.39.57-.55-.78-.12-.97.32-1.3.68-.52m45.27.63c0 .61-.15.97-.35.84-.2-.12-.35-.6-.35-1.06 0-.46.16-.84.35-.84.2 0 .35.47.35 1.05m29.34-.01c0 .57-.1 1.03-.24 1.03-.3 0-.65-1.64-.4-1.9.42-.41.64-.11.64.87m75-.52c.27.33.7.45 1.16.31.7-.2.7-.19.14.4-.56.59-.63.6-1.25.03-.42-.37-.9-.5-1.31-.34-.58.22-.6.18-.18-.34.59-.72.87-.73 1.44-.06m-232.25.52c0 .38.16.69.35.69.2 0 .35-.31.35-.7 0-.38-.16-.69-.35-.69-.19 0-.35.31-.35.7m4.79-.33c-.07.2-.27.38-.45.38s-.39-.17-.46-.38c-.07-.2.14-.37.46-.37.31 0 .52.17.45.37m29.22.67c.19 0 .14.22-.11.48-.56.61-.96.06-.68-.95.17-.62.22-.64.33-.14.07.34.28.61.46.61m32.01-.72c.11.18.02.44-.19.57-.28.17-.25.32.08.54.35.22.28.3-.26.3-.56 0-.74-.2-.74-.86 0-.85.7-1.2 1.11-.55m59.11.55c0 .52-.2.87-.5.87-.67 0-1.12-.8-.56-.98.36-.12.35-.21-.02-.45-.35-.22-.27-.3.3-.3.6 0 .78.19.78.86m1.6-.1c-.04.78-1.25 1.38-1.25.62 0-.21.2-.28.43-.15.35.2.35.16 0-.22-.61-.66-.53-1.02.22-1.02.44 0 .63.24.6.78m20.6-.3c0 .22.15.15.34-.13.3-.46.38-.46.68 0 .28.43.34.43.35.03 0-.27.1-.4.2-.29.45.45-.24 1.7-.71 1.3-.34-.28-.5-.26-.63.07-.1.28-.29.13-.5-.4-.32-.83-.32-.83-.52-.08-.1.41-.43.75-.71.75-.56 0-1.06-.91-.76-1.39.26-.43 2.25-.3 2.25.15m8.77.23c.19.71-.02 1.02-.69 1.02-.25 0-.47-.28-.5-.61-.04-.58-.04-.58-.2 0-.19.74-1.49.81-1.49.08 0-.28.2-.52.43-.52.33 0 .32-.08-.03-.3-.3-.19.03-.3.93-.3 1.04 0 1.43.16 1.55.63m20.6-.26c.27.17.45.1.46-.18.03-.36.07-.37.21 0 .15.36.28.36.72 0 .46-.39.5-.34.27.42-.36 1.16-.51 1.28-.89.68-.22-.35-.32-.37-.33-.08 0 .68-.7.51-.7-.17-.02-.56-.06-.56-.51.04-.53.7-1.57.55-1.57-.23 0-.94 1.21-1.18 2.34-.48m69.47-.16c-.36.24-.33.35.15.53.39.15.73.04.92-.3.16-.29.48-.53.71-.52.26 0 .29.1.07.26-.57.41-.56 1.11 0 .9.29-.11.52-.04.52.15 0 .2-.7.34-1.56.33-1.4-.02-1.56-.1-1.56-.84 0-.54.2-.8.6-.8.47 0 .5.07.15.3m3.75.04c.26-.4.34-.29.34.52 0 .8-.08.92-.34.52-.3-.46-.38-.46-.68 0-.26.4-.34.28-.34-.52s.07-.92.34-.52c.3.46.38.46.68 0m-245.05 1.39c0 .15-.31.2-.7.1-.37-.1-.6-.32-.5-.48.2-.34 1.2-.03 1.2.38m93.93.68c0 .18-.27.25-.6.14-.58-.18-.58-.16 0 .31.9.75.77 1.64-.27 1.64-.47 0-.86-.17-.86-.37 0-.22.3-.28.7-.15.37.12.68.07.68-.11s-.3-.41-.69-.51c-1.02-.27-.88-1.29.17-1.29.48 0 .87.15.87.34m8.15 1.08c0 .55-.1 1-.22 1-.3 0-.57-1.46-.38-2.02.24-.7.6-.09.6 1.02m5.57-.73c.27 0 .5.18.5.4 0 .26.15.25.51-.05.62-.51.63-.43.14.99-.22.63-.62 1.09-.95 1.09-.45 0-.48-.07-.1-.3.36-.24.38-.47.07-1.04-.5-.94-.85-.96-.61-.03.12.46.04.67-.22.58-.51-.17-.72-1.15-.4-1.92.17-.4.3-.45.4-.15.1.24.4.43.66.43m18.87.2c.49 1.28.45 1.36-.7 1.36-1.16 0-1.21-.1-.64-1.37.51-1.12.91-1.12 1.34.01m2.03-.5c.17-.25.38-.33.48-.17.3.5.2 2.2-.13 2.2-.17 0-.3-.3-.3-.69 0-.38-.18-.69-.4-.69-.21 0-.3.3-.2.7.1.38.06.69-.1.69-.33 0-.7-1.8-.45-2.2.1-.17.33-.1.5.17.25.4.34.4.6 0m5.59.11c0 .28.2.44.43.34.27-.1.45.17.49.7.02.49-.1.88-.27.88s-.32-.2-.33-.44c-.02-.34-.06-.34-.2 0-.35.86-.81.41-.81-.78 0-.66.15-1.2.34-1.2.2 0 .35.22.35.5m20.7.7c-.04 1.13-.08 1.17-.67.64-.57-.53-.62-.53-.62 0 0 .32-.16.58-.35.58-.19 0-.34-.55-.34-1.22 0-1.1.08-1.2 1-1.2.93 0 1 .09.97 1.2m3.23 0c0 .67-.16 1.22-.35 1.22-.2 0-.35-.55-.35-1.22 0-.66.16-1.2.35-1.2.19 0 .34.54.34 1.2m34.91 0c-.03 1.13-.07 1.17-.66.64-.58-.53-.62-.53-.62 0 0 .32-.16.58-.35.58-.19 0-.35-.55-.35-1.22 0-1.1.1-1.2 1.01-1.2.92 0 1 .09.97 1.2m3.22 0c0 .67-.15 1.22-.34 1.22-.39 0-.48-1.83-.12-2.2.4-.4.46-.26.46.98m36.05-.83c0 .22-.23.3-.52.19-.28-.11-.52-.05-.52.14 0 .18.24.33.52.33.3 0 .52.3.52.7 0 .5-.23.69-.87.69-.47 0-.86-.17-.86-.37 0-.22.3-.28.7-.15.37.12.69.07.69-.11s-.32-.41-.7-.51c-1.02-.27-.88-1.29.18-1.29.47 0 .86.17.86.38m1.6.31c.3 0 .46.34.43.96-.04.81-.06.84-.2.17-.08-.43-.28-.78-.44-.78-.17 0-.37.35-.45.78-.08.43-.16.16-.17-.6-.01-.77.06-1.2.16-.96s.4.43.66.43m-203.66 2.72c.56.99.94 1.33 1.34 1.18.48-.19.5-.13.08.37-.26.32-.64.59-.84.59-.2 0-.26-.1-.14-.22.11-.11-.25-1.02-.81-2.02s-1.01-2.1-1-2.47c.03-.48.12-.4.31.26.16.51.64 1.55 1.06 2.31m65.85-1.81c0 .6-.2.83-.7.83-.87 0-1.26-.87-.7-1.55.58-.7 1.4-.27 1.4.72m3.87-.04c.08.5-.1.72-.66.8-.43.07-.78-.05-.78-.24 0-.2.27-.27.6-.16.5.17.48.11-.08-.35-.6-.48-.62-.6-.18-.9.6-.39.94-.13 1.1.85m31.22 0c.14.73.04.87-.65.87-.95 0-1.15-1.02-.21-1.08.52-.04.52-.06-.05-.21-.51-.13-.55-.23-.2-.46.64-.39.91-.17 1.11.88m2-.5c0 .16-.23.22-.52.1-.34-.12-.52.02-.52.4 0 .39.18.53.52.4.29-.11.52-.05.52.13 0 .54-1.3.39-1.51-.17-.22-.59.71-1.68 1.19-1.38.17.1.32.34.32.51m23.91.73c0 .42-.24.65-.7.65-.87 0-1.25-.88-.67-1.57.53-.64 1.38-.08 1.38.92m4.85 0c0 .46-.25.65-.87.65-1 0-1.13-.5-.26-1.02.38-.21.43-.35.15-.36-.24 0-.35-.17-.22-.37.32-.52 1.2.28 1.2 1.1m1.33-.7c-.35.22-.36.3-.03.3.24 0 .43.24.43.53 0 .28-.3.52-.67.52-.53 0-.65-.2-.56-.96.14-1.2.1-1.14.74-.89.44.17.46.27.09.5m2.48.52c0 .6-.2.83-.7.83-.86 0-1.26-.87-.7-1.55.58-.7 1.4-.27 1.4.72m29.46.18c0 .41-.24.65-.67.65-.93 0-1.2-.58-.46-1.01.37-.22.44-.36.16-.37-.25 0-.35-.17-.23-.37.32-.52 1.2.28 1.2 1.1m3.12 0c0 .42-.24.65-.7.65-.88 0-1.25-.88-.68-1.57.54-.64 1.38-.08 1.38.92m38.13-.18c0 .59-.2.83-.67.83-.94 0-1.2-.58-.46-1.01.37-.22.43-.36.16-.37-.25 0-.36-.16-.25-.34.36-.59 1.22.03 1.22.89m4.16-.17c0 .17-.27.31-.6.33-.52.02-.51.07.08.32.69.3.69.3-.02.32-.39.02-.9-.16-1.12-.39-.33-.32-.42-.32-.42 0 0 .23-.23.42-.52.42-.29 0-.52.15-.52.34 0 .2-.15.35-.34.35-.2 0-.35-.55-.35-1.21 0-1.06.1-1.22.87-1.22.47 0 .86.2.86.43 0 .26.22.2.58-.17.58-.57 1.5-.28 1.5.48m-240.6-.3c.33.34.5.32.78-.1.28-.4.4-.41.54-.06.14.34.3.35.67.04.55-.46.64.37.17 1.57-.25.63-.28.62-.53-.17l-.26-.85-.28.87c-.24.73-.29.75-.33.17-.04-.65-.07-.66-.5-.09-.95 1.26-2.7.27-1.96-1.1.44-.81 1.06-.92 1.7-.28m73.86.07c.67.8.3 1.75-.68 1.75-.65 0-.9-.21-.98-.83-.17-1.23.91-1.83 1.66-.92m1.96-.19c.57-.47.64.41.14 1.6-.28.65-.3.64-.33-.12-.01-.44-.17-.7-.35-.6-.18.12-.25.44-.14.72.1.28.02.51-.19.51-.2 0-.38-.44-.38-.98 0-1.03.41-1.76.63-1.1.1.27.27.26.62-.03m22.32.55c0 1.08-.68 1.16-.74.09l-.05-.78-.15.78c-.2 1.05-.8.99-.8-.09 0-.7.18-.87.87-.87.7 0 .87.18.87.87m5.9-.48c0 .27.15.26.51-.04.62-.5.74.16.19 1.03-.35.56-.42.52-1-.5-.37-.68-.38-.68-.39.08 0 .43-.17.78-.36.78-.19 0-.34-.4-.34-.87 0-.63.18-.87.69-.87.38 0 .7.18.7.4m2.07.47c0 .48-.15.87-.34.87-.4 0-.48-1.15-.12-1.5.38-.39.46-.28.46.63m53.73 0c0 .64-.19.87-.7.87-.5 0-.69-.23-.69-.87 0-.63.19-.87.7-.87.5 0 .69.24.69.87m77.64 0c0 .29.16.52.35.52.19 0 .34-.23.34-.52 0-.28-.15-.52-.34-.52-.2 0-.35.24-.35.52m-238.76.4c.17.88.98 1 .98.15 0-.43-.22-.72-.55-.72-.32 0-.5.23-.43.58m73.92-.2c-.35.57.45 1.23.93.76.4-.4.15-1.14-.39-1.14-.16 0-.4.17-.53.37m-68.27 2.05c.12.2-.15.37-.59.4-.58.02-.64.07-.2.19.74.19.82.8.12.8-.27 0-.56.27-.65.6-.09.34-.18-.05-.2-.86-.04-1.46.89-2.15 1.52-1.13m.76 1.82c-.08.43-.15.08-.15-.78 0-.85.07-1.2.15-.78.09.43.09 1.14 0 1.56m1.04 0c-.08.43-.15.08-.15-.78 0-.85.07-1.2.15-.78.09.43.09 1.14 0 1.56m59.38-1.82c0 .2-.35.37-.78.4-.59.02-.63.07-.18.19.76.2.8.8.07.8-.3 0-.45.15-.34.32.1.18.04.42-.15.54-.22.14-.36-.32-.36-1.19 0-1.27.09-1.4.87-1.4.48 0 .87.15.87.34m.82 1c.07.6 0 1.18-.17 1.28-.17.1-.3-.47-.3-1.27 0-1.67.28-1.67.47-.02m.8.83c-.07.43-.14.08-.14-.78 0-.85.07-1.2.15-.78.08.43.08 1.14 0 1.56m-59.7-.4c0 .86-.46 1.5-.54.75-.01-.14-.08-.56-.15-.93-.07-.37-.04-.81.06-.98.31-.5.64.09.64 1.16m61.05 0c.02.55-.07 1.01-.22 1.01-.33 0-.7-1.8-.45-2.19.29-.47.61.1.67 1.17m-59.2-.21c.2.99-.54 1.47-1.22.8-.48-.48-.5-.66-.12-1.12.56-.67 1.18-.52 1.34.32m1.79-.5c0 .19-.16.34-.35.34-.19 0-.34.32-.34.7 0 .38-.16.69-.35.69-.39 0-.48-1.49-.12-1.85.36-.35 1.16-.27 1.16.12m59.16.03c.5.49.17 1.7-.46 1.7-.6 0-.97-.84-.7-1.56.25-.61.64-.66 1.16-.14m1.84-.03c0 .19-.15.34-.34.34-.2 0-.35.33-.35.72 0 .39-.15.62-.34.5-.27-.17-.28-.97-.03-1.82.08-.27 1.06-.03 1.06.26m116.75 1.45c.57.58.51 1.5-.14 2.04-1.08.9-2.43-.84-1.52-1.95.51-.61 1.1-.64 1.66-.09m1.6.02c-.2.35-.16.35.22 0 .68-.63.93-.53.84.35-.04.43-.1 1.06-.13 1.4-.02.35-.2.53-.41.4-.2-.12-.29-.44-.19-.7.1-.26.03-.57-.15-.68-.18-.11-.33.1-.33.49 0 .38-.15.79-.35.9-.38.25-.49-1.98-.11-2.36.4-.4.86-.25.6.2m9.91.26c.42.79-.07 2.08-.79 2.07-1.07 0-1.74-1.17-1.23-2.16.42-.81 1.56-.77 2.02.09m-12.82.7c0 .38.23.69.52.69.29 0 .52-.31.52-.7 0-.38-.23-.69-.52-.69-.3 0-.52.3-.52.7m11.26-.35c-.29.47.1 1.04.72 1.04.27 0 .5-.31.5-.7 0-.71-.84-.95-1.22-.34m3.86.17c.11.29.08.8-.06 1.13-.22.5-.31.41-.5-.44-.24-1-.32-.95-.82.52-.1.29-.18.02-.2-.6-.03-1.22 1.17-1.68 1.58-.61m-192.6 1.9c0 .2-1 .35-2.32.35-2.12 0-2.4.09-3.09.96-.42.52-.88.83-1.03.69-.14-.15.19-.73.73-1.3 1.02-1.07 5.72-1.63 5.72-.7m28 1.35c-.05.81-.2.96-.91.88-1.36-.15-1.8-1.13-.9-2.02.81-.82 1.92-.12 1.82 1.14m32.11-.6c1.16 1.37.84 1.76-.44.53-.84-.8-1.26-.93-3.11-.93-1.2 0-2.15-.15-2.15-.34 0-.99 4.77-.37 5.7.73m-33.77-.22c-.54.65.11 1.63.88 1.33.63-.23.64-.95.02-1.46-.36-.3-.57-.27-.9.13m146.53 2.45c1.43 1 .65 2.9-1.2 2.92-1.72.02-2.09-2.63-.45-3.22.8-.28.83-.27 1.65.3m17.41 2.06c0 1.5-.14 2.6-.34 2.6s-.35-1.1-.35-2.6.15-2.6.35-2.6c.2 0 .34 1.1.34 2.6m8.6-2.06c.82.59.97 1.41.38 2.24-.28.4-.32.3-.16-.42.15-.71.04-1.03-.47-1.3-.84-.45-1.07-.46-1.07-.02 0 .2.18.31.4.26.2-.04.42.27.45.7.04.42-.06.78-.23.78s-.2.16-.08.37c.15.24-.06.33-.55.26-1.03-.15-1.53-1-1.25-2.12.19-.76.5-1 1.62-1.25.1-.02.53.2.95.5m-26.88.64c.24.27.56.41.7.32.4-.24-.05-.8-.64-.8-.42 0-.43.08-.06.48m-1 .72c.36.26.54.65.42.85-.15.24.06.33.55.25 1-.15 1.28-.92.33-.92-.4 0-.73-.15-.73-.34 0-.2-.27-.35-.6-.34-.56.01-.56.05.03.5m25.88.53c0 .19.23.35.52.35.28 0 .52-.16.52-.35 0-.2-.24-.35-.52-.35-.29 0-.52.16-.52.35m-45.37 1.77c.84.2 2.11.73 2.83 1.2.73.48 1.48.77 1.67.65.2-.12.31-.01.25.24-.06.26.23 1.02.64 1.69.41.66.93 1.91 1.16 2.77.23.86.6 1.67.81 1.81.3.19.29.26-.02.26-.23 0-.52.6-.65 1.3a9.1 9.1 0 01-1.78 3.97c-.28.32-.4.75-.28.95.3.5-.27.47-.79-.04-.56-.57-.52-1 .07-.77.85.33 2.26-3.16 2.25-5.56-.01-2.84-1.5-6.11-2.49-5.5-.2.12-.24.05-.11-.17.9-1.44-5.47-3.07-8.32-2.13-1.35.45-2.98 1.66-2.74 2.05.1.16-.12.36-.49.46-1.15.3-3.05 5.1-2.02 5.1.29 0 .3.1.03.38-.5.5.05 2.97.94 4.2.74 1.03.83 1.31.4 1.31-.47 0-1.72-2.5-2-3.98-.13-.76-.42-1.5-.63-1.64-.26-.18-.25-.26.05-.26.24 0 .44-.36.44-.79 0-.9 1.48-4.22 2.03-4.56.2-.13.26-.48.14-.8-.13-.35-.07-.47.17-.32.21.13.96-.16 1.67-.64.72-.49 1.91-.98 2.66-1.1a3.93 3.93 0 001.76-.65c.25-.26.49-.3.61-.1.12.19.9.49 1.74.67m77.7.77c.91.39 1.83.91 2.04 1.16.59.72.06.54-1.49-.48-2.72-1.8-10.64-.88-9.86 1.15.22.6-.2.63-.77.07-.49-.5-.56-1.1-.1-.82.19.11.9-.18 1.6-.66.7-.47 1.84-.97 2.54-1.09a8.2 8.2 0 001.74-.48c.52-.28 1.72.04 4.3 1.15m-192.8 1.6c-.78.75-1.72 2.04-2.1 2.86-.37.82-.68 1.29-.68 1.04-.01-.57.95-2.48 1.65-3.28.29-.33.39-.6.22-.6-.26 0 1.86-1.3 2.22-1.37.06 0-.52.6-1.3 1.35m-29.67.97c.34.9 1.17 2.23 1.85 2.94.68.71 1.14 1.4 1.02 1.51-.32.32-2.43-2.16-3.08-3.62l-.57-1.26-.9 1.9c-.98 2.06-1.17 3.47-.48 3.48.32 0 .33.07.04.26-.22.14-.47.64-.56 1.12-.16.85-.16.85-.21-.09-.03-.52-.24-.95-.48-.96-.28 0-.3-.1-.08-.26.2-.14.55-1.02.79-1.95.24-.93.74-2.13 1.12-2.65.37-.53.68-1.2.68-1.51 0-.92.22-.64.86 1.1m40.53 1.2c-1.9 2.04-3.4 3.38-3.79 3.38-.14 0 .98-1.22 2.48-2.71 3.05-3.04 3.93-3.49 1.3-.67m135.05-1.47c.42.27.34.34-.35.37l-.86.03.78.37c1.34.65.8 1.94-.61 1.48-.96-.3-.88-.96.09-.69.77.22.77.21-.05-.45-1.23-.99-.34-1.98 1-1.1m36.1.92c-.93 1.3-1.65 4.03-1.11 4.2.27.1.28.27.04.56-.8.98 1.26 5.55 2.34 5.15.51-.18.5-.11-.07.54l-.65.74-1.17-2.31a11.5 11.5 0 01-1.16-3.1c0-.42-.18-.88-.39-1.01-.2-.13-.25-.34-.08-.45.17-.12.5-.99.74-1.92.43-1.65 1.71-3.88 2.05-3.55.09.1-.15.6-.54 1.15m15.55 3.07c0 .45.15.91.34 1.03.21.13.23.45.05.8-.16.32-.4 1.13-.52 1.8-.13.66-.63 1.8-1.1 2.52-.49.72-.79 1.46-.67 1.65.11.18.05.33-.14.33-.73 0-.78-.77-.1-1.5 2.04-2.16 2.38-9.59.45-9.59-.18 0-.25-.31-.14-.7.22-.87 1.83 2.35 1.83 3.66m-133.93-2.96c0 .57-.1 1.04-.22 1.04-.13 0-.23-.47-.23-1.04 0-.57.1-1.04.23-1.04.12 0 .22.47.22 1.04m8 .6c-.1.34-.16.07-.16-.6 0-.66.07-.94.16-.6.08.33.08.88 0 1.2m7.97 0c-.09.34-.16.07-.16-.6 0-.66.07-.94.16-.6.09.33.09.88 0 1.2m68.03-.69c0-.33.17-.6.36-.6.45 0 .44.03-.18 1.52-.68 1.63-1.04 1.59-1.08-.14-.03-1.23.02-1.32.43-.78.44.58.46.58.47 0m2.53.27c.09.48.03.96-.14 1.06-.16.1-.3-.13-.3-.52 0-.97-.6-.91-.8.06-.1.57-.16.47-.19-.34-.06-1.44 1.16-1.66 1.43-.26m1.82-.53c.11.2-.03.35-.33.35-.3 0-.54.16-.54.35 0 .19.26.34.59.34.43 0 .49.1.2.4-.5.48-1.14.1-1.14-.7 0-1 .77-1.46 1.22-.74m-83.37.35c.19-.28.34-.36.34-.17 0 .19-.15.58-.34.86-.36.55-1.03-.01-1.03-.86 0-.2.16-.11.35.17.3.46.38.46.68 0m7.63-.01c0-.25.1-.36.2-.25.12.12.06.48-.13.81-.3.55-.38.52-.78-.23-.4-.76-.4-.8.13-.36.46.37.58.38.58.03m119.24.7c0 .48-2.43 3.13-2.86 3.13-.2 0 .32-.77 1.16-1.7 1.72-1.91 1.7-1.9 1.7-1.43m-198.23 4.51c-.16.76-.2.78-.32.18-.08-.39-.32-.81-.54-.95-.28-.19-.27-.26.04-.26.24 0 .45-.36.47-.79.03-.74.05-.73.28.09.13.47.16 1.25.07 1.73m1.7 4.18c.85.9.9 1.05.4 1.45-.41.33-.48.34-.28 0 .15-.24-.1-.9-.6-1.55a6.32 6.32 0 01-1.05-2.17c-.19-1-.18-.99.2.1.22.64.82 1.61 1.34 2.17m-29.4.24c.6.63.66.88.31 1.22-.34.34-.38.3-.2-.18.13-.33.09-.6-.09-.6-.4 0-1.84-2.52-1.82-3.17 0-.26.25.07.54.73.29.67.86 1.57 1.26 2m94.55-1.5c0 .66-.16 1.3-.35 1.41-.2.13-.34-.34-.34-1.19 0-.77.15-1.4.34-1.4.2 0 .35.53.35 1.19m7.71-.1c-.13.49.02.9.45 1.2.6.46.6.48-.12.48-.66 0-.76-.2-.76-1.41 0-.77.14-1.32.31-1.21.17.1.23.53.12.94m6.4 1.07c-.09.43-.15.08-.15-.78s.06-1.2.15-.78c.08.43.08 1.13 0 1.56m72.98-1.49c.1-.5.18-.2.2.71l.04 1.56-.65-.85-.65-.85-.16.85c-.1.5-.18.2-.2-.7l-.04-1.57.65.85.65.85.16-.85m-81.02 1.05c.05.58-.05 1.05-.22 1.05-.17 0-.32-.43-.34-.96l-.03-.95-.25.87c-.38 1.39-1.43 1.34-1.38-.06l.04-1.16.27 1.04c.26 1.04.26 1.04.3.12.03-.58.27-.98.65-1.07.8-.18.87-.1.96 1.12m-4.4-.08c.06.43-.06.78-.26.78s-.39-.35-.41-.78c-.04-.63-.1-.58-.3.26l-.27 1.04-.04-1.15c-.05-1.36 1.09-1.49 1.28-.15m1.73-.14c.12.59-1.07 2.1-1.39 1.78-.08-.08-.08-.7 0-1.39.16-1.34 1.16-1.62 1.4-.39m7.56-.37c.23.14.49.06.58-.18.12-.3.18-.27.18.08 0 1.17-.57 2-.82 1.17-.16-.52-.43-.69-.89-.57-.72.2-.87.63-.3.9.19.1.15.15-.1.1-.24-.05-.49-.51-.55-1.03-.11-.96.77-1.18 1.9-.47m2.47.19c.07.22-.13.4-.46.4-.48 0-.51.1-.16.53.31.37.32.52.03.52-.52 0-.85-.9-.58-1.6.23-.6.95-.5 1.17.15m32.88 1.06a7.58 7.58 0 01-2.56 1.71c-1.81.56-1.84.2-.05-.58a9.18 9.18 0 002.54-1.74c.56-.6 1.1-1 1.19-.9.1.1-.41.77-1.12 1.5m42.79-1.25c.02.35.06.35.2 0 .4-1 1.5-.47 1.46.7l-.04 1.12-.26-1.04c-.21-.8-.28-.87-.31-.28-.04.78-.73 1.51-.73.78 0-.31-.13-.31-.5 0-.62.52-1.24.2-1.24-.63 0-1.03 1.35-1.64 1.42-.65m3.44.09c0 .28-.16.52-.35.52-.2 0-.35.16-.35.36 0 .2.16.28.35.16.19-.12.35-.05.35.15 0 .56-1.04.44-1.26-.15-.29-.74.1-1.56.73-1.56.29 0 .53.23.53.52m-90.13.52c0 .64.1.74.42.41.32-.32.32-.5 0-.83-.32-.32-.42-.23-.42.42m85.77-.32c-.12.2-.06.55.16.76.28.29.38.19.38-.37 0-.84-.18-.97-.54-.39m-29.77 2.43c.2.08.1.4-.26.75-.51.5-.62.51-.62.08 0-.28-.16-.52-.36-.52-.21 0-.17-.2.08-.48.25-.26.53-.36.62-.22.1.14.34.32.54.4m-17.6.2c-.34.08-.89.08-1.22 0-.33-.1-.06-.16.6-.16.67 0 .95.07.61.16m-135.44 3.43c0 .3-.3.63-.67.73-.38.1-.75.43-.83.75-.08.3-.17-.02-.2-.73-.03-1.17.06-1.3.83-1.3.57 0 .87.2.87.55m5.32.38c.23-.09.42.22.45.72.04.64-.03.75-.26.4-.26-.42-.36-.42-.65.03-.25.38-.33.15-.3-.87.01-.76.1-1.1.2-.76.08.35.33.57.56.48m3-.62c-.84.23-.84.26-.17.65.63.36.63.4.06.41-.34 0-.53.17-.41.36.12.2.08.35-.1.35-.17 0-.3-.47-.3-1.04 0-.9.12-1.04.9-1l.89.03-.87.24m21.07.32c.08.25-.17.54-.56.64-.4.1-.78.44-.87.75-.08.32-.17-.02-.19-.75-.04-1.35 1.22-1.85 1.62-.64m5.35.18c.22-.13.28-.07.14.15-.12.2-.07.47.12.6.2.11.36.38.36.58 0 .24-.17.23-.49-.04-.37-.3-.53-.3-.67.05-.1.25-.17-.18-.16-.94 0-.76.08-1.11.17-.78.09.34.33.51.53.38m4.08-.53c0 .16-.35.28-.78.26-.99-.03-1.1 1.3-.12 1.48.48.1.6-.02.44-.43-.11-.3-.05-.55.15-.55s.31.27.25.6c-.15.77-1.3.8-1.78.05-.52-.84-.03-1.7.97-1.7.48 0 .87.14.87.3m55.95.27c.17.44.31.47.71.14.67-.56 1.23-.16 1.23.88a.83.83 0 01-1.61.31c-.18-.46-.26-.46-.62.04-.69.94-1.74.48-1.87-.81-.12-1.27 1.7-1.75 2.16-.56m4.92.85c.03.56-.06 1.01-.2 1.01-.34 0-.63-1.42-.43-2.02.23-.69.58-.12.63 1m6.2.01c0 .56-.1 1.01-.22 1.01-.29 0-.63-1.82-.4-2.18.3-.5.62.12.62 1.17m32.77-.52c.49 1.29.43 1.7-.18 1.19-.42-.35-.63-.35-1.04 0-.64.52-.69.04-.12-1.2.5-1.12.91-1.12 1.34 0m10.95.53c.03.56-.09 1.01-.26 1.01-.16 0-.3-.57-.3-1.27 0-1.47.48-1.25.56.26m27.34-.2c0 .88-.15 1.06-.95 1.15-.89.1-.96.02-.96-1.15s.07-1.25.96-1.15c.8.1.95.27.95 1.15m5.2.2c0 .56-.1 1.01-.22 1.01-.3 0-.63-1.82-.4-2.18.3-.5.62.12.62 1.17m6.24 0c0 .56-.1 1.01-.22 1.01-.3 0-.63-1.82-.4-2.18.3-.5.62.12.62 1.17m26.13-.32c.5 1.41.49 1.5-.13.99-.42-.35-.63-.35-1.04 0-.62.5-.68.1-.19-1.2.45-1.18.9-1.12 1.37.2m10.99.33c.03.56-.07 1.01-.22 1.01-.32 0-.62-1.42-.42-2.02.23-.69.58-.12.64 1M92.9 200c0 .2.23.35.51.35.29 0 .52-.16.52-.35 0-.2-.23-.35-.52-.35-.28 0-.52.16-.52.35m29.47 0c0 .2.23.35.52.35.28 0 .52-.16.52-.35 0-.2-.24-.35-.52-.35-.29 0-.52.16-.52.35m65.16.52c0 .58.16.87.44.78.23-.08.43-.43.43-.78 0-.35-.2-.7-.43-.78-.28-.1-.44.2-.44.78m5.03-.52c.11.2 0 .35-.24.36-.28 0-.22.15.16.36.73.43.47 1.01-.44 1.01-.56 0-.78-1.13-.39-1.99.1-.23.72-.05.9.26m4.62.8c.06.52-.05.93-.26.93-.2 0-.37-.32-.37-.71 0-.4-.15-.62-.35-.5-.2.12-.27.36-.17.52.1.16.03.4-.16.52-.2.12-.36-.15-.36-.64 0-1.52 1.5-1.61 1.67-.11m1.74 0c.08.74-.04.92-.61.92-.76 0-1.03-1.02-.28-1.06.34-.03.34-.07 0-.2-.54-.22-.18-.9.38-.72.22.07.45.55.5 1.06m4.23-.64c.52.63.22 1.56-.52 1.56-.64 0-1.03-.82-.74-1.56.25-.66.71-.66 1.26 0m2.36.64c.06.5-.05.92-.26.92-.2 0-.37-.32-.37-.71 0-.4-.16-.62-.35-.5-.2.12-.27.36-.17.52.1.16.03.4-.17.52s-.35-.15-.35-.64c0-1.52 1.5-1.61 1.67-.11m30.8.08c.03.71 0 .78-.11.24-.21-.98-.81-1.03-.81-.07 0 .42-.16.62-.38.48-.2-.12-.28-.44-.18-.7.1-.28.04-.5-.15-.5-.18 0-.34.32-.34.7 0 .38-.15.7-.34.7-.63 0-.39-1.68.26-1.81 1.47-.31 2-.06 2.05.96m2.17-.6c.23.44.21.77-.06 1.04-.95.95-2.16-.13-1.3-1.16.57-.68.94-.65 1.36.12m4.34.98c-.25.58-.29.56-.41-.14-.08-.43-.28-.78-.44-.78-.16 0-.37.35-.45.78-.13.69-.15.67-.2-.15-.05-1.06.6-1.45 1.3-.8.32.3.39.68.2 1.1m27.23-.76c0 .58.16.87.43.78.24-.08.43-.43.43-.78 0-.35-.2-.7-.43-.78-.27-.1-.43.2-.43.78m3.27.63c-.13.32-.45.58-.72.58-.7 0-.98-.95-.45-1.58.57-.69 1.5.11 1.17 1m1.75-1.15c.12.2.01.36-.24.37-.35.03-.35.07-.02.2.69.28.5 1.16-.24 1.16-.57 0-.8-1.11-.4-1.99.1-.23.71-.05.9.26m4.68 1.08c0 .36-.15.65-.34.65-.2 0-.35-.3-.35-.69 0-.95-.61-.88-.8.09-.13.69-.15.67-.2-.15-.02-.5.16-1 .4-1.08.6-.22 1.3.41 1.3 1.18m1.66-.27c.09.74-.03.92-.6.92-.77 0-1.04-1.02-.29-1.06.35-.03.35-.07 0-.2-.54-.22-.18-.9.38-.72.22.07.45.55.51 1.06m4.22-.64c.57.68.2 1.56-.65 1.56-.8 0-1.1-.64-.67-1.47.38-.74.76-.77 1.32-.1m2.43.74c0 .46-.15.83-.35.83-.19 0-.34-.3-.34-.69 0-.95-.61-.88-.8.09-.13.69-.15.67-.2-.15-.04-.93.46-1.36 1.26-1.06.24.08.43.53.43.98m24.2-.06c.08.66 0 .89-.28.72-.22-.13-.31-.46-.2-.73.1-.27.03-.48-.16-.48-.18 0-.34.3-.34.69 0 .96-.68.88-.74-.09l-.04-.78-.15.78c-.2 1.05-.8 1-.8-.06 0-1.5 2.54-1.55 2.72-.05m1.96-.12c0 .52-.23.88-.6.95-.79.15-1.17-.83-.6-1.51.6-.73 1.2-.45 1.2.56m4.29.25c-.04.82-.07.84-.2.16-.08-.43-.29-.78-.45-.78-.16 0-.37.35-.45.78-.13.69-.15.67-.2-.15-.04-.87.5-1.41 1.08-1.09.15.09.24.57.22 1.08m-222.75.42c.2 0 .28.1.16.22-.41.4-1.25-.6-1-1.2.19-.48.25-.45.34.2.07.43.29.78.5.78m9.73-.73c-.12.45.04.72.47.83.54.14.55.17.05.2-.71.05-1.1-.5-.84-1.19.28-.73.52-.61.32.16m2.15.17c0 .46-.12.76-.26.68-.15-.1-.26-.47-.26-.84s.11-.67.26-.67c.14 0 .26.38.26.83m.76.99c-.08.43-.15.16-.16-.6 0-.77.07-1.12.15-.8.09.34.1.97.01 1.4m16.87-.35c.29.19.29.25 0 .26-.63 0-1.26-.96-.95-1.45.2-.34.32-.27.42.24.07.38.31.8.53.95m69.89-.6c0 .47-.16.86-.35.86-.19 0-.35-.39-.35-.86 0-.48.16-.87.35-.87.2 0 .35.39.35.87m6.24 0c0 .47-.16.86-.35.86-.2 0-.35-.39-.35-.86 0-.48.16-.87.35-.87.2 0 .35.39.35.87m38.47.52c.16 0 .37-.35.45-.78.13-.67.16-.65.2.17.03.74-.11.95-.65.95s-.68-.21-.65-.95c.05-.82.07-.84.2-.17.09.43.29.78.45.78m37.78-.72c0 .37-.15.77-.34.89-.2.12-.35-.17-.35-.67s.16-.89.35-.89c.19 0 .34.3.34.67m37.87.11c.14.78.14.78.53-.09l.38-.86.02.95c.03 1.28-1.2 1.35-1.45.09-.09-.48-.04-.87.11-.87s.34.35.41.78m-78.07.09c0 .28.15.52.34.52.2 0 .35-.24.35-.52 0-.29-.16-.52-.35-.52-.19 0-.34.23-.34.52m47.13 0c0 .28.16.52.35.52.2 0 .35-.24.35-.52 0-.29-.16-.52-.35-.52-.19 0-.35.23-.35.52m28.62-.2c-.24.38.3.8.63.48.33-.33.26-.8-.1-.8-.19 0-.42.14-.53.32"/></g></svg>