<svg xmlns="http://www.w3.org/2000/svg" width="400" height="213.172" version="1.1"><g><path fill="#000" fill-rule="evenodd" stroke="none" d="M231.98 43.57c.33.08.88.08 1.2 0 .34-.1.07-.16-.6-.16-.67 0-.94.07-.6.16m-91.92.24c.08.07 4.51.21 9.85.32 11.06.22 10.16.17 9.7.5-.18.14-.51.57-.72.95-.68 1.23-19.55 1.9-19.55.7 0-.46-3.03-.53-25.18-.53H88.97l-9.04 1.23c-4.98.68-9.32 1.35-9.66 1.48-.34.13 57.88.24 129.38.24 71.49 0 129.99-.09 129.99-.2 0-.16-4.62-.82-8.67-1.23-.86-.08-3.35-.38-5.55-.65-4.58-.56-17.59-.85-39.25-.86-12.9 0-15.17-.08-15.17-.5 0-1.5-.55-1.59-11.46-1.59-5.85 0-10.37.14-10.37.31 0 .17 1.35.33 3 .36 1.66.02 3.1.11 3.19.2.09.1-1.03.17-2.5.17h-2.65v1.05c0 .9-.11 1.02-.78.89-11.83-2.45-56.72-2.77-73.92-.54-5.96.78-5.3.84-5.27-.53.02-.77.2-1.21.5-1.21.27 0 .38-.16.26-.35-.13-.22-4.06-.35-10.65-.35-5.73 0-10.37.06-10.29.14m84.03 1.88c1.34.13-8.12.2-21 .15-12.88-.04-24.7.04-26.25.2-1.56.15-2.71.14-2.56-.01.83-.83 42.09-1.11 49.81-.34m-51.66.79c-.08.12-1.6.22-3.36.22l-3.21-.02 2.77-.21c3.57-.27 3.97-.27 3.8 0m60.76.22c-.33.08-.95.09-1.38 0-.44-.08-.16-.15.6-.16.76 0 1.11.07.78.16m-42.9 4.26v1.39h19.41V49.57h-19.4v1.38m.86-.35c-.1.16.02.36.26.45.24.09.33.27.2.41-.38.4-.98-.14-.98-.9 0-.38.16-.59.35-.47.2.12.27.35.17.51m1.26.35c.19 0 .25-.14.14-.32a.38.38 0 01.12-.52c.17-.1.39.12.49.5.1.38.44.69.76.69s.51-.2.42-.43c-.08-.24-.33-.4-.55-.35-.21.05-.39-.05-.39-.23 0-.17.57-.3 1.27-.3.75 0 1.08.1.83.26-.35.22-.34.31.03.46.3.12.23.2-.22.24l-.7.05.7.3c.48.2.1.27-1.21.23-1.94-.06-2.45-.33-2.38-1.27.02-.37.08-.34.19.09.09.33.31.6.5.6m5.16-.6c0 .31.08.3.3-.04.21-.33.3-.2.3.45 0 .88-.03.9-.67.31-.6-.55-.64-.55-.43-.01.12.33.06.59-.16.59-.42 0-.53-1.13-.16-1.5.38-.38.81-.27.82.2m2.16-.2c-.53.2-.58 1.15-.07 1.15.2 0 .26-.18.12-.4-.14-.23-.1-.3.12-.18.2.13.44.02.54-.23.1-.26.7-.48 1.33-.5.62-.02.97.07.77.2-.2.14-.33.52-.28.85.1.65-.7.84-1.06.26-.14-.23-.43-.23-.86 0-.96.51-1.39.42-1.39-.29 0-.73.3-1.1.84-1.07.2.02.18.1-.06.2m4.31.45c-.13-.44.13-.54 1.34-.52 1.31.03 2.77.54 1.53.54-.32 0-.28.13.14.44.53.39.35.45-1.23.46-1.81 0-2.71-.42-2.71-1.3 0-.24.23-.15.55.24.38.47.5.51.38.13m4.66-.42c-.4.16-.4.23 0 .48.39.25.38.3-.04.31-.47.01-.47.05 0 .35.44.29.43.34-.1.34-.35 0-.6-.25-.6-.63 0-.73.3-1.1.84-1.07.2.02.16.11-.1.22m-4.04.46c-.33.54.12.88.57.44.24-.25.25-.45.01-.6-.2-.11-.45-.04-.58.16m5.82.8c0 .6.07.86.17.57.1-.28.3-.6.44-.69.15-.1.07-.35-.17-.57-.33-.31-.43-.16-.44.7m-21.55 1.16c-.03.34-12.14.44-57.66.48-31.7.03-58.05.09-58.58.13-.52.05-1.1.11-1.3.14-.19.02-.34.32-.34.66s-.31.88-.7 1.2c-.66.57-.69 1.01-.67 9.36.02 4.81-.1 22.32-.24 38.9-.33 37.6-.34 41.25-.13 41.28.1.02.54.22.98.46.6.33 6.37.42 24.6.42 18.18 0 23.86.1 24.06.41.2.32.27.32.27 0 .01-.6 33.66-.6 34.05 0 .2.33.26.33.27 0 0-.56 12.74-.6 13.42-.05.32.27.45.27.45-.01 0-.55 5.96-.53 6.51.03.33.32.42.32.42 0 0-.6 6.12-.58 6.36.01.14.35.18.35.2 0 .02-.31.93-.43 3.32-.43 2.4 0 3.3.12 3.3.43 0 .33.07.34.26.02.39-.6 27.11-.6 27.12 0 0 .32.07.32.27 0 .35-.55 33.61-.6 34.28-.04.32.26.45.26.45 0s7.1-.37 23.75-.38c18.25 0 23.74.1 23.75.42 0 .32.06.32.26 0 .2-.31 3.99-.41 15.27-.41 8.25 0 15.65-.1 16.45-.22l1.46-.22.11-2.14c.06-1.18.14-3.54.17-5.26.04-1.71.2-3.43.36-3.81.2-.5.2-.56-.05-.21-.51.72-.69-3.3-.2-4.7.27-.8.27-1.22 0-1.49-.5-.5-.73-17.14-.23-16.83.2.12.36.05.36-.15s-.16-.37-.35-.37c-.48 0-.44-4.75.04-5.04.27-.17.27-.3.01-.47-.3-.19-.49-2.96-.35-5.23.01-.29.01-1.61 0-2.95-.02-1.33-.03-2.73-.03-3.12 0-.38 0-3.1-.02-6.05-.02-3.5.1-5.41.33-5.5.2-.06.37-.27.37-.45 0-.19-.16-.24-.35-.13-.37.23-.4.04-.4-3.02 0-2.1.19-2.7.87-2.7.23 0 .64-.3.92-.69.27-.38.72-.7.98-.7.37 0 .4.12.1.47-.2.26-.27.58-.13.72.38.38.43 4.4.06 4.17-.34-.2-.04.83.4 1.42.16.2.15.58-.02.85-.17.27-.21.64-.1.82.52.84.45 3.44-.08 3-.66-.56-.68-.21-.02.45.73.72.87 9.85.16 10.36-.38.27-.36.3.12.15.55-.18.6.13.6 3.31 0 1.94.1 3.43.21 3.31.18-.17-.75-44.85-1.02-49.13-.05-.85-.12.65-.16 3.35-.04 3.56-.18 4.96-.5 5.09-.34.14-.34.18 0 .2.57.04.59 2.86.02 3.43-.32.32-.32.41 0 .41.23 0 .42.31.42.7 0 .38-.16.69-.35.69-.19 0-.34.16-.34.37 0 .2.15.27.34.15.2-.12.35.03.35.32 0 .3-.17.54-.37.54-.2 0-.27.16-.15.36.88 1.42.56 3.5-.74 4.69-1.22 1.12-2.15 1.6-1.7.88.1-.18.2-2.01.23-4.08.02-2.06.11-3.56.2-3.32.09.24.33.43.53.43s.13-.27-.16-.6c-.43-.48-.57-1.8-.7-6.29-.14-5.63-.15-5.68-1.04-6.33-.57-.42-.86-.93-.8-1.43l.08-.77-5.49.1c-3.66.07-5.49-.02-5.49-.26 0-.2-.16-.36-.37-.36-.2 0-.28.14-.17.32.12.18-5.28.32-13.34.34-9.66.02-13.47-.09-13.3-.35.16-.27.02-.27-.48 0-.98.52-12.2.45-12.87-.09-.38-.3-.44-.3-.26.01.19.31-4.59.42-20 .44-16.02.03-20.3-.06-20.43-.4-.14-.34-.19-.34-.2-.02-.05.63-47.04.64-47.3 0-.13-.33-.17-.33-.2 0M66.29 54.42c0 .67.08.94.16.6.1-.33.1-.87 0-1.2-.08-.34-.16-.07-.16.6m264.84 7.86c-.13.34-.04.65.2.73.32.1.33.26.02.63-.22.27-.26.48-.1.48.17 0 .51-.32.76-.73.25-.4.3-.63.11-.5-.19.1-.46.03-.59-.19-.13-.21-.02-.52.24-.69.36-.23.37-.3.03-.3-.24 0-.54.25-.67.57m-4.95.46c.72.71 1.13 63.28.43 64.33-.8 1.19-.04 1.18-126.89 1.18-122.66 0-125.13-.01-125.93-.66l-.82-.67-.09-31.52c-.09-31.5-.09-31.52.63-32.44l.73-.91h125.62c125.16 0 125.63 0 126.32.69m-25.19.54c-.29.75.45 1.46.97.94.45-.45.17-1.48-.39-1.48-.2 0-.46.24-.58.54m3.72-.28c.1 1.02.63 1.58.65.7.01-.53-.13-.96-.32-.96-.2 0-.34.11-.33.26m1.6-.03c-.68.67-.24 1.62.45.99.38-.34.6-.76.5-.92-.22-.36-.63-.39-.95-.07m3.37.32c.11.3.22.73.23.95.02.22.16.1.33-.29.43-1.02.4-1.21-.22-1.21-.36 0-.48.19-.34.55m-6.82.49c.1.38.3.7.45.7.15 0 .2-.32.1-.7-.1-.38-.31-.7-.46-.7-.15 0-.2.32-.1.7m5-.06c-.03.59.12.77.56.69.67-.13 1.07-1.32.44-1.32-.21 0-.3.14-.19.32.11.18.05.41-.13.52-.17.11-.4-.07-.48-.4-.12-.46-.17-.4-.2.19m-179.24.92c0 .48.15.87.34.87.2 0 .35-.39.35-.87 0-.47-.16-.86-.35-.86-.19 0-.34.39-.34.86m21.49.03c0 .5.15.79.34.67.2-.12.35-.52.35-.89s-.16-.67-.35-.67c-.19 0-.34.4-.34.89m151.84.9c-.03.8.67 1.19 1.05.6.47-.75.37-1.14-.17-.69-.38.31-.53.3-.67-.04-.12-.3-.19-.25-.2.14m3.33.05c-.24.61.28 1.42.73 1.14.38-.24.15-1.6-.28-1.6-.15 0-.35.2-.45.46m1.49.4c0 .59.16.87.43.78.24-.08.44-.43.44-.78 0-.35-.2-.7-.44-.78-.27-.09-.43.2-.43.78m1.52-.38c-.12.33-.05.77.16.98.27.28.44.22.6-.22.13-.33.07-.77-.14-.98-.28-.28-.45-.22-.62.22m1.4-.01c-.26.68.09 1.26.76 1.26.34 0 .49-.27.42-.76-.14-.9-.9-1.24-1.19-.5m5.87.76c-.44 1.16.14 1.54 2.21 1.45 1.89-.08 2-.14 2-.95 0-1.05-3.82-1.5-4.2-.5m-236.3.58c-.27.43-.6 1.4-.72 2.17-.13.76-.3 1.64-.4 1.96-.15.53.66 1.68 1.2 1.68.13 0 .53-.55.89-1.21.69-1.28 2.28-1.76 2.28-.7 0 .29.21.52.47.52.37 0 .47-.51.44-2.08-.07-2.88-.78-2.79-2.71.35-1.8 2.9-2.19 3.03-1.87.6.39-2.89.82-3.51 2.63-3.75l1.56-.21-1.64-.05c-1.36-.05-1.73.08-2.13.72m12.78-.52c10.48.11 10.03-.04 9.35 3.25-.59 2.81-.34 2.7-6.24 2.83l-5.2.1h5.55l5.55-.02.4-1.22c1.7-5.28 1.82-5.21-9.35-5.12l-9.07.09 9 .1m30.68 0c0 .14 2.73.2 6.07.14l6.06-.12v2.78c0 1.88-.13 2.83-.43 2.97-.24.1-.12.15.26.1.73-.08 1.18-3.47.7-5.34-.2-.8-12.66-1.32-12.66-.54m21.5.28c0 .42.14.45.67.17.37-.2 3-.36 6.06-.36h5.4v2.53c0 1.5-.17 2.7-.42 2.95-.32.32-.28.41.17.41.51 0 .6-.41.6-3.12v-3.11h-6.25c-5.38 0-6.24.07-6.24.53m172.97-.19c0 .22.25.2.64-.05.7-.44 1.78-.2 1.78.4 0 .56-1.07.85-1.37.36-.2-.31-.34-.33-.5-.05-.3.48-1.48.5-1.76.03a.72.72 0 010-.69c.27-.45 1.2-.45 1.2 0m-220.8.87c-.34.42-.32.52.12.52.65 0 1.07-.57.63-.84-.17-.1-.5.04-.74.32m-8.6.62c-.65.77-.67 3.5-.05 3.62.4.09.55-.2.58-1.16.02-.7.2-1.38.42-1.5.41-.26.15-1.4-.32-1.4-.14 0-.43.2-.64.44m56.51 1.9l-.07 2.5 5.64-.07 5.63-.08-5.44-.1-5.45-.11-.12-2.33-.12-2.33-.07 2.51m4.26-1.64c-.28.9-.23.95.87 1.04 2.42.2 3.03.03 2.88-.8-.2-1.06-1.43-1.15-1.83-.14-.3.75-.31.74-.36-.1-.03-.48-.13-.67-.23-.43-.13.33-.3.35-.63.07-.35-.29-.52-.2-.7.36m-66.02.86c0 .54-.2.87-.52.87-.62 0-.65-.17-.17-1.06.49-.9.69-.85.69.2m2.43 0c-.77 2.05-.79 2.31-.13 2.19.36-.07.7-.48.75-.92.07-.43.42-.97.78-1.2.93-.58.84-.88-.24-.82-.56.03-1 .31-1.16.74m6.61-.23c-.2.39-.38.94-.38 1.23 0 .52-.61 1.1-.88.83-.08-.08 0-.65.18-1.27.27-.96.23-1.1-.26-1.01-.67.13-1.39 2.24-.91 2.68.8.76 2.55-.03 2.9-1.3.4-1.44-.06-2.26-.65-1.16m1.86-.12c-.05.2-.26.86-.46 1.48-.51 1.6.47 1.53 1.14-.09.28-.67.68-1.21.88-1.21.2 0 .36-.12.36-.26 0-.4-1.8-.31-1.92.08m4.53-.19c-.13.21.08.37.49.37 1.1 0 .85.58-.35.82-1.67.33-1.34 1.83.37 1.66 1.49-.15 1.38-.02 1.48-1.65.08-1.37-1.35-2.24-1.99-1.2m-2.27.91c-.47 1.22-.42 1.97.1 1.79.23-.09.4-.41.38-.72-.03-.32.07-.57.22-.57s.35-.31.45-.7c.27-1.04-.75-.87-1.15.2m207.9-.35c-1.75.95-2.58 3.94-1.6 5.8 1.73 3.35 6.99 3.63 8.67.48.31-.58.11-.5-.87.37-1.6 1.4-2.68 1.68-4.42 1.16-2.89-.86-3.8-5.7-1.21-6.48.4-.12.98-.44 1.3-.72.78-.7 2.82-.27 4.18.88.93.78 1.02.8.68.17-.92-1.72-4.84-2.69-6.73-1.66m27.86-.07c-.4.47-.2.92.41.92.2 0 .25-.1.12-.23s-.05-.44.16-.7c.23-.28.25-.46.04-.46-.2 0-.52.21-.73.47m-204.9.57c0 .48.24.7.78.72.42.01 1.2.08 1.73.15.96.12 1.32-.32.52-.64-.33-.13-.3-.27.09-.54.4-.3.24-.37-.75-.38-.7 0-1.35.2-1.45.43-.14.35-.18.35-.2 0-.05-.72-.72-.48-.72.26m24.43.34c-.38.14-.88.18-1.12.1-.26-.1-.44.12-.44.53 0 .7 2.04 1.4 2.78.93.97-.6-.1-1.97-1.22-1.56m-2.5.7c.03.38.17.7.32.7s.28-.32.28-.7c0-.38-.15-.7-.33-.7-.18 0-.3.32-.27.7m168.7.27c-2.33.76-2.12 4.59.27 4.58.4 0 .23-.23-.52-.69-.76-.46-1.13-.95-1.13-1.5 0-1.55 2.02-2.55 3.1-1.53.36.35.43.33.3-.06-.17-.59-1.3-1.03-2.01-.8m14.03.77c-.11.2-.01.35.23.35.32 0 .33.1.05.39-.45.44-.2 1.44.29 1.14.17-.1.21-.36.09-.56a.42.42 0 01.13-.58c.23-.14.19-.37-.11-.65-.3-.27-.54-.3-.68-.09m-246.18.95c.9.07 2.39.07 3.3 0 .9-.07.16-.13-1.66-.13-1.8 0-2.55.06-1.64.13m224.52.26c0 .4.25.54.78.46.43-.06.78-.27.78-.46s-.35-.4-.78-.45c-.54-.08-.78.06-.78.45M128.66 74.1c.1.54.69.62 5.4.7 5.1.1 6.36.41 4.98 1.27-.31.19.3 2.97.65 2.97.35 0 .96-2.78.65-2.97-.7-.44-.24-1.15.82-1.29.62-.07-1.8-.16-5.37-.2-5.52-.04-6.5-.13-6.5-.57 0-.28-.17-.52-.37-.52-.2 0-.32.28-.26.61m21.43-.1c0 .4-.72.53-3.56.63l-3.55.12 3.81-.02c3.34-.02 3.82-.1 3.93-.63.06-.33-.06-.6-.26-.6s-.37.22-.37.5m157.79 1.64c.07.23.32.47.55.55.25.08.33-.08.2-.41-.24-.63-.96-.77-.75-.14M76.6 96c0 13.4.12 20.45.35 20.45.23 0 .35-7.04.35-20.45 0-13.4-.12-20.45-.35-20.45-.23 0-.35 7.05-.35 20.45m228.48-16c-.53 1.8-.54 1.8.5 1.8.86 0 .9-.08.67-1.3-.34-1.89-.7-2.04-1.17-.5M82.8 82.84c-.02.2-.03.66-.03 1.04 0 1.11.02 1.12 1.03.18.8-.75.87-.94.43-1.22-.68-.44-1.38-.43-1.43 0m2.83.16c-.67.8-.3 1.75.68 1.75.65 0 .9-.21.98-.83.17-1.23-.9-1.83-1.66-.92m6.22.7c0 1.11.09 1.22.96 1.17.81-.04.84-.06.17-.2-.93-.17-1.02-.67-.17-.9.56-.14.56-.16-.02-.2-.35-.02-.53-.2-.41-.39.12-.19.36-.26.54-.15.18.11.32.03.32-.17s-.31-.36-.7-.36c-.55 0-.69.23-.69 1.2m2.75-1.14c-.29.98-.28 2.36 0 2.36.2 0 .37-.26.37-.57 0-.53.06-.53.66.02.63.56.65.54.6-.56-.05-.95-1.42-2-1.63-1.25m39.2 1.15c0 .67.15 1.21.34 1.21.2 0 .35-.54.35-1.21 0-.67-.16-1.21-.35-1.21-.19 0-.34.54-.34 1.2m1.38 0c0 1.2.69 1.8.7.61.02-.57.04-.57.48 0 .68.9.9.75.9-.62 0-.7-.14-1.15-.33-1.03-.18.11-.25.47-.14.8.13.44 0 .39-.5-.18-.94-1.06-1.1-1-1.1.43m3-.98c-.29.28-.31 2.2-.04 2.2.11 0 .42-.23.69-.5.27-.27.68-.55.9-.62.63-.22.06-1.31-.68-1.31-.35 0-.75.1-.87.23m2.6.86c.16 1.7 1.79 1.73 1.95.03.06-.63-.05-1.12-.26-1.12-.2 0-.37.46-.37 1.04 0 .57-.15 1.03-.34 1.03-.2 0-.35-.38-.35-.84 0-.47-.17-.95-.37-1.08-.24-.15-.33.18-.26.94m2.71-.75c0 .2.15.35.32.35.18 0 .4.43.47.95l.15.95.05-.95c.03-.52.2-.95.4-.95.19 0 .34-.16.34-.35 0-.19-.39-.34-.86-.34-.48 0-.87.15-.87.34m72.8.87c0 1.32.89 1.7 1.7.71.56-.67-.1-1.92-1.03-1.92-.54 0-.68.23-.68 1.2m2.77 0c0 1.11.1 1.22.96 1.18.58-.02.72-.1.34-.2-.33-.08-.6-.29-.6-.45 0-.16.27-.37.6-.46.45-.11.4-.16-.19-.2-.45-.02-.7-.19-.58-.39.12-.19.35-.27.51-.16.17.1.4.02.52-.17.13-.2-.16-.35-.67-.35-.78 0-.89.14-.89 1.2m2.8-.72c-.63.77-.13 2 .76 1.88.4-.06.8-.34.9-.63.14-.45.08-.45-.4-.05-.5.4-.61.4-.79-.07-.33-.86.16-1.38.8-.85.46.38.53.36.38-.07-.24-.72-1.13-.83-1.65-.2m3 .11c-.1.34-.3.92-.45 1.3-.25.62-.21.64.3.22.48-.38.7-.4 1.11-.05.62.52.64.43.14-.98-.42-1.22-.83-1.4-1.1-.49m1.83-.28c0 .18.16.42.35.54.19.12.34.52.34.89s.16.67.35.67c.19 0 .35-.3.35-.67 0-.37.15-.77.34-.89.2-.12.35-.38.35-.58 0-.22-.24-.17-.58.1-.45.38-.6.39-.72.05-.17-.5-.78-.59-.78-.1m30.7.7c.3 1.57.4 1.65 1 .85.47-.61.51-.61.52-.06.03 1.26 1.4-.41 1.4-1.7 0-.47-.7 0-.7.48-.01.58-.04.58-.47 0-.58-.76-.9-.77-.9-.02 0 .52-.07.5-.54-.08-.5-.64-.53-.6-.31.54m3.59-.96c-.2.58-.14 1.72.08 1.86.16.1.3-.3.3-.88 0-.85-.23-1.43-.38-.98m1.41 1.13c0 1.05.11 1.21.85 1.21.99 0 1.51-1.15.87-1.92-.82-.99-1.72-.62-1.72.7m2.7-.79c.23.23.42.78.42 1.22 0 .43.16.8.35.8.19 0 .34-.4.34-.88 0-.47.16-.86.35-.86.2 0 .35-.16.35-.35 0-.19-.5-.34-1.11-.34-.86 0-1.02.09-.7.41m2.51.71c0 .72.15 1.3.34 1.3.19 0 .34-.23.34-.52 0-.28.16-.52.35-.52.2 0 .35.24.35.52 0 .29.15.52.34.52.2 0 .35-.54.35-1.21 0-.67-.16-1.21-.35-1.21-.19 0-.34.23-.34.52 0 .69-.34.65-.9-.1-.42-.53-.47-.45-.48.7m32.23.09c0 1.1.09 1.25.78 1.15.6-.09.78-.34.78-1.15 0-.82-.17-1.06-.78-1.15-.69-.1-.78.04-.78 1.15m5.08-.98c-.71.7-.21 2.2.72 2.15.59-.02.72-.1.35-.2-.33-.08-.6-.3-.6-.48 0-.17.27-.33.6-.34.52-.02.5-.07-.09-.32-.59-.26-.6-.3-.08-.33.33-.01.6-.18.6-.37 0-.39-1.14-.47-1.5-.11m2.59.98c.02.76.1 1.1.2.75.15-.6.2-.6.82-.03.65.58.66.56.62-.75-.03-.94-.1-1.1-.2-.5l-.17.84-.65-.85-.65-.85.03 1.39m2.73-.02c0 .97.13 1.23.65 1.23 1.67 0 1.76-2.11.09-2.36-.64-.1-.75.06-.75 1.13M87 83.7c0 .67-.68 1.02-1.12.57-.27-.26-.25-.52.07-.9.48-.59 1.05-.41 1.05.33m1.33 0c.24.89.81 1.2 1.03.55.07-.21-.04-.38-.25-.38-.2 0-.38-.23-.38-.52 0-.28-.14-.52-.31-.52-.18 0-.22.39-.09.86m1.3-.16c.36 1.39.73 1.5 1.12.37.23-.64.24-1.07.05-1.07-.18 0-.33.27-.33.59 0 .51-.07.5-.54-.09-.52-.65-.53-.64-.3.2m127.93.5c-.11.3-.37.53-.56.53-.4 0-.5-1.13-.13-1.5.38-.38.92.37.7.96m84.75-.23c.08.73.3.96.97 1.01.5.04.61 0 .26-.1-.36-.11-.6-.52-.6-1.03 0-.46-.17-.84-.37-.84-.2 0-.32.43-.26.95m-38.6 0c-.15.74-.76.69-.92-.06-.07-.32.13-.54.46-.54.36 0 .53.23.45.6m47.84-.02c-.17.87-.98.99-.98.14 0-.42.23-.72.55-.72.32 0 .5.23.43.58m-140.3 2.7c-.67.8-.3 1.73.73 1.85.69.08.98-.08 1.16-.62.42-1.34-1.02-2.28-1.9-1.23m5.54.7c0 1.1.08 1.21.95 1.17.82-.04.84-.07.17-.2-.92-.17-1.05-.78-.17-.82.52-.02.5-.06-.09-.32-.59-.25-.6-.3-.08-.32.84-.04.76-.72-.09-.72-.56 0-.7.23-.7 1.22m2.66-.99c-.36.37-.27 2.2.12 2.2.19 0 .35-.28.36-.6 0-.59.03-.59.47 0 .62.81.73.76.74-.36.02-1.21-.98-1.94-1.69-1.24m5.33.28c-.66.8-.3 1.75.68 1.75.55 0 .9-.23.98-.63.12-.62-.48-1.63-.98-1.63-.14 0-.45.23-.68.5m5.43-.28c-.13.13-.24.69-.24 1.23 0 1.13 1.57 1.46 1.97.41.4-1.02-1.02-2.35-1.73-1.64m-16.01 1.17c.3.57.6 1.04.69 1.04.09 0 .4-.47.7-1.04.34-.68.4-1.04.14-1.04-.21 0-.47.34-.58.75l-.2.76-.28-.76c-.15-.41-.44-.75-.64-.75-.22 0-.16.41.17 1.04m7.8 0c0 .91.11 1.03.95 1 .58-.03.72-.1.35-.2s-.61-.5-.61-1c0-.46-.16-.84-.35-.84-.19 0-.34.47-.34 1.04m5.58-.13c-.44.97-.2 1.65.3.83.25-.4.4-.4.85-.03.63.53.67.4.2-.82-.42-1.14-.82-1.13-1.35.02m120.6-.24c-.28.5-.85.66-2.87.77-5.77.3-9.87 4.25-10.24 9.87-.6 9.12 9.6 14.9 17 9.62.9-.64 1.79-1.17 1.96-1.17.47 0 1.81-1.98 1.71-2.5-.05-.25.19-1.35.52-2.46 1.3-4.35-1.19-9.92-5.4-12.06-.96-.5-1.3-.9-1.3-1.5 0-1.05-.92-1.43-1.38-.57m-135.54.37c0 .38-.23.7-.52.7-.3 0-.52-.32-.52-.7 0-.39.23-.7.52-.7.29 0 .52.31.52.7m13.36-.32c.36.58-.45 1.24-.92.76-.4-.4-.15-1.14.38-1.14.17 0 .41.17.54.38m5.35.32c0 .38-.15.7-.34.7-.2 0-.35-.32-.35-.7 0-.38.16-.7.35-.7.19 0 .34.32.34.7m117.7 1.3c-.28 1.84-.7 2.5-1.24 1.94-.25-.24-.15-.86.33-1.97.89-2.07 1.2-2.06.9.03M89.15 88.1c-.62.63-.5 1.6.25 2 1.3.7 2.44-.45 1.75-1.75-.4-.75-1.38-.87-2-.25m46.53.3c-2.34.9-4.47 2.77-5.76 5.07-.7 1.22-1.26 1.84-1.63 1.78-.93-.16-1.53.38-1.05.96.22.27.6.49.83.49.29 0 .5.8.6 2.34.84 11.42 15.81 14.03 20.67 3.6.8-1.74 1.5-8.2.8-7.5-.1.1-.45-.46-.8-1.23-2.17-4.86-8.61-7.46-13.66-5.51m82.77.34c-9.87 4.93-6.96 19.59 4.03 20.34 7.96.55 14.17-8.54 10.4-15.23-.78-1.38-.85-1.7-.44-2.03 1.05-.87.32-2.01-.88-1.37-.57.3-.96.16-2.27-.84a10.39 10.39 0 00-10.84-.87m41.28-.03c-10.27 5.2-6.75 20.48 4.71 20.46 2.76 0 5.53-.93 6.59-2.21.84-1.01 1.69-1.31 2.5-.88 1.14.61 1.69-.18.76-1.1l-.73-.74.74-1.6c3.99-8.7-6.01-18.26-14.57-13.93m-28.46 3.57c-1.2 1.19-1.54 1.37-1.8.96-.24-.38.04-.74 1.14-1.47 2.1-1.39 2.36-1.19.66.5M87.53 93.65c-4.5 3.55-1.16 11.35 3.77 8.78 1.1-.58 1.35-.55.95.1-.15.24-.96.65-1.8.92-1.18.36-1.34.49-.66.51 2.66.1 5.51-2.85 5.52-5.72.02-3.85-4.97-6.8-7.78-4.59m3.8-.13c.74.54.46.99-.52.84-1.48-.21-2.14-1.11-.82-1.1.55 0 1.15.12 1.34.26m88.27.04c-.33.2-.4.63-.23 1.38.2.88.06 1.3-.7 2.2-1.18 1.4-1 3.14.46 4.45.54.5.93 1.05.86 1.25-.26.78.98 1.35 1.47.68.38-.52.59-.55 1.22-.2.61.32.83.3 1.06-.07.17-.26.15-.52-.03-.58-.18-.06-.15-.4.09-.76.37-.6.45-.62 1.02-.1.56.5.62.5.62.01 0-.86-1.42-1.15-1.96-.4-.25.34-.55.52-.67.4-.13-.12.03-.47.34-.78.3-.3.56-.7.56-.85 0-.33-.9-.26-1.26.1-.45.45-1.98.24-2.66-.37-.66-.58-.67-.58-.44.26.19.66.16.75-.12.35a2.43 2.43 0 01.33-2.95c.78-.71 3.24-.39 3.33.44.02.23.06.72.08 1.07.03.34.29.63.59.63.66 0 .39-1.46-.45-2.4-.3-.34-.38-.6-.17-.6.62 0 1.46 1.46 1.49 2.59.01.57.1.85.2.61.1-.23.47-.43.84-.43s.66-.16.66-.35c0-.19-.21-.34-.47-.34-.66 0-.95-1.65-.33-1.89.27-.1.54.01.61.25.47 1.56.65 1.83.8 1.19.4-1.7-2.42-5.02-2.95-3.45-.08.24.15.43.53.43a2 2 0 011.24.64c.86.95-.4.78-1.67-.22a3.88 3.88 0 00-1.3-.77c-.18 0-.26-.2-.18-.43.08-.24.49-.38.9-.32 1.04.15.94-.57-.13-.84-.87-.22-2.04.39-1.72.9.09.15-.12.34-.47.43-.38.1-.63-.02-.63-.3 0-.26.2-.48.46-.48.25 0 .46-.15.46-.34 0-.42-1.04-.45-1.68-.04m-1.64 1.13c-.66.74-.66.74.12.33.42-.22.78-.56.78-.74 0-.5-.17-.42-.9.4m-89.23.3c0 .2-.13.35-.3.35-.16 0-.22.4-.12.9.15.77.06.88-.62.78-1.1-.17-1.65-1.11-1.06-1.82.5-.6 2.1-.76 2.1-.2m.77 1.45c-.33.32-.42.23-.42-.42 0-.64.1-.74.42-.41.32.32.32.5 0 .83m88.34-.62c-.26.31-.28.56-.06.7.2.12.52-.1.72-.49.43-.8-.04-.95-.66-.21m-47.4.54c.17.15.14.37-.04.49-.36.22-2.84-.69-2.84-1.04 0-.28 2.52.2 2.89.55m-37.22 2.34c.04 3.54-5.77 4.8-7.24 1.58-.47-1.03-.49-3.1-.03-3.39.22-.13.35.46.35 1.54 0 2.3.78 3.14 2.91 3.14 2.37 0 4.31-2.61 3.2-4.31-.3-.45-.43-.91-.3-1.03.36-.37 1.1 1.27 1.1 2.47m1.54-1c.36 1.67-.24 3.6-1.03 3.3-.35-.14-.39-.36-.14-.83.44-.82.44-2.62 0-3.44-.27-.52-.22-.63.26-.56.4.06.7.58.91 1.52m81.77.22c-.33.38-.3.52.12.68.78.3.82.27.82-.49 0-.8-.34-.87-.94-.19m-86.72 2.03c-.18.18-.62.14-1.04-.08-1.1-.6-.87-1.06.3-.61.6.22.91.52.74.7m87.14-.12c-.14.23 0 .67.3.98.47.47.56.48.56.05 0-.85-.56-1.51-.86-1.03m1.11 2.43c.1.39.47.7.84.7.81 0 .83-.31.04-.9-.85-.66-1.09-.6-.88.2m95.6 2.78c.34.38.51.69.37.69-.49 0-1.59-.73-1.59-1.05 0-.55.55-.39 1.22.36m61.04 5.24c.14 2.14.08 3.07-.22 3.25-.25.16-.28.34-.08.48.2.11.44 3.43.57 7.47.13 4 .3 7.34.4 7.42.28.3-.28-20.57-.58-21.1-.17-.29-.2.77-.1 2.48m-16.8.37c-.36.92.02 1.5.78 1.21.32-.12.44-.46.32-.92-.28-1.07-.76-1.2-1.1-.3m-186.66.16c-.25.63.4 1.6.87 1.32.17-.1.3-.57.3-1.04 0-.96-.84-1.16-1.17-.28m13.68-.3c.1 1.01.62 1.58.65.69.01-.53-.13-.96-.33-.96-.19 0-.33.12-.32.27m1.48.28c-.12.3.04.8.34 1.1.65.64 1.19-.12.8-1.13-.26-.67-.88-.66-1.14.03m1.85-.06c-.1.27.03.78.29 1.13.55.75 1.12-.1.74-1.1-.25-.65-.78-.67-1.03-.03m61.64-.14c-.12.2.04.45.35.57.46.18.48.28.11.52-.36.22-.33.29.13.3.81 0 1.13-.65.44-.92-.45-.17-.48-.28-.1-.51.35-.23.32-.3-.13-.3-.32 0-.68.15-.8.34m3.3.03c0 .2-.29.28-.63.17-.44-.14-.63 0-.67.5-.06.76.44.94.72.26.13-.33.26-.3.54.08.3.42.37.34.37-.43 0-.53-.07-.96-.16-.96-.1 0-.18.17-.18.38m1.27-.14c-.4.4-.24 1.42.27 1.61.63.25 1.37-.64 1.11-1.32-.2-.54-.97-.7-1.38-.3m2.22.73c.02.52.11.75.21.5.12-.3.32-.33.58-.11.28.23.42.08.45-.5.04-.62-.13-.84-.6-.84-.5 0-.66.23-.64.95m2.35 0c.16.78.22.83.34.26.08-.38.32-.8.53-.95.24-.15.1-.26-.34-.26-.61 0-.7.15-.53.95m8.84-.43c-.29.77.77 1.85 1.3 1.32.54-.54.25-1.64-.47-1.78a.76.76 0 00-.83.46m2.4.38c0 .67.08.78.32.43.26-.36.37-.37.5-.03.1.23.33.43.52.43.35 0-.76-1.7-1.13-1.72-.12-.01-.22.4-.22.89m2.19-.3c-.25.63.7 1.6 1.24 1.27.43-.26.37-1.18-.07-1.18-.2 0-.27.16-.15.34.12.2.06.35-.13.35-.75 0-.74-.72.02-1.02.78-.31.78-.32.06-.34-.4-.02-.85.24-.97.57m19.23.13c-.01.57.18.9.5.9.66 0 .66-.27.02-1.13-.5-.64-.51-.64-.52.23m1.03-.3c.01 1 .68 1.5.68.53 0-.53-.15-.96-.34-.96-.19 0-.34.2-.34.44m1.61-.2c-.4.4-.24 1.42.27 1.61.63.25 1.38-.64 1.11-1.32-.2-.54-.97-.7-1.38-.3m2.2.69c0 .77.09.87.35.47.22-.34.33-.37.34-.08 0 .23.16.43.35.43.19 0 .33-.43.32-.95-.02-.53-.11-.76-.2-.51-.15.34-.3.35-.68.04-.4-.33-.48-.22-.48.6m2.31-.68c-.41.4-.25 1.42.26 1.61.64.25 1.38-.64 1.12-1.32-.2-.54-.97-.7-1.38-.3m6.25.02c-.28.48.43 1.9.88 1.75.65-.22.53-1.8-.14-1.92-.31-.06-.65.01-.74.17m2.06.02c.21.14.47.57.56.95.17.65.18.64.22-.06.02-.41.23-.83.47-.92.24-.1-.03-.19-.6-.2-.58-.01-.87.1-.65.23m1.86.61c0 .48.24.97.53 1.09.73.28 1.13-.2.5-.6-.45-.27-.45-.32 0-.33.43 0 .44-.06.06-.3-.4-.26-.4-.33 0-.5.27-.1.14-.2-.31-.2-.61-.03-.78.16-.78.84m2.08-.03c0 .92.5 1.2.8.46.15-.35.19-.35.21 0 .01.23.16.43.32.43.68 0 .14-1.57-.58-1.67-.6-.1-.75.06-.75.78m2.42 0c0 1 .6 1.48 1.14.93.29-.29.2-.39-.29-.4-.56 0-.59-.05-.15-.33.46-.3.46-.34 0-.37-.35-.02-.3-.13.17-.33.66-.28.66-.3-.09-.32-.6-.02-.78.17-.78.82m2-.41c-.28.75.11 1.3.9 1.26.58-.03.61-.08.14-.2-.34-.09-.61-.4-.61-.68 0-.37.21-.45.74-.28.5.16.66.1.5-.15-.33-.52-1.47-.49-1.67.05m16.37.43c0 .82.04.83.68.28.72-.62.64-1.15-.18-1.15-.3 0-.5.35-.5.87m2.11.09c.02.52.11.75.2.5.13-.3.32-.33.59-.11.28.23.41.08.45-.5.03-.62-.13-.84-.6-.84-.5 0-.66.23-.64.95m2.05-.09c0 .68.17.86.78.83.66-.04.68-.07.13-.21-.53-.13-.56-.23-.18-.47.4-.26.4-.32-.03-.34-.35-.02-.3-.13.17-.33.66-.28.66-.3-.09-.32-.6-.02-.78.17-.78.84m2.43-.55c0 .18-.08.53-.18.8-.12.3.07.47.52.47.75 0 .82-.17.49-1.04-.23-.58-.83-.75-.83-.23m1.73.5c0 .5.2.8.54.8.32 0 .46-.2.35-.49-.1-.27-.2-.63-.2-.8 0-.18-.15-.33-.34-.33-.2 0-.35.37-.35.81m2.43.07c0 .85.02.86.86.3.95-.61.86-1.18-.19-1.18-.49 0-.67.25-.67.88m4.5-.44c0 .9 1.21 1.27 1.27.38.03-.59-.13-.82-.6-.82-.37 0-.66.2-.66.44m2.07.43c0 .68.18.86.78.84.75-.02.75-.03.1-.32l-.7-.3.7-.03c.52-.02.57-.1.21-.33-.4-.25-.4-.32 0-.48.28-.11.15-.2-.3-.22-.61-.02-.79.17-.79.84m3.13-.4c0 .31-.16.58-.35.58a.35.35 0 00-.35.34c0 .2.15.35.32.35.4 0 .87-1.36.58-1.64-.11-.12-.2.05-.2.37m3.77-.17c.4.27.36.36-.17.5-.57.14-.58.17-.05.2.33.03.6.2.6.4 0 .18.13.34.3.34.61 0 .15-1.56-.5-1.67-.51-.08-.55-.03-.18.23m-100.78.57c0 .18-.16.39-.37.45-.2.07-.37-.13-.37-.45s.17-.52.37-.45c.2.07.37.27.37.45m10.72.07c-.01.42.14.86.35.99.48.3.93-.16.45-.47-.2-.13-.46-.48-.57-.76-.14-.36-.2-.28-.23.24m3.1-.07c0 .29-.15.52-.33.52-.44 0-.75-.54-.47-.82.39-.39.8-.23.8.3m26.04 0c0 .18-.16.39-.37.45-.2.07-.37-.13-.37-.45s.17-.52.37-.45c.2.07.38.27.38.45m4.8.2c0 .17-.24.32-.53.32-.53 0-.68-.4-.3-.8.28-.27.82.04.82.48m-120.54 4.74l.1 3.03h6.23c3.44 0 7.18-.09 8.32-.2 1.15-.1-1.54-.22-5.98-.26l-8.06-.06v-2.77c0-1.69-.14-2.77-.35-2.77-.24 0-.33 1.1-.27 3.03m42.16-.09c-.06 1.63 0 2.95.15 2.95.14 0 .26-1.33.26-2.95 0-3.8-.27-3.8-.41 0m41.03-.24l-.07 2.87-9.97-.1c-5.48-.05-10.2-.18-10.47-.27-.34-.12-.56.1-.64.65-.12.8-.07.82 1.38.56.83-.14 10.03-.28 20.45-.3 10.42-.03 19.07-.16 19.21-.3.14-.15-4.2-.27-9.66-.27h-9.93l-.11-2.86-.12-2.86-.07 2.88m40.83.07v2.77h-7.28c-4.62 0-7.28.13-7.28.35 0 .23 7.92.35 23.05.35 15.14 0 23.05-.12 23.05-.35 0-.22-5.37-.35-15.42-.35h-15.43v-2.77c0-1.62-.14-2.77-.34-2.77s-.35 1.15-.35 2.77m41.25 0v2.77H300c-2.97 0-4.68.13-4.68.36 0 .23 1.73.32 4.94.26l4.94-.1.1-3.03c.06-1.93-.03-3.03-.26-3.03-.22 0-.36 1.08-.36 2.77M76.6 120.62v3.47l1.3-.05c1.05-.04 1.12-.08.35-.2l-.95-.14v-3.27c0-1.95-.14-3.27-.35-3.27-.2 0-.35 1.38-.35 3.46m3.86-.95c.03 1 .12 1.47.2 1.04.19-.97 1-1.01 1.49-.09.2.38.53.7.72.7.22 0 .22-.23-.01-.67a1.7 1.7 0 01-.15-1.22c.29-.76-.48-1.58-1.47-1.58-.77 0-.82.12-.78 1.82m4.2-1.59c-1.16.47-.5 3.17.78 3.17.67 0 1.22-.14 1.22-.31 0-.18-.47-.32-1.05-.32-.57 0-1.03-.15-1.03-.34 0-.2.39-.35.86-.35.48 0 .87-.16.87-.35 0-.19-.4-.34-.89-.34-.5 0-.8-.15-.67-.35.12-.19.6-.35 1.08-.35.49 0 .77-.15.65-.34-.22-.36-1.08-.42-1.82-.12m2.97-.04c-.3.5 1.08 3.45 1.43 3.08.57-.6 1.37-2.9 1.07-3.1-.16-.1-.5.41-.73 1.13l-.43 1.3-.57-1.37c-.32-.75-.67-1.22-.77-1.04m5.93.37c-.47.56.01 1.2 1.2 1.63.21.08.26.27.11.44-.15.16-.6.09-.99-.16-.56-.35-.68-.35-.57 0 .22.66 1.16 1.13 1.79.89.9-.35.7-1.58-.3-1.83-.48-.12-.87-.37-.87-.56 0-.2.39-.25.93-.12.81.2.87.17.48-.3-.58-.7-1.2-.7-1.78 0m3.5 1.24c0 .99.11 1.68.25 1.53.15-.14.26-.44.26-.66 0-.22.36-.46.8-.52 1.68-.24 1.06-2.14-.69-2.14-.52 0-.63.3-.63 1.8m3.7-1.57c-.37.37-.27 3.24.12 3.24.19 0 .34-.31.34-.7 0-.88.29-.87 1.28.06.8.75 1.17.45.4-.32-.3-.3-.28-.54.08-.97.73-.9-1.39-2.14-2.22-1.3m3.81 0c-.36.35-.27 2.82.12 3.05.21.14.35-.45.35-1.53 0-1.78-.05-1.94-.47-1.53m1.87 1.44c-.01 1.14.11 1.76.33 1.62.19-.11.35-.55.35-.97 0-.7.06-.69.85.28l.85 1.04-.04-1.9c-.03-1.29-.09-1.53-.19-.74l-.14 1.17-1-1.17-1-1.17-.01 1.84m4.4-1.3c-1.52.89-.2 3.46 1.49 2.92.96-.3.9-1.56-.08-1.56-.74 0-.74.02-.09.51.65.5.64.51-.24.52-1.1.02-1.47-.72-.81-1.6.4-.54.58-.57 1.18-.2.78.47.97.13.3-.54-.5-.5-.94-.52-1.75-.05m6.05.05c-1.15 1.15-.02 3.67 1.19 2.66.7-.57.58-1.38-.22-1.6-.38-.1-.7-.32-.7-.5 0-.19.35-.22.78-.09.7.22.73.19.3-.32-.56-.68-.8-.7-1.35-.15m3 .15c-.41.5-.38.54.31.32.82-.25 1.11.29.35.64-.35.16-.35.24 0 .4.71.34.49.9-.26.67-.8-.25-.96.34-.18.65.97.37 1.57-.15 1.5-1.3-.1-1.81-.85-2.41-1.71-1.38m3.23-.15c-.58.58-.52 2.18.1 2.7.68.56 1.56.2 1.56-.64 0-.73-.8-1.56-1.16-1.2-.12.12-.22.03-.22-.2 0-.29.25-.35.77-.19.7.22.73.19.3-.32-.55-.68-.8-.7-1.35-.15m120.08-.18c-.85.85-.17 1.55 1.25 1.3.81-.15 1.97-.23 2.58-.2.6.04 1.2-.1 1.32-.29.14-.23-.49-.36-1.73-.36a7.85 7.85 0 01-2.58-.33c-.34-.18-.72-.24-.84-.12m-161.05.8c0 .2-.31.35-.7.35-.38 0-.69-.16-.69-.35 0-.19.31-.35.7-.35.38 0 .69.16.69.35m16.64-.02c0 .47-.64.8-1.05.54-.2-.12-.26-.37-.15-.54.26-.42 1.2-.42 1.2 0m3.81.02c0 .2-.31.35-.7.35-.38 0-.69-.16-.69-.35 0-.19.32-.35.7-.35.38 0 .69.16.69.35m54.34-.1c.43.08 1.05.08 1.38 0 .33-.1-.02-.16-.78-.16s-1.03.08-.6.16m2.5.01c0 .15 1.72.26 3.82.26 2.1 0 3.81-.11 3.81-.26 0-.14-1.72-.26-3.81-.26-2.1 0-3.81.12-3.81.26m8.31 0c0 .29 12.83.2 13.11-.08.1-.1-2.8-.18-6.46-.18s-6.65.12-6.65.26m17.34 0c0 .15.9.22 1.99.17 3.48-.17 3.82-.32.87-.37-1.58-.03-2.87.06-2.87.2m6.5-.01c.43.08 1.13.08 1.56 0 .43-.08.08-.15-.78-.15-.85 0-1.2.07-.78.15m4.68 0c.9.08 2.4.08 3.3 0 .9-.06.16-.12-1.65-.12-1.81 0-2.55.06-1.65.13m-82.06 1.13c-.12.2.1.35.5.35s.72-.16.72-.35c0-.19-.23-.35-.5-.35-.28 0-.6.16-.72.35m3.64.17c0 .29-.15.52-.32.52-.44 0-.75-.54-.48-.81.4-.4.8-.24.8.3m6.24 0c0 .28-.16.51-.35.51-.19 0-.34-.23-.34-.52 0-.28.15-.52.34-.52.2 0 .35.24.35.52m-36.48 2.5c-.93.24-.86 2.53.08 2.53.86 0 .92-.58.1-.8-.59-.15-.59-.16 0-.2.32-.02.6-.18.6-.36s-.28-.4-.6-.48c-.59-.15-.59-.16 0-.2.32-.02.6-.2.6-.39s-.04-.33-.09-.3c-.05.02-.36.1-.7.2m12.34.27c.06.2.33.35.58.35.25 0 .52-.16.58-.36.07-.2-.2-.35-.58-.35-.39 0-.65.16-.58.35m26.49-.13c-1.19.7-.36 2.68.9 2.2.76-.3.73-1.19-.03-1.18-.52 0-.53.05-.09.34.42.27.36.34-.29.34-.58 0-.77-.16-.68-.6.08-.37.43-.6.89-.58.6.02.68-.07.38-.43-.21-.26-.4-.46-.43-.45-.02 0-.32.17-.65.36m2.43-.11c-.67.15-.9 2.16-.24 2.16.2 0 .27-.15.15-.34-.12-.2.03-.35.33-.35.3 0 .54.16.54.35 0 .19.12.34.27.34.4 0 .31-1.64-.1-2-.2-.17-.62-.24-.95-.16m-48.68 1.12c0 1.05.4 1.41.67.61.11-.33.26-.34.64-.03.4.33.5.22.56-.6.06-.9-.04-1.02-.9-1.02-.84 0-.97.14-.97 1.04m2.38.09c.1 1.06 1.67 2 1.67 1 0-.19-.35-.41-.78-.5l-.78-.14.78-.05c.43-.03.78-.2.78-.4 0-.19-.35-.36-.78-.38-.75-.03-.75-.04.09-.31l.86-.28-.97-.03c-.9-.03-.97.05-.87 1.09m3.5-.43c-.2.78-.64.9-.93.26-.1-.24-.16-.14-.11.23.13 1.08.84 1 1.23-.13.2-.58.28-1.06.18-1.06-.1 0-.27.32-.37.7m3.03.43c0 .81.09.99.32.63.23-.37.43-.4.77-.12.36.3.47.17.5-.63.03-.84-.1-1-.78-1-.7 0-.82.17-.81 1.12m2.07-.08c0 1.16.76 1.7 1.52 1.07.76-.64.28-2.12-.7-2.12-.68 0-.82.18-.82 1.05m2.43.17c0 .98.13 1.21.7 1.21.84 0 .9-.58.08-.8-.58-.15-.58-.16 0-.2.33-.02.6-.2.6-.39s-.27-.35-.6-.37c-.52-.02-.5-.06.08-.32.67-.28.66-.3-.08-.32-.67-.02-.78.15-.78 1.19m2.08-.09c0 .83.1 1 .33.62.28-.44.4-.43.95.06.54.5.71.5 1.29.08.5-.36.78-.39 1.13-.1.56.47.58.24.05-.9-.53-1.17-.83-1.12-1.3.24-.31.88-.47 1.02-.71.62-.2-.3-.19-.67 0-.9.43-.52.06-.85-.93-.85-.69 0-.81.18-.8 1.13m6.3-.09c0 .67.08.94.16.61.1-.33.1-.88 0-1.21-.08-.34-.15-.06-.15.6m.72-.47c-.47 1.22.86 2.23 1.76 1.33.3-.3.56-.4.56-.19 0 .2.15.37.33.37.19 0 .25-.23.14-.52-.11-.28-.05-.52.14-.52.2 0 .44.24.55.52.36.93.92.55.88-.6-.03-1.05-.05-1.07-.28-.26l-.25.86-.42-.78c-.47-.86-1.19-1.08-.87-.26.1.29.04.52-.15.52s-.44-.23-.55-.52c-.26-.7-1.57-.66-1.84.05m5.73.02c-.29 1 .4 1.95 1.19 1.65.4-.16.58-.58.54-1.32-.05-1.05-.05-1.05-.2-.14-.07.53-.35.96-.61.96s-.53-.43-.59-.96c-.1-.88-.13-.9-.33-.19m2.17.54c.02.62.11.85.2.52.2-.74.66-.79.93-.09.36.93.91.55.88-.6-.04-1.05-.06-1.07-.28-.26l-.25.86-.42-.78c-.61-1.12-1.1-.96-1.06.35m2.47-.09c0 .67.07.94.16.61.08-.33.08-.88 0-1.21-.09-.34-.16-.06-.16.6m1.27.09c.16 1.02.2 1.04.32.26.07-.48.31-.98.53-1.12.24-.16.12-.26-.32-.26-.62 0-.7.15-.53 1.12m2.34-.86c.22.14.47.64.56 1.12.15.83.16.83.2-.11.06-1.18 1.04-1.18 1.63 0 .36.74.38.73.76-.29.33-.86.32-.97-.07-.65-.33.27-.54.28-.7.03-.12-.2-.8-.36-1.5-.36s-1.1.12-.88.26m3.96.86c.02.62.1.93.2.7.1-.25.48-.44.84-.44.44 0 .67-.24.67-.7 0-.5-.23-.69-.87-.69-.75 0-.86.15-.84 1.13m2.17 0c.05 1.06 1.62 2.03 1.62 1 0-.19-.35-.41-.78-.5l-.78-.14.78-.05c.91-.06 1.06-.73.17-.77-.52-.02-.5-.06.09-.32.62-.27.6-.3-.23-.32-.83-.02-.92.1-.87 1.1m7.9-.21c-.03.71.15 1.16.5 1.3.85.32 1.2-.07 1.14-1.28-.05-1.05-.06-1.06-.2-.16-.08.53-.36.96-.62.96s-.54-.43-.62-.96c-.13-.91-.14-.9-.2.14m2.4-.57c0 .57.94 1.95 1.14 1.7.08-.07-.16-.6-.51-1.18-.35-.57-.64-.8-.63-.52m1.4.09c.06 1.2.61 1.8.64.69.01-.62-.13-1.13-.32-1.13-.2 0-.34.2-.33.44m1.34-.38c-.37 1.46-.14 1.88.8 1.41.53-.26.97-.66.99-.89.01-.22.21.02.44.53l.41.92.58-1.01c.32-.56.45-1.02.28-1.02-.16 0-.36.2-.44.44-.1.3-.29.33-.64.07-.46-.34-2.36-.69-2.42-.44m5.01.43c-.28.72-.03 1.68.47 1.84.72.24.97-1 .3-1.49-.57-.41-.57-.45.03-.6.59-.16.59-.17.01-.2-.34-.03-.7.18-.8.45m3.42.2c-.1.38-.56.8-1.03.91-.6.15-.74.32-.48.59.27.26.49.25.77-.03s.6-.3 1.05-.06c.9.48 1.34-.64.5-1.26-.57-.41-.57-.45.02-.6.6-.16.6-.17 0-.2-.38-.03-.72.25-.83.65m-39.96.34c0 .39-.22.7-.5.7-.6 0-1-.57-.71-1.04.38-.61 1.21-.37 1.21.34m17.68-.34c0 .19-.23.34-.52.34-.28 0-.52-.15-.52-.34 0-.2.23-.35.52-.35.29 0 .52.16.52.35m29.55.6c2.62.06 6.91.06 9.53 0 2.62-.06.48-.1-4.76-.1-5.25 0-7.4.04-4.77.1m22.2 0c4.36.06 11.38.06 15.6 0 4.23-.05.67-.1-7.9-.1-8.58 0-12.04.05-7.7.1m25.46 0c.81.07 2.14.07 2.95 0 .8-.08.14-.14-1.48-.14s-2.28.06-1.47.14m8.32 0c1.95.06 5.15.06 7.1 0 1.96-.06.36-.11-3.55-.11-3.9 0-5.5.05-3.55.11m13.53 0c1.59.07 4.08.07 5.55 0 1.47-.06.17-.12-2.88-.12s-4.25.06-2.67.12m23.38 0c8.34.06 22 .06 30.33 0 8.34-.05 1.52-.1-15.16-.1s-23.5.05-15.17.1m47.92-.02c5.93.25 12.31.26 12.31.02 0-.14-3.31-.23-7.37-.19-4.05.04-6.27.12-4.94.17m10.92 12.2v4.47l-1.47.17c-.81.1-8.1.15-16.2.12l-14.74-.04-.1-4.14c-.05-2.27-.01-4.34.08-4.6.14-.35 3.34-.44 16.3-.44h16.13v4.47m-17.24-3.52l-13.6.1v1.02c0 .67.23 1.15.69 1.4.89.47.88 1.18-.03 2.02-.44.41-.68 1-.6 1.5l.1.8 14.3.12 14.3.11v-1.05c0-.7-.23-1.18-.69-1.43-.38-.2-.7-.69-.7-1.08 0-.43.29-.79.7-.9.38-.1.7-.35.7-.55 0-.2.22-.07.5.3.48.63.51.58.52-.72 0-.91-.1-1.22-.3-.9-.25.4-.35.39-.6-.04-.46-.78-.8-.8-15.3-.7m-7.36 1.34c0 .26.16.48.35.48.19 0 .35-.22.35-.48 0-.75.95-.94 1.58-.32.44.44.62.47.83.13.21-.35.33-.35.53-.02a.5.5 0 01-.16.68c-.68.42-3.5.18-3.82-.33-.21-.35-.32-.3-.45.2-.12.47-.18.4-.2-.28-.04-.7.08-.9.47-.75.29.11.52.42.52.69m6.15-.22c.03.38-.1.78-.28.89-.36.22-.45-.99-.09-1.35.31-.31.3-.32.37.46m2.74.18c-.05.95-.39 1.14-.68.39a.9.9 0 01.2-.87c.53-.52.54-.51.48.48m2.3.13c.1.43-.06.59-.64.58-.98-.02-1.33-.36-1.08-1.02s1.51-.34 1.72.44m2.25-.13c-.08 1-.61 1.2-.61.23 0-.57.27-1.1.57-1.1.06 0 .08.4.04.87m.97-.29c-.12.32-.02.7.23.86.31.2.32.29.03.29a.82.82 0 01-.64-.36c-.24-.4.03-1.37.38-1.37.13 0 .13.26 0 .58m4.8-.14c.11-.11.2.15.2.59 0 .62-.1.7-.46.4-.26-.2-.56-.28-.68-.16-.47.46-1.98.4-1.98-.09 0-.6-.57-.64-.8-.05-.11.27-.2.2-.2-.15-.04-.66 1.69-1 2.96-.58.41.14.84.16.95.04m-21.62.5c0-.33.2-.6.44-.6.25 0 .45.28.45.62 0 .45-.29.6-1.14.6-.63 0-1.14-.02-1.14-.06 0-.84.5-1.18.92-.61.42.57.47.57.47.04m9.95.05c.03.35-.14.64-.37.64-.23 0-.42-.29-.42-.64 0-.34.16-.63.37-.63.2 0 .4.29.42.63m-1.52 2.18c.16.62.02.68-1.53.6-1.4-.06-1.7-.18-1.7-.72 0-.36.14-.56.31-.46.17.1.68.06 1.13-.1 1.03-.39 1.56-.19 1.79.68m12.97-.75c.57.01.78.23.78.8 0 .78-.02.78-5.9.84l-5.89.06v-.78c0-1.22-.09-1.2 11.01-.92m-26.03.25c-.33.33-.28.8.08.8.17 0 .4-.23.51-.51.2-.53-.16-.71-.59-.29m8.34.5c-.05.7-.94.93-.94.24 0-.32-.1-.32-.42 0-.59.59-.97.51-.98-.2 0-.56-.03-.56-.48.02-.4.53-.5.54-.67.09-.26-.69-.92-.7-.92-.01 0 .28-.18.51-.4.51-.22 0-.3-.1-.18-.22.13-.13.06-.43-.14-.68-.3-.36.17-.44 2.4-.42 2.49.03 2.77.1 2.73.68m3.22-.05c0 .2.23.35.52.35.29 0 .52-.16.52-.35 0-.19-.24-.34-.52-.34-.29 0-.52.15-.52.34m-6.9 1.82c.02.35.06.35.2 0 .15-.39 1.15-.64 1.15-.29 0 .68-.56 1.25-1.25 1.25-.6 0-.83-.2-.83-.7 0-.74.68-.98.72-.26m2.95.35c.05.4-.14.6-.58.6-.44 0-.66-.24-.66-.71 0-.9 1.1-.8 1.24.1m5.41-.15c.63.63-.3 1.2-1.45.9a6.16 6.16 0 00-1.44-.2c-.36 0-.5-.2-.41-.57.19-.71 2.62-.81 3.3-.13m13.8.25v.86h-11.79v-1.73h11.79v.86m-15.06-.2c-.24.4.3.8.63.48.33-.32.26-.8-.1-.8-.19 0-.42.15-.53.33M68.86 150.17c-.22.14 1.46.26 3.74.26h4.14l-1.34 1.38-1.35 1.38-6.96.1-6.95.09-.1 2-.1 1.99h3.4c3.92 0 4.94.43 4.94 2.07 0 1.65-1.02 2.09-4.93 2.09h-3.38v29.11h3.48c4 0 4.83.3 4.83 1.7 0 1.74-.85 2.11-4.79 2.11h-3.52v4.16h280.07v-4.16h-3.47c-4.43 0-5.78-.95-4.31-3.04.5-.71.8-.77 4.16-.77h3.62v-29.12h-3.1c-3.5 0-4.72-.33-5.05-1.36-.63-2.01.77-2.8 5.04-2.8h3.1v-1.66c0-2.5.03-2.5-7.46-2.5h-6.63l-1.63-1.71-1.63-1.72H200c-75.5-.01-122.75.11-122.87.31-.11.18-.4.24-.65.15-.75-.28-7.2-.34-7.62-.06m255.46 0c-.22.14 1.3.26 3.38.26s3.7-.09 3.58-.2c-.3-.3-6.5-.36-6.96-.06m-29.21 9.48c.12.3.21 1.08.21 1.73v1.19H291.85V159.1h1.53c1.07 0 1.58.16 1.73.55m-35.5 1.06c0 .99-.82 1.42-1.56.81-.65-.54-.64-.85.02-1.52.71-.7 1.55-.33 1.55.7m2.33.07c.09 1.13-.93 1.63-1.49.72-.16-.26 0-.3.5-.15.44.14.74.08.74-.14 0-.2-.24-.37-.52-.37-.53 0-.71-.73-.28-1.16.48-.48.96.03 1.05 1.1m2.52-.92c0 .13-.17.35-.37.48-.2.12-.29.44-.19.7.1.26.03.56-.15.68-.18.11-.33-.1-.33-.48s-.08-.9-.18-1.16c-.12-.3.07-.48.52-.48.39 0 .7.12.7.26m3.12.33l-.87.24.87.07c.62.05.7.12.26.23-.33.1-.6.3-.6.46 0 .16.27.37.6.45.37.1.24.18-.35.2-1.15.05-1.46-1.87-.34-2.13.98-.22 1.37.21.43.48m3.05-.32c.85.85.51 2.07-.53 1.95-1.06-.12-1.44-1.05-.77-1.86.5-.61.76-.63 1.3-.09m11 .61c-.68.76-.67.97.08 1.16.37.1.24.18-.35.2-1.1.05-1.18-.17-.38-1.06.53-.59.53-.63-.02-.63-.33 0-.5-.14-.4-.31.1-.18.51-.24.9-.14.64.17.66.24.17.78m2.59-.68c0 .2-.27.36-.6.37-.53.02-.51.07.08.33.6.25.6.3.09.32-.34.01-.61.17-.61.34 0 .18.27.4.6.48.46.12.42.17-.17.2-1 .05-1.16-1.89-.17-2.15.33-.08.64-.17.7-.2.04-.02.08.12.08.31m-162.22.52c0 .29-.17.52-.37.52-.2 0-.27-.15-.15-.34.12-.2-.04-.35-.35-.35-.3 0-.46.15-.34.34.11.2.05.62-.15.96-.3.5-.35.41-.36-.52-.01-.97.1-1.13.85-1.13.54 0 .87.2.87.52m2.58-.2c.11.18.04.43-.16.55-.26.16-.25.38.03.72.25.3.27.5.06.5-.2 0-.45-.27-.58-.58-.2-.52-.27-.51-.72.08-.46.62-.5.6-.5-.46-.02-1.13 1.32-1.7 1.88-.8m1.74.02l-.69.3.7.06c.59.06.6.09.08.22-.85.23-.76.73.17.9.67.14.65.16-.17.2-.84.05-.95-.07-.95-.99 0-.85.14-1.03.78-1.01.74.02.74.03.08.32m3.82-.02c-.54.21-.58.3-.17.4.46.12.45.22-.08.74-.6.58-.62.56-.62-.43 0-.85.14-1.03.78-1.01.74.02.74.03.09.3m1.8 1.32c-.1.33-.16.06-.16-.6 0-.68.07-.95.16-.62.08.34.08.88 0 1.22m1.49-.8c0 .5.24.9.6 1 .48.12.46.16-.13.2-.57.02-.77-.2-.9-1-.08-.58-.02-1.05.14-1.05s.29.38.29.84m2.86-.6c-.24.09-.46.58-.48 1.1l-.05.91-.16-.86c-.09-.48-.34-.98-.56-1.12-.22-.14.07-.25.64-.24.57.02.85.1.6.2m1.48.12c-.12.19.07.36.41.39.58.03.59.05.03.2-.34.08-.61.29-.61.45 0 .16.27.37.6.45.46.12.42.17-.17.2-.64.03-.78-.14-.78-1 0-.57.17-1.04.37-1.04.2 0 .27.16.15.35m3.53.74c0 .92-.06 1-.42.52-.53-.73-.77-.72-.96.04-.09.33-.18.1-.2-.52-.04-.96.08-1.13.77-1.13.67 0 .8.18.8 1.09m46.26.04c-.17 1.02-.2 1.04-.32.26-.07-.48-.31-.98-.53-1.12-.25-.16-.12-.26.32-.26.62 0 .7.15.53 1.12m2.52.26c.11.47.12.67 0 .43a.82.82 0 00-.68-.43c-.27 0-.5.2-.52.43-.02.32-.07.33-.2.02-.23-.57.57-1.98.91-1.62.16.17.37.7.49 1.17m1.8-1c.13.2.08.48-.1.6-.19.13-.43.46-.54.75-.1.28-.21 0-.23-.61-.02-1.12.4-1.49.87-.74m.84.72c0 .72-.12 1-.33.78-.19-.19-.25-.69-.14-1.11.29-1.1.47-.97.47.33m2-.83c.4-.33.49-.33.3-.03-.14.24-.06.78.16 1.22.4.77.4.77-.3.16-.54-.49-.74-.53-.88-.18-.1.25-.18 0-.18-.58 0-.57.08-.84.18-.6.14.37.28.37.73 0m62.12.18c0 .37-1.17 1.63-1.52 1.63-.06 0-.13-.47-.14-1.04-.03-.88.1-1.04.81-1.04.47 0 .85.2.85.45m15.6.42c0 .47.15.87.34.87.2 0 .35-.4.35-.87 0-.48.15-.87.34-.87.4 0 .46.7.14 1.53-.46 1.21-1.87.43-1.87-1.04 0-.27.16-.49.35-.49.19 0 .34.4.34.87m3.48.02c.46 1.22.43 1.35-.24.8-.45-.37-.6-.38-.72-.04-.08.24-.28.43-.44.43-.15 0-.1-.47.1-1.04.49-1.27.86-1.32 1.3-.15m2 .76c.49.38.46.43-.21.43-.63 0-.75-.18-.72-1.13.03-.71.1-.87.2-.43.1.38.42.89.72 1.13m1.81-.6c0 .56-.15 1.03-.34 1.03-.2 0-.35-.47-.35-1.04 0-.57.16-1.04.35-1.04.19 0 .34.47.34 1.04m7.23-.43c-.06.33.02.8.17 1.04.15.25.1.43-.1.43-.22 0-.48-.25-.6-.57-.2-.51-.27-.5-.69.07-.42.58-.46.54-.46-.47 0-.96.12-1.1.89-1.1.65 0 .86.15.79.6m12.06.95a.76.76 0 01-.82.46c-.76-.15-1.02-1.31-.39-1.7.63-.4 1.5.5 1.2 1.24m-40.77-.49c0 .85.81.73.98-.14.07-.35-.11-.58-.43-.58s-.55.3-.55.72m11.25-.35c-.13.21-.1.52.07.68.4.41 1.31-.18 1.01-.67-.3-.49-.78-.49-1.08 0m31.5-.1c.1-.25.2 0 .2.54.03.85-.04.93-.49.56-.38-.32-.52-.32-.52-.02 0 .23-.14.32-.31.22-.17-.1-.23-.51-.13-.9.13-.52.3-.6.63-.33.31.27.49.25.62-.08m-3.23.6c0 .31.17.52.37.45.2-.07.37-.27.37-.46 0-.18-.17-.38-.37-.45-.2-.07-.37.14-.37.45m-44.56 3.97c.26.41-.4.82-.86.54-.38-.24-.13-.86.36-.86.16 0 .4.14.5.32m19.62 1.84c1.42 1.8 1.55 2.3.2.78l-1.24-1.38-1.25 1.38c-.68.76-1.13 1.15-.98.87.36-.73 2-2.78 2.21-2.78.1 0 .57.51 1.06 1.13m-37.5-.18c-1.21.1-1.82.37-2.57 1.15-.54.56-1.14 1.02-1.33 1.02-.2 0 .18-.54.83-1.2 1.06-1.1 1.34-1.22 2.92-1.16l1.75.06-1.6.13m75.95.96c.65.67 1.02 1.21.83 1.21-.2 0-.79-.46-1.33-1.02-.75-.78-1.36-1.05-2.58-1.15l-1.6-.13 1.76-.06c1.58-.06 1.86.05 2.93 1.15m-121.4 3.84l-.1 4.13h-9.7v-8.32l4.68-.17c5.7-.21 5.24-.6 5.12 4.36m-12.94-4.16l.9.23-.09 3.68-.1 3.69-4.94.1-4.94.1v-3.77c0-2.07.1-3.85.2-3.96.28-.28 7.89-.34 8.97-.07m25.15 4.14v4.35l-4.94-.1-4.94-.1-.1-3.46c-.16-5.43-.57-5.03 5.13-5.03h4.85v4.34m12.31-3.56c.11.43.15 2.34.1 4.25l-.1 3.46h-9.71l-.1-4.24-.1-4.25h4.86c4.75 0 4.86.02 5.05.78m38.64 1.93c0 .53.17 1.13.38 1.34.2.2.31.75.24 1.2-.11.65-.22.5-.57-.74-.24-.86-.51-1.84-.61-2.17-.1-.33-.01-.6.2-.6.2 0 .36.43.36.97m40.12.13c1.23.74 1.42 1.23.61 1.54a.85.85 0 00-.52.73c0 .51.43.5 1.82-.08 1.46-.6.42 3.45-1.28 5.02-1.3 1.2-4.35 1.24-5.99.07-2.61-1.86-2.49-6.3.2-7.19.6-.2 1.28-.56 1.52-.79.53-.53 2.12-.23 3.64.7m-123.31.12c-.65.77-.22.98 2.27 1.1 1.86.1 2.24.02 2.24-.43 0-.3.16-.45.35-.33.2.12.27.36.16.54-.11.18.06.32.37.32.39 0 .51-.18.37-.55a3.2 3.2 0 01-.21-.78c0-.59-3.79-.19-4.53.48-.76.68-.76.68-.52-.1.28-.91.11-1-.5-.25m81.4-.1c-.05.24.14.82.42 1.3.29.48.7 1.18.9 1.56.7 1.28 1.57.84 2.23-1.1.33-.98.52-1.88.4-2-.1-.1-.03-.2.17-.2.71 0 3.22 2.78 3.21 3.56-.01 1.25-1.25 3.63-2.13 4.1-.44.22-.7.3-.56.14.3-.32-1.7-2.94-2.25-2.94-.2 0-.96.66-1.67 1.47-1.5 1.7-2.4 1.38-3.08-1.09-.57-2.06-.42-2.8.83-4.05 1.24-1.25 1.68-1.46 1.53-.75m-69.27.44c-.5.6.17 1.7.8 1.31.21-.12 1.14-.19 2.07-.14 1.6.09 1.69.04 1.58-.7-.15-1.06-2.01-1.2-3.1-.26-.42.36-.85.57-.96.46-.1-.1.02-.32.27-.48.28-.17.33-.37.12-.5-.2-.11-.54.02-.78.3m5.08-.24c-.27.43-.08 1.27.3 1.38.41.1.54-1.25.15-1.5a.33.33 0 00-.45.12m9.06.33c-.31.38-.44.38-.67.02-.23-.36-.36-.35-.63.07-.59.88-.41.99 1.52.95 1.4-.02 1.82-.15 1.7-.5-.1-.25-.03-.45.16-.45.2 0 .44.23.55.52.3.77 1.26.63 1.26-.18 0-.38-.15-.69-.34-.69-.18 0-.24.24-.13.52.1.29.03.52-.19.52-.2 0-.38-.23-.38-.52 0-.28-.12-.54-.26-.56-1.21-.21-2.26-.09-2.58.3m10.28-.24c-.13.2-.15.46-.05.56.25.25.93-.2.93-.6 0-.44-.6-.41-.88.04m1.34.08c-.16.27-.6.66-.98.87-.65.37-.63.4.24.4.51.01 1.03-.14 1.15-.33.11-.19.37-.35.56-.35.19 0 .27.13.17.28-.09.15.5.3 1.3.32.8.03 1.67.1 1.94.16.31.07.49-.2.5-.76.01-1.02-1.66-1.29-2.26-.36-.26.4-.4.43-.53.1-.1-.24-.33-.34-.52-.23-.18.12-.54.03-.8-.19-.37-.3-.55-.28-.77.09m-135.02 1.43a5 5 0 01-2.77 9.48c-4.77-.46-6.08-6.75-1.93-9.28 1.32-.8 3.37-.9 4.7-.2m-3.64.24c-.62.18-1.54.88-2.05 1.55-3.53 4.62 3.2 10.1 6.95 5.66 2.93-3.48-.49-8.5-4.9-7.21m101.13.12c-.24.28-.33.67-.2.87.33.53 2.4.27 2.67-.33.2-.46.24-.46.26 0 .04.84 1.76.85 1.76.01 0-.76-.55-1.23-.86-.72-.13.22-.54.2-1.14-.02-.66-.25-.97-.24-1.06.03-.1.27-.26.27-.57.01-.32-.26-.56-.22-.86.15m15.58.71c0 .48.14.87.3.87.17 0 .39-.4.48-.87.1-.58 0-.87-.31-.87-.27 0-.47.37-.47.87m8.15-.52c-.11.17-.42.23-.69.13-.34-.13-.43.02-.29.54.23.88.41.9 1.02.11.44-.56.46-.56.27-.01-.17.49-.01.58.86.52.8-.06 1.08-.25 1.08-.74 0-.37-.1-.57-.21-.46-.12.12-.58.07-1.03-.1-.49-.19-.9-.18-1.01 0m2.68.53c0 .48.12.87.26.87.15 0 .34-.4.43-.87.1-.55 0-.87-.26-.87-.24 0-.43.4-.43.87m2.45-.32c-.15.4-.28.44-.47.13-.3-.48-1.03-.14-1.03.48 0 .93 3.66.6 3.74-.33.09-1.02-.27-1.05-1.08-.1-.35.4-.73.61-.86.47s-.04-.32.2-.4c.52-.2.58-.8.07-.8-.2 0-.45.25-.57.55m7.77-.29c-.25.52-.07 1.25.35 1.39.27.1.44-.19.44-.75 0-.83-.5-1.23-.79-.64m1.28.21c-.23.6.06 1.27.56 1.27.17 0 .22-.24.11-.52-.1-.29-.03-.52.19-.52.2 0 .38.2.38.43 0 .26.55.46 1.4.5 1.27.05 1.4-.02 1.3-.7-.07-.53-.3-.72-.8-.64-1.18.2-1.7.17-2.33-.1-.4-.17-.67-.08-.81.28m-24.9.43c-.11.3-.2.59-.2.64 0 .04.53.1 1.17.13 1.01.04 1.16-.05 1-.64-.2-.77-.64-.9-.9-.25-.14.35-.19.35-.2 0-.05-.61-.61-.53-.86.12M71.76 174.2c.22.66.62 1.18.93 1.18.43 0 .45.1.11.5-.33.4-.3.74.13 1.62.3.61.46 1.2.35 1.31-.25.25-1.18-.98-1.18-1.56 0-.9-2.82-.35-3.35.66-.27.52-.64.94-.83.94-.2 0-.09-.5.22-1.1.45-.87.49-1.25.18-1.74-.31-.5-.28-.63.14-.63.3 0 .7-.42.9-.94.8-2.12 1.75-2.21 2.4-.24m-1.74.31c-.49 1.47-.13 2.1.98 1.75.62-.2.66-.34.33-1.33-.57-1.71-.86-1.8-1.31-.42m18.34 3.44c.46.5 1.02.9 1.23.9.86 0 1.67 2.05 1.13 2.87-.27.42-.6 1.2-.73 1.73-.22.92-1.97 2.32-2.9 2.33-.23 0-.56-.5-.74-1.13l-.33-1.12-.03 1.32c-.02 1.17-.12 1.31-.8 1.21-.9-.12-.91-1.13-.05-2.8.6-1.14.54-1.15-1.27-.2-1.02.53-1.36.88-1.2 1.3.14.38-.03.32-.56-.2-1.54-1.53-1.2-6.23.34-4.83 1.02.92 1.67.34.73-.66-.88-.94-.5-1.3 1.98-1.85 1.5-.33 2-.15 3.2 1.13m146.06-1.27a7.1 7.1 0 01-.08 2l-.23 1.73-.4-1.73a5.65 5.65 0 01-.22-1.99c.22-.34.74-.35.93-.01m-105.7.36c.1.15-.13 1.2-.5 2.3-.82 2.5-.82 2.39.12 1.9.87-.46 3.01-2.26 2.92-2.45-.04-.07.29.25.72.71 1.37 1.48.65 4.02-1.04 3.66-1.05-.23-1.42.64-.44 1.01.83.32.61.74-.7 1.37-2.64 1.26-3.25.8-2.6-2 .17-.76.26-1.44.2-1.5-.16-.16-3.07 1.66-3.36 2.1-.77 1.19-1.56-3.15-.85-4.66.87-1.82 4.84-3.57 5.54-2.44m21.77-.09c.25.25-.4 3.35-.82 3.86-.63.78.32.8 1.32.03 1.87-1.46 2.17-1.77 2-2.06-.58-.93.53-.06 1.23.97.83 1.22.83 1.28.26 2.28-.33.57-.6 1.24-.6 1.5 0 .25-.47.86-1.06 1.35-1.04.87-1.78 1.17-1.63.64.04-.14-.13-.63-.37-1.07-.25-.44-.37-1.03-.26-1.3.32-.84-1.1-1.32-2.07-.68-.46.3-.84.74-.84.98 0 .27-.13.23-.34-.1-.28-.44-.44-.45-1.08-.05-1.67 1.03-2-3.04-.4-4.78 1.7-1.84 2.7-1.77 3.15.21l.37 1.68-.1-1.82c-.1-1.73.44-2.44 1.24-1.64m122.46.16c.12.2.53.35.91.35 2.44 0 4.18 3.15 3.12 5.63-1.06 2.46-1.79 2.65-2.98.76-1.2-1.88-2.72-1.65-4.38.66-.4.56-1.67-1.26-1.88-2.73-.36-2.37 1.38-4.76 2.27-3.1.25.47.63.86.84.86.2 0 .64.48.98 1.07.33.59.8 1 1.04.92.54-.18.82-3.72.29-3.72-.2 0-.35.27-.32.6.24 2.88-.5 3.66-.9.95-.14-.86-.38-1.49-.54-1.39-.16.1-.2-.13-.1-.51.18-.72 1.28-.95 1.65-.35m39.94.73c3.08 1.66 3.58 2.24 2.1 2.46-.43.06-.83.38-.9.7-.1.51.07.58 1 .4 1.03-.22 1.08-.18.84.6-.35 1.18-1.5 3.01-1.99 3.17-.46.16-2-1.52-2-2.19 0-.24-.08-.34-.2-.23-.33.33.56 2.68 1.01 2.69.71 0-.59.67-1.32.68-.63 0-.68-.18-.58-1.9.07-1.05-.02-1.9-.2-1.9-.47 0-2.46 2.35-2.21 2.62.12.13-.12.07-.52-.14-2.48-1.29-2.02-7 .55-7 .34 0 .81-.23 1.05-.51.62-.74 1.12-.66 3.37.55m-81.07.05c-.1.55.88 2.43 1.6 3.01 1.31 1.1 4.08-1.28 3.28-2.84-.22-.42.25-.1 1.03.73 1.56 1.64 1.61 1.82 1.03 3.56-.8 2.36-1.21 2.5-2.84.97-1.75-1.65-1.83-1.66-3.6-.14a6.83 6.83 0 01-1.7 1.2c-.17 0-.03-.17.3-.36 1.04-.6.77-1.45-.38-1.2-1.74.38-2.03-2.57-.43-4.28 1.03-1.1 1.87-1.42 1.71-.65m15.83.61c-.17.27-.37.3-.6.06a.64.64 0 01-.1-.75c.17-.28.37-.3.6-.06.2.19.24.53.1.75m37.44 0c-.17.27-.37.3-.6.06a.65.65 0 01-.1-.75c.17-.28.37-.3.6-.06.2.19.23.53.1.75m10.85-.32c-.07.2-.27.37-.46.37-.18 0-.38-.17-.45-.37-.07-.2.14-.37.45-.37.32 0 .53.16.46.37m-118.3 4.55V187h-10.06l-.1-3.45c-.05-1.9.07-3.84.27-4.33l.36-.88 4.76.06 4.76.07v4.27m12.23.13l-.1 4.13-4.95.1-4.94.1.1-4.26.09-4.26 4.68-.17c5.7-.21 5.24-.6 5.12 4.36m24.53-3.56c.1.42.14 2.32.09 4.23l-.1 3.46-4.94.1-4.94.1v-4.29c0-2.36.06-4.35.14-4.43.63-.64 9.57.12 9.75.83m98.08-.88c-.36.26-1 1.49-1.35 2.6-.26.83 1.11.13 1.43-.72.12-.32.45-.76.73-.97.28-.2.4-.56.26-.78-.28-.46-.58-.5-1.07-.13m-110.4 4.42v4.34l-4.94-.1-4.94-.09-.1-3.46c-.16-5.43-.57-5.03 5.13-5.03h4.85v4.34m-115.82-1.68c-.43.52-.4.53.4.12 1.16-.6 1.25-.7.62-.7-.3 0-.75.26-1.02.58m83.83 1.15c-.1.4 0 .71.22.73 3.65.31 4.9.13 4.97-.73.04-.5-.01-.6-.11-.26-.21.74-.82.81-.82.1 0-.59-2.31-.66-3.03-.1-.3.24-.44.22-.44-.04 0-.66-.6-.43-.79.3m12.35-.16c-.25.67-.2.7 1.18.97 1.07.2 1.61-.23.7-.56-.24-.08-.32-.28-.17-.44.15-.16.52.07.82.5.39.56.66.68.92.42.24-.24.5-.25.78-.02.53.44 1.37-.5 1-1.1-.2-.3-.34-.24-.53.24-.22.57-.27.58-.29.08-.03-.84-3.03-.8-3.26.03-.13.48-.15.48-.19-.04-.05-.75-.68-.8-.96-.08m12.26.16c-.1.4 0 .7.22.72 3.48.23 3.37.25 3.16-.42-.12-.36-.06-.64.12-.64s.42.32.52.73c.25.92 1.07.68 1.22-.37.08-.5-.02-.7-.26-.55-.21.13-.3.38-.19.56.11.17.04.32-.16.32s-.37-.23-.37-.51c0-.59-2.31-.66-3.03-.1-.3.24-.44.22-.44-.04 0-.66-.6-.43-.79.3m11.28 1.25c0 .5.2.83.52.83.34 0 .45-.23.33-.7-.25-.95.34-.87.65.1.24.75.26.75.52.08.15-.38.28-.51.3-.3.04.79 1.36.8 1.51 0 .15-.7.17-.7.44.13l.28.86.25-.86.24-.87.04.82c.03.7.12.76.55.4.29-.24.52-.29.52-.1 0 .18.24.33.52.33.31 0 .52-.32.52-.81 0-.49-.2-.81-.52-.81-.28 0-.52.2-.52.43 0 .33-.07.33-.27.03-.57-.9-5.88-.5-5.88.44m67.29 1.1c.16 1.07.1 1.47-.22 1.46-.28 0-.46-.63-.52-1.8-.1-2.1.4-1.87.74.33m-123.64.35c-.09.33-.16.06-.16-.6 0-.67.07-.95.16-.62.09.34.09.89 0 1.22m22.26-1.3c-2.12.16-2.27.22-2.02.86.23.6.28.6.3.1.03-.74.71-.83.71-.1 0 .72.61.66.8-.08.16-.58.16-.58.2 0 .05.67.57.8.92.24.15-.24.37-.19.63.15.38.5 2.31.43 2.3-.09-.02-.8-.66-1.2-.91-.55-.26.68-.27.68-.45-.01-.18-.63-.4-.68-2.48-.52m24.6-.03c-2.1.19-2.26.25-2.01.9.23.58.28.6.3.08.03-.73.71-.82.71-.09 0 .72.61.66.8-.08.16-.58.17-.58.2 0 .05.68.57.8.94.21.16-.26.34-.2.56.18.5.89.93.66.9-.48a6.2 6.2 0 00-.07-.98c-.02.04-1.06.15-2.32.26m-14.62.75c.22.83.78.87.8.06.03-.56.06-.56.42-.03.37.54.43.54.84 0 .4-.54.44-.53.45.04.01.51.13.56.7.25.56-.3.7-.26.7.16 0 .3.22.53.49.53.31 0 .42-.24.3-.7-.1-.37-.02-.69.17-.69.2 0 .33.28.3.61-.07.9.97.74 1.1-.17.11-.77.05-.78-3.16-.75-3.05.03-3.27.08-3.1.7m17.55-.18c.12.3.21.62.21.71 0 .1.16.07.35-.05.55-.34.4-1.21-.21-1.21-.37 0-.48.19-.35.55m-71.66.31c-.35.9-.27 1.22.3 1.22.57 0 .67-.61.21-1.33-.23-.37-.33-.35-.51.11m-45.82 1.2c.26.4-.4.82-.86.53-.38-.24-.13-.86.36-.86.16 0 .4.15.5.32m41.36.31c.07.23-.11.41-.41.41a.55.55 0 01-.55-.55c0-.6.74-.5.96.14m21.73-.3c.25.4-.4.82-.86.53-.39-.24-.13-.86.35-.86.17 0 .4.15.5.32m10.65.2c0 .18-.17.39-.38.45-.2.07-.37-.13-.37-.45s.17-.52.37-.45c.2.07.38.27.38.45M92.9 190.3c.42.8.4.83-.12.4-.32-.27-.58-.36-.58-.2 0 .14-.08.19-.18.08-.1-.1-.08-.44.04-.76.26-.67.24-.68.84.48m12.83 0c.41.8.4.83-.13.4-.31-.27-.57-.36-.57-.2 0 .14-.09.19-.19.08-.1-.1-.08-.44.05-.76.25-.67.24-.68.84.48m3.89-.17c-.1.48-.21.87-.26.87-.05 0-.17-.4-.26-.87-.1-.54 0-.87.26-.87s.36.33.26.87m13.34-.63c-.33.1-.6.37-.6.63s.27.54.6.63c.55.14.55.16.02.2-.32.02-.68-.13-.8-.32-.37-.59.1-1.38.77-1.34.58.04.58.06.01.2m18.42.3c.62-.37.45-.05-.3.6-.68.57-.7.56-.7-.36.01-.68.1-.81.31-.47.17.26.48.37.7.24m127-.08c.1.25.04.68-.13.95-.23.36-.31.23-.32-.46 0-1.04.17-1.22.45-.5m2.85.56c.03.55-.06.59-.6.25-.54-.33-.56-.42-.11-.51.3-.06.43-.3.3-.52-.13-.23-.1-.29.06-.14.17.15.32.56.35.92m37.9-.47c.62-.38.45-.06-.3.59-.67.57-.7.56-.69-.36 0-.68.1-.81.3-.47.18.26.49.37.7.24m-76.65.65c.04.57-.01.6-.28.19-.3-.46-.37-.46-.66 0-.27.42-.32.38-.28-.19.03-.39.3-.7.6-.7.32 0 .59.31.62.7m81.02.3c.55.15.51.18-.15.13-.46-.04-.9-.3-.98-.59-.09-.34-.04-.38.15-.12.16.21.6.48.98.58"/></g></svg>