<svg xmlns="http://www.w3.org/2000/svg" width="400" height="209.362"><g><path fill="#000" fill-rule="evenodd" stroke="none" d="M59.7 33.67a7.75 7.75 0 00-1.87 1.79l-.8 1.14v79.37c0 43.65.1 79.2.24 78.98.24-.38.28-.25.4 1.22.02.23.18.54.37.67s.34.44.34.68c0 .24.2.44.44.44s.58.23.76.5c.18.29.33.4.33.24 0-.16.25-.04.54.26.49.48 13.46.52 140.03.44l139.49-.08 1.25-.95c2.48-1.9 2.27 5.65 2.27-82.22V36.87l-.78-1.15a8.51 8.51 0 00-1.92-1.92l-1.15-.78H200.21c-136.33 0-139.47.02-140.5.65m37.65 9.05c10.73.13 21.02.16 23.32.09 3.91-.13 203.17.47 206.8.62 7.6.31 7.5.24 7.5 5.1 0 3.04-.04 3.21-.77 3.39-.42.1-60.43.14-133.36.09l-132.6-.1v-3.6c0-4.11.2-4.52 2.34-5.13a6.96 6.96 0 001.72-.67c.17-.15 3.31-.2 6.98-.1 3.67.1 11.8.24 18.07.31M283.5 48.4c-1 2.25-.99 2.8.02 1.88.82-.74 2.43-.73 2.98.03.84 1.15.86.13.03-1.84-1.17-2.77-1.83-2.79-3.03-.07m5.2.15c0 1.64.1 2.2.42 2.1.23-.08.42-.36.42-.63 0-.78 1.45-.78 1.94.01.24.39.63.7.87.7.54 0 .55-.42.02-.95-.32-.32-.32-.5 0-.82 1.25-1.25.17-2.65-2.05-2.65h-1.63v2.24m4.94-1.9c-.13.2.22.34.83.34 1.03 0 1.04.01 1.04 1.87 0 2.39.61 2.46.75.09.1-1.67.16-1.8 1.04-1.9.51-.06.93-.25.93-.42 0-.43-4.33-.41-4.6.02m5.62 1.19c0 2.5 2.38 3.9 3.87 2.27.62-.69.8-3.8.22-3.8-.19 0-.34.54-.34 1.21 0 1.52-.52 2.53-1.3 2.53-.98 0-1.43-.72-1.43-2.28 0-1.07-.13-1.46-.5-1.46-.38 0-.52.4-.52 1.53m6.13.68c0 1.25.15 2.21.34 2.21.19 0 .34-.3.34-.68 0-.48.23-.68.78-.68.42 0 1.04.3 1.36.68.79.93 1.4.9.9-.03-.27-.52-.27-.82 0-1.1 1.21-1.2.1-2.61-2.08-2.61h-1.64v2.21m5.79 0c0 1.25.15 2.21.34 2.21.2 0 .34-.96.34-2.2 0-1.26-.15-2.22-.34-2.22-.2 0-.34.96-.34 2.21m2.96-.13c-.98 2.26-.97 2.8.04 1.89.82-.74 2.43-.73 2.98.03.84 1.15.86.13.03-1.84-1.18-2.8-1.87-2.82-3.05-.08M78.27 46.81c0 .1-.03.97-.04 1.96l-.03 1.78 1.91.1c2.6.14 3.3-.28 3.3-1.97 0-.97-.19-1.43-.66-1.69-.66-.35-4.43-.5-4.47-.18m6.15 1.87v2.04h2.24c1.64 0 2.2-.11 2.1-.42-.09-.25-.74-.43-1.62-.43-.88 0-1.53-.17-1.62-.42-.1-.3.32-.43 1.42-.43.86 0 1.56-.15 1.56-.34 0-.19-.7-.34-1.56-.34-2.11 0-1.85-.81.31-.95 2.4-.16 1.9-.75-.62-.75h-2.21v2.04m5.44.02v2.06l1.88-.1c2.23-.13 2.64-.74.59-.9l-1.45-.1v-1.5c0-1.13-.13-1.52-.5-1.52-.4 0-.52.45-.52 2.06m5.8-.45a7.94 7.94 0 00-1.03 2.05c0 .6.9.53 1.14-.09.12-.31.64-.5 1.36-.5.64 0 1.35.22 1.58.5 1.38 1.66 1.6.48.32-1.74-1.33-2.33-2.02-2.38-3.37-.21m6.1-.44c.64.65 1.18 1.53 1.2 1.96.08 1.03 1.2 1.27 1.2.25 0-.4.47-1.34 1.05-2.07.96-1.2.99-1.32.36-1.32-.37 0-1 .4-1.39.9l-.7.9-.7-.9c-.4-.5-1.04-.9-1.44-.9-.65 0-.61.1.43 1.18m6.82-.65c0 .36.25.5.76.43.68-.1.79.07.94 1.42.12 1.06.33 1.53.68 1.53.37 0 .52-.4.54-1.53.02-1.37.1-1.53.82-1.54.44 0 .86-.2.94-.42.1-.3-.52-.42-2.27-.42-1.96 0-2.41.1-2.41.53m6.31 1.33c-1.04 1.93-1 2.75.1 1.77.77-.7 2.55-.74 3.12-.06 1.36 1.65 1.56.53.3-1.7-1.41-2.52-2.17-2.52-3.52 0m5.6.17c0 1.59.11 2.04.51 2.04.28 0 .51-.23.51-.5 0-.37.38-.52 1.34-.52 1.42 0 2.4-.68 2.4-1.66 0-1.02-.75-1.4-2.78-1.4h-1.98v2.04m5.45 0v2.04h2.21c1.79 0 2.21-.1 2.21-.53 0-.43-.33-.52-1.59-.44-1.02.06-1.64-.05-1.73-.32-.1-.28.35-.4 1.42-.4.86 0 1.56-.16 1.56-.35 0-.19-.7-.34-1.56-.34-2.11 0-1.85-.81.31-.95 2.4-.16 1.91-.75-.62-.75h-2.21v2.04m9.08-1.81c-.42.41-.24 1.13.28 1.13.28 0 .51-.15.51-.34 0-.19.54-.34 1.2-.34 1.91 0 1.52.91-.52 1.2-1.6.21-1.7.28-1.7 1.21v1h2.2c1.2 0 2.28-.16 2.4-.35.13-.2-.51-.34-1.69-.34-1.04 0-1.89-.13-1.89-.3 0-.34 1.17-.7 2.28-.71a1.2 1.2 0 001.08-1.79c-.32-.6-3.62-.9-4.16-.38m5.36.25c-.1.26-.13 1.14-.07 1.96l.1 1.48 1.82.1c2.5.15 3.94-2.03 2.37-3.6-.58-.59-3.99-.54-4.22.06m6.29.18c-.93.75-.6 1.4.4.78.96-.6 1-.56 1 1.15 0 2.34.83 1.78.96-.65.11-2.2-.7-2.63-2.36-1.28m138.51 1.67c-.91.16-1.01-.04-.57-1.17l.37-.98.43 1.02c.38.92.36 1.03-.23 1.13m6.46-1.6c.61.61.1 1.32-.94 1.32-1.06 0-1.51-.44-1.22-1.2.22-.6 1.62-.66 2.16-.12m16.6.47c0 .52-.26.7-1.1.79-1 .1-1.1.01-1.1-.79s.1-.88 1.1-.79c.84.08 1.1.27 1.1.79m-164.42.64c0 1.3-.84 1.84-2.02 1.3-1.62-.73-.86-2.56 1-2.38.88.09 1.02.24 1.02 1.08m172.36-.3c.36.79.33.85-.49.85-.66 0-.83-.13-.67-.54.11-.3.2-.68.2-.85 0-.62.58-.3.96.54m-233.98.51c0 .76-.16.86-1.44.96-1.42.1-1.45.08-1.45-.96s.03-1.06 1.45-.95c1.28.09 1.44.2 1.44.95m15.63-.48c.3.8.28.82-.66.82-.76 0-.82-.08-.5-.68.44-.82.88-.87 1.16-.14m19.4 0c.3.8.28.82-.66.82-.75 0-.81-.08-.5-.68.44-.82.88-.87 1.16-.14m6.84-.03c0 .19-.57.39-1.27.45-1 .08-1.28-.02-1.28-.45s.28-.53 1.28-.45c.7.06 1.27.26 1.27.45m7.32.85c0 .19.62.34 1.37.34.74 0 1.36-.15 1.36-.34 0-.19-.62-.34-1.36-.34-.75 0-1.37.15-1.37.34m99.66 4.37l103.92.06v1.7H68.09v-.84c0-1.07-1.03-1.04 32.85-1 14.41.02 72.97.05 130.12.08M73.87 68.41c0 5.74-.13 9.25-.34 9.38-.22.14-.34-3-.34-9.17 0-6.03.12-9.39.34-9.39.22 0 .34 3.29.34 9.18m17-8.7c-.29.27-8.2.4-8.36.14-.1-.15 1.78-.28 4.16-.28 2.39 0 4.27.07 4.2.14m33.63 1.9c.1.38.3.69.44.69s.34-.3.44-.68c.36-1.4 1.26-.79 1.26.85 0 1.52-.66 2.23-.7.76l-.03-.76-.37.76c-.2.43-.47.77-.6.77s-.4-.34-.61-.77l-.37-.76-.02.76c-.05 1.48-.7.76-.7-.76 0-1.64.9-2.24 1.26-.85m5.48.44c.15 1.25-.5 2-1.61 1.87-.9-.1-1.36-1.36-.9-2.53.37-.98 2.38-.45 2.51.66m2.96.4c0 1.34-.04 1.37-1.28 1.48l-1.28.1V60.9l1.28.1c1.24.1 1.28.14 1.28 1.47m2.89-1.2c0 .2-.34.37-.77.4l-.76.04.76.15c.95.18 1.02.78.09.78-.38 0-.68.15-.68.34 0 .19.3.34.68.34.37 0 .68.15.68.34 0 .19-.46.34-1.02.34-.99 0-1.02-.06-1.02-1.53 0-1.48.03-1.53 1.02-1.53.56 0 1.02.15 1.02.34m4.35.27c.1.31-.13.39-.83.26l-.97-.18.95.4c1.33.57 1.16 1.8-.24 1.8-.54 0-1.06-.2-1.14-.44-.1-.32.1-.38.74-.22.55.14.88.08.88-.15 0-.21-.3-.38-.66-.38-.79 0-1.17-.52-.9-1.23.24-.63 1.95-.52 2.17.14m2.8-.27c0 .18-.3.34-.68.34-.38 0-.68.15-.68.33 0 .18.21.24.47.14.26-.1.58-.02.7.18.14.22-.06.37-.47.37-.39 0-.7.15-.7.34 0 .19.3.34.68.34.37 0 .68.16.68.36 0 .2-.48.32-1.08.26-1.05-.1-1.32-.88-1-2.83.06-.34 2.08-.17 2.08.17m1.36.85c0 .96.13 1.19.68 1.19.38 0 .68.15.68.34 0 .19-.46.34-1.02.34-.98 0-1.02-.06-1.02-1.53 0-.84.15-1.53.34-1.53.19 0 .34.53.34 1.19m3.75-.85c0 .18-.32.34-.7.34-.4 0-.62.14-.5.32.1.18.42.24.7.14.27-.1.5-.04.5.14 0 .19-.35.45-.77.59-.73.23-.71.25.25.5 1.14.27.45.86-.74.63-1.25-.24-1.05-3 .21-3 .58 0 1.05.15 1.05.34m3.09.08c.02.34.06.34.2 0 .2-.5 2.5-.58 2.5-.08 0 .18-.16.34-.35.34-.19 0-.34.53-.34 1.19 0 .65-.15 1.19-.34 1.19-.19 0-.34-.51-.34-1.13 0-1.12-.02-1.14-1.53-1.14-1.24 0-1.53.12-1.53.6 0 .8.6 1.14 1.17.66.28-.23.55-.26.66-.07.34.55-.75 1.17-1.66.94-.84-.21-1.27-2.05-.63-2.7.4-.4 2.16-.24 2.19.2m5.74.23c.56 1.04-.11 2.41-1.17 2.41-1.13 0-1.79-1.28-1.22-2.34.5-.92 1.92-.96 2.4-.06m3.14-.29c.21.64-.13 2.69-.45 2.69-.16 0-.3-.23-.3-.51a.51.51 0 00-.51-.51.51.51 0 00-.51.5c0 .29-.16.52-.34.52-.19 0-.34-.69-.34-1.53 0-1.52 2.01-2.46 2.45-1.16m35.61 1.41c.1 1.23-.35 1.74-.76.85-.16-.34-.24-.34-.4 0-.37.81-.82.43-.82-.7 0-2.16 1.8-2.3 1.98-.15m2.28-1.1c.11.18-.03.34-.32.34-.3 0-.53.16-.53.36 0 .2.14.27.31.16.18-.1.42-.04.53.15.12.2-.06.37-.4.39-.57.03-.57.05-.02.2.9.23.72.78-.25.78-.74 0-.85-.15-.85-1.13 0-1.5.92-2.24 1.53-1.25m2.51.12c.53.63.12 1.58-.68 1.58-.35 0-.64.16-.64.36 0 .2-.15.27-.34.15-.49-.3-.42-2.12.08-2.33.75-.3 1.19-.23 1.59.24m2.41-.12c0 .18-.26.36-.6.38-.56.03-.56.04 0 .2.34.08.6.29.6.46 0 .18-.26.34-.6.36-.56.04-.56.04 0 .2.9.23.72.78-.25.78-.84 0-1.3-1.82-.62-2.5.35-.35 1.47-.26 1.47.12m2.55 1.38c.2.8.13.86-1 .86-.66 0-1.2-.05-1.2-.1 0-2.16 1.72-2.75 2.2-.76m2.45-1.27c.12.13.05.23-.17.23-.22 0-.4.46-.4 1.02s-.15 1.02-.34 1.02c-.19 0-.34-.46-.34-1.02s-.15-1.02-.34-1.02c-.19 0-.34-.15-.34-.32 0-.35 1.56-.27 1.93.1m3.43-.04c.28.35.32 1.2.11 2.28-.01.08-.25-.15-.51-.51-.45-.62-.5-.62-.72-.07-.38.99-.84.68-.84-.56 0-1.42 1.18-2.1 1.96-1.14m5.07.02c.13.13.06.24-.16.24s-.4.46-.4 1.02-.15 1.02-.34 1.02c-.19 0-.34-.46-.34-1.02s-.16-1.02-.36-1.02c-.2 0-.28-.13-.19-.29.2-.33 1.44-.3 1.79.05m2.16-.1c0 .18-.27.36-.6.38-.56.03-.56.04 0 .2.34.08.6.29.6.46 0 .18-.27.34-.6.36-.56.04-.56.04 0 .2.9.23.72.78-.25.78-.84 0-1.3-1.82-.62-2.5.35-.35 1.47-.26 1.47.12m-126.72.6c.1.27-.2.4-.82.4-.53-.02-.76-.12-.5-.22.39-.16.39-.23 0-.5-.34-.23-.24-.28.36-.21.45.05.88.29.96.52m36.17.26c0 .53.2.85.51.85.32 0 .51-.32.51-.85s-.2-.85-.5-.85c-.33 0-.52.32-.52.85m3.32.01c.2 1.02.89.94 1.04-.12.08-.55-.06-.74-.54-.74-.53 0-.63.18-.5.86m23.91-.01c0 .53.2.85.52.85.31 0 .5-.32.5-.85s-.19-.85-.5-.85c-.32 0-.52.32-.52.85m3.07-.51c0 .19.23.34.5.34.29 0 .52-.15.52-.34 0-.19-.23-.34-.51-.34s-.51.15-.51.34m55.72.78c.34 1.12.33 1.12-.8 1.12-1.24 0-1.3-.08-.8-1.37.46-1.2 1.19-1.1 1.6.25m-126.34-.4c.26.41-.5 1.03-1.04.86-.19-.06-.4-.36-.45-.68-.13-.65 1.11-.8 1.5-.18m111.46-.04c0 .19.23.34.51.34s.51-.16.51-.34c0-.19-.23-.34-.51-.34s-.51.15-.51.34m10.9 0c0 .19.22.34.5.34s.51-.16.51-.34c0-.19-.23-.34-.5-.34-.29 0-.52.15-.52.34m-17.36.34c0 .2-1.08.34-2.55.34h-2.56v1.53c0 .84-.15 1.53-.34 1.53-.18 0-.34-.84-.34-1.87V62.3h2.9c1.7 0 2.9.14 2.9.34m33.01 1.53c0 1.48-.11 1.87-.53 1.87-.43 0-.52-.3-.44-1.44l.11-1.45-2.46-.1c-3.45-.14-3.1-.75.43-.75h2.9v1.87m-141.97-.85c0 .37-.16.68-.37.68-.2 0-.3-.22-.19-.5.13-.34.03-.42-.36-.28-.36.14-.47.08-.3-.18.4-.65 1.23-.46 1.23.28m11.31.17c.93.18 1.28.42 1.28.87 0 .9-.28.97-2.52.61-2.51-.4-7.17.09-9.93 1.03-1.98.68-2.87.49-2.87-.63 0-.65 2.23-1.01 2.67-.44.43.55.45.54.24-.16-.13-.42-.18-.78-.12-.8 4.06-.82 8.43-1.01 11.25-.48M81.5 64.58c-.7.51-1.15.55-1.8.13-.37-.23-.25-.41.5-.81 1.25-.65 2.33-.08 1.3.68m-2.59 1.1c.11.33-.01.4-.41.25-.32-.12-.5-.09-.4.08.28.44-.63.7-1.2.35-.39-.24-.35-.38.2-.8.8-.62 1.59-.56 1.81.11m16.5.19c1.26.55.1.81-2.76.62-4.07-.26-11.97 1.42-11.97 2.55 0 .1 1.38 2.03 3.07 4.27 1.7 2.24 2.99 4.16 2.88 4.27-.11.1-.3.04-.44-.16-.63-.95-5.46-7.3-6.64-8.74-.73-.9-1.24-1.73-1.13-1.84.11-.12.51.17.88.65l.68.85 1.73-.86c3.74-1.84 11.15-2.72 13.7-1.61m-14.37.38c.47.56 0 1.15-.91 1.16-.74 0-1.34-1.03-.79-1.38.71-.45 1.2-.39 1.7.22m104.6 1.59c.14.32.27.3.55-.08.32-.46.4-.46.7 0 .22.34.34.36.34.08 0-.23.16-.43.34-.43.2 0 .34.45.34.99 0 1-.86 1.33-1.44.55-.15-.2-.25-.16-.25.12 0 .38-.1.39-.52.05-.38-.32-.5-.33-.5-.03 0 .23-.14.33-.3.23-.36-.22-.09-1.9.3-1.9.15 0 .35.19.45.42m4.25.51c-.17 1.45-1.65 1.55-1.65.1 0-.89.13-1.04.88-1.04s.86.13.77.94m34.14-.34c.03.5.06.5.18.06.12-.43.64-.55 2.43-.55 1.26 0 2 .06 1.64.15-.52.12-.55.21-.17.45.4.26.4.3-.03.32-.45 0-.45.04-.02.32.28.18.39.44.25.58-.15.14-.56.07-.93-.15-.37-.23-.67-.29-.67-.13 0 .16-.92.3-2.04.3-2.02 0-2.04-.01-2.04-.97 0-1.11 1.33-1.47 1.4-.38m25.83-.15c0 .25.14.24.41-.04.7-.7 4.04-.53 3.78.19-.12.33-.39.7-.59.85-.22.15-.13.25.23.25.37 0 .6-.25.6-.65 0-.94.7-1.26 1.12-.51.34.6.36.6.61-.04.2-.53.27-.44.29.44.02 1.17-.26 1.38-.93.7-.23-.23-.41-.26-.41-.07 0 .94-2.38.5-2.44-.45l-.05-.95-.14.94c-.16 1.06-.78 1.28-.78.28 0-.37-.15-.76-.34-.88-.19-.11-.34.17-.34.67 0 .94-.31 1.1-.95.46-.3-.3-.4-.3-.4-.02 0 .21-.31.36-.69.33-1.1-.08-.94-1.76.17-1.82.47-.03.85.11.85.32m8.21.15c.04.57.05.57.2 0 .18-.7 3.17-.9 3.17-.21 0 .26.16.25.5-.05.62-.5.65-.31.12.84-.39.86-.4.86-.76.14-.48-.93-1-.89-1.28.11-.21.77-.22.78-.25.04-.05-1.03-.72-1.36-.72-.35 0 .7-.17.82-1.19.86-.65.03-1.19-.1-1.19-.27 0-.18.27-.24.6-.14.56.18.56.17 0-.2-.81-.51-.76-1.37.08-1.37.4 0 .7.24.72.6m-32.38.25c0 .29.16.52.34.52.19 0 .34-.23.34-.52 0-.28-.15-.5-.34-.5-.19 0-.34.22-.34.5m50.9.52c.11.18-.07.35-.41.36-.42.02-.47.09-.15.22.39.15.39.23 0 .47-.35.23-.3.3.2.3s.56.1.28.4c-.6.58-1.46.07-1.46-.86 0-1.02 1.07-1.64 1.54-.9m1.79.28c.08.25-.07.33-.4.2-.36-.13-.54-.02-.54.34 0 .61.05.64.82.34.3-.11.54-.42.54-.68 0-.26.15-.47.34-.47.19 0 .34.17.34.38 0 .26.16.25.51-.04.39-.32.51-.33.51-.02 0 .26.18.22.52-.12.7-.7 1.52-.32 1.52.7 0 .97-.81 1.4-1.53.8-.4-.34-.5-.34-.5.02 0 .27-.2.19-.5-.21-.34-.44-.51-.5-.52-.2 0 .25-.22.38-.48.28a.86.86 0 00-.84.19c-.42.42-1.41-.22-1.41-.9 0-1 1.32-1.5 1.62-.6m11.13-.3c.11.18.43.24.7.14.35-.14.5.03.5.52 0 .96.6.92.78-.05.13-.67.16-.65.2.15.05 1.1-.4 1.45-1.26.99-.43-.23-.75-.22-1 .02-.2.21-.55.25-.81.08-.63-.39-1.43-.37-1.73.04-.16.21-.25.18-.26-.08 0-.22-.23-.32-.51-.22-.38.15-.51-.04-.51-.69 0-.96.3-1.12.95-.48.32.32.4.31.4-.03 0-.29.26-.39.69-.28.37.1.77.04.87-.13.25-.4.74-.39 1 .02m6.18.12c.13.13.06.24-.16.24s-.42.42-.45.93l-.05.94-.15-.94c-.16-1.06-.77-1.28-.77-.27 0 .92-.57 1.17-1 .45-.19-.33-.35-.41-.35-.18-.02.83-.7.42-.7-.42 0-.53.2-.85.52-.85.28 0 .5.19.51.42 0 .3.08.31.26.05.45-.68 1.81-.9 2.34-.37m9.92.6c.08.68-.06.84-.76.88-.7.04-.87-.11-.87-.74 0-1.38 1.47-1.5 1.63-.14m1.38-.33c-.37.24-.36.3.05.33.4.02.42.07.05.22-.38.15-.39.23 0 .46.58.36.14.8-.54.54-.63-.24-.7-1.8-.1-2.02.64-.23 1.07.14.54.47m5.59-.4c.58.05.24 1.69-.35 1.66a6.34 6.34 0 00-1.52.23c-.79.21-.99.13-1.23-.53l-.28-.77-.23.82c-.27.94-1.26.11-1.23-1.02 0-.43.1-.4.5.13.42.55.5.56.5.1 0-.72.9-.87 3.84-.62m1.8-.05c.55.39.5 1.7-.07 1.92-.73.28-1.14-.06-1.14-.96 0-1.12.46-1.49 1.2-.96m7.66.54c0 .21.15.16.33-.12.27-.42.33-.37.34.25 0 .42.16.77.34.77.2 0 .34-.3.34-.68 0-.38.16-.68.35-.68.18 0 .33.36.33.81 0 .98-1.04 1.5-1.5.77-.29-.45-.38-.44-.75.06-.36.48-.54.5-1.13.14-.56-.34-.7-.34-.73 0-.01.24-.09.27-.17.08-.09-.2-1.02-.32-2.17-.27-1.94.08-2.01.05-1.75-.65.38-1.05 1-1.14 1.38-.2l.31.79.03-.77c.02-.76 1.04-1.14 1.04-.38 0 .25.2.22.56-.09.44-.36.6-.37.71-.04.11.32.26.3.64-.07.53-.53 1.49-.36 1.5.28m5.54.3c-.2 1.08-.78 1.27-.78.26 0-.38-.16-.68-.34-.68-.19 0-.34.4-.34.9 0 .87-.03.88-.65.32-.5-.45-.68-.48-.82-.14-.1.25-.2.03-.2-.49-.04-1 .27-1.18.92-.53.29.3.4.3.4.03 0-.29 1.3-.7 1.94-.61.02 0-.03.43-.13.94m-181.89-.41c2.08.45 5.79 2.02 5.79 2.45 0 .37-.3.3-3.1-.72a19.47 19.47 0 00-14.66.36c-1.08.46-1.54.84-1.41 1.16.1.3-.04.48-.37.48-.3 0-.55-.06-.55-.14 0-.08-.09-.39-.2-.68-.74-1.91 9.6-3.99 14.5-2.91m139.37.18c.37.97.26 1.7-.2 1.24-.29-.29-.52-.3-.85-.02-.34.28-.45.24-.45-.15 0-.88.4-1.6.86-1.6.24 0 .53.24.64.53m-196.48.49c.23.37.53.68.66.68s.33-.3.45-.68c.12-.38.43-.68.69-.68.38 0 .36.2-.1 1.02-.75 1.3-1.47 1.3-2.24 0-.66-1.12-.15-1.44.54-.34m3.39.08c.07.5.34.77.79.77.44 0 .71-.27.79-.77.15-1.1.8-.94.67.17-.1.85-.23.94-1.46.94-1.24 0-1.38-.09-1.47-.94-.13-1.11.52-1.28.68-.17m117.08.14c.69.6.72 2 .07 2.55-.39.32-.4.45-.04.68.25.16-1.23.28-3.34.29h-3.8l-.2-1.06c-.32-1.59-.26-3.02.12-3.02.19 0 .34.84.34 1.87 0 1.56.1 1.87.6 1.87.45 0 .48-.08.15-.3-.3-.18-.41-.8-.34-1.78l.1-1.5 1.7-.16c2.3-.23 3.97-.03 4.64.56m72.3-.55c-.33.53.11.87.55.43.24-.25.25-.44.02-.58-.2-.12-.45-.05-.58.15m7.33.16c0 .28.15.5.34.5.19 0 .34-.22.34-.5s-.15-.51-.34-.51c-.19 0-.34.23-.34.5m21.74-.2c.4.25.4.32 0 .48-.32.13-.28.2.13.21.33.02.6-.2.6-.48 0-.28-.27-.51-.6-.5-.46 0-.5.06-.13.3m-122.54 1.51c.3.36.26.57-.15.9-.65.55-1.37-.02-1.06-.83.25-.66.7-.68 1.2-.07m15.28-.2c-.07.13-.12.48-.1.75.02.7 1.2.9 1.2.2 0-.29-.19-.53-.42-.54-.28 0-.26-.11.08-.33.44-.29.44-.33-.06-.34-.32 0-.63.11-.7.25m4.91.51c.11.78 1.3 1.32 1.3.59 0-.22-.23-.31-.5-.2-.32.11-.52 0-.52-.3s.2-.41.51-.3c.28.11.51.03.51-.17 0-.21-.32-.38-.7-.38-.54 0-.68.18-.6.76m17.98.14c0 .64-.97.99-1.44.52-.26-.27-.25-.51.05-.88.49-.58 1.4-.35 1.4.36m29.84-.37c.28.74-.44 1.44-.96.92-.43-.44-.16-1.45.39-1.45.2 0 .45.24.57.53m-113.7.92c-.05.86-.21 1.1-.74 1.1-.52 0-.7-.26-.8-1.1-.09-.98 0-1.11.75-1.11.73 0 .83.14.78 1.1m11.92-.23c.11.3.03.71-.18.92-.21.21-.38.55-.38.75 0 .2.3-.03.65-.49.77-1 2.27-.14 1.94 1.1-.13.5-.01.58.58.42.68-.2.68-.16-.11.48-1.34 1.09-1.87.58-1.03-.98.24-.46.2-.67-.16-.8-.32-.13-.42-.03-.3.3.15.37.04.44-.43.26-.56-.2-.58-.17-.17.34.63.77.06.7-.92-.1-.46-.4-.69-.84-.54-1.08.17-.28.07-.34-.31-.19-.66.25-.7.1-.22-.8.43-.8 1.3-.87 1.58-.13m28.94.68c.28.74-.44 1.44-.96.92-.43-.43-.16-1.45.39-1.45.2 0 .45.24.56.53m9.61-.06c.3.35.26.56-.14.9-.65.54-1.38-.03-1.07-.84.26-.65.7-.68 1.21-.06m28.41.02c.26.67-.7 1.44-1.2.95-.47-.47-.11-1.44.53-1.44.27 0 .57.22.67.49m9.64.04c.29.74-.43 1.44-.95.92-.43-.43-.16-1.45.39-1.45.2 0 .45.24.56.53m20.43 0c.31.81-.42 1.38-1.07.84-.4-.34-.43-.55-.14-.9.51-.62.96-.6 1.21.06m9.6-.06c.3.35.27.56-.13.9-.65.54-1.38-.03-1.07-.84.25-.65.7-.68 1.2-.06m25.43.24c.35.57-.44 1.22-.91.75-.4-.4-.15-1.12.38-1.12.16 0 .4.17.53.37m30.39.42c.06.33-.11.57-.41.57-.63 0-1.01-.55-.71-1.04.3-.5.98-.2 1.12.47m-127.45.28c.2.18.15.3-.12.3s-.36.2-.24.53c.17.43-.04.52-1.07.48-2.32-.11-2.68 0-4.2 1.17-5.17 4.03-2.8 12.45 3.5 12.45 1 0 1.23.11 1.08.51-.25.63-1.88.65-3.61.03-6.43-2.3-7.38-11.68-1.5-14.73 2.42-1.26 5.23-1.6 6.16-.75m37.07-.38c1.33 0 .3 1.54-1.08 1.62-7.72.46-8.16 12.4-.5 13.68 1.33.22 1.65.82.52.98-5.21.74-9.78-6.85-7.13-11.86 1.26-2.39 5.64-5.11 7.33-4.56.25.08.64.14.86.14m30.35 0c.38.16.5.3.27.32-.24.01-.34.28-.23.62.17.56.16.56-.2 0-.5-.78-1.13-.77-.89 0 .15.47-.01.6-.77.64-4.52.18-7 6.84-4.02 10.75 4.75 6.21 13.47 1.92 11.92-5.85-.14-.68-.9-1.8-2.01-2.94-1-1.01-1.64-1.84-1.45-1.84.2 0 .25-.25.13-.55-.18-.5-.1-.49.73.04 6.6 4.19 3.9 14.09-4 14.67-9.51.7-12.06-12.04-3.11-15.55 1.75-.68 2.6-.75 3.63-.3M133.78 74.6c.01.84-1.02 1.09-1.56.39-.62-.82-.59-1.36.1-1.75.66-.36 1.44.37 1.46 1.36m17.03-1.24c.4.49-.64 1.83-1.45 1.86-.55.03-.21-.66.51-1.05.47-.25.6-.47.34-.55-.48-.16-.58-.77-.12-.77.16 0 .48.23.72.51m131.23.54c0 .26-.27.52-.6.59-.58.11-.82-.61-.36-1.08.36-.35.96-.05.96.49m8.17 0c0 .26-.26.52-.6.59-.58.11-.82-.61-.36-1.08.36-.35.96-.05.96.49m22.3.16c0 .5-.73.67-1.13.27-.3-.3.45-1.18.83-.94.17.1.3.4.3.67m8.17 0c0 .5-.73.67-1.13.27-.3-.3.45-1.18.83-.94.17.1.3.4.3.67m-176.25.31c10.28 2.18 15.38 13.67 10.02 22.6-1.15 1.92-4.72 5.5-5.5 5.5-.39 0-1.06-1-.79-1.18 12.5-8.38 7.21-26.51-7.47-25.62-12.71.77-17.66 17.73-7.19 24.66 1.27.84 1.6 1.75.76 2.04-.21.07-1.05-.38-1.86-1-11.56-8.81-5.66-26.72 9.05-27.45.37-.02 1.72.18 2.98.45m86.54.71c1.6 1.21 2.26 2.78 2.14 5.07-.08 1.65-.6 2.8-.6 1.34 0-1.3-.88-3.33-2.03-4.66-1.82-2.1-1.5-3.26.5-1.75m88.34.29c1.48.73 3.06 2.54 3.06 3.5 0 .26-.5-.1-1.1-.79-3.31-3.76-8.75-2.81-10.13 1.77-1.03 3.46 2.08 7.26 6 7.32 1.24.02 1.26.04.47.37-2.3.94-5.9-.49-7.3-2.89-3.6-6.21 2.49-12.5 9-9.28m-125.85.43c2.61 2.6 2.28 8.6-.61 11-.94.78-1.48-.14-.65-1.1 1.78-2.01 2-5.08.57-7.84-1.62-3.1-1.3-4.05.69-2.06m92.88-.95c-.25.16-.43.43-.4.6.02.16-.54.41-1.24.56-6.66 1.38-4.85 11.4 2 11.06 2.25-.1 2.1.41-.2.67-7.82.88-10.8-9.53-3.61-12.64 1.25-.55 4.27-.76 3.45-.25m-128.12.68c.09.27-.1.39-.5.32-.38-.06-.62.1-.62.4 0 .53.25.56 1.27.17.86-.34 1.16.73.42 1.54-.67.75-1.26.6-.94-.24.13-.33.07-.47-.14-.34-.19.12-.68-.15-1.1-.59l-.75-.8.78-.55c.85-.6 1.36-.57 1.58.1m130.77.02c3.44 1.76 4.4 6.73 1.9 9.72l-.87 1.02.86-1.67c1.79-3.48.49-6.9-3.23-8.51-.66-.29-1-.53-.75-.53.25-.01.35-.17.24-.36-.33-.53.42-.4 1.85.33m-109.34.61c.19.56-.88.96-1.34.5-.2-.2-.25-.53-.11-.74.3-.5 1.26-.33 1.45.24m16.6.09c0 .73-1 .62-1.14-.12-.09-.46.05-.6.5-.5.35.06.63.34.63.62m21.28 0c0 .45-.22.68-.68.68-.45 0-.68-.23-.68-.69 0-.45.23-.68.68-.68.46 0 .68.23.68.69m16.68-.2c0 .27-.16.6-.37.72-.48.3-1.13-.36-.84-.84.34-.53 1.21-.45 1.21.13m13.53.1c.2.56-.88.96-1.33.5-.2-.2-.25-.53-.12-.74.3-.5 1.27-.33 1.46.24m16.59.09c0 .73-.99.62-1.13-.12-.09-.46.05-.6.5-.5.35.06.63.34.63.62m-74.73.42c1.87.95 2.72 2.1 2.98 4l.2 1.46-1.33-.24a24.8 24.8 0 01-1.93-.4c-.37-.12-.6 0-.6.31 0 .34.58.57 1.88.73 2.11.26 2.12.28 1.2 1.8-2.7 4.4-9.76 3.02-10.4-2.03-.58-4.67 3.82-7.77 8-5.63m37.8-.43c1.62.45 3.25 2.22 3.73 4.04.49 1.84.43 1.9-1.57 1.47-.9-.2-1.75-.27-1.9-.18-.58.36.14.75 1.78.97 1.9.26 2 .46 1.02 2.05-3.21 5.19-11.83 1.25-10.2-4.66.78-2.83 4.09-4.54 7.15-3.69m28.41 1.42c0 1.1.16 1.81.42 1.9.31.1.43-.38.43-1.75 0-2.24.33-2.38 2.56-1.07 5.36 3.14 1.8 11.5-4.22 9.93-5-1.3-5.98-7.49-1.57-9.98 2.1-1.19 2.38-1.07 2.38.97m-113.7-1.06c.13.2.04.58-.19.85-.34.42-.25.5.57.51.54.01 1.44.23 2 .5l1.02.48-.98-.2c-.93-.2-.97-.15-.84.78l.15 1-2.17-.13c-3.86-.22-8.8 3.16-9.4 6.43-.09.46-.17.87-.18.92-.01.04.01.14.06.21.05.08-.18.43-.5.8-.36.38-.47.77-.29.96.17.18.38.78.47 1.34.53 3.48 2.8 6.69 5.28 7.47 2.12.67 3.81.84 5.44.55 1.11-.2 1.36-.17 1.1.14-.2.23-.25.51-.14.63.12.1-.2.3-.68.43-.87.22-.9.28-.9 3.08 0 2.3-.09 2.85-.5 2.85-.6 0-.77-5.05-.2-5.63.2-.2-.27-.34-1.27-.36-12.46-.28-12.58-20.11-.13-22.1 1.18-.18 1.38-.32 1.07-.7-.44-.53-.16-1.17.53-1.17.26 0 .57.17.69.36m136.86.02c.35.56-.44 1.21-.91.74-.4-.39-.15-1.12.38-1.12.16 0 .4.17.53.38m14.1.3c0 .72-.49.92-.85.35-.24-.4.08-1.03.54-1.03.17 0 .32.31.32.69m16.46-.16c.12.3-.01.6-.31.72-.67.26-.97-.05-.72-.72.26-.67.78-.67 1.03 0m14.02-.16c.35.57-.44 1.22-.9.75-.4-.39-.15-1.12.37-1.12.17 0 .4.17.53.38m-4.38.97c4.87 2.2 2.06 9.69-3.15 8.38l-.88-.22.7-1.2c.4-.66.72-1.34.72-1.52 0-.7-.61-.26-1.22.88-.84 1.56-1.4 1.5-2.2-.26-1.91-4.21 1.83-7.97 6.03-6.06m-30.25.37c2.41 1.47 2.75 5.33.63 7.09-.41.34-.63.2-1.24-.8-.41-.65-.89-1.2-1.06-1.2-.47 0-.38.4.35 1.59 1.05 1.72-1.52 2.2-3.75.7-4.88-3.28.04-10.45 5.07-7.38m-152.94.98c-.3.47-1.1.48-1.4.01-.11-.2-.02-.58.22-.86.5-.61 1.6.17 1.18.85m12.4-.5c0 .27-.15.59-.35.7-.44.28-1.4-.48-1.15-.9.3-.48 1.5-.33 1.5.2m11.95.05c.48.58-.29 1.5-1.25 1.5-.72 0-.9-1.14-.27-1.6.78-.57.97-.56 1.52.1m-35.1 1.17c0 .18-.28.33-.63.33-.78 0-1.89 2.76-2.52 6.3-.47 2.61-1.17 2.97-.98.5.13-1.74 1.5-6.09 2.3-7.32.54-.82 1.84-.69 1.84.2m77.46.4l.46-1.1h2.7c3.97 0 5.39 3.3 1.68 3.93-1.6.27-5.11-.11-4.86-.53.1-.16.04-.38-.13-.49-.18-.1-.4.07-.48.4-.09.33-.15-.32-.14-1.44 0-1.22.07-1.56.16-.85l.14 1.2.47-1.12m-45.33-.22c.31.82.26.96-.5 1.44-.55.34-.82.35-1.2.04-.7-.58-.59-1.18.29-1.6 1.05-.51 1.17-.5 1.41.12m-30.26.27c.6.43.6.51.09 1.02-.7.7-1.15.7-1.42.01-.55-1.44.09-1.94 1.33-1.03m76.93.23c-.33.53.5 1.35 1.32 1.3.69-.02.69-.04-.06-.25-.94-.26-1.03-.78-.17-1.12.54-.21.53-.25-.13-.27-.4 0-.84.14-.96.34m3.32-.13c.33.09.6.38.6.65 0 .26-.27.5-.6.5-.37.03-.43.1-.16.21.61.24 1.44-.51 1.21-1.1-.1-.27-.51-.47-.91-.45-.58.03-.6.07-.14.2m-45.9.64c.32.83.25.94-.32.48-.44-.37-.48-.34-.27.2.21.58.17.6-.34.18-.51-.41-.56-.4-.37.08.12.31.06.56-.13.56-.3 0-.9-1.02-.67-1.19 1.13-.86 1.84-.97 2.1-.31m16.82.23c.08.4-.1.6-.6.6-.48 0-.7-.23-.7-.71 0-.88 1.13-.78 1.3.11m19.3-.09c0 .28-.27.55-.6.62-.42.08-.6-.1-.6-.62 0-.51.18-.7.6-.61.33.06.6.34.6.61m18.55 0c0 .45-.23.68-.68.68-.66 0-.92-.66-.46-1.13.47-.47 1.14-.2 1.14.45m19.25-.3c.35.56-.44 1.2-.9.74-.4-.4-.15-1.12.37-1.12.17 0 .4.17.53.37m10.96.23c.19.56-.88.95-1.34.5-.2-.2-.24-.53-.11-.75.3-.48 1.26-.32 1.45.25m19.26-.12c.22.56-.03.88-.68.88-.25 0-.45-.3-.45-.68 0-.77.85-.93 1.13-.2m12.34-.1c.35.56-.44 1.2-.91.74-.4-.4-.15-1.12.38-1.12.16 0 .4.17.53.37m16.27.13c.24.63-.4 1.06-.87.59-.37-.36-.1-1.09.4-1.09.15 0 .36.22.47.5m14.12.3c.06.32-.11.56-.41.56-.63 0-1.01-.55-.71-1.04.3-.5.98-.2 1.12.48m16.23.22c-.17.27-.37.29-.6.06a.63.63 0 01-.08-.74c.16-.27.35-.29.58-.06.19.19.23.52.1.74m-173.81 1.17c.44.4.67.43.98.12.3-.3.5-.3.78-.02.49.48.04 1.22-.6.98-.38-.15-.4-.05-.12.48 1.18 2.2.74 8.5-.73 10.36-.66.84-1.59 1.25-1.12.5.16-.27.02-.27-.5 0-.87.48-.92.96-.12 1.12.51.1.45.26-.38 1.1-1.64 1.66-2.34.28-.78-1.53 2.38-2.8 2.8-7.04 1-10.5-.62-1.21-.98-2.34-.88-2.75.1-.38 0-.9-.21-1.17-.5-.6 1.82.54 2.68 1.31m50.06-1.5c0 .18-.38.33-.85.33s-.85-.15-.85-.34c0-.19.38-.34.85-.34s.85.15.85.34m12.6 0c0 .19-.46.34-1.02.34-.57 0-1.03-.15-1.03-.34 0-.19.46-.34 1.03-.34.56 0 1.02.15 1.02.34M80.04 82.3c.04.56.05.56.2 0 .2-.76.74-.77 1.02-.03.2.51.25.5.48-.08.2-.51.26-.41.28.45.03 1.2-.43 1.44-.97.5-.31-.53-.35-.53-.36-.02-.02.96-1.19.5-1.3-.51-.07-.5.05-.9.25-.9s.38.26.4.59m3.95-.05c.06.2-.27.63-.74.94-.86.57-.87.57-.87-.48 0-1.07 1.29-1.43 1.6-.46m1.15.81c.17 0 .32-.3.32-.68 0-.56.22-.67 1.27-.65.7.01 1.09.1.85.2-.23.1-.42.55-.42 1.01 0 .49-.15.75-.35.63-.19-.12-.25-.35-.15-.53.11-.17.08-.5-.06-.74-.18-.28-.33-.14-.46.43-.33 1.42-1.72 1.36-1.66-.07.03-.8.1-.9.2-.36.08.42.29.76.46.76m76.9-.52c.23.27.32.64.2.83-.1.18-.03.43.18.56.28.17.25.33-.08.56-.36.26-.36.37-.03.5.7.28.48.7-.44.88-.9.17-1.49-.24-.76-.54.3-.12.32-.25.06-.45-.96-.72-1.27-1.91-.63-2.38.79-.58 1-.57 1.5.04m-30.45.2c.12.2.03.58-.2.87-.5.6-1.6-.18-1.19-.85.3-.48 1.1-.49 1.4-.02m101.6.29c0 .94-2.1 3.92-2.88 4.07-.6.11-.58.02.2-1.02a10 10 0 001.3-2.42c.43-1.33 1.38-1.76 1.38-.63m-90.16.09c6.13 1.84 6.89 10.77 1.14 13.44-4.03 1.88-9.32-.14-10.38-3.95-.57-2.04-.56-2.06 2.07-2.06 3.25 0 3.13-.8-.14-.95-2.6-.11-2.8-.46-1.6-2.72 1.88-3.52 5.12-4.9 8.9-3.76m17.8.14c.1.3.2.6.2.68 0 .08.22.14.48.14.31 0 .42-.23.3-.68-.1-.37-.4-.68-.69-.68-.32 0-.43.2-.3.54m-82.3 1.76c.39.52.45.52.46.06.01-.67 2.39-.88 2.4-.22 0 .3.09.28.3-.05.2-.32.36-.34.52-.08.13.2.15.51.05.68-.1.17.04.4.32.5.36.14.5-.04.5-.64 0-.47.16-.84.34-.84.2 0 .34.3.34.68 0 .92.6.86.79-.09.1-.57.16-.49.19.31.05 1.06.02 1.08-1.49 1.08-.9 0-1.53-.16-1.53-.38 0-.26-.12-.25-.4.03-.64.63-1.3.49-1.6-.35l-.28-.76-.25.76c-.31 1-.67.96-1.16-.1-.61-1.36-.34-1.69.5-.59m7.63 0c0 .57.03.57.46 0 .66-.87.89-.73.88.51 0 .75-.1.96-.3.65-.22-.36-.35-.37-.54-.05-.2.31-.33.3-.55-.05-.22-.34-.3-.35-.3-.04 0 .24-.16.43-.34.43-.19 0-.34-.46-.34-1.02 0-1.1 1-1.52 1.03-.43m2.71-.25c-.45.29-.45.33 0 .34.46 0 .46.04 0 .34-.34.22-.37.33-.08.33.23 0 .42.16.42.35 0 .19-.3.34-.68.34-.53 0-.68-.23-.68-1.02 0-.84.14-1.02.77-1.02.62 0 .66.07.25.34M279 84.8c.35.56-.44 1.21-.91.75-.4-.4-.15-1.12.38-1.12.16 0 .4.16.53.37m14.1.5c0 .56-.53.65-.85.15-.27-.45.13-1.09.54-.84.17.1.32.42.32.69m16.46-.35c.12.3-.01.6-.31.72-.67.26-.97-.05-.72-.72.26-.67.78-.67 1.03 0m13.93.53c-.57.58-1.25.03-.74-.59.29-.34.52-.39.77-.14.24.25.24.47-.03.73m-143.92-.02c.12.2.03.59-.2.87-.5.6-1.6-.18-1.19-.85.3-.47 1.1-.48 1.4-.02m16.66.35c0 .26-.26.53-.59.6-.59.1-.83-.62-.36-1.08.35-.36.95-.06.95.48m21.17-.17c.28.74-.44 1.44-.95.92-.44-.44-.17-1.45.38-1.45.2 0 .46.24.57.53m16.73.26c.07.33-.1.57-.4.57-.63 0-1.02-.56-.72-1.04.31-.5.99-.21 1.12.47m13.52-.44c.12.2.03.59-.2.87-.51.6-1.6-.18-1.2-.85.3-.47 1.11-.48 1.4-.02m16.67.35c0 .26-.27.53-.6.6-.58.1-.82-.62-.36-1.08.36-.36.96-.06.96.48M163 87.01c.1.72-1.04 1.36-1.7.95-.34-.2-.37-1.29-.04-1.62.49-.48 1.64-.03 1.74.68m-1.64.13c0 .19.22.34.5.34.26 0 .58-.15.7-.34.1-.19-.11-.34-.5-.34-.38 0-.7.15-.7.34m120.7.7c.35.58-.44 1.23-.9.76-.4-.4-.15-1.12.37-1.12.17 0 .4.17.53.37m8.17 0c.35.57-.44 1.22-.9.75-.4-.4-.15-1.12.37-1.12.17 0 .4.17.53.37m22.28.12c0 .7-.7 1.04-1.04.5-.15-.24-.2-.57-.1-.72.28-.46 1.14-.3 1.14.22m8.17-.04c0 .25-.1.56-.22.68-.31.3-1.18-.45-.95-.83.3-.47 1.17-.35 1.17.15m-160.85 1.08c0 .76-1.37 1.15-1.96.56-.58-.58-.04-1.27.99-1.26.74.02.97.18.97.7m-75.75.2c0 .87-1.12.77-1.3-.12-.07-.4.11-.59.6-.59s.7.22.7.7m41.29-.27c.2.56-.08 1.27-.5 1.27-.2 0-.27-.2-.18-.43.1-.26-.08-.44-.44-.44-.35 0-.53.18-.43.44.2.52-.45.59-.77.08-.12-.2-.13-.58-.03-.86.24-.6 2.14-.66 2.35-.06m4.51-.07c.12.2.03.58-.2.86-.51.61-1.6-.17-1.19-.85.3-.47 1.1-.48 1.4-.01m24.51.01c.35.57-.44 1.22-.9.75-.4-.4-.15-1.12.37-1.12.17 0 .4.17.53.37m28.63.16c.29.74-.43 1.44-.95.92-.43-.43-.16-1.45.39-1.45.2 0 .45.24.56.53m9.76.69a.74.74 0 01-1.31.13c-.12-.2-.03-.58.2-.86.5-.61 1.4-.03 1.11.73m28.34.11c-.3.47-1.1.48-1.4.02-.11-.2-.02-.59.21-.87.5-.6 1.6.18 1.19.85m9.68-.46c0 .64-.67.98-1.1.55-.5-.5-.06-1.45.57-1.2.3.1.53.4.53.65m20.31-.34c.31.81-.42 1.38-1.07.84-.4-.33-.43-.55-.14-.9.51-.62.96-.6 1.21.06m9.6.7c-.5.63-.95.6-1.2-.07-.27-.7.56-1.24 1.15-.75.34.27.35.48.06.83m-156.22-.56c-.45.3-.45.34 0 .36.34.02.29.13-.17.32-.58.25-.6.3-.09.32.84.03.76.7-.08.7-.37 0-.68-.22-.68-.5 0-.55-1-.33-1.44.3-.14.2-.25-.12-.26-.73 0-1.1.02-1.1 1.61-1.1 1.17 0 1.48.1 1.11.33m2.09.43c.04.74.05.74.19.04.23-1.19 1.63-.97 1.67.26.03.78-.05.9-.42.6-.31-.26-.47-.27-.47-.03 0 .2-.53.33-1.18.3-1.18-.07-1.4-.36-1-1.4.32-.8 1.16-.65 1.21.23m55.44.5c-.03 3.55-2.24 9.22-4.8 12.26-2.03 2.43-5.41 4.94-6 4.45-.77-.64-.52-1.33.4-1.1 2.9.72 8.75-8.41 9.56-14.92.22-1.73.85-2.24.84-.68m-82.79.34c-.06.33-.34.6-.61.6-.28 0-.56-.27-.62-.6-.08-.42.1-.6.62-.6.51 0 .7.18.61.6m9.73-.33c.3.49-.39 1.2-.95.98-.77-.3-.68-1.25.12-1.25.36 0 .74.13.83.27m32.41.07c.27 0 .48.16.48.34 0 .19-.3.34-.68.34-.37 0-.68.16-.68.34 0 .2-.15.34-.34.34-.19 0-.34-.4-.34-.88 0-.67.13-.84.54-.68.3.11.75.2 1.02.2m-35.51.53c.98.38.3 1.88-.73 1.61-4.5-1.2-8.71 2.2-9.35 7.57-.07.56-.15.03-.17-1.17-.13-5.34 5.58-9.8 10.25-8.01m36.3 1.26c.03.42.1 1.42.14 2.23.04.8.25 1.57.45 1.7 1.1.71 1.17 1.74.17 2.26l-.98.5-.55-1.43c-.72-1.88-1.1-4.01-.6-3.3.27.37.37.39.38.06 0-.24.16-.35.34-.23.19.11.34.06.34-.12 0-.17-.38-.42-.85-.53-1.06-.27-1.1-1-.08-1.49 1.1-.53 1.2-.5 1.25.35m-20.4.25c0 .38.15.69.34.69.19 0 .34.15.34.34 0 .18-.3.34-.68.34-.53 0-.68-.23-.68-1.02 0-.57.15-1.03.34-1.03.18 0 .34.31.34.69m3.2-.26c.16.34.24.34.4 0 .36-.76 2.86-.54 2.86.25 0 .38.23.69.52.69.28 0 .5.15.5.34 0 .18-.3.34-.67.34-.5 0-.68-.23-.68-.85 0-.59-.2-.85-.6-.85-.51 0-.52.05-.09.33.34.22.37.34.09.34-.23 0-.43.17-.43.37 0 .2.16.26.34.15.2-.12.34-.05.34.15 0 .77-1.36.37-1.38-.4l-.02-.78-.37.77c-.48.99-.75.97-1.23-.08-.43-.95-.97-1.14-.97-.34 0 .28.13.5.29.5.15 0 .28.16.28.35 0 .18-.3.34-.68.34-.53 0-.68-.23-.68-1.02 0-1.1 1.73-1.57 2.18-.6m-14.46 2.1c1.92 2.05 1.42 9.01-.6 8.48-.61-.16-.62-.27-.2-1.7.7-2.28-.7-7.26-2.02-7.26-.2 0-.06-.22.3-.48.75-.55 1.3-.34 2.52.95m-14.7-.22c.19.56-.88.96-1.34.5-.2-.2-.25-.53-.11-.74.3-.49 1.26-.33 1.45.24m16.6.09c0 .27-.27.55-.6.61-.42.08-.6-.1-.6-.61 0-.52.18-.7.6-.62.33.06.6.34.6.62m-6.95.77c4.6 3.05 2.61 10.12-2.85 10.12-4.49 0-7.27-4.68-4.98-8.38.89-1.45 1.03-1.44 2.2.13.52.7.99 1.33 1.04 1.4.05.06.25.01.44-.1.22-.14-.04-.77-.66-1.63-1.17-1.62-1.22-1.87-.42-2.08 1.73-.45 4.11-.2 5.23.54m46.11.28c.13.2.03.58-.23.84-.6.6-1.5.09-1.2-.67.23-.62 1.1-.72 1.44-.17m21.2.42c.05.33-.12.57-.42.57-.63 0-1-.56-.7-1.04.3-.5.98-.21 1.11.47m-45.13 1.24c1.36 1.52 1.28 3.14-.22 4.64-1.75 1.75-4.45 1.46-5.5-.6-1.98-3.8 2.85-7.22 5.72-4.04m-4.7.17c-2.22 2.22.25 6.17 3.07 4.9 1.9-.87 2.37-3.07 1-4.7-1.14-1.35-2.84-1.44-4.07-.2m53.92-.08c.34.34.49.32.75-.08.25-.4.32-.36.32.26 0 .42-.06.76-.15.76-.43 0-1.89-.83-1.89-1.07 0-.42.49-.35.97.13m44.14.94c0 1.21-1.43 1.85-1.78.8-.08-.26.16-.35.66-.25l.78.15-.77-.34c-1.24-.55-.92-1.84.42-1.65.54.08.7.35.7 1.3m2.37-1.03c.12.19.05.34-.15.34s-.36.46-.36 1.02-.15 1.02-.34 1.02c-.18 0-.34-.46-.34-1.02s-.15-1.02-.34-1.02a.34.34 0 01-.34-.34c0-.19.38-.34.83-.34.46 0 .93.15 1.04.34m2.22 0c0 .19-.27.36-.6.38-.57.04-.57.05 0 .2.33.08.6.3.6.47 0 .17-.27.33-.6.35-.57.04-.57.05 0 .2.9.23.72.78-.25.78-.77 0-.86-.13-.86-1.36 0-1.22.09-1.36.86-1.36.46 0 .85.15.85.34m2.6.85c.05 1.38-.2 1.7-.74.96-.43-.58-.47-.58-.68-.02-.33.84-.84.4-.84-.73 0-1.84 2.18-2.04 2.25-.2m2.17-.86c0 .19-.26.36-.6.38-.56.04-.56.05 0 .2.34.08.6.3.6.47 0 .17-.26.33-.6.35-.56.04-.56.05 0 .2.9.23.72.78-.25.78-.76 0-.85-.13-.85-1.36 0-1.22.09-1.36.85-1.36.47 0 .85.15.85.34m2.56 1.02c0 1.05-.1 1.2-.85 1.2-.89 0-1.3-1-.88-2.1.4-1.07 1.73-.39 1.73.9m-85.33-.3c.5.82-.14 1.61-.78.97a1.13 1.13 0 00-.69-.32c-.2 0-.13.14.15.32.27.17.38.43.24.57-.37.38-1.38-.76-1.09-1.23.14-.23.53-.33.87-.25.42.12.56.02.44-.3-.29-.75.36-.56.86.25m84.14.3c0 .37.15.67.34.67.18 0 .34-.3.34-.68 0-.37-.16-.68-.34-.68-.2 0-.34.3-.34.68m-13.62 0c0 .21-1.6.34-4.09.34h-4.08v1.53c0 .85-.16 1.54-.34 1.54-.19 0-.34-.85-.34-1.88v-1.87h4.42c2.73 0 4.43.13 4.43.34m25.12 1.45c-.12 2.08-.73 2.26-.89.26l-.1-1.37h-4.07c-2.48 0-4.06-.13-4.06-.34 0-.2 1.76-.34 4.61-.34h4.61l-.1 1.79m-66.54-.83c.86.95 0 2.06-1.08 1.38-1.04-.65-.96-2 .12-2 .22 0 .65.28.96.62m-82.27.27c.27.7-.57 1.24-1.16.75-.33-.28-.34-.48-.05-.83.51-.62.96-.59 1.21.08m19.14.7c-.3.35-.5.37-.86.07s-.38-.5-.08-.86c.3-.35.5-.37.86-.08.35.3.37.5.08.86m30.55-.73c-.1.28-.05.51.14.51.56 0 .36.5-.41.98-1.17.73-2.01-.54-.94-1.4.9-.73 1.47-.77 1.21-.09m31.1.14c0 .37.89.74 1.15.47.11-.1.12-.32.02-.48-.24-.4-1.17-.38-1.17 0m-19.17.92c.1.3.03.7-.17.9-.5.5-1.45-.27-1.2-.95.25-.65 1.11-.62 1.37.05m12.37.3c0 .27-.16.58-.36.7-.44.28-1.4-.48-1.15-.9.3-.49 1.5-.34 1.5.2m161.65 1.12c-.08.67-.3.94-.8.94-.48 0-.7-.27-.78-.94-.1-.81.01-.94.79-.94.77 0 .88.13.79.94m2.1.15c0 .81-.1 1-.38.71a.88.88 0 00-.85-.2c-.33.13-.47-.1-.47-.7 0-.73.16-.9.85-.9.73 0 .85.16.85 1.1m1.74-.65c-.21.2-.38.68-.38 1.05 0 .8-.5.4-.8-.64-.17-.55-.04-.7.67-.74.64-.03.78.05.5.33m2.4.15c-.54.96-1.38 1.98-1.4 1.67-.01-.46 1.13-2.27 1.44-2.27.15 0 .13.27-.05.6m2.01-.17c0 .28.12.26.34-.08.3-.46.38-.46.7 0 .28.38.41.4.54.08.39-.94 3.8-.54 3.6.43-.22 1.17-.76 1.43-.76.36 0-.73-.15-.87-.93-.87-.66 0-.8.1-.48.3.4.25.4.32 0 .48-.32.13-.28.2.14.21.83.04.75.7-.09.7-.47 0-.68-.22-.68-.74 0-.73-.01-.73-.5-.08-.4.52-.57.56-.8.2-.24-.36-.36-.32-.55.17-.23.6-.26.6-.73-.03-.56-.77-.63-1.56-.14-1.56.19 0 .34.2.34.43m-192.01 1.15c1.18 1.75 4.84 4.66 5.17 4.12.18-.29.36-.3.61-.06.25.25.22.55-.1 1-.75 1-7.85-4.91-7.19-5.98.33-.54.64-.35 1.5.92m182.83-.72c0 .28.15.5.34.5.18 0 .34-.22.34-.5s-.16-.51-.34-.51c-.19 0-.34.22-.34.5m-230.03 4.19a6.68 6.68 0 006.23.45c.92-.4 1.39-.5 1.05-.24-.6.47-.6.49 0 .62 1.17.27-2.4 1.02-3.89.81-2.68-.36-6.22-3.03-6.21-4.68 0-.25.38.15.83.9a8.1 8.1 0 002 2.14m103.06-2.23l.02.77.3-.77c.47-1.14 1.7-.38 1.7 1.06 0 .04-.61.1-1.36.13-.78.03-1.36-.1-1.36-.31 0-.23-.19-.21-.51.06-.44.36-.51.27-.51-.64 0-1.36 1.68-1.65 1.72-.3m4.91-.5c-.47.34-.58 1.1-.17 1.1.2 0 .34.15.34.34 0 .19-.3.34-.68.34-.44 0-.68-.23-.68-.66 0-.36-.15-.76-.34-.87-.2-.12-.34.17-.34.66 0 1.2-.57 1.1-.75-.15-.15-1-.13-1.02 1.4-1.02.86 0 1.41.12 1.22.26m2.9.16c0 .3.08.32.26.05.45-.7 4.5-.58 4.51.12.01.57.03.57.36 0 .26-.44.76-.58 1.95-.56.88 0 1.4.1 1.17.2-.23.09-.42.53-.42.99 0 .45-.16.82-.34.82-.19 0-.34-.38-.34-.85 0-.66-.17-.85-.77-.82-.44.01-.57.1-.3.2.39.16.39.24 0 .48-.36.23-.34.3.13.3.33 0 .6.14.6.31 0 .17-.77.3-1.71.3-1.08 0-1.7-.14-1.66-.39.1-.89-.07-1.23-.63-1.23-.49 0-.5.07-.12.31.4.26.4.4-.08.87-.31.31-.59.44-.6.29-.03-.16-.07-.5-.1-.76a.79.79 0 00-.47-.63c-.25-.08-.35.06-.24.35.1.26-.05.68-.34.92-.4.34-.52.34-.52.01 0-.34-.1-.34-.5 0-.74.6-1.55.16-1.55-.84 0-.7.17-.86.86-.86.46 0 .85.19.85.42m28.63.17c.04.57.05.57.2 0 .18-.7.64-.78.93-.17.16.34.24.34.4 0 .41-.89 1.16-.44 1.12.68-.03 1.03-.05 1.05-.28.26l-.24-.85-.26.76c-.26.8-.89 1.06-.89.39 0-.26-.16-.25-.51.05-.63.51-.72.44-1.03-.78-.15-.6-.1-.93.15-.93.2 0 .4.27.41.6m7.52-.16c.2.31.26.3.27-.02 0-.23.16-.42.34-.42.2 0 .34.5.32 1.1-.01.94-.08 1.02-.4.54-.36-.53-.42-.53-.82 0-.39.5-.44.46-.45-.37 0-.51-.16-.93-.35-.93-.19 0-.34.38-.34.85s-.15.85-.34.85c-.19 0-.34-.4-.34-.9s-.12-.8-.25-.66c-.25.24-.29.37-.39 1.24-.1.82-1.57.15-1.68-.76-.12-1 3.83-1.47 4.43-.52m26.93.32l.15.77.25-.77c.31-.94.72-.97 1.19-.1.57 1.07.43 1.2-1.35 1.28-1.68.07-1.7.06-1.7-.94 0-1.26 1.22-1.46 1.46-.24m3.57-.21c-.06.31.23.67.67.84.46.17.76.16.76-.04 0-.18-.23-.33-.5-.33a.51.51 0 01-.52-.51c0-.28.3-.51.68-.51.38 0 .7.23.73.5.03.29.07.71.09.94.02.28-.52.44-1.58.47-.9.02-1.62-.09-1.62-.24 0-.16.27-.2.6-.1.56.18.56.16 0-.3-.8-.67-.76-1.27.1-1.27.45 0 .66.19.6.55m25 .3c-.25 1.25-.67 1.34-.84.16-.12-.78-.02-1.01.42-1.01.43 0 .54.21.41.85m3.37-.59c-.39.14-.39.2 0 .45.34.22.35.3.04.3-.23 0-.42.17-.42.37 0 .2.15.27.34.15.18-.12.34-.04.34.16 0 .45-1.77.32-2.13-.16-.16-.21-.38-.15-.6.17-.25.4-.33.26-.33-.56 0-1.07.02-1.08 1.61-1.06.89.02 1.4.1 1.15.19m2.37.5c.04.73.05.72.31-.1.25-.76.27-.77.3-.11.06 1.08 1.06 1.35 1.06.28 0-.65.18-.84.77-.84.62 0 .66.07.25.34-.45.3-.45.33 0 .36.35.02.38.09.09.2-.24.1-.43.33-.43.5 0 .2.16.25.34.13.19-.12.34-.07.34.1 0 .18-1 .33-2.23.33-2.3.02-2.85-.31-2.41-1.45.32-.83 1.57-.64 1.61.25M75.7 104.03a.74.74 0 01-1.32.13c-.12-.2-.03-.58.2-.86.5-.61 1.4-.03 1.12.73m76.06-.45c.47-.16.51-.04.21.73-.3.77-.64.67-1.1-.33-.5-1.11-.49-1.5.04-.8.23.3.61.47.84.4m-59.37-.2c.3.3-.46 1.17-.83.94-.47-.3-.36-1.17.15-1.17.25 0 .55.1.68.22m40.96.8c0 .76-.15 1.02-.62 1.02-.74 0-.75-.04-.23-1.17.53-1.16.85-1.1.85.15m-44.81.82c-.6.6-.76.64-1.02.2-.47-.73.6-1.84 1.25-1.3.4.33.37.5-.23 1.1m60.72-.63c.11.3.37.43.58.3.23-.14.33 0 .25.38-.23 1.2-1.64.29-1.64-1.06 0-.39.63-.1.8.38m167.54-.17c.13.2.03.58-.2.86-.5.61-1.6-.17-1.19-.85.3-.47 1.1-.48 1.4-.02m-5.4 1.54c.3.81-.42 1.38-1.07.84-.4-.33-.44-.55-.14-.9.5-.62.95-.6 1.2.06m10.63-.06c.3.35.26.57-.14.9-.65.54-1.38-.03-1.06-.84.25-.65.7-.68 1.2-.06m-5.75.4c0 .11-.15.5-.35.86-.28.53-.24.65.23.65.89 0 .4.29-.86.5-8.74 1.55-7.35 15.26 1.57 15.53l.95.03-.94.28c-.75.23-2.13.23-2.13 0 0-.02-.51-.09-1.14-.15-5.14-.5-8.48-8.52-5.51-13.2 1.75-2.78 8.19-6.3 8.19-4.5m-126.3 1.55c0 1.09.14 1.43.66 1.56 1 .26-.18 1.4-1.43 1.39-6.28-.03-6.53 9.84-.3 11.52 1.11.3 1.32.43.7.45-7.52.2-9.06-11.94-1.68-13.12 1.35-.22 1.37-.23 1.37-1.7 0-.83.15-1.5.34-1.5.18 0 .34.63.34 1.4m33.36-.1c0 .7.18 1.47.4 1.7.32.32.3.4-.08.41-.42 0-.41.06.02.34.4.25.3.33-.45.33-.52 0-.86-.14-.76-.3.11-.18.03-.43-.17-.55-.2-.13-.44.06-.54.42-.1.36-.66.91-1.25 1.23-4.28 2.3-3.65 8.97 1.01 10.63 1.2.43 1.23.46.36.48-6.64.1-7.7-10.62-1.26-12.76 1.65-.54 1.7-.6 1.7-1.9 0-.95.14-1.33.5-1.33.37 0 .52.37.52 1.3m32.34.04c0 .74.15 1.44.34 1.56.19.11.32.47.3.78-.03.5-.06.5-.2-.04-.17-.68-1.01-.57-.85.1.06.28-.15.37-.6.25-.38-.1-.6-.04-.5.13.1.17.02.3-.19.3-.74 0-2.47 1.57-3.1 2.8-1.63 3.18.18 7.3 3.7 8.47.78.26.69.29-.53.17-6.91-.65-6.9-11.3.01-12.93.83-.2.94-.37.94-1.57 0-.75.15-1.36.34-1.36.19 0 .34.6.34 1.34m30.3 0c0 .73.05 1.53.11 1.78s.05.34-.03.2c-.23-.4-.76-.3-.77.17 0 .24-.62.71-1.37 1.05-4.84 2.24-4.15 9.6 1.04 11.07l1.19.33-1.09.03c-4.76.14-7.75-5.88-5.05-10.17.84-1.33 3.58-3.06 4.86-3.07.27 0 .43-.5.43-1.37 0-.74.15-1.36.34-1.36.18 0 .34.6.34 1.34m34.27-.44c2.27 1.15 3.6 2.54 3.68 3.85l.06 1.03-1.5-1.38c-1.52-1.41-3.85-2.67-4.96-2.69-.34 0-.53-.15-.42-.32.11-.18.04-.41-.15-.53-1.8-1.11 1.09-1.07 3.29.04m-241.08.12c0 .28-.27.56-.6.62-.41.08-.6-.1-.6-.62 0-.5.19-.7.6-.61.33.06.6.34.6.61m9.7 0c0 .38-.22.69-.49.69-.6 0-.98-.56-.7-1.03.37-.6 1.2-.36 1.2.34m228.42-.17c.23.28.55.51.7.51.17 0 .2-.22.1-.5a.84.84 0 00-.71-.52c-.42 0-.44.1-.1.51m-178.04.55c0 .17-.26.32-.6.33-.5.02-.49.06.1.31l.67.3-.68.06c-.58.06-.59.09-.08.22.33.09.6.3.6.47 0 .48-2.3.38-2.53-.1-.16-.35-.24-.35-.4 0-.35.75-.82.44-.82-.55 0-.53.08-1.05.19-1.15.31-.31 3.55-.2 3.55.11m1.05.58c.01.42.1.37.33-.19.24-.6.57-.76 1.6-.75 1.2 0 1.24.04.62.5-.49.37-.53.51-.17.53.37.02.38.07.05.2-.34.14-.3.3.17.65.56.43.54.47-.33.48-.79 0-.94-.14-.97-.93l-.04-.94-.36.94c-.61 1.53-1.58.9-1.6-1.04 0-.66.67-.12.7.55m5.02.32c.1 1.08-.39 1.53-.74.68-.13-.33-.24-.32-.49.03-.36.51-.75-.79-.48-1.6.3-.92 1.6-.26 1.7.9m2.05 0c.1.98.01 1.1-.77 1.1-.77 0-.87-.14-.87-1.22 0-1.71 1.48-1.61 1.64.11m50.35-.4c.49.49.49.58 0 1.07-.76.76-1.91-.27-1.2-1.08.56-.63.56-.63 1.2 0m33.34-.02c.45.46.45.58-.05 1.08-.8.8-1.9-.18-1.15-1.03.58-.66.58-.66 1.2-.05m32.34 0c.45.46.45.58-.02 1.05-.75.74-1.66-.05-1.1-.95.46-.73.48-.73 1.12-.1m30.3 0c.45.46.45.58-.03 1.05-.76.76-1.86-.22-1.15-1.03.56-.63.56-.63 1.18-.02m-107.63.54c0 .26-.27.53-.6.6-.58.1-.82-.62-.35-1.08.35-.36.95-.06.95.48m8.17 0c0 .26-.27.53-.6.6-.58.1-.82-.62-.36-1.08.36-.36.96-.06.96.48m25.17.35c-.29.47-1.17.36-1.17-.15 0-.25.1-.55.23-.67.3-.31 1.17.45.94.82m8.17 0c-.29.47-1.17.36-1.17-.15 0-.25.1-.55.23-.67.3-.31 1.17.45.94.82m24.36-.36c0 .16-.16.39-.37.52-.47.29-1.13-.36-.84-.83.24-.4 1.22-.14 1.22.31m8.16 0c0 .16-.16.39-.37.52-.47.29-1.13-.36-.84-.83.24-.4 1.21-.14 1.21.31m21.94.36c-.3.47-1.17.36-1.17-.15 0-.25.1-.55.22-.67.31-.31 1.18.45.95.82m8.17 0c-.3.47-1.17.36-1.17-.15 0-.25.1-.55.23-.67.3-.31 1.17.45.94.82m-107.38-.37c0 .18-.38.34-.85.34s-.85-.16-.85-.34c0-.2.38-.34.85-.34s.85.15.85.34m33.36 0c0 .18-.46.34-1.02.34s-1.02-.16-1.02-.34c0-.2.46-.34 1.02-.34s1.02.15 1.02.34m32.34 0c0 .18-.38.34-.85.34s-.85-.16-.85-.34c0-.2.38-.34.85-.34s.85.15.85.34m30.3 0c0 .18-.38.34-.85.34s-.85-.16-.85-.34c0-.2.38-.34.85-.34s.85.15.85.34m10.2 1.35c1.49.76 2.74 2.18 2.74 3.12 0 .88-.22.8-1.37-.51a8.39 8.39 0 00-2.12-1.7c-.61-.3-.92-.55-.69-.55.64-.02.52-.62-.17-.8-.32-.08-.4-.17-.15-.2a5.4 5.4 0 011.75.64m18.4 0c0 .46-.22.69-.68.69-.45 0-.68-.23-.68-.68 0-.46.23-.68.68-.68.46 0 .68.22.68.68m18.56 0c0 .73-1 .63-1.13-.12-.1-.45.05-.6.5-.5.35.06.63.34.63.62m-65.31 1.41c1.34 1.47 1.9 5.1 1.02 6.69-.38.69-.43.5-.41-1.55.02-2.53-1.03-4.45-3-5.5-.66-.36-.76-.55-.45-.89.49-.52 1.7 0 2.84 1.25m-64.73 2.1c.61 2.08.63 3.2.08 4.29-.8 1.56-1.15 1.16-1-1.13.13-2.03.06-2.3-.99-3.82-1.61-2.35-1.58-3.03.1-1.92 1 .67 1.4 1.24 1.8 2.58m31.51-2.6c2.8 2.36 2.6 7.96-.33 9.87-.96.63-.7.15.74-1.32 1.6-1.64.53-6.3-1.88-8.18-.43-.33-.56-.59-.31-.6.24 0 .35-.16.23-.34-.4-.66.47-.33 1.55.58m89.58.35c.03.7.04 1.63.02 2.05-.02.45.16.76.45.76.34 0 .5-.44.53-1.53.07-2.7.14-2.77 1.87-2.05 6.38 2.67 4.6 11.77-2.28 11.75-6.78-.02-8.58-9-2.35-11.71 1.65-.72 1.69-.7 1.76.73m-177.83.37c.1 1.06.05 1.12-.85 1.02-1.07-.12-1.44-1.03-.76-1.84.69-.84 1.5-.43 1.61.82m2.2-.7c.1-.49.17-.3.2.5.05 1.36-.38 1.67-.95.68-.33-.56-.34-.56-.35 0-.01.33-.17.6-.36.6-.39 0-.46-1.8-.09-2.18.14-.14.51.07.83.46l.58.71.15-.77m1.89 1.35c.5.4.47.44-.29.36-.9-.1-1.26-.93-.82-1.9.21-.48.28-.44.4.26.08.46.4 1.03.7 1.28m1.2-1.53c.13.33.25.3.52-.07.56-.81.75-.23.3.95-.46 1.2-.94 1.43-.94.42 0-.36-.15-.75-.34-.87-.19-.12-.34-.36-.34-.53 0-.47.6-.4.8.1m-6.53.79c.16.74.76.78.9.06.07-.37-.1-.6-.45-.6-.32 0-.51.23-.45.54m45.16.26c.06.33-.1.57-.4.57-.64 0-1.02-.56-.72-1.04.3-.5.99-.21 1.12.47m14.13-.3c.25.63-.4 1.07-.86.6-.37-.36-.1-1.1.39-1.1.16 0 .37.23.47.5m19.12.21c0 .27-.27.53-.6.6-.58.1-.83-.61-.36-1.08.36-.36.96-.05.96.48m13.96-.08c0 .62-.67.5-.8-.13-.07-.36.05-.51.34-.42.25.09.46.33.46.55m18.4-.25c.35.57-.44 1.22-.9.75-.4-.4-.16-1.12.37-1.12.17 0 .4.16.53.37m14.23.13c.24.62-.4 1.06-.87.59-.36-.36-.1-1.1.4-1.1.15 0 .36.23.47.5m16.07-.12c.35.57-.44 1.22-.91.75-.4-.4-.15-1.12.38-1.12.16 0 .4.16.53.37m14.1.5c0 .56-.53.66-.85.15-.27-.45.13-1.09.54-.84.17.11.32.42.32.69m-103.83 1.68c0 .84.15 1.53.34 1.53.18 0 .34-.7.34-1.55 0-1.45.05-1.54.76-1.34 4.38 1.27 4.82 6.93.67 8.55-5.4 2.11-8.98-5.92-3.67-8.24 1.52-.66 1.56-.63 1.56 1.05m33.08-.11c.06.83.3 1.48.58 1.58.38.12.42-.16.23-1.42-.35-2.36 2.37-1.96 3.9.56 2.8 4.58-2.95 9-7.13 5.5-2.07-1.75-1.68-5.49.74-6.96 1.5-.92 1.56-.89 1.68.74m33.3.11c0 .84.15 1.53.34 1.53.19 0 .34-.69.34-1.53 0-1.7.19-1.8 1.95-.96 3.37 1.6 3.03 6.62-.53 8.05-5.2 2.08-8.8-5.05-4.02-7.97 1.63-.99 1.92-.85 1.92.88m30.36-.08c.06.8.26 1.4.45 1.34.18-.05.29-.7.23-1.44-.13-1.63.54-1.8 2.35-.57 4.18 2.81 1.34 9.35-3.5 8.06-4.22-1.13-5-6.41-1.2-8.28 1.52-.75 1.55-.74 1.67.89m-201.9 1.02c.01.34.05.34.2 0 .09-.24.5-.42.9-.42s.58.12.4.25c-.54.4-.6 1.19-.1 1.5.3.19.2.28-.33.28-.42 0-.78-.19-.8-.42-.01-.34-.05-.34-.19 0-.24.6-1.46.53-1.7-.09-.1-.28-.1-.74 0-1.02.24-.61 1.57-.68 1.61-.08m2.57.43c-.33.87.82.86 1.21-.01.53-1.16 1.64-.5 1.64.97 0 .04-.76.11-1.7.15-1.69.07-1.7.07-1.7-.97 0-.65.13-.95.36-.81.2.12.29.42.2.67m3.95-.59c.09-.24.26-.35.38-.23.13.11 0 .64-.27 1.17l-.5.96-.36-.93c-.47-1.24-.45-1.4.12-.92.37.3.51.29.63-.05m4.53.58c-.1.38-.18.8-.19.94 0 .6-.65.19-.74-.48-.16-1.1-.96-1.21-.96-.14 0 1.22-.57 1.1-.76-.16-.15-1.02-.14-1.03 1.34-.93 1.3.08 1.47.18 1.31.77m3.2-.5c-.43.28-.43.32.01.33.46.01.46.05 0 .35-.45.3-.45.37 0 .67.42.27.37.34-.25.34-.42 0-.77-.15-.77-.33 0-.2-.23-.35-.5-.35-.29 0-.52.16-.52.34 0 .2-.15.34-.34.34-.36 0-.48-1.44-.15-1.77.1-.1.82-.2 1.6-.2 1-.02 1.27.07.92.29m-15.3.66c0 .64.09.73.4.41.32-.31.32-.5 0-.81-.31-.32-.4-.23-.4.4m222.9.3c-.16.81-1.29.93-1.29.13 0-.36.1-.74.2-.86.38-.37 1.2.17 1.09.73m21.37-.27c.35.57-.44 1.22-.91.75-.4-.39-.15-1.12.38-1.12.16 0 .4.17.53.37m-145.36.34c.35.57-.44 1.22-.91.75-.4-.39-.15-1.12.38-1.12.16 0 .4.17.53.37m16.34 0c.35.57-.44 1.22-.91.75-.4-.39-.15-1.12.38-1.12.16 0 .4.17.53.37m17 .34c0 .26-.27.53-.6.6-.58.1-.83-.62-.36-1.09.36-.35.96-.05.96.49m16 .31c-.17.27-.36.3-.59.06a.63.63 0 01-.1-.74c.17-.26.37-.28.6-.06.18.2.23.52.09.74m16.36-.65c.35.57-.44 1.22-.91.75-.4-.39-.15-1.12.38-1.12.16 0 .4.17.53.37m16.34 0c.35.57-.44 1.22-.9.75-.4-.39-.16-1.12.37-1.12.16 0 .4.17.53.37m13.96 0c.35.57-.44 1.22-.91.75-.4-.39-.15-1.12.38-1.12.16 0 .4.17.53.37m16.16.78c-.45.45-1.21-.24-.87-.8.18-.28.37-.27.73.03.35.29.39.52.14.77M75.6 119.16c.54.28.73.17 1.19-.72.3-.58.63-.97.73-.87.1.1-.17.75-.6 1.45-.43.7-.84 1.09-.92.87-.07-.22-.42-.4-.78-.4-.52 0-.65-.23-.61-1.1.03-.8.09-.9.2-.35.08.42.43.92.79 1.11m4.3-.6c.04.52-.08.94-.25.94-.18 0-.32-.17-.32-.38 0-.27-.16-.25-.51.04-.44.36-.51.26-.51-.66 0-1.48 1.48-1.42 1.59.06m4.2-.72c0 .26.15.25.5-.04.44-.36.52-.27.52.64 0 .58-.16 1.06-.34 1.06-.2 0-.34-.25-.34-.55 0-.5-.08-.5-.86 0-.84.56-.85.56-.85-.46 0-.8.15-1.03.68-1.03.38 0 .68.17.68.38m2.73.2c0-.32.15-.58.34-.58.19 0 .34.46.34 1.02 0 1-.99 1.56-1.05.6-.02-.35-.06-.35-.2 0-.28.7-.8.47-.8-.38 0-1.1.42-1.4.93-.69.4.55.44.55.44.02m2.66.54c.1.8-.02.93-.77.93-.69 0-.87-.17-.87-.8 0-1.57 1.46-1.69 1.64-.13m2.78-.43c0 .38-.22.68-.5.68-.29 0-.52.15-.52.34 0 .19-.14.34-.32.34-.24 0-.28-1.45-.05-1.96.2-.46 1.4.05 1.4.6m2.2 0c.28.86-.03 1.36-.84 1.36-.36 0-.74-.16-.86-.34-.36-.6.2-1.7.86-1.7.35 0 .73.3.85.67m1.36-.08c.22.55.27.54.52-.08.23-.56.29-.49.3.42.03 1.1-.4 1.46-.84.73-.17-.26-.32-.23-.53.09-.2.31-.3.1-.3-.65 0-1.2.46-1.47.85-.5m3 .14c.25.94.03 1.3-.82 1.3-.74 0-1.17-.75-.87-1.53.3-.78 1.47-.62 1.7.23m3.18-.2c.2.5.23.5.52 0 .47-.85.95-.64.95.42 0 .88-.11.97-1.2.97-1.07 0-1.18-.1-1.18-.97 0-1.04.57-1.3.9-.41m2.77.8c-.43.75-.9 1.37-1.06 1.37-.15 0 .07-.61.5-1.36.41-.75.89-1.36 1.04-1.36.16 0-.06.6-.48 1.36m2.57-.62c.24.94.02 1.3-.82 1.3-.5 0-.66-.24-.66-1.02 0-1.25 1.17-1.47 1.48-.28m-19.02-.04c-.13.2-.09.53.1.71.21.22.4.15.53-.19.24-.62-.3-1.06-.63-.52m4.95.49c0 .28.15.5.34.5.18 0 .34-.22.34-.5s-.16-.51-.34-.51c-.19 0-.34.23-.34.5m39.61.6c.31 1.16.26 1.46-.18 1.02-.3-.3-.53-.3-.86-.03-.49.41-.54.18-.23-.99.11-.42.4-.76.63-.76.24 0 .53.34.64.76m5.3-.17c.33.57.34.57.35 0 .01-.46.3-.59 1.29-.57 1.02.02 1.14.08.6.32-.46.2-.52.3-.18.32.46.03.46.07 0 .36-.42.27-.4.33.16.34.5 0 .56.1.28.39-.6.6-1.54.08-1.29-.73.32-1-.13-.83-.51.19-.34.88-1.02.86-1.02-.04 0-.27-.15-.5-.33-.5-.18 0-.24.24-.13.52.1.28.03.51-.18.51-.2 0-.38-.3-.38-.68 0-.38-.15-.68-.34-.68-.19 0-.34.3-.34.68 0 .37-.15.68-.34.68-.19 0-.34-.27-.34-.6 0-.4-.29-.6-.85-.64-.54-.03-.85.13-.85.45 0 .34.2.43.68.28.8-.25.93.34.14.65-.77.29-1.16-.05-1.16-1.01 0-1.1 4.12-1.3 4.74-.24m4.56-.17c.13.32.27.3.54-.08.29-.41.36-.32.36.47 0 .83-.07.91-.5.55-.35-.3-.51-.3-.51-.04 0 .2-.15.38-.34.38-.19 0-.34-.38-.34-.85 0-.9.5-1.16.8-.43m2.26-.08c-.45.3-.45.33 0 .34.45 0 .45.05 0 .34-.44.29-.44.33.05.34.3 0 .64-.32.74-.72.23-.86.92-.7 1.29.29.2.56.13.73-.31.75-.32 0-1.04.06-1.6.1-.88.08-1.03-.03-1.13-.85-.09-.78.02-.93.68-.93.64 0 .7.07.28.34m5.68-.08c-.58.13-.59.16-.03.57.63.46.4 1.21-.37 1.21a.94.94 0 01-.72-.4c-.16-.27-.06-.33.32-.18.31.12.57.09.57-.07 0-.62-.92-.61-1.3 0-.5.79-1.28.84-1.56.11-.48-1.26-.25-1.45 1.75-1.41 1.08.02 1.68.1 1.34.17m-2.61.59c0 .28.15.51.34.51.18 0 .34-.23.34-.51s-.16-.51-.34-.51c-.2 0-.34.23-.34.5m34.9.2c.36.58-.43 1.23-.9.76-.4-.4-.15-1.12.38-1.12.16 0 .4.16.53.37m14.1.5c0 .56-.53.66-.84.15-.28-.45.13-1.09.53-.84.17.11.32.42.32.69m19.25-.5c.35.57-.44 1.22-.9.75-.4-.4-.16-1.12.37-1.12.16 0 .4.16.53.37m13.84.71c-.52.52-.9.14-.61-.61.17-.45.31-.49.62-.19.3.3.3.5 0 .8m18.49-.71c.35.57-.44 1.22-.9.75-.4-.4-.16-1.12.37-1.12.17 0 .4.16.53.37m14.1.5c0 .56-.53.66-.84.15-.28-.45.13-1.09.53-.84.18.11.32.42.32.69m16.19-.5c.35.57-.44 1.22-.91.75-.4-.4-.15-1.12.38-1.12.16 0 .4.16.53.37m14.1.5c0 .56-.53.66-.85.15-.27-.45.13-1.09.54-.84.17.11.32.42.32.69m-98.6.32a.84.84 0 01-.72.51c-.42 0-.43-.1-.09-.51.24-.28.56-.51.71-.51.16 0 .2.23.1.51m112.86-.05c.3.36.26.57-.15.91-.65.54-1.37-.03-1.06-.84.25-.65.7-.68 1.2-.06m18.62.25c.26.41-.5 1.04-.94.77-.15-.1-.27-.39-.27-.66 0-.58.87-.66 1.21-.11m-248.2.98c0 .28-.26.55-.59.62-.42.08-.6-.1-.6-.62 0-.51.18-.7.6-.61.33.06.6.34.6.61m13.44 0c0 .38-.22.68-.49.68-.6 0-.98-.56-.7-1.02.37-.6 1.2-.36 1.2.34m13.46-.3c.35.56-.44 1.21-.9.74-.4-.4-.16-1.12.37-1.12.16 0 .4.17.53.37m19.55 1.67c0 .56-.15 1.03-.33 1.03-.2 0-.35-.23-.35-.52 0-.28-.17-.5-.38-.5-.26 0-.25-.16.04-.52.66-.79 1.02-.6 1.02.51m17.7-.53c0 .27-.16.6-.37.73-.26.16-.24.32.09.52.33.22.25.3-.3.3-.92 0-1-.58-.18-1.26.57-.47.57-.48 0-.3-.33.1-.6.03-.6-.15s.31-.33.69-.33c.37 0 .68.22.68.5m17.85.52c0 .62-.2.88-.75.96-.42.06-.76-.05-.76-.24 0-.2.2-.28.44-.19.26.1.43-.09.43-.48s-.17-.58-.43-.48c-.25.09-.44-.01-.44-.23 0-.23.34-.36.76-.3.55.08.75.34.75.96m26.25-.3c.35.56-.44 1.21-.9.74-.4-.4-.15-1.12.37-1.12.17 0 .4.17.53.37m8.17 0c.35.57-.44 1.22-.9.75-.4-.4-.15-1.12.37-1.12.17 0 .4.17.53.37m25.13-.1c.27.44-.35 1.2-.77.95-.55-.34-.46-1.22.11-1.22.27 0 .57.13.66.27m8.17 0c.27.44-.35 1.2-.77.95-.54-.34-.46-1.22.11-1.22.27 0 .57.13.66.27m24.23.1c.35.57-.44 1.22-.9.75-.4-.4-.15-1.12.37-1.12.17 0 .4.17.53.37m8.17 0c.35.57-.44 1.22-.9.75-.4-.4-.15-1.12.37-1.12.17 0 .4.17.53.37m22.13 0c.35.57-.44 1.22-.9.75-.4-.4-.15-1.12.37-1.12.17 0 .4.17.53.37m8.17 0c.35.57-.44 1.22-.9.75-.4-.4-.15-1.12.37-1.12.17 0 .4.17.53.37m21.1 1.69c.12.2.03.59-.2.87-.51.6-1.6-.18-1.2-.85.3-.48 1.11-.48 1.4-.02m10.84.17c.12.3-.02.6-.33.72-.63.25-1.33-.36-1-.88.33-.54 1.1-.45 1.33.16m-217.66 2.88c0 1.36-.15 2.38-.34 2.38-.2 0-.34-1.02-.34-2.38 0-1.36.15-2.38.34-2.38.2 0 .34 1.02.34 2.38m55-.98c.26.41-.5 1.04-.94.77-.15-.1-.27-.4-.27-.66 0-.58.88-.66 1.21-.11m175.23 10.17c-.04.84-.05 1.84-.03 2.21.25 3.44 0 11.14-.39 11.6-.01.03-.12 8-.23 17.71-.23 19.8-.14 19.1-2.65 19.93-1.52.5-5.78.53-18.94.14-7.44-.22-9.44-.1-8.44.54.36.23.34.29-.08.3-.29 0-.73-.2-.98-.43-.37-.34-.41-.34-.22 0 .13.24.08.43-.12.43s-.36-.19-.36-.41c0-.32-.1-.32-.41 0-.67.67-4.39.54-4.13-.14.18-.45.1-.5-.43-.24-.36.17-3.37.28-6.7.23-3.84-.06-6.03.03-6.03.25s-4.33.28-12.52.19c-6.88-.09-12.81-.15-13.19-.15-27.5.27-56.34.2-56.34-.11 0-.28-.14-.27-.5.02-.5.43-6.02.34-10.18-.16-1.33-.15-2.08-.11-2.23.14-.45.73-118.23.68-118.96-.05-.33-.33-.78-.61-1-.63-.22-.03.2-.17.96-.32.75-.16 25.9-.3 55.89-.3l54.53-.03.7-.9c.7-.88.7-1.14.7-24V139.2l-.83-.83-.83-.84h-55.77c-47.1 0-55.88.08-56.45.48-.61.43-.88-1.17-.51-3.12 0-.04 60.03-.04 133.38 0l133.36.09-.07 1.53M187 137.94c-1.47.7-1.49 1.08-1.39 25.03l.1 22.88.77.78.77.77h57.58l.65-.8c.62-.77.65-1.67.65-24.23v-23.43l-.9-.7c-1.03-.81-56.58-1.1-58.23-.3m63.43.3l-.9.7v23.47c0 22.32.03 23.5.63 24.09.92.92 7.7 1.07 47.43 1.08h33.93l1.05-.89 1.05-.88v-46.6l-.84-.84-.83-.84h-40.31c-40.27 0-40.31 0-41.21.7M160 139.59c1.67.9 1.53 3.24-.22 4.04-2.15.97-3.89-2-2.17-3.7.76-.76 1.42-.86 2.4-.34m-51.77 1.36c0 .75-.15 1.36-.33 1.36-.2 0-.35-.62-.35-1.36 0-.75.16-1.37.35-1.37.18 0 .33.62.33 1.37m2.22-.69c.12.38.34.69.5.69.16 0 .2-.31.1-.69-.1-.38 0-.68.2-.68.23 0 .39.59.39 1.37 0 1.62-.68 1.83-1.38.42l-.46-.93-.13.93c-.18 1.43-.75 1.11-.75-.42 0-1.52 1.1-2.01 1.53-.69m4.34-.25c.25.7-.12 1.28-.81 1.28-.36 0-.75.23-.86.5-.37.97-.8.51-.8-.84 0-1.4 2.05-2.17 2.47-.94m1.55.68c-.08.8.03 1.1.4 1.1.33 0 .55-.39.62-1.1.06-.6.26-1.1.45-1.1s.3.57.23 1.27c-.1 1.21-.16 1.28-1.3 1.28-1.13 0-1.2-.07-1.3-1.28-.07-1 .03-1.28.46-1.28.41 0 .52.27.44 1.11m4.24-.88c-.24.1-.43.7-.43 1.33 0 .64-.15 1.17-.34 1.17-.19 0-.34-.45-.34-1 0-.6-.24-1.15-.6-1.36-.47-.27-.31-.34.77-.33.75.01 1.17.1.94.19m3.74.01c-.95.19-1.01.79-.09.79.38 0 .69.15.69.34 0 .18-.32.34-.7.34-.39 0-.61.14-.5.32.1.18.42.24.7.14.27-.11.5-.03.5.18 0 .2-.46.38-1.02.38-.97 0-1.03-.08-1.03-1.36 0-1.32.04-1.36 1.11-1.32.8.03.9.09.34.2m3.68.18c.02.23.08.85.15 1.38.12.91.07.95-1.13.85-1.93-.16-2.17-2.66-.25-2.66.73 0 1.22.17 1.23.43m1.75.68c.05.6.26 1.1.44 1.1.19 0 .4-.5.45-1.1.06-.6.26-1.1.45-1.1.18 0 .29.57.23 1.27-.17 2.07-2.32 2.17-2.32.1 0-1.64.6-1.86.75-.27m4.53.26l.42 1.2h-1.32c-1.47 0-1.46 0-.94-1.51.5-1.4 1.3-1.26 1.84.31m1.53-.34c0 .79.15 1.02.68 1.02.38 0 .68.15.68.34 0 .19-.46.34-1.02.34-.96 0-1.02-.08-1.02-1.36 0-.75.15-1.37.34-1.37.19 0 .34.46.34 1.03m2.72.34c0 .75-.15 1.36-.34 1.36-.18 0-.34-.62-.34-1.36 0-.75.16-1.37.34-1.37.19 0 .34.62.34 1.37m2.4-.38c-.82 1.17-.88 1.54-.2 1.28.28-.1.6-.05.7.13.12.19-.32.33-1 .33-1.4 0-1.59-.58-.5-1.56l.71-.65-.8-.22c-.63-.18-.53-.24.5-.26l1.3-.04-.7 1m2.44-.75c-.94.18-1.01.78-.08.78.37 0 .68.15.68.34 0 .18-.31.34-.7.34-.41 0-.6.15-.48.36.13.2.44.28.7.18.27-.1.48-.03.48.15s-.46.33-1.02.33c-.97 0-1.02-.08-1.02-1.36 0-1.32.03-1.36 1.1-1.32.8.03.9.09.34.2m3.66 1.12c0 .75-.15 1.36-.34 1.36-.18 0-.34-.23-.34-.51a.51.51 0 00-1.02 0c0 .28-.15.5-.34.5-.19 0-.34-.6-.34-1.35 0-1.33.03-1.37 1.2-1.37 1.16 0 1.18.04 1.18 1.37m141.28-.34c0 .79.15 1.02.68 1.02.38 0 .68.15.68.34 0 .19-.46.34-1.02.34-.96 0-1.02-.08-1.02-1.36 0-.75.15-1.37.34-1.37.19 0 .34.46.34 1.03m3.49-.78c-.95.18-1.01.78-.08.78.37 0 .68.15.68.34 0 .18-.31.34-.69.34-.37 0-.68.22-.68.5 0 .29-.15.52-.34.52-.18 0-.34-.62-.34-1.36 0-1.32.04-1.36 1.1-1.32.8.03.9.09.35.2m3.49 1.12c0 1.52-2.28 1.89-2.5.4-.19-1.36.18-1.82 1.39-1.7 1.02.1 1.1.2 1.1 1.3m-182.1-.7c-.26.4.39.8.84.52.38-.23.13-.84-.35-.84-.16 0-.39.14-.5.31m13.1.52c0 .45.18.94.4 1.07.26.17.32.06.18-.32-.12-.3-.07-.56.1-.56.2 0 .34-.23.34-.51a.51.51 0 00-.51-.52c-.32 0-.51.32-.51.84m19.14-.44c.17.53.93.62.96.12.01-.2-.24-.4-.55-.46-.35-.08-.5.05-.41.34m148.14.09c-.28.73.11 1.65.63 1.47.24-.08.43-.5.43-.93 0-.94-.76-1.32-1.06-.54m-78.15 2c.09.79-.02.92-.77.92-.7 0-.87-.17-.87-.82 0-1.47 1.46-1.55 1.64-.1m1.53-.11c-.22.94-.38 1.22-.57 1-.55-.64-.47-1.87.12-1.87.53 0 .62.17.45.87m1.76-.67c.14.22.44.22.88-.02.84-.45 1.34-.15 1.34.8 0 .94-3.28 1.3-3.63.4-.35-.9.93-1.96 1.41-1.18m-6.63.4c0 .32.09.32.4 0 .65-.64.96-.48.95.53 0 .73-.08.83-.33.43-.19-.28-.34-.34-.34-.13 0 .21-.39.38-.86.38-.66 0-.85-.17-.85-.8 0-.5.2-.81.51-.81.28 0 .52.18.52.4m2.27.16c-.27.27.04.8.47.8.17 0 .32-.23.32-.51 0-.53-.4-.68-.79-.3m3.51.3c0 .28.16.5.34.5.19 0 .34-.22.34-.5s-.15-.51-.34-.51c-.18 0-.34.23-.34.5m-6.47 2.73c0 .47-.15.85-.34.85-.18 0-.34-.38-.34-.85s.16-.85.34-.85c.2 0 .34.38.34.85m1.2-.25c.22.54.26.54.52-.09.25-.6.28-.56.3.26.03.95-.42 1.24-.85.56-.16-.27-.32-.24-.52.08s-.3.18-.3-.47c0-1.06.48-1.25.85-.34m2.2-.26c-.27.18-.35.34-.16.34.19 0 .1.16-.17.34-.44.28-.43.33.08.34.33 0 .6.17.6.37 0 .82-1.2.09-1.3-.8-.09-.78.02-.93.68-.92.63 0 .69.07.28.33m2.31.56c.09.6-.05.72-.76.68-.67-.04-.87-.23-.87-.84 0-1.06 1.48-.92 1.63.16m2.48-.13l.02.76.3-.76c.4-.98.81-.98 1.26.01.34.74.28.78-.96.83-1.1.05-1.33-.05-1.33-.6 0-.92-.6-.84-.75.1-.1.7-.13.68-.32-.17-.17-.85-.1-.94.78-.94.78 0 .98.16 1 .77m45.48.5c-.58.14-.58.18-.03.58.63.46.4 1.21-.37 1.21a.94.94 0 01-.72-.4c-.16-.26-.06-.32.33-.18.3.13.56.09.56-.07s-.24-.39-.53-.5c-.74-.28-.27-.9.64-.85.6.03.63.07.12.2m1.7.19c.3-.73.8-.47.8.4 0 .96-.68 1.57-.7.64 0-.58-.04-.57-.5.04-.48.63-.5.6-.5-.5 0-.93.08-1.07.36-.67.28.39.4.4.54.09m2.4.25c.1.38.3.68.44.68.15 0 .2-.3.1-.66-.16-.6 0-.66 1.65-.62 1 .02 1.53.1 1.18.18-.52.12-.56.21-.17.45.4.26.4.3-.02.3-.35.01-.3.15.17.51.65.49.64.5-.1.51-.46.01-.77-.2-.77-.5 0-.63-.49-.65-1.1-.04-.56.56-2.64.55-2.64-.01 0-1.37.95-1.97 1.26-.8m27.4.43c-.05.33.06.6.26.6s.35-.23.35-.5c0-.7.7-1.03 1.06-.49.78 1.24-1.28 2.34-2.17 1.15-.15-.2-.38-.15-.58.17-.36.54-.43.43-.43-.68 0-1.04.03-1.07.85-.96.5.08.73.31.66.7m4.9-.51c-.52.13-.55.22-.17.46.4.26.4.3-.01.3-.36.01-.31.16.17.53.63.5.63.52-.2.43-.52-.06-.85-.31-.85-.67 0-.31-.12-.68-.25-.82-.14-.14-.25.07-.25.47 0 1.14-.6 1.2-.76.07-.15-1-.13-1.02 1.41-.98.86.02 1.27.11.91.2m-221.83 2.57c.23.59.31.63.33.17.02-.69.55-.8.84-.17.16.34.24.34.4 0 .33-.71.74-.48.74.43 0 .9-.42 1.14-.71.42-.14-.32-.26-.3-.53.08-.19.27-.45.39-.58.25-.14-.13-.45-.07-.7.14-.34.28-.58.28-.92 0-.25-.2-.56-.28-.68-.15-.12.12-.22-.2-.22-.7 0-.52.14-.85.31-.74.18.1.42.04.53-.15.36-.57.86-.4 1.19.42m4.9.42c-.1.25-.47.53-.83.62-.76.2-.98-1.3-.23-1.56.59-.21 1.27.39 1.06.94m3.33-.58c-.52.18.54 1.07 1.3 1.09.33 0 .28-.14-.18-.48-.89-.66-.21-1.48.75-.92.6.35.6.37-.03.38-.65 0-.65.01 0 .51.57.44.6.55.15.85-.65.43-.93.43-1.2 0-.15-.25-.36-.25-.69.02-.62.52-1.17.12-1.17-.86 0-.8.58-1.26 1.17-.92.18.1.14.25-.1.33m76.2.16c0 .19.25.14.54-.1.45-.38.6-.37.85.04.21.34.3.36.31.06 0-.23.14-.42.3-.42.16 0 .22.38.13.85-.16.86-1.08 1.2-1.13.42-.02-.34-.06-.34-.2 0-.27.66-.79.5-1.13-.34-.3-.77-.3-.77-.32-.03-.03.77-.58 1.15-1.3.88-.55-.2-.56-1.69-.01-1.87.64-.21 1.97.13 1.97.5m8.34-.41c.11.18-.07.34-.41.36-.47.01-.41.1.21.35.76.3.78.38.29.87-.67.67-1.29.33-1.29-.7 0-1.13.72-1.66 1.2-.88m1.35.34c-.57.2-.55.25.2.44.77.2.78.26.26.78-.33.33-.74.45-1 .29-.32-.2-.26-.34.23-.53.57-.22.58-.26.06-.28-.33-.01-.6-.24-.6-.5 0-.54.68-.9 1.17-.61.18.1.03.28-.32.4m42.67-.08c-.14.72-.75.67-.9-.07-.06-.3.12-.53.45-.53.35 0 .52.23.45.6m58.27 1.4c0 .37-.23.28-.88-.32l-.88-.82-.66.81c-.36.45-.76.71-.88.6-.12-.13.22-.69.75-1.25l.98-1.01.79.74c.43.4.78.97.78 1.25M76.03 148.5c.13.32.26.3.53-.08.3-.41.37-.3.37.5 0 .82-.08.92-.37.52-.27-.39-.4-.4-.53-.09-.3.73-.8.47-.8-.42 0-.9.5-1.16.8-.43m10.23.11c.35.9.24 1.08-.66 1.08-.63 0-.82-.14-.68-.5.1-.27.19-.63.19-.8 0-.53.93-.35 1.15.22m74.42.15c0 .37.15.68.34.68.19 0 .34.14.34.3 0 .18-.3.23-.68.14-.7-.19-1-1.8-.34-1.8.19 0 .34.3.34.68m8.17-.19c0 .28-.3.67-.68.87-.6.32-.68.26-.68-.5 0-.64.18-.86.68-.86.38 0 .68.22.68.5m1.7-.2c0 .18.09.54.2.82.13.35-.07.5-.7.5-.65 0-.84-.15-.7-.5.1-.28.18-.64.18-.81 0-.17.23-.31.51-.31s.51.14.51.3m93.28.72c0 .56-.15 1.02-.34 1.02-.19 0-.34-.31-.34-.69 0-.69 0-.69-1.4.02-.76.4-1.48.63-1.58.52-.25-.25-.18-.31 1.45-1.16 1.86-.96 2.21-.92 2.21.29m-101.79-.17c0 .3.17.5.37.44.2-.07.36-.27.36-.44 0-.18-.16-.38-.36-.45-.2-.07-.37.13-.37.45m50.39.7a.5.5 0 01-.52.49c-.5 0-.7-.72-.29-1.13.32-.32.8.07.8.64m8.18 0a.5.5 0 01-.51.49c-.52 0-.7-.72-.3-1.13.32-.32.8.07.8.64m-94.7.58c.1.8 0 .93-.76.93-.69 0-.88-.17-.88-.8 0-1.57 1.47-1.7 1.64-.13m173.2-.74c.34.56-.45 1.22-.92.75-.39-.4-.14-1.12.38-1.12.17 0 .4.16.53.37M264.85 151a.5.5 0 01-.51.49c-.51 0-.7-.72-.3-1.13.32-.31.81.07.81.64m8.36-.5c.35.56-.44 1.22-.9.75-.4-.4-.16-1.12.37-1.12.17 0 .4.16.53.37m21.79 0c.35.56-.44 1.22-.91.75-.4-.4-.15-1.12.38-1.12.16 0 .4.16.53.37m8.17 0c.35.56-.44 1.22-.91.75-.4-.4-.15-1.12.38-1.12.16 0 .4.16.53.37m14.31.37c.17.26.06.32-.32.18-.3-.12-.56-.07-.56.11s.24.33.53.33c.8 0 .4.83-.46.96-.63.09-.88-.96-.45-1.9.11-.26 1.05-.02 1.26.32m1.38.02c.26-.63 1.37-.51 1.65.17.22.55.27.54.52-.08.24-.56.29-.49.3.42.03 1.2-.43 1.48-.82.51-.22-.54-.27-.53-.52.09-.24.59-.3.54-.34-.34l-.06-1.02-.37.93c-.34.87-.92 1.29-.93.69 0-.14-.09-.64-.2-1.11-.16-.7-.12-.76.2-.34.3.38.44.4.57.08m4.37-.08c.12.19-.02.34-.32.34-.29 0-.53.22-.53.5 0 .3.2.42.51.3.28-.1.51-.02.51.18 0 .57-1.35.46-1.57-.13-.43-1.1.81-2.15 1.4-1.2m-243.86.25c-.26.1-.33.28-.16.4.18.11.04.48-.3.8-.59.58-.61.56-.61-.42 0-.84.13-1.02.76-1 .44.02.57.11.3.22m.88 1.38c-.1.32-.16.06-.16-.6 0-.66.07-.92.16-.6.08.33.08.87 0 1.2m1.12-.97c0 .36.2.72.43.8.23.09.31.27.18.42-.13.14-.47.16-.76.05-.58-.22-.74-1.92-.19-1.92.19 0 .34.3.34.65m3.45-.41c-.39.15-.39.23 0 .47.38.25.37.3-.04.31-.45 0-.45.05-.01.33.62.39.23.85-.49.57-.29-.1-.52-.5-.52-.89 0-1.05-.68-.83-.73.25-.05.91-.05.92-.2.08-.1-.47-.34-.96-.56-1.1-.21-.14.38-.24 1.31-.23.94.01 1.5.1 1.24.2m2.33.88c0 .7-.1.94-.28.66-.15-.24-.53-.34-.84-.22-.45.17-.57.02-.57-.66 0-.72.16-.9.85-.9.73 0 .85.16.84 1.11m77.58 0c-.05 1.03-.07 1.05-.2.18-.09-.61-.34-.93-.71-.91-.35.01-.41.09-.15.2.32.12.3.28-.06.65-.79.78-1 .35-.56-1.14.24-.8 1.72.1 1.68 1.03m1.07-.43c0 .37.15.68.34.68.19 0 .34.15.34.34 0 .55-.93.4-1.16-.2-.3-.8-.25-1.5.14-1.5.18 0 .34.3.34.68m2.13-.3c-.2.21-.3.58-.21.82.1.24 0 .53-.2.66-.22.13-.36-.11-.36-.62 0-.47-.2-.92-.43-1.02-.23-.09.03-.18.58-.2.74-.01.9.08.62.36m3.83.57c.03.43-.07.86-.23.96-.16.1-.29 0-.29-.21 0-.22-.27-.3-.64-.18-.47.15-.63.05-.6-.4.03-.35-.22-.62-.63-.68-.38-.05-.48 0-.22.12.4.17.4.25 0 .5-.33.21-.34.3-.03.3.23 0 .42.15.42.34 0 .19-.23.34-.5.34-.35 0-.52-.34-.52-1.01 0-1.38 3.14-1.46 3.24-.08m41.55-.23c.13.2-.15.7-.63 1.1a5.9 5.9 0 00-1.93 3.43c-.29 1.4-1.04 1.55-1.04.21 0-2.58 2.72-6.16 3.6-4.74m-3.81.57c.33.53-.4 1.29-.83.86-.22-.21-.3-.56-.17-.76.27-.44.76-.48 1-.1m14 .35c0 .62-.67.5-.8-.13-.07-.36.06-.51.34-.42.25.09.46.34.46.55m42.16.57c.12.31-.12.72-.61 1.04-.84.55-1.9 2.72-1.9 3.9 0 .38-.22.68-.5.68-.67 0-.68-1.67-.02-3.25.47-1.12 1.16-1.74.75-.67-.11.28-.04.51.17.51.22 0 .28-.33.15-.83-.3-1.21 1.53-2.5 1.96-1.38m29.16 1.37c-.44.46-1 .72-1.31.62-.36-.12-.42-.08-.18.1.52.4-.2 3.53-.8 3.53-1.2 0 .13-4.51 1.64-5.57 1.2-.84 1.7.2.64 1.32m-169.37-1.22c.25.4-.39.8-.84.53-.38-.24-.13-.85.35-.85.16 0 .39.14.5.32m93.11.62c4.5 2.25 1.64 9.84-3.09 8.2l-1-.36.68-1.11c.8-1.3.85-1.54.24-1.54-.24 0-.7.55-1.03 1.22-.65 1.37-1.18 1.23-2.12-.58-2-3.88 2.3-7.84 6.32-5.83m73.38-.23c.35.57-.44 1.22-.9.75-.4-.4-.15-1.12.37-1.12.17 0 .4.17.53.37m14.11.31c0 .72-.5.92-.85.34-.25-.4.07-1.02.53-1.02.18 0 .32.3.32.68m-184 .68c-.16.27-.36.29-.59.06a.63.63 0 01-.09-.74c.17-.26.36-.28.59-.06.19.19.23.52.1.74m6.46 0c-.16.27-.36.29-.59.06a.63.63 0 01-.09-.74c.16-.26.36-.28.59-.06.19.19.23.52.1.74m142.83.53c4.2 2.17 2.07 9.45-2.46 8.44-1.73-.38-1.74-.4-1-1.44.39-.55.7-1.16.7-1.37 0-.75-.63-.34-1.33.86-.89 1.5-1.8 1-2.43-1.31a4.53 4.53 0 016.52-5.18m30.62.24c1.57 1.06 1.57 1.41 0 2.12-.74.34-1.28.74-1.18.9.1.16.77 0 1.48-.37 1.54-.79 1.73-.67 1.73 1.1 0 4.66-6.65 6.24-8.64 2.06-2.04-4.26 2.72-8.44 6.6-5.81m20.54.53c1.1 1.13 1.22 1.42.94 2.13-.33.83-.33.83-.36-.14-.01-.7-.15-.92-.5-.8-.26.1-.74-.1-1.07-.47-.71-.78-.43-.89.34-.12.3.3.53.38.53.19 0-.56-.66-.81-2.34-.9-.86-.05-1.39-.02-1.17.06.27.1.17.4-.3.86-.54.55-.65.98-.51 2.04.16 1.2.13 1.28-.3.73-.44-.6-.46-.6-.47.05-.01.58-.07.6-.5.17-1.05-1.06.06-4.1 1.68-4.6 2.18-.68 2.67-.58 4.02.8m-237.04-.62c0 .2-.9.34-2.04.34-1.8 0-2.1.1-2.59.85-.3.47-.7.77-.86.66-.17-.1.04-.63.46-1.17.8-1 5.03-1.58 5.03-.68m83.88.65c.56.59.8 1.07.58 1.2-.19.12-.6-.17-.91-.64-.5-.76-.8-.87-2.57-.87-1.11 0-2-.15-2-.34 0-.88 3.93-.36 4.9.65m53.3.2c0 .45-.13.9-.3 1-.36.23-.82-1.4-.53-1.87.33-.53.84 0 .84.88m-99.4-.32c0 .1-.47.58-1.04 1.06a8.44 8.44 0 00-1.69 2.1c-.78 1.5-.9.88-.16-.9.66-1.58 2.88-3.33 2.88-2.26m85.05.74c-.14.72-.75.67-.9-.07-.06-.3.12-.53.45-.53.35 0 .52.23.45.6m16.23.43c-.16.26-.36.28-.59.06a.63.63 0 01-.09-.75c.16-.26.36-.28.59-.05.19.18.23.52.1.74m-104.77-.28c-.2.63-.94.74-.94.13 0-.3.24-.53.54-.53.3 0 .48.18.4.4m9.73 1.38c-.11.18-.42.1-.7-.19-.3-.29-.4-.7-.26-.93.2-.32.38-.28.71.19.25.33.36.75.25.93m128.32-.2c.97.5 1.6.97 1.37 1.04-.22.08-.86-.1-1.43-.4-1.29-.66-1.74-.66-1.74-.01 0 .28-.15.5-.34.5-.38 0-.47-1.45-.11-1.8.31-.32.27-.33 2.25.67m23.4.12c0 .56-.16 1.02-.35 1.02-.19 0-.34-.3-.34-.68 0-.38-.23-.68-.51-.68s-.51.3-.51.68c0 .52-.22.67-.94.66-.9-.02-.9-.04-.17-.33.44-.18.77-.6.77-1 0-.54.22-.7 1.02-.7.9 0 1.02.12 1.02 1.03m39.64-.49c.7.7.68.76-.23.74-.43-.01-1.04.1-1.37.24-.7.3-.83-.46-.18-1.1.55-.56 1.14-.52 1.78.12m-196.57 1.19c0 .83.13 1.3.34 1.17.18-.12.34-.73.34-1.37 0-.98.1-1.12.6-.92 3.85 1.55 3.5 6.59-.48 7.11-3.82.5-5.72-4.45-2.54-6.6 1.57-1.05 1.73-1 1.73.6m136.35-.7c0 .26-.2.53-.43.6-.25.09-.43-.15-.43-.6 0-.43.18-.67.43-.59.23.08.43.35.43.6m16.52.46c-.45.45-1.22-.23-.87-.79.17-.29.37-.28.73.02.34.29.39.52.14.77m13.8-.77c.34.56-.45 1.22-.92.75-.39-.4-.14-1.12.38-1.12.17 0 .4.16.53.37m16.34 0c.35.56-.44 1.22-.9.75-.4-.4-.15-1.12.37-1.12.17 0 .4.16.53.37m7.3.3c0 .2-1.13.35-2.72.35-1.59 0-2.72-.14-2.72-.34s1.13-.34 2.72-.34c1.59 0 2.72.14 2.72.34m7.92 1.4c-.19.2-.24-.12-.13-.8.16-.94.2-.99.31-.3.07.44 0 .94-.18 1.1M104.5 158.3c0 .19-.2.35-.43.36-.33.03-.33.07 0 .2.41.17-.22 1.14-.74 1.14-.27 0-.24-1.54.04-1.82.34-.34 1.13-.27 1.13.12m1.93.77c.04.51-.07.93-.25.93-.17 0-.32-.17-.32-.38 0-.27-.16-.25-.5.04-.44.36-.52.3-.52-.41 0-1.61 1.47-1.78 1.6-.18m1.47-.77c0 .19-.2.34-.43.34-.31 0-.3.09.04.3.39.25.39.32 0 .48-.33.13-.29.2.13.21.38.02.6-.22.6-.66 0-.86.85-1.23 1.53-.67 1.14.94.62 1.66-1.2 1.65-1.64-.01-1.7-.05-1.7-1 0-.66.18-1 .51-1 .28 0 .52.16.52.35m33.53 0c.11.19-.1.34-.5.34-.39 0-.7.22-.7.5 0 .29.17.52.37.52.2 0 .25-.18.11-.4-.16-.26-.01-.33.5-.2.48.13.73.04.73-.26 0-.9.68-.87 1.1.06l.43.93.21-1 .22-1 .04 1.04.04 1.04-2.02.03c-1.51.02-2.07-.1-2.22-.49-.37-.98 1.15-1.98 1.69-1.11m4.48.06c.38-.5.43-.43.44.53.01 1.07-.97 1.71-1.03.68-.03-.34-.07-.34-.2 0-.3.72-.8.48-.8-.36 0-1.04.42-1.44.83-.8.29.45.38.45.76-.05m176.1 2.9c.82 2.39.83 2.46.2 3.14-1.37 1.53-2.55.63-3.1-2.37-.8-4.32 1.48-4.93 2.9-.78m-239.65-1.2c0 .9-.07 1-.5.63-.36-.3-.52-.3-.52-.04 0 .2-.15.38-.34.38-.19 0-.34-.38-.34-.85s-.15-.85-.33-.85c-.18 0-.25.2-.15.46.1.25-.06.65-.36.89-.45.38-.52.3-.52-.63 0-1.03.04-1.06 1.53-1.06s1.53.03 1.53 1.06m1.54-.8c-.54.4-.6 1.18-.1 1.49.3.2.2.28-.33.29-.63 0-.77-.19-.77-1.02 0-.83.14-1.02.77-1.02.42 0 .61.12.43.26m2.14.85c.1.75-.02.93-.6.93-.8 0-1.22-.73-.9-1.56.33-.86 1.38-.42 1.5.63m81.08.02c0 .83-.08.96-.34.57-.3-.45-.37-.45-.67 0-.18.28-.35.4-.38.26-.03-.14-.09-.41-.13-.6-.05-.19-.1-.5-.13-.68-.02-.19-.31-.34-.64-.34-.48 0-.5.07-.11.31.4.26.39.4-.09.87-.53.53-.56.5-.56-.45 0-.98.05-1.02 1.53-1.02 1.5 0 1.53.03 1.52 1.08m1.54-.87c-.53.4-.59 1.18-.1 1.49.3.2.21.28-.33.29-.62 0-.76-.19-.76-1.02 0-.83.14-1.02.76-1.02.43 0 .62.12.43.26m2.15.87c.1.84.01.95-.68.85-.58-.08-.82-.36-.9-1.07-.1-.84 0-.95.68-.85.58.08.82.36.9 1.07m-85.9-.43c-.33.52.11.86.55.42.25-.24.25-.43.02-.58-.2-.12-.45-.05-.57.16m33.88.34c0 .18-.23.32-.51.32-.53 0-.68-.4-.3-.78.28-.28.8.03.8.46m13.29-.02c0 .19-.24.34-.52.34s-.5-.15-.5-.34c0-.19.22-.34.5-.34s.52.15.52.34m77.4.27c.33.53-.4 1.29-.83.86-.22-.21-.3-.56-.17-.76.27-.44.76-.48 1-.1m14 .75c-.17.27-.36.29-.59.06a.63.63 0 01-.1-.74c.17-.27.37-.29.6-.06.18.19.22.52.09.74m68.44.71c.35.57-.44 1.22-.9.75-.4-.4-.15-1.12.37-1.12.17 0 .4.17.53.37m14.11.5c0 .56-.54.66-.85.15-.28-.45.13-1.08.54-.83.17.1.31.41.31.68m-162.45.75c-.05.7-.25 1.28-.44 1.28s-.39-.58-.45-1.28c-.08-1 .02-1.28.45-1.28s.53.29.44 1.28m-60.53.27a.5.5 0 01-.5.5c-.52 0-.7-.72-.3-1.13.32-.32.8.06.8.63m24.17 0a.5.5 0 01-.5.5c-.52 0-.7-.72-.3-1.13.32-.32.8.06.8.63m60.6 0a.5.5 0 01-.51.5c-.51 0-.7-.72-.3-1.13.32-.32.81.06.81.63m-48.29-.02c0 .18-.16.38-.37.45-.2.07-.36-.13-.36-.45 0-.3.16-.5.36-.44.2.07.37.27.37.44m11.52 0c0 .28-.15.52-.34.52-.18 0-.34-.24-.34-.52s.16-.5.34-.5c.2 0 .34.22.34.5m-58.95.97c.08.65-.05.9-.44.9-.64 0-1.02-.8-.73-1.55.31-.8 1.04-.4 1.17.65m1.89-.63c.27.71-.1 1.54-.69 1.54-.26 0-.57-.23-.68-.51-.27-.71.1-1.54.69-1.54.26 0 .57.23.68.51m1.92.58c0 1.03-.03 1.05-.5.43-.29-.38-.5-.48-.52-.24-.01.72-.54.47-.54-.25 0-.5.16-.63.6-.5.34.11.61.04.61-.16s.08-.37.18-.37c.09 0 .17.5.17 1.09m13.36-.2c.2 1-.57 1.51-1.22.81-.32-.34-.28-.4.2-.22.43.15.6.03.6-.45s-.17-.6-.58-.45c-.38.15-.48.09-.32-.18.43-.69 1.15-.43 1.32.48m4.34-.36c.23.14.55.04.71-.22.21-.33.3-.2.3.46 0 .68-.13.87-.5.73-.28-.1-.51-.07-.51.1 0 .52-2.06.47-2.27-.06-.1-.28-.33-.41-.5-.3a.37.37 0 00-.11.5c.1.17-.05.32-.34.32a.52.52 0 01-.53-.51c0-.28.16-.51.34-.51.19 0 .34-.17.34-.37 0-.2-.15-.26-.34-.15-.18.12-.34.06-.34-.13 0-.4 3.08-.28 3.75.14m57.49 1.03c-.76.76-1.66-.22-.97-1.05.4-.48.5-.48.97 0 .47.47.47.58 0 1.05m5.76-.41c.08.65-.04.9-.43.9-.65 0-1.02-.8-.73-1.55.3-.8 1.04-.4 1.16.65m16.4-.1c0 .37-.13.67-.3.67-.4 0-.77-1-.52-1.4.3-.48.83 0 .83.73m2.19-.7c.93.35 1.2 1.37.37 1.37-.33 0-.43-.2-.28-.6.2-.52.16-.54-.34-.13-.32.25-.49.6-.39.77.1.16-.04.3-.32.3-.74 0-1.03-.65-.4-.9.29-.1.53-.34.53-.52s-.18-.22-.4-.08c-.24.15-.3.09-.15-.15.3-.48.29-.48 1.38-.06m2.9.77c0 .88-.08 1-.34.54-.18-.31-.24-.8-.12-1.1.32-.84.47-.65.46.56m34-.51c-.15.72-.75.67-.9-.07-.07-.3.12-.53.44-.53.36 0 .52.23.45.6m8.24-.09c0 .28-.23.52-.51.52a.51.51 0 01-.52-.52c0-.28.23-.5.52-.5.28 0 .5.22.5.5m-117.44.7a.5.5 0 01-.51.5c-.51 0-.7-.72-.3-1.13.32-.32.8.07.8.64m8.18 0a.5.5 0 01-.51.49c-.51 0-.7-.72-.3-1.13.32-.32.8.07.8.64m28.26 0c0 .5-.72.67-1.13.26-.3-.3.46-1.17.83-.94.17.1.3.4.3.68m8.18 0a.5.5 0 01-.52.49c-.5 0-.7-.72-.29-1.13.32-.32.8.07.8.64m10.5.09c.08.55-.03.68-.43.53-.63-.24-.74-1.62-.1-1.41.23.07.47.47.53.88m1.08-.28c0 .37-.15.68-.34.68-.19 0-.34-.31-.34-.69 0-.37.15-.68.34-.68.19 0 .34.31.34.69m1.02 0c0 .37-.15.68-.34.68-.19 0-.34-.31-.34-.69 0-.37.15-.68.34-.68.19 0 .34.31.34.69m17.02 0c0 .37-.14.68-.32.68-.17 0-.3-.31-.27-.69.03-.37.18-.68.32-.68.15 0 .27.31.27.69m-100.23.34c0 .37-.19.68-.42.68-.22 0-.39-.31-.36-.68.03-.38.22-.69.42-.69.2 0 .36.31.36.69m18.72 0c0 .37-.18.68-.41.68-.23 0-.4-.31-.37-.68.03-.38.22-.69.42-.69.2 0 .36.31.36.69m40.66-.34c0 .18-.46.34-1.02.34s-1.02-.16-1.02-.34c0-.2.46-.34 1.02-.34s1.02.15 1.02.34m24.95.34c-.1.37-.31.68-.48.68-.16 0-.3-.31-.3-.68 0-.38.22-.69.48-.69.31 0 .42.24.3.69m18.14 0c0 .37-.19.68-.42.68-.23 0-.4-.31-.36-.68.03-.38.21-.69.41-.69.2 0 .37.31.37.69m85.25.87a.5.5 0 01-.51.49c-.51 0-.7-.72-.3-1.13.32-.32.81.07.81.64m8.29-.38c.24.63-.4 1.07-.87.6-.36-.37-.1-1.1.4-1.1.15 0 .37.23.47.5m21.86-.12c.35.56-.44 1.21-.91.74-.4-.39-.15-1.11.38-1.11.16 0 .4.16.53.37m8.17 0c.35.56-.44 1.21-.91.74-.4-.39-.15-1.11.38-1.11.16 0 .4.16.53.37m-180.96 1c0 .18-.23.33-.5.33-.53 0-.68-.4-.3-.79.27-.27.8.04.8.47m6.47-.2c0 .29-.14.52-.32.52-.43 0-.74-.53-.46-.8.38-.39.78-.24.78.29m-51.91.17c.36.59-.18 1.1-.71.66-.26-.22-.4-.53-.3-.7.26-.4.74-.38 1 .04m3.58.08c0 .4-2.1 2.3-2.53 2.3-.56 0-.06-1.07.85-1.84 1.15-.97 1.68-1.11 1.68-.46m9.11.2c.08.22-.17.4-.57.4-.7 0-.92-.36-.48-.8.32-.32.89-.1 1.05.4m15.06-.43c0 .44-3.41 3.47-3.59 3.2-.28-.46.37-1.5 1.57-2.5.96-.81 2.02-1.18 2.02-.7m36.16.2c.08.23-.47.95-1.21 1.62a8.97 8.97 0 00-1.88 2.41c-.46 1.04-.54 1.1-.65.45-.28-1.73 3.25-5.95 3.74-4.47m20.88-.03c.35.56-.44 1.22-.9.75-.4-.4-.16-1.12.37-1.12.17 0 .4.16.53.37m3.22.12c0 .27-.28.69-.62.93a8.7 8.7 0 00-1.43 1.56c-.93 1.28-1.36 1.4-1.36.38 0-.75 2.35-3.36 3.02-3.36.22 0 .39.22.39.49m9.38-.12c.3.48-.6 1.07-1 .66-.32-.32 0-1.03.47-1.03.16 0 .4.17.53.38m20.57-.04c0 .18-.19.34-.42.34-.3 0-.32.08-.04.26s.26.37-.08.69c-.4.36-.48.27-.48-.6 0-.7.17-1.03.51-1.03.28 0 .51.15.51.34m2.75 1.36c.17 0 .32-.3.32-.68 0-.43.3-.75.86-.89 1.12-.28 1.22-.15.86 1.07-.25.81-.3.86-.33.26-.04-1.03-.64-1.3-.77-.36-.2 1.37-1.66 1.24-1.6-.14.05-1.03.07-1.05.2-.2.08.52.28.94.46.94m3.93-1.16c-.12.3-.2.75-.2 1.02 0 .26-.17.48-.37.48-.2 0-.32-.27-.26-.6.05-.32-.03-.78-.17-1.02-.19-.29-.04-.42.47-.42.53 0 .68.15.53.54m1.56-.25c-.49.3-.43 1.1.1 1.49.2.14 0 .25-.42.25-.58 0-.77-.19-.77-.78 0-.94.25-1.25 1-1.25.41 0 .43.07.1.29m2.2.82c.03.51-.08.93-.25.93-.18 0-.32-.17-.32-.38 0-.27-.16-.25-.51.04-.44.36-.52.3-.52-.41 0-1.61 1.47-1.78 1.6-.18m24.76-.1c.13 0 .14-.15.03-.33-.12-.19-.05-.34.15-.34s.36.38.36.85c0 .93-.32 1.08-.96.44-.31-.32-.4-.32-.4 0 0 .23-.16.4-.34.4-.4 0-.47-1.45-.1-1.82.14-.14.42-.01.64.28.2.29.49.53.62.53m2.24-.7c0 .19.23.25.51.14.37-.14.51.03.51.6 0 .68-.2.82-1.2.9-1.15.08-1.73-.96-.96-1.74.35-.34 1.14-.27 1.14.1m2.72.04c0 .2-.15.26-.34.15-.18-.12-.34-.07-.34.11 0 .66.96.69 1.13.03.18-.68 1.26-.93 1.26-.3 0 .2-.17.27-.37.14-.44-.27-.28.94.17 1.27.17.12-.4.22-1.25.22-1.51 0-1.92-.58-1.32-1.9.13-.27 1.06-.02 1.06.28m-39.14.63c0 .36.19.73.42.82.23.1.08.19-.34.2-.6.02-.77-.16-.77-.82 0-.47.16-.85.34-.85.2 0 .34.3.34.65m35.4.2c0 .28.16.5.35.5.19 0 .34-.22.34-.5s-.15-.51-.34-.51c-.19 0-.34.23-.34.5m32 .02c.25.3.7.43 1.07.31.76-.24.86.46.1.75-.28.11-.8-.05-1.13-.36-.35-.31-.87-.46-1.18-.34-.56.2-.77-.22-.34-.66.38-.38 1.03-.25 1.48.3m9.19.33c0 .62-.18.85-.68.85s-.68-.23-.68-.85c0-.63.18-.85.68-.85s.68.22.68.85m1.36-.51c-.28.18-.35.33-.17.34.19 0 .11.17-.17.37-.4.28-.34.3.26.14.45-.13.76-.07.76.15 0 .2-.38.36-.85.36s-.85-.14-.85-.31c0-.75.46-1.4.97-1.39.49 0 .5.05.05.34m2.05.04c0-.21.15-.38.33-.38.2 0 .35.38.35.85 0 .84-.66 1.24-.71.42-.02-.34-.06-.34-.2 0-.3.75-.8.46-.8-.46 0-.76.08-.83.51-.47.36.3.51.3.51.04m-175.47.33c.35.57-.44 1.22-.9.75-.4-.4-.15-1.12.38-1.12.16 0 .4.16.52.37m13.85.71c-.52.52-.9.14-.62-.61.17-.45.32-.5.62-.19.3.3.3.5 0 .8m22.54-.02c-.3.47-1.17.35-1.17-.15 0-.25.1-.56.22-.68.31-.31 1.18.45.95.83m13.88.02c-.52.52-.9.14-.61-.61.17-.45.31-.5.62-.19.3.3.3.5 0 .8m21.84.62c-.24.25-.55.14-1-.35-.61-.69-.61-.7.03-.45.6.22.62.19.17-.41-.36-.5-.28-.47.33.1.57.53.71.87.47 1.11m-60.05.05c0 .14-.14.33-.3.44-.48.3-1.1-.69-.84-1.34.23-.6 1.14.1 1.14.9m36.43.02c0 .17-.14.22-.31.12-.18-.1-.38-.02-.45.2-.07.2-.39-.02-.7-.5-.54-.82-.55-.87-.02-.67.42.16.5.1.28-.27-.16-.26.05-.19.46.17.4.35.74.78.74.95m-60.67.66c-.87.55-1.48-.2-1.05-1.3.18-.48.3-.45.85.23.5.62.55.85.2 1.07m231.84-.6c.1.82 0 .93-.68.83-.9-.12-1.27-1.24-.57-1.68.71-.45 1.13-.16 1.25.86m5.6-.06c-.2 1.09-.77 1.27-.77.26 0-.37-.16-.68-.34-.68-.2 0-.35.3-.35.68 0 .74-.5.91-.87.3-.16-.26-.32-.23-.52.09s-.3.18-.3-.47c0-1.01.3-1.18.95-.53.29.29.4.3.4.02 0-.29 1.3-.7 1.93-.6.03 0-.02.42-.12.94m-10.33 0l.31.76.02-.77c.02-.77 1.05-1.12 1.05-.35 0 .32.09.32.4 0 .66-.65.96-.48.93.53-.01.51-.1.74-.2.5-.1-.23-.35-.3-.57-.17-.47.31-3.66.43-3.5.13.06-.11.2-.48.32-.8.3-.83.88-.75 1.24.16m5.6-.28c-.1.26-.02.57.18.7.21.13.36-.07.36-.48 0-.38.15-.7.34-.7.19 0 .34.38.34.85 0 .68-.17.85-.85.85-.68 0-.85-.17-.85-.85 0-.47.15-.85.33-.85.18 0 .25.21.15.48m-212.67.53c3.66 2.23 2.91 7.28-1.22 8.21-3.62.81-6.85-3.3-5.13-6.53.35-.64.4-.63 1.6.35 1.62 1.34 1.9 1.02.43-.48l-1.14-1.18 1.17-.5c1.6-.7 3-.66 4.3.13m37.34.53c3.65 2.4 1.1 8.48-3.3 7.88-4.77-.63-5.6-7.73-1-8.61 1.1-.21 1.1-.21 1.1 1.19 0 .77.15 1.4.34 1.4.19 0 .34-.68.34-1.52 0-1.67.4-1.72 2.52-.34m23.77-.3c2.7 1.38 3 5.68.53 7.42-1.09.76-1.22.69-1.63-.83-.51-1.9-1.16-1.78-.87.17.27 1.8-.09 1.93-2.46.85a4.18 4.18 0 01-1.34-6.67c1.64-1.8 3.5-2.1 5.77-.94m149.6-.68c-.27.27.04.8.47.8.18 0 .32-.23.32-.51 0-.53-.4-.68-.79-.3m-234.85.82c3.52 2.14 2.23 8.15-1.74 8.16-.95 0-.96-.02-.72-1.57.19-1.26.14-1.55-.24-1.42-.27.09-.51.74-.57 1.57-.12 1.63-.19 1.66-1.7.73a4.43 4.43 0 01-1.34-6.15 4.6 4.6 0 016.31-1.32m116.15.84a.5.5 0 01-.49.51c-.57 0-.95-.48-.64-.8.41-.4 1.13-.22 1.13.3m32.78-.01c.04.18-.2.39-.52.45-.38.07-.6-.1-.6-.45 0-.59 1-.6 1.12 0m-89.48.2c-.13.2-.06.54.15.75.28.28.38.23.38-.17 0-.3.2-.63.43-.72.26-.1.2-.19-.16-.2-.31-.02-.67.14-.8.34m30.15.65c0 .38-.23.68-.51.68-.29 0-.51-.3-.51-.68 0-.38.22-.68.5-.68.29 0 .52.3.52.68m22.31.03c.13.2.1.5-.06.67-.4.4-1.3-.18-1-.66.3-.48.77-.48 1.06 0m8.17 0c.13.2.1.5-.06.66-.4.4-1.3-.18-1-.66.3-.48.77-.48 1.06 0m24.81-.08c.1.17-.03.48-.29.7-.53.44-1.07-.06-.7-.66.26-.42.74-.44 1-.04m8.16 0c.1.17-.03.48-.29.7-.53.44-1.07-.06-.7-.66.26-.42.74-.44 1-.04m-138.03.91a.5.5 0 01-.5.5c-.52 0-.7-.72-.3-1.13.32-.32.8.07.8.63m36.43 0a.5.5 0 01-.51.5c-.51 0-.7-.72-.3-1.13.32-.32.8.07.8.63m-20.14-.16c-.07.2-.27.37-.45.37-.17 0-.38-.17-.44-.37-.07-.2.13-.37.44-.37.32 0 .52.17.45.37m36.42 0c-.06.2-.26.37-.44.37s-.38-.17-.45-.37c-.06-.2.14-.37.45-.37s.51.17.44.37m168.4-.05c.25.4-.4.81-.85.53-.38-.23-.13-.85.35-.85.16 0 .39.15.5.32m-39.71 1.3c-.08.67-.3.94-.79.94-.49 0-.71-.27-.79-.94-.1-.81.01-.94.79-.94s.88.13.79.94m1.42-.6c-.28.19-.36.34-.17.34.19.01.11.16-.17.35-.43.28-.42.33.09.33.32 0 .6.18.6.38 0 .21-.25.29-.55.17-.3-.11-.6-.2-.68-.2-.07 0-.14-.39-.14-.85 0-.66.18-.85.77-.85.62 0 .67.07.25.33m4.38.6c-.04.8-.07.83-.2.17-.18-.95-.77-1.01-.77-.08 0 .37-.16.68-.34.68-.2 0-.34-.31-.34-.68 0-.38-.17-.69-.37-.69-.2 0-.27.3-.16.65.21.66-.6 1.24-1.2.87-1.2-.75-.27-1.86 1.56-1.86 1.82 0 1.87.03 1.82.94m1.44-.51c.02.34.06.34.2 0 .3-.73.8-.47.8.43 0 .86-1 1.26-1.06.42-.02-.34-.06-.34-.2 0-.3.73-.8.47-.8-.42 0-.87 1-1.27 1.06-.43m2.72.5c.22.6.14.7-.56.65-.88-.05-.95-.17-.62-1.05.27-.71.84-.52 1.18.4m1.42-.07c-.1.46-.28.85-.43.85-.14 0-.33-.39-.42-.85-.12-.65-.02-.86.42-.86.45 0 .55.21.43.86m3.05-.4c.2.3.26.3.26-.03 0-.23.24-.43.52-.43s.52.2.54.43c.02.34.06.34.2 0 .3-.73.8-.47.8.43 0 .53-.2.85-.52.85-.28 0-.51-.16-.51-.34 0-.2-.16-.34-.36-.34-.2 0-.27.15-.15.34.11.18.05.34-.15.34s-.36-.19-.36-.4c0-.23-.22-.12-.49.25-.37.5-.58.56-.9.26-.21-.22-.6-.32-.87-.22-.31.12-.46-.09-.46-.66 0-.92 1.93-1.31 2.45-.49m-15.4.4c0 .29.16.52.35.52.19 0 .34-.23.34-.51s-.15-.52-.34-.52c-.19 0-.34.24-.34.52m14.3 0c0 .28.15.5.34.5.19 0 .34-.22.34-.5s-.16-.52-.34-.52c-.19 0-.34.24-.34.52m23.15-.18c0 .2-.23.35-.51.35-.29 0-.51-.16-.51-.34 0-.2.22-.34.5-.34.29 0 .52.15.52.34m6.46 0c0 .18-.23.34-.5.34-.29 0-.52-.16-.52-.34 0-.2.23-.34.51-.34s.51.15.51.34m-248.25.42a.67.67 0 01-.6.43.67.67 0 01-.6-.43c-.08-.25.16-.43.6-.43.44 0 .68.18.6.43m15.77 0c-.04.42-.51.34-.66-.1-.07-.23.05-.35.28-.27.22.07.4.24.38.38m68.76.08c-.03.5-.8.4-.97-.12-.1-.29.06-.42.42-.34.31.06.56.27.55.46m16.03 0c0 .17-.16.37-.37.44-.2.07-.36-.13-.36-.44 0-.32.16-.52.37-.45.2.07.36.27.36.45m21.06-.06c0 .25-.4.82-.9 1.27-.5.46-1.2 1.5-1.56 2.31-.94 2.08-1.64 1.4-.8-.78.77-2.03 3.26-4.17 3.26-2.8m33.02.1c0 .3-.37.83-.83 1.19a6.05 6.05 0 00-1.4 2.19c-.65 1.68-1.41 1.87-1.23.3.23-2.1 3.46-5.52 3.46-3.69m-25.33 1.41c-.23.23-.72.11-.72-.17 0-.14-.15-.48-.31-.76-.19-.31-.02-.26.43.14.4.35.67.71.6.8m-62.96-.24c-.69.81-.63 1.71.12 1.96.44.15.44.09.04-.4-.26-.3-.31-.56-.12-.56.18 0 .41-.38.5-.85.2-1.03.22-1.02-.54-.15m51.52-.2a.5.5 0 01-.49.52c-.57 0-.95-.49-.63-.8.4-.41 1.12-.23 1.12.29m14.11-.2c.26.41-.38.81-.84.53-.38-.23-.13-.84.35-.84.16 0 .39.14.5.31m18.9.2a.5.5 0 01-.49.5c-.57 0-.95-.48-.63-.8.4-.4 1.12-.22 1.12.3m13.96 0c0 .28-.23.5-.51.5a.51.51 0 11.51-.51m77.07.47c.1.16-.2.8-.66 1.43a4.23 4.23 0 00-.84 1.75c0 .34-.24.61-.55.61-.73 0-.41-1.7.58-3.09.71-1.01 1.15-1.22 1.47-.7m-2.8.56c0 .18-.17.38-.37.44-.2.07-.37-.13-.37-.44s.17-.51.37-.45c.2.07.36.27.36.45m-214.16.97c-.45.46-1.22-.23-.87-.79.17-.28.36-.28.73.03.34.28.39.51.14.76m36.41-.27a.5.5 0 01-.51.49c-.51 0-.7-.72-.3-1.13.33-.31.81.07.81.64m63.56 1.09c-.09 1.07-.09 1.69 0 1.36.08-.33.3-.6.49-.6s.24-.3.12-.68c-.16-.52-.09-.63.32-.47.73.28.68-.43-.06-.86-.94-.55-.16-.43.94.15 3.25 1.67 2.55 7-1.03 7.91-1.75.45-3.82-.11-2.44-.66.16-.06.39-.72.5-1.47.15-.93.12-1.2-.1-.85-.19.28-.33.8-.34 1.14 0 .5-.1.56-.47.25-.62-.51-1.02.38-.44.99.23.24-.06.19-.67-.12-1.66-.84-1.7-1.5-.12-2.14 1.44-.57 1.9-1.38.6-1.01-2.47.68-2.3.73-2.3-.73 0-2.18 2.03-4.12 4.36-4.16.77-.01.8.07.64 1.95m34.58-1.5c4.84 2.05 2.74 9.23-2.48 8.46-1.16-.17-1.23-.35-.5-1.28.52-.64.53-.64.33.1-.12.42-.09.77.07.77s.3-.61.31-1.36c.02-1.7-.56-1.77-1.43-.17-.76 1.41-1.13 1.38-1.93-.2-2.04-4.01 1.55-8.05 5.63-6.32m-120.33.25c-.07.2-.27.36-.45.36s-.38-.16-.44-.37c-.07-.2.13-.36.44-.36s.52.16.45.37m36.17.06c-.04.41-.5.33-.65-.1-.08-.23.05-.35.27-.28.22.07.4.25.38.38m82.74 1.37c.02.6.11.82.2.5.08-.33.3-.6.47-.6.5 0 .36-.59-.2-.8-.4-.15-.5.05-.47.9m33.27 1.85c-.48 3.17-.55 3.16-.58-.08-.02-2.6.04-2.97.42-2.47.34.44.38 1.08.16 2.55m56.34-2.27c1.62 1.27 1.93 4.02.6 5.23-.61.55-.68.52-1.4-.48-.92-1.3-1.27-1.13-.55.26.61 1.17.45 1.44-.85 1.44-2.23 0-3.7-1.54-3.7-3.87 0-2.72 3.68-4.33 5.9-2.58m-117.29.95c-.5.2-.72-.21-.45-.87.23-.57.27-.56.5.07.15.38.12.74-.05.8m33.43-.43c0 .6-.73.5-.94-.13-.08-.23.1-.41.4-.41.3 0 .54.24.54.54m-46.98 1a.5.5 0 01-.5.5c-.56 0-.94-.48-.63-.8.41-.4 1.13-.22 1.13.3m16.05 0c0 .17-.16.37-.37.44-.2.06-.36-.14-.36-.45s.16-.51.37-.44c.2.06.36.26.36.44m16.73 0c.04.18-.2.38-.53.45-.37.07-.59-.1-.59-.45 0-.59 1-.6 1.12 0m16.24 0c0 .28-.14.51-.32.51-.43 0-.74-.53-.46-.8.38-.38.78-.23.78.3m72.34.5c-.16.27-.36.29-.59.06a.63.63 0 01-.09-.74c.17-.26.36-.28.59-.06.19.19.23.52.1.74m-234.4 0c0 .72-.49.92-.84.34-.25-.4.07-1.02.53-1.02.17 0 .32.3.32.68m8.17 0c0 .72-.5.92-.85.34-.25-.4.07-1.02.53-1.02.17 0 .32.3.32.68m16-.19c0 .27-.14.58-.32.69-.4.25-.81-.39-.53-.84.31-.5.85-.4.85.15m8 .53c-.17.27-.36.29-.59.06a.63.63 0 01-.1-.74c.17-.26.37-.28.6-.06.18.19.22.52.09.74m28.25 0c-.16.27-.36.29-.58.06a.63.63 0 01-.1-.74c.17-.26.36-.28.6-.06.18.19.22.52.08.74m8.17 0c-.16.27-.36.29-.58.06a.63.63 0 01-.1-.74c.17-.26.36-.28.6-.06.18.19.22.52.08.74m16.18-.53c0 .27-.15.58-.32.69-.4.25-.81-.39-.54-.84.32-.5.86-.4.86.15m8 .53c-.17.27-.37.29-.6.06a.63.63 0 01-.09-.74c.17-.26.36-.28.6-.06.18.19.22.52.09.74m-90.59.26c-.6 2.7-.88 3.49-1.21 3.49-.36 0-.32-.33.42-3.15.38-1.46 1.12-1.78.8-.34m88.65 1.23c.42 1.72.37 2.69-.1 2.21-.43-.42-1.14-4.41-.77-4.29.22.08.6 1.01.87 2.08m116.23-1.5c.1-.53.17-.3.2.6.05 1.56-.43 1.95-.84.69l-.25-.77-.25.86c-.2.67-.25.53-.27-.69l-.03-1.53.64.84.64.83.16-.83m2.23.8c.18.9-.6 1.7-1.18 1.22-.5-.41-.62-1.4-.22-1.8.41-.4 1.28-.05 1.4.58m1.7.32c.06.52-.06.94-.25.94-.2 0-.38-.35-.4-.77-.03-.74-.05-.73-.3.09-.26.8-.28.78-.31-.28-.05-1.46 1.1-1.43 1.26.02m1.7-.31c.07.35-.12.57-.5.59-.58.02-.57.04.03.28.45.18.53.34.26.5-.6.37-1.09-.05-1.09-.94 0-1.3 1.07-1.66 1.3-.43m-215.76.78c0 .58-.2.8-.69.8-.39 0-.68-.22-.68-.52 0-.3-.15-.44-.34-.32-.2.12-.28.32-.2.46.09.13-.14.27-.5.3-.82.06-.84-.2-.06-.84.56-.47.56-.48-.02-.3-.34.11-.53.07-.44-.1.47-.74 2.93-.3 2.93.52m1.02-.51c0 .26.15.25.5-.04.44-.36.52-.3.56.38.03.58.08.64.2.21.08-.33.26-.6.4-.6.46 0 .68.4.49.89-.23.59-1.8.63-1.84.05-.02-.34-.06-.34-.2 0-.3.73-.8.47-.8-.43 0-.46.16-.85.35-.85.18 0 .34.18.34.39m10.15.58c.06.4-.06.74-.26.74s-.36-.14-.36-.32c0-.17-.1-.57-.23-.9-.15-.4-.08-.53.26-.42.26.09.53.49.59.9m3.77-.06c.31.69.27.8-.31.8-.39 0-.68-.23-.68-.53 0-.3-.15-.44-.34-.32-.2.12-.28.32-.2.46.09.13-.16.27-.54.3-.67.05-.67.03-.08-.63.6-.65.6-.67-.02-.43-.42.16-.55.11-.4-.14.44-.7 2.17-.37 2.56.49m69.49-.06c0 .63-.18.86-.68.86-.38 0-.68-.15-.68-.33 0-.19.2-.25.45-.16.26.1.46-.05.46-.34 0-.28-.13-.43-.29-.33-.15.1-.28.01-.28-.19s.23-.36.51-.36c.32 0 .51.33.51.85m1.36.43c0 .23-.13.43-.3.43-.36 0-.73-1.24-.45-1.52.24-.24.74.5.75 1.1m1.02-.9c0 .26.16.25.51-.04.44-.37.51-.28.5.55 0 .78-.07.88-.36.47-.27-.39-.4-.4-.53-.09-.3.72-.71.47-.71-.43 0-.46.13-.85.3-.85.16 0 .3.18.3.39m9.19.13c0 .28-.17.5-.37.5-.2 0-.25-.17-.11-.4.17-.26.06-.32-.32-.17-.31.12-.57.06-.57-.12s.31-.33.68-.33c.38 0 .69.23.69.51m2.58 0c.65.78.43 1.13-.72 1.13-1.27 0-1.7-.35-1.4-1.14.22-.56 1.64-.55 2.12.01m1.84-.12c0-.75.68-.38.7.38.02.42.11.58.2.34.25-.59.69-.53.69.09 0 .3-.32.5-.8.5-.43 0-.79-.17-.79-.38 0-.26-.16-.25-.51.05-.43.35-.51.28-.51-.52 0-.79.08-.87.51-.5.35.29.51.3.51.04m-68.42 1.34c0 .63.29.66 6.46.66 4.09 0 6.47.12 6.47.34 0 .21-2.5.34-6.8.34h-6.82v-1.21c0-.72.14-1.13.34-1 .2.11.35.5.35.87m35.4.15v1.19h-6.98c-4.43 0-6.98-.13-6.98-.34 0-.22 2.44-.34 6.64-.34 6.21 0 6.64-.04 6.64-.63 0-.56.27-1.07.57-1.07.06 0 .1.53.1 1.19m21.58-.68c-.2.54-.8.7-.8.22 0-.36.37-.73.72-.73.15 0 .19.22.08.5m149.48.5c.25.4-.39.8-.84.52-.38-.23-.13-.84.34-.84.17 0 .4.14.5.31m-189.63.31c-.51.37-.55 1.17-.08 1.47.33.2.3.28-.16.28-.33 0-.7-.21-.8-.48-.14-.37-.39-.41-1-.18-.73.28-.83.22-.83-.5 0-.74.14-.82 1.6-.82.87 0 1.44.1 1.27.23m1.94.67c.16.45.14.75-.05.75-.18 0-.35-.27-.37-.6-.04-.56-.05-.56-.2 0-.16.62-.78.84-.78.29 0-1.41.93-1.7 1.4-.44m1.47-.6c.31-.26.42-.1.42.67 0 .73-.11.92-.4.68-.22-.19-.5-.24-.63-.11-.12.12-.2-.22-.2-.77.02-.55.11-.8.2-.55.13.3.31.33.6.09m64.88.49a.5.5 0 01-.49.5c-.57 0-.95-.48-.63-.8.4-.4 1.12-.22 1.12.3m13.96 0c0 .28-.15.5-.34.5-.19 0-.34-.22-.34-.5s.15-.51.34-.51c.19 0 .34.23.34.5m18.9-.14c.32.5-.04.78-.7.53-.3-.11-.45-.36-.33-.55.28-.45.75-.44 1.04.02m14.11.15c0 .28-.14.5-.32.5-.43 0-.74-.52-.47-.8.39-.38.79-.23.79.3m-160.4 1.57c-.33.22-.34.3-.03.3.83 0 .42.62-.66 1-.87.3-1.19.27-1.58-.12-.82-.82-.25-1.47 1.31-1.47.9 0 1.26.1.97.3m1.86-.17c-.23.09-.33.36-.24.6.1.25-.07.54-.36.66-.4.15-.53-.02-.53-.64 0-.65.17-.84.77-.81.42.01.58.1.36.19m88.07.2c0 .31.07.32.25.04.14-.22.85-.4 1.58-.4.9 0 1.17.1.85.3-.4.26-.4.31 0 .31.37 0 .38.1.03.52-.55.67-.95.65-.9-.05.03-.3-.14-.63-.37-.7-.27-.1-.35.04-.22.38.11.3.04.56-.17.58-.7.08-.89.14-1.31.41-.82.52-1.6-.88-.88-1.58.38-.39 1.13-.26 1.14.2m147.1.08c0 .18-.16.38-.36.44-.2.07-.36-.13-.36-.44s.16-.51.36-.45c.2.07.37.27.37.45m6.75.19c0 .18-.23.32-.5.32-.53 0-.68-.4-.3-.78.27-.28.8.03.8.46m-154.89.15c0 .28.15.51.34.51.19 0 .34-.23.34-.51s-.15-.51-.34-.51c-.19 0-.34.23-.34.51m27.33 1.23c-.57.57-1.25.03-.74-.6.29-.34.52-.38.77-.13.24.24.23.47-.03.73m32.94.08c-.45.46-1.22-.23-.87-.79.17-.28.37-.28.73.03.34.28.39.52.14.76m-24.53-.48c0 .46-.62.78-1.02.53-.2-.12-.26-.36-.15-.53.25-.42 1.17-.41 1.17 0m32.7.2c-.02.5-.78.4-.96-.13-.1-.28.06-.41.41-.34.32.07.56.27.55.46"/></g></svg>