<svg id="svg" xmlns="http://www.w3.org/2000/svg" xmlns:xlink="http://www.w3.org/1999/xlink" width="400" height="398.54545454545456" viewBox="0, 0, 400,398.54545454545456"><g id="svgg"><path id="path0" d="M171.447 3.692 C 12.655 28.435,-53.706 220.455,56.505 336.284 C 159.984 445.037,341.491 405.138,388.970 263.202 C 435.801 123.203,316.659 -18.935,171.447 3.692 M234.909 28.396 C 369.873 56.334,422.036 221.040,327.412 320.476 C 232.800 419.899,65.845 376.443,31.050 243.337 C -1.097 120.362,110.545 2.652,234.909 28.396 M189.313 64.223 C 175.422 71.099,164.325 91.530,147.991 140.302 C 142.353 157.136,137.533 171.161,137.280 171.469 C 137.027 171.777,132.054 169.693,126.228 166.838 C 116.336 161.990,101.405 157.988,99.673 159.720 C 99.253 160.141,98.909 165.862,98.909 172.433 L 98.909 184.382 105.818 186.117 C 114.007 188.173,128.003 195.856,127.992 198.289 C 127.949 207.410,100.967 270.170,95.107 274.779 C 89.667 279.059,89.712 308.364,95.160 308.364 C 109.434 308.364,134.273 267.983,151.823 216.245 C 152.691 213.688,152.917 213.697,157.454 216.473 C 189.962 236.360,215.112 236.328,243.385 216.364 C 248.304 212.891,248.768 213.327,253.048 225.455 C 269.897 273.195,292.528 308.364,306.400 308.364 C 312.051 308.364,311.667 278.964,305.958 274.473 C 299.726 269.571,273.455 208.158,273.455 198.492 C 273.455 195.880,284.758 189.296,293.786 186.650 L 300.882 184.570 301.350 172.157 C 301.607 165.330,301.638 159.567,301.417 159.350 C 300.029 157.984,284.129 162.473,275.146 166.766 C 269.276 169.572,264.310 171.652,264.109 171.388 C 263.908 171.125,259.034 156.942,253.278 139.872 C 230.240 71.554,213.795 52.105,189.313 64.223 M205.525 92.767 C 210.034 97.749,215.959 113.050,227.897 150.545 L 239.939 188.364 235.969 191.685 C 217.817 206.874,198.490 209.565,178.799 199.644 C 158.807 189.572,159.461 195.066,173.111 151.846 C 191.159 94.704,197.243 83.615,205.525 92.767 " stroke="none" fill="#000000" fill-rule="evenodd"></path></g></svg>