<svg id="svg" xmlns="http://www.w3.org/2000/svg" xmlns:xlink="http://www.w3.org/1999/xlink" width="400" height="400" viewBox="0, 0, 400,400"><g id="svgg"><path id="path0" d="M177.734 50.680 C 174.273 52.420,174.273 57.621,177.734 59.446 C 178.591 59.897,185.446 60.123,199.316 60.155 C 199.958 60.156,200.000 61.365,200.000 80.054 L 200.000 99.952 198.340 100.150 C 197.427 100.259,194.570 100.543,191.992 100.782 C 125.862 106.909,76.077 171.197,86.267 237.305 C 88.229 250.033,94.781 270.693,97.380 272.344 C 97.639 272.509,97.705 272.647,97.525 272.650 C 96.973 272.660,101.436 280.732,104.859 285.915 C 148.654 352.230,242.906 358.514,295.521 298.626 C 298.972 294.698,307.422 283.093,307.422 282.281 C 307.422 282.168,308.355 280.528,309.495 278.636 C 312.081 274.343,314.666 268.970,316.643 263.777 L 318.164 259.781 319.806 259.773 C 323.239 259.757,324.382 258.458,325.211 253.629 C 327.903 237.956,334.580 228.502,345.436 224.995 C 351.898 222.907,351.616 216.837,344.963 214.856 C 335.044 211.902,327.689 201.417,325.363 186.914 C 324.554 181.873,323.077 180.083,319.725 180.080 C 318.166 180.078,318.157 180.069,317.227 177.637 C 315.511 173.150,312.478 166.639,310.330 162.832 C 309.160 160.759,308.203 158.901,308.203 158.705 C 308.203 158.111,311.271 156.517,314.804 155.273 C 321.737 152.834,321.964 147.203,315.221 144.904 C 304.568 141.272,298.050 132.271,295.519 117.694 C 294.498 111.818,293.294 110.156,290.057 110.156 C 287.054 110.156,285.468 111.799,284.960 115.435 C 284.601 118.003,282.907 124.798,282.210 126.468 L 281.657 127.790 278.426 125.277 C 260.149 111.061,237.825 102.330,214.910 100.433 C 212.475 100.232,210.372 99.955,210.236 99.819 C 210.100 99.683,209.975 90.703,209.958 79.864 L 209.928 60.156 211.116 60.143 C 211.770 60.135,216.172 60.134,220.898 60.140 C 225.625 60.146,230.168 59.991,230.995 59.795 C 235.052 58.836,236.233 54.270,233.180 51.345 L 231.980 50.195 205.541 50.094 C 180.964 50.000,179.005 50.041,177.734 50.680 M216.602 110.578 C 230.558 111.954,247.095 117.326,259.254 124.432 C 265.772 128.242,276.560 135.986,276.562 136.857 C 276.564 137.686,271.766 141.760,269.128 143.169 L 266.211 144.727 222.266 144.922 L 178.320 145.117 177.061 146.016 C 174.452 147.876,174.452 152.124,177.061 153.984 L 178.320 154.883 222.070 155.078 L 265.820 155.273 268.359 156.489 C 276.684 160.475,282.518 170.165,284.798 183.789 C 285.539 188.218,286.998 189.844,290.233 189.844 C 293.257 189.844,294.556 188.034,295.496 182.510 C 296.533 176.419,300.288 166.122,301.145 167.021 C 303.730 169.734,312.109 191.734,312.109 195.810 C 312.109 200.671,304.647 210.369,298.663 213.286 L 295.508 214.824 289.897 214.916 C 282.275 215.042,280.075 216.177,280.080 219.982 C 280.084 223.803,281.905 224.758,289.648 225.000 C 300.312 225.333,306.436 229.959,311.267 241.328 L 312.379 243.945 311.473 247.540 C 309.806 254.153,304.839 267.254,302.689 270.703 C 302.355 271.240,301.056 273.438,299.804 275.586 C 268.062 330.043,196.536 346.559,144.141 311.530 C 105.434 285.653,87.229 239.030,98.150 193.750 L 99.045 190.039 114.673 190.039 C 129.317 190.039,130.410 190.087,132.045 190.802 C 141.931 195.124,147.208 203.849,150.162 220.761 C 150.843 224.659,155.434 226.279,158.291 223.630 C 159.396 222.605,159.611 221.945,160.708 216.211 C 163.297 202.677,170.338 193.063,179.734 190.230 C 184.329 188.845,185.907 186.380,184.392 182.955 C 183.595 181.154,182.955 180.701,179.950 179.809 C 169.710 176.769,161.960 165.174,159.961 149.904 C 159.398 145.604,155.262 143.725,151.863 146.226 C 150.649 147.119,150.246 148.206,149.595 152.344 C 147.627 164.846,140.818 175.467,132.568 178.901 L 129.742 180.078 116.238 180.078 C 108.371 180.078,102.734 179.930,102.734 179.722 C 102.734 179.013,105.564 172.758,107.697 168.750 C 120.185 145.294,140.945 126.772,165.234 117.416 C 167.275 116.630,169.297 115.821,169.727 115.617 C 170.156 115.414,171.365 115.063,172.413 114.838 C 173.461 114.612,174.609 114.272,174.965 114.081 C 176.020 113.517,187.366 111.268,191.797 110.745 C 197.056 110.124,211.047 110.030,216.602 110.578 M93.601 119.936 C 89.166 121.262,89.038 125.529,93.257 131.442 C 96.362 135.794,102.356 134.209,102.339 129.041 C 102.329 126.271,98.119 119.922,96.291 119.922 C 96.003 119.922,95.533 119.849,95.247 119.760 C 94.961 119.672,94.220 119.750,93.601 119.936 M211.344 120.945 C 208.155 123.628,208.427 127.811,211.898 129.459 C 213.949 130.432,225.166 130.350,226.682 129.351 C 228.376 128.233,229.056 126.987,229.056 125.000 C 229.056 120.803,227.335 119.928,219.073 119.924 C 212.615 119.922,212.550 119.931,211.344 120.945 M291.258 136.426 C 293.072 140.012,295.363 143.066,298.902 146.613 L 302.343 150.062 299.212 153.007 C 296.145 155.892,292.742 160.496,290.987 164.134 L 290.104 165.963 288.464 163.086 C 285.304 157.540,281.551 153.028,278.136 150.668 L 277.170 150.000 278.136 149.334 C 281.495 147.020,285.614 142.043,288.657 136.621 C 290.181 133.908,289.992 133.922,291.258 136.426 M52.076 160.918 C 48.169 163.300,49.115 167.482,54.233 170.453 C 55.879 171.409,60.127 173.877,63.672 175.937 C 71.987 180.771,74.089 181.061,76.162 177.660 C 78.575 173.703,77.388 172.316,65.907 165.683 C 55.522 159.683,54.615 159.370,52.076 160.918 M157.535 173.531 C 159.957 177.594,162.226 180.361,165.291 182.992 L 167.547 184.929 164.673 187.577 C 161.159 190.816,158.232 194.694,156.661 198.198 C 155.292 201.248,155.226 201.240,153.323 197.779 C 150.710 193.023,147.330 188.945,143.579 186.019 L 142.430 185.123 145.026 182.781 C 148.118 179.989,151.641 175.421,153.521 171.764 C 154.435 169.985,154.984 169.278,155.192 169.615 C 155.361 169.891,156.416 171.653,157.535 173.531 M212.331 180.838 C 209.345 182.807,209.435 187.673,212.487 189.251 C 214.182 190.128,235.818 190.128,237.513 189.251 C 240.619 187.645,240.602 182.558,237.484 180.717 C 235.705 179.666,213.950 179.771,212.331 180.838 M252.460 180.830 C 249.578 182.619,249.231 186.286,251.728 188.574 L 253.114 189.844 259.858 189.830 C 267.174 189.815,267.851 189.658,269.162 187.669 C 270.405 185.782,270.181 183.475,268.586 181.733 L 267.249 180.273 260.480 180.163 C 254.294 180.063,253.603 180.120,252.460 180.830 M321.454 206.738 C 324.055 211.544,327.500 215.833,331.038 218.669 L 332.583 219.908 329.563 222.692 C 326.248 225.745,323.630 229.175,321.450 233.318 L 320.033 236.011 318.317 232.867 C 316.165 228.922,312.389 224.156,309.639 221.912 L 307.529 220.191 310.947 216.834 C 314.226 213.613,317.286 209.450,318.945 205.952 C 319.938 203.861,319.887 203.845,321.454 206.738 M32.936 215.603 C 30.207 216.842,29.268 219.955,30.844 222.540 C 32.349 225.009,32.277 225.000,50.000 225.000 C 67.723 225.000,67.651 225.009,69.156 222.540 C 70.732 219.955,69.793 216.842,67.064 215.603 C 65.547 214.914,64.323 214.861,50.000 214.861 C 35.677 214.861,34.453 214.914,32.936 215.603 M183.008 215.574 C 179.369 217.264,179.036 221.850,182.388 224.109 L 183.709 225.000 212.460 224.999 C 240.287 224.997,241.251 224.973,242.462 224.235 C 245.700 222.260,245.707 217.496,242.474 215.729 C 240.460 214.629,185.352 214.485,183.008 215.574 M263.540 215.432 C 260.878 216.347,260.626 216.813,259.416 223.064 C 257.021 235.432,251.206 244.754,243.564 248.477 L 240.839 249.805 222.861 250.000 C 203.713 250.208,203.961 250.181,202.374 252.199 C 200.807 254.190,201.683 258.136,203.983 259.448 C 204.676 259.843,209.054 260.006,223.047 260.156 L 241.211 260.352 243.359 261.415 C 251.465 265.428,257.493 275.219,259.612 287.813 C 260.508 293.139,261.816 294.922,264.826 294.922 C 267.815 294.922,269.384 293.224,270.096 289.218 C 272.905 273.413,279.309 263.697,289.020 260.507 C 293.743 258.956,294.924 257.854,294.920 255.000 C 294.917 252.365,293.383 250.814,289.715 249.737 C 280.001 246.885,272.564 236.140,270.299 221.680 C 269.437 216.181,267.248 214.157,263.540 215.432 M132.918 220.501 C 131.051 221.312,130.229 222.979,129.931 226.554 C 128.930 238.551,123.304 247.243,114.891 249.790 C 108.318 251.780,108.331 257.788,114.914 260.168 C 123.575 263.300,128.450 270.651,129.838 282.675 C 130.489 288.310,131.599 289.846,135.021 289.842 C 138.430 289.839,139.529 288.272,140.222 282.422 C 141.671 270.191,146.694 262.922,155.741 259.963 C 161.897 257.949,161.358 252.013,154.813 249.738 C 146.507 246.850,141.584 239.258,140.087 227.028 C 139.481 222.077,138.892 221.018,136.357 220.314 C 134.600 219.826,134.452 219.834,132.918 220.501 M270.436 247.954 C 271.439 249.256,273.425 251.374,274.850 252.661 L 277.441 255.000 274.609 257.672 C 271.103 260.979,268.844 263.886,266.724 267.815 C 265.535 270.019,265.001 270.692,264.763 270.286 C 264.583 269.978,263.517 268.145,262.394 266.213 C 260.911 263.662,259.281 261.627,256.445 258.786 L 252.539 254.873 254.877 252.904 C 257.667 250.554,261.797 245.217,263.617 241.611 L 264.929 239.011 266.772 242.299 C 267.785 244.107,269.434 246.652,270.436 247.954 M136.655 247.407 C 137.538 248.774,139.415 251.040,140.825 252.443 L 143.389 254.994 141.121 257.158 C 139.873 258.348,137.990 260.640,136.935 262.252 L 135.018 265.183 133.175 262.377 C 132.161 260.833,130.278 258.566,128.990 257.338 L 126.649 255.105 129.326 252.341 C 130.798 250.822,132.649 248.530,133.440 247.250 C 135.165 244.455,134.732 244.433,136.655 247.407 M172.776 250.560 C 168.776 252.342,169.510 258.603,173.856 259.773 C 175.844 260.308,184.952 260.204,186.705 259.626 C 189.924 258.565,190.896 254.263,188.508 251.654 L 187.171 250.195 180.597 250.100 C 175.591 250.027,173.726 250.137,172.776 250.560 M60.771 265.758 C 49.119 272.457,47.912 273.904,50.581 277.977 C 52.651 281.136,55.451 280.613,63.867 275.497 C 64.941 274.844,67.884 273.130,70.406 271.689 C 77.026 267.905,78.395 265.629,76.081 262.253 C 73.716 258.800,72.317 259.121,60.771 265.758 M151.714 286.439 C 149.158 288.781,149.658 292.745,152.707 294.322 C 153.759 294.866,158.655 294.921,198.030 294.829 L 242.173 294.727 243.381 293.518 C 245.671 291.228,245.278 287.399,242.592 285.812 C 241.569 285.208,237.972 285.156,197.297 285.156 L 153.114 285.156 151.714 286.439 M95.316 306.544 C 93.912 307.247,91.348 310.948,90.411 313.625 C 89.059 317.485,92.786 321.227,96.645 319.885 C 98.864 319.113,102.325 313.644,102.336 310.893 C 102.352 307.135,98.679 304.859,95.316 306.544 M182.343 310.832 C 179.711 312.464,179.354 316.253,181.619 318.518 L 182.828 319.727 200.000 319.727 L 217.172 319.727 218.381 318.518 C 220.671 316.229,220.278 312.399,217.592 310.812 C 215.907 309.817,183.951 309.834,182.343 310.832 " stroke="none" fill="#000000" fill-rule="evenodd"></path></g></svg>